<svg width="108" height="60" viewBox="0 0 108 60" fill="none" xmlns="http://www.w3.org/2000/svg">
<g clip-path="url(#clip0_1_450)">
<path d="M85.4846 3.02637H85.4846C80.6309 3.02637 76.6963 6.98885 76.6963 11.8768V18.087H78.8011L80.0196 15.7861L79.715 18.087H93.2436L94.3514 15.9953L94.0745 18.087H95.5976V13.2109C95.5977 7.58614 91.0699 3.02637 85.4846 3.02637Z" fill="#160635"/>
<path d="M81.2425 14.1883C81.2425 14.1883 83.9855 19.9963 80.3281 21.1579L83.9855 32.1102L90.203 31.7783L91.8488 28.1276L91.4831 22.6514L90.9345 19.0006C90.9345 19.0006 87.0942 19.8304 87.46 13.6904L81.2425 14.1883Z" fill="#FFB8B8"/>
<path d="M79.7796 20.9918C79.7796 20.9918 73.745 20.494 74.2936 24.4767C74.8422 28.4593 75.3908 29.289 75.3908 29.289L75.9394 35.263L72.6477 37.0884H69.539C69.539 37.0884 60.0298 39.0797 64.7844 41.237C69.539 43.3943 71.1848 39.5776 71.1848 39.5776C71.1848 39.5776 79.9625 39.5776 80.5111 38.25C81.0597 36.9225 79.7796 20.9918 79.7796 20.9918Z" fill="#FFB8B8"/>
<path d="M91.4834 19.3326C91.4834 19.3326 97.1523 17.5072 97.5181 21.4898C97.8838 25.4725 97.8838 25.8044 97.8838 25.8044L98.981 31.4465C98.981 31.4465 101.175 36.4248 101.175 37.9183C101.175 39.4118 102.821 44.0582 102.821 44.0582C102.821 44.0582 105.016 50.53 102.638 50.3641C100.261 50.1981 99.8953 43.3944 99.8953 43.3944L94.9579 34.4335L93.495 28.9573L91.4834 19.3326Z" fill="#FFB8B8"/>
<path d="M80.694 20.3281H79.2311L79.0482 27.2977C79.0482 27.2977 76.6709 30.2847 79.5968 32.9398L80.3283 37.2543L93.6777 36.7565L94.592 32.276C94.592 32.276 96.4207 28.6253 93.8606 25.3064L91.4833 18.5027H90.2032C90.2032 18.5027 93.168 28.4225 86.9116 28.6253C81.7913 28.7912 80.694 20.3281 80.694 20.3281Z" fill="#B900F4"/>
<path d="M87.2331 59.882C87.2564 57.7716 87.2768 56.5043 87.2768 56.5043C87.2768 56.5043 87.1388 57.7716 86.9046 59.882H72.5425C76.3376 49.0309 79.8178 40.113 79.9587 39.755C79.9596 39.751 79.9609 39.7472 79.9626 39.7435L80.4058 38.4039V38.403L80.5934 37.835V37.8324L80.7916 37.2371L81.0599 36.4249L92.9457 36.0933L93.2781 36.7715L94.4093 39.0794C94.5077 39.1052 94.6009 39.1451 94.6853 39.1976C96.7194 40.4067 99.2589 49.2646 101.574 59.882L87.2331 59.882Z" fill="#160635"/>
<path d="M94.2265 34.7651L79.7799 35.263C79.7799 35.263 79.1205 39.7435 79.7799 39.7435C79.9627 39.7435 94.9579 40.9051 94.7751 38.9137C94.5922 36.9224 94.2265 34.7651 94.2265 34.7651Z" fill="#160635"/>
<path d="M84.0688 16.0887C86.9066 16.0887 89.207 14.0012 89.207 11.4261C89.207 8.85097 86.9066 6.76343 84.0688 6.76343C81.2311 6.76343 78.9307 8.85097 78.9307 11.4261C78.9307 14.0012 81.2311 16.0887 84.0688 16.0887Z" fill="#FFB8B8"/>
<path d="M87.9831 5.46434C87.1007 4.43332 85.7993 3.78027 84.3464 3.78027H84.1739C80.8472 3.78027 78.1504 6.51195 78.1504 9.88166V9.88167H79.2651L79.4451 8.63824L79.709 9.88167H86.3202L86.8741 8.82971L86.7356 9.88167H88.0362C88.6431 12.6168 87.7711 15.3519 85.4202 18.087H87.6357L88.7435 15.9831L88.4665 18.087H92.6899L93.5207 13.2479C93.5207 9.62394 91.2003 6.55086 87.9831 5.46434Z" fill="#160635"/>
<path d="M89.1974 5.97398C91.0153 5.97398 92.489 4.63666 92.489 2.98699C92.489 1.33732 91.0153 0 89.1974 0C87.3795 0 85.9058 1.33732 85.9058 2.98699C85.9058 4.63666 87.3795 5.97398 89.1974 5.97398Z" fill="#160635"/>
<path d="M60.4368 30.8837C62.915 30.8837 64.9239 29.0606 64.9239 26.8118C64.9239 24.563 62.915 22.74 60.4368 22.74C57.9587 22.74 55.9497 24.563 55.9497 26.8118C55.9497 29.0606 57.9587 30.8837 60.4368 30.8837Z" fill="#B900F4"/>
<path d="M28.2738 23.628C28.2722 23.7447 28.2393 23.8592 28.1778 23.9617C28.1163 24.0642 28.0281 24.1515 27.9209 24.2159L27.8914 24.2326H14.5991L14.6526 24.0848C14.6618 24.0586 15.6348 21.4961 19.9425 21.9909C20.3488 21.8648 24.3134 20.6901 26.6867 22.0099C27.7396 22.5955 28.2738 23.1399 28.2738 23.628Z" fill="#3BEDBF"/>
<path d="M49.4999 44.4747C50.8378 44.5008 51.902 45.3806 51.902 45.3806C51.902 45.3806 50.7972 46.2181 49.4593 46.1921C48.1214 46.1661 47.0571 45.2863 47.0571 45.2863C47.0571 45.2863 48.162 44.4487 49.4999 44.4747Z" fill="#B900F4"/>
<path d="M42.7736 40.3305C43.9824 40.8516 45.3684 40.4983 45.3684 40.4983C45.3684 40.4983 44.7947 39.3 43.586 38.7789C42.3772 38.2579 40.9912 38.6112 40.9912 38.6112C40.9912 38.6112 41.5649 39.8094 42.7736 40.3305Z" fill="#B900F4"/>
<path d="M42.8966 39.8127C44.2293 39.7021 45.3957 40.4679 45.3957 40.4679C45.3957 40.4679 44.4016 41.4128 43.0689 41.5233C41.7363 41.6338 40.5698 40.8681 40.5698 40.8681C40.5698 40.8681 41.564 39.9232 42.8966 39.8127Z" fill="#160635"/>
<path d="M47.7818 40.022C47.6541 41.2308 48.4927 42.2927 48.4927 42.2927C48.4927 42.2927 49.5384 41.3948 49.6661 40.186C49.7939 38.9772 48.9552 37.9153 48.9552 37.9153C48.9552 37.9153 47.9095 38.8132 47.7818 40.022Z" fill="#160635"/>
<path d="M54.0575 47.4354C53.3586 48.4709 53.599 49.759 53.599 49.759C53.599 49.759 54.9728 49.3682 55.6718 48.3326C56.3707 47.2971 56.1303 46.009 56.1303 46.009C56.1303 46.009 54.7565 46.3999 54.0575 47.4354Z" fill="#160635"/>
<path d="M52.0299 58.6944L52.1317 58.6319C51.7727 58.1591 51.5766 57.6001 51.5685 57.0259C51.5713 56.186 52.026 55.4092 52.4656 54.6579C52.5472 54.5185 52.6286 54.3795 52.7068 54.2406C53.0353 53.6741 53.297 53.0779 53.4877 52.4616C54.1697 50.1619 53.4982 47.4486 51.6917 45.2036C50.2585 43.4227 48.1222 41.8654 45.1605 40.4426L45.103 40.5412C48.0478 41.9558 50.1705 43.5025 51.5924 45.2694C53.3772 47.4874 54.0414 50.1653 53.369 52.4327C53.1805 53.0413 52.9219 53.6303 52.5974 54.1898C52.5194 54.3282 52.4383 54.4667 52.357 54.6056C51.9104 55.3689 51.4485 56.1581 51.4456 57.0256C51.4537 57.6221 51.6571 58.203 52.0299 58.6944Z" fill="#160635"/>
<path d="M39.3227 40.5891C39.9677 40.5891 40.4905 40.1146 40.4905 39.5293C40.4905 38.944 39.9677 38.4695 39.3227 38.4695C38.6777 38.4695 38.1548 38.944 38.1548 39.5293C38.1548 40.1146 38.6777 40.5891 39.3227 40.5891Z" fill="#160635"/>
<path d="M68.7367 59.9464H4.44189L5.52681 58.7076L21.445 40.5344L22.1777 39.6977L28.7547 32.1888L36.5893 23.2441L46.6719 34.7552L68.7367 59.9464Z" fill="#160635"/>
<path d="M47.162 34.9645C46.7479 35.1875 46.3155 35.3814 45.8687 35.5445C43.5912 36.3659 41.0584 36.3886 38.7635 35.6081C36.0498 34.6733 33.7944 32.6466 30.9212 32.2736C30.0421 32.1595 29.1539 32.2095 28.2651 32.2577L36.5282 22.824L47.162 34.9645Z" fill="#D9B2EE"/>
<path d="M50.2179 22.8496C50.4368 23.464 50.2915 24.1324 50.1131 24.7575C49.9347 25.3827 49.7226 26.0222 49.8137 26.6626C50.0106 28.0465 51.504 28.9341 52.8901 29.5383C54.2763 30.1424 55.8358 30.7694 56.4467 32.05C56.7846 32.7583 56.7686 33.5574 56.9001 34.32C57.1856 35.9297 58.129 37.3827 59.5425 38.3894C58.3655 38.3641 57.3112 37.7147 56.4781 36.9599C55.6449 36.2051 54.9538 35.322 54.0573 34.6295C52.849 33.6962 51.3399 33.162 49.9214 32.5167C48.503 31.8714 47.0897 31.0419 46.3555 29.7655C45.6049 28.4606 45.6879 26.8651 46.2134 25.4725C46.6037 24.4383 47.3214 22.8335 48.2456 22.0952C48.973 21.5141 49.9427 22.077 50.2179 22.8496Z" fill="#D9B2EE"/>
<path d="M86.8769 51.7998H44.5259V59.9435H86.8769V51.7998Z" fill="white"/>
<path d="M43.1733 52.6921L47.7834 43.9348H84.6023L88.0445 52.6921H43.1733Z" fill="#160635"/>
<path d="M71.7559 44.4927H54.668V49.6243H71.7559V44.4927Z" fill="white"/>
<path d="M55.7744 40.3093L53.0698 45.441H73.3541L71.7559 40.3093H55.7744Z" fill="#160635"/>
<path d="M69.6659 53.4172H56.1738V59.9433H69.6659V53.4172Z" fill="white"/>
<path d="M53.3772 53.6404H46.1855V59.9434H53.3772V53.6404Z" fill="white"/>
<path d="M75.7202 54.0308H72.0015V59.9433H75.7202V54.0308Z" fill="#160635"/>
<path d="M81.5599 54.3655H79.7466V55.8994H81.5599V54.3655Z" fill="#B900F4"/>
<path d="M83.9876 54.3655H82.1743V55.8994H83.9876V54.3655Z" fill="#B900F4"/>
<path d="M81.5599 56.4573H79.7466V58.047H81.5599V56.4573Z" fill="#B900F4"/>
<path d="M83.9876 56.4573H82.1743V58.047H83.9876V56.4573Z" fill="#B900F4"/>
<path d="M57.6544 45.897H56.2354V47.0974H57.6544V45.897Z" fill="#160635"/>
<path d="M59.5543 45.897H58.1353V47.0974H59.5543V45.897Z" fill="#160635"/>
<path d="M57.6544 47.5339H56.2354V48.778H57.6544V47.5339Z" fill="#160635"/>
<path d="M59.5543 47.5339H58.1353V48.778H59.5543V47.5339Z" fill="#160635"/>
<path d="M68.2882 45.897H66.8691V47.0974H68.2882V45.897Z" fill="#160635"/>
<path d="M70.1881 45.897H68.769V47.0974H70.1881V45.897Z" fill="#160635"/>
<path d="M68.2882 47.5339H66.8691V48.778H68.2882V47.5339Z" fill="#160635"/>
<path d="M70.1881 47.5339H68.769V48.778H70.1881V47.5339Z" fill="#160635"/>
<path d="M63.0021 45.897H61.583V47.0974H63.0021V45.897Z" fill="#160635"/>
<path d="M64.902 45.897H63.4829V47.0974H64.902V45.897Z" fill="#160635"/>
<path d="M63.0021 47.5339H61.583V48.778H63.0021V47.5339Z" fill="#160635"/>
<path d="M64.902 47.5339H63.4829V48.778H64.902V47.5339Z" fill="#160635"/>
<path d="M73.725 54.6299H72.8315V55.3857H73.725V54.6299Z" fill="#D9B2EE"/>
<path d="M74.9213 54.6299H74.0278V55.3857H74.9213V54.6299Z" fill="#D9B2EE"/>
<path d="M73.725 55.6606H72.8315V56.444H73.725V55.6606Z" fill="#D9B2EE"/>
<path d="M74.9213 55.6606H74.0278V56.444H74.9213V55.6606Z" fill="#D9B2EE"/>
<path d="M75.2288 57.6286C75.3646 57.6286 75.4746 57.5287 75.4746 57.4055C75.4746 57.2823 75.3646 57.1824 75.2288 57.1824C75.093 57.1824 74.9829 57.2823 74.9829 57.4055C74.9829 57.5287 75.093 57.6286 75.2288 57.6286Z" fill="#D9B2EE"/>
<path d="M60.4059 38.9714H58.3774V39.4137H58.7832V40.7005H60.0002V39.4137H60.4059V38.9714Z" fill="#D9B2EE"/>
<path d="M56.2512 58.0462C55.9017 59.2184 54.7048 59.9444 54.7048 59.9444C54.7048 59.9444 54.0744 58.7699 54.4239 57.5977C54.7733 56.4254 55.9703 55.6995 55.9703 55.6995C55.9703 55.6995 56.6006 56.874 56.2512 58.0462Z" fill="#B900F4"/>
<path d="M53.0723 58.0462C53.4218 59.2184 54.6187 59.9444 54.6187 59.9444C54.6187 59.9444 55.2491 58.7699 54.8996 57.5977C54.5502 56.4254 53.3532 55.6995 53.3532 55.6995C53.3532 55.6995 52.7229 56.874 53.0723 58.0462Z" fill="#B900F4"/>
<path d="M53.5859 57.7942C54.5448 58.6413 54.6619 59.9434 54.6619 59.9434C54.6619 59.9434 53.2243 59.8722 52.2655 59.0251C51.3066 58.1781 51.1895 56.876 51.1895 56.876C51.1895 56.876 52.627 56.9472 53.5859 57.7942Z" fill="#160635"/>
<path d="M55.7381 57.7942C54.7792 58.6413 54.6621 59.9434 54.6621 59.9434C54.6621 59.9434 56.0996 59.8722 57.0585 59.0251C58.0174 58.1781 58.1345 56.876 58.1345 56.876C58.1345 56.876 56.697 56.9472 55.7381 57.7942Z" fill="#160635"/>
<path d="M107.9 59.8884H0.100098V60H107.9V59.8884Z" fill="#160635"/>
<path d="M69.7796 28.1595C69.7781 28.2762 69.7452 28.3907 69.6837 28.4932C69.6222 28.5957 69.534 28.6829 69.4268 28.7474L69.3973 28.7641H56.105L56.1585 28.6163C56.1677 28.5901 57.1407 26.0276 61.4483 26.5224C61.8546 26.3963 65.8193 25.2216 68.1925 26.5414C69.2455 27.127 69.7796 27.6714 69.7796 28.1595Z" fill="#3BEDBF"/>
<path d="M28.8626 42.3353C28.8611 42.452 28.8282 42.5665 28.7667 42.669C28.7052 42.7715 28.617 42.8587 28.5098 42.9232L28.4803 42.9399H15.188L15.2415 42.7921C15.2507 42.7659 16.2237 40.2034 20.5313 40.6982C20.9376 40.5721 24.9023 39.3974 27.2755 40.7171C28.3285 41.3028 28.8626 41.8472 28.8626 42.3353Z" fill="#3BEDBF"/>
</g>
<defs>
<clipPath id="clip0_1_450">
<rect width="107.8" height="60" fill="white" transform="translate(0.100098)"/>
</clipPath>
</defs>
</svg>
