<svg width="104" height="79" viewBox="0 0 104 79" fill="none" xmlns="http://www.w3.org/2000/svg">
<g clip-path="url(#clip0_1_509)">
<path d="M79.704 73.2874H32.881C32.5907 73.2871 32.3124 73.1827 32.1072 72.9972C31.9019 72.8116 31.7865 72.56 31.7861 72.2976V43.3943C31.7865 43.1319 31.9019 42.8803 32.1072 42.6948C32.3124 42.5092 32.5907 42.4048 32.881 42.4045H79.704C79.9943 42.4048 80.2726 42.5092 80.4778 42.6948C80.6831 42.8803 80.7985 43.1319 80.7989 43.3943V72.2976C80.7985 72.56 80.6831 72.8116 80.4778 72.9972C80.2726 73.1827 79.9943 73.2871 79.704 73.2874Z" fill="white"/>
<path d="M79.704 73.2874H32.881C32.5907 73.2871 32.3124 73.1827 32.1072 72.9972C31.9019 72.8116 31.7865 72.56 31.7861 72.2976V43.3943C31.7865 43.1319 31.9019 42.8803 32.1072 42.6948C32.3124 42.5092 32.5907 42.4048 32.881 42.4045H79.704C79.9943 42.4048 80.2726 42.5092 80.4778 42.6948C80.6831 42.8803 80.7985 43.1319 80.7989 43.3943V72.2976C80.7985 72.56 80.6831 72.8116 80.4778 72.9972C80.2726 73.1827 79.9943 73.2871 79.704 73.2874ZM32.881 42.6245C32.6552 42.6247 32.4388 42.7059 32.2791 42.8502C32.1195 42.9945 32.0297 43.1902 32.0294 43.3943V72.2976C32.0297 72.5017 32.1195 72.6974 32.2791 72.8417C32.4388 72.986 32.6552 73.0672 32.881 73.0674H79.704C79.9298 73.0672 80.1462 72.986 80.3059 72.8417C80.4655 72.6974 80.5553 72.5017 80.5556 72.2976V43.3943C80.5553 43.1902 80.4655 42.9945 80.3059 42.8502C80.1462 42.7059 79.9298 42.6247 79.704 42.6245H32.881Z" fill="#160635"/>
<path d="M61.7128 73.1134H50.8726V56.8903C50.873 56.5055 51.0423 56.1366 51.3433 55.8645C51.6443 55.5924 52.0523 55.4394 52.478 55.439H60.1073C60.533 55.4394 60.941 55.5924 61.242 55.8645C61.543 56.1366 61.7123 56.5055 61.7128 56.8903V73.1134Z" fill="#D9B2EE"/>
<path d="M77.1506 36.2434H70.96V26.8909C70.9603 26.6285 71.0757 26.3769 71.281 26.1913C71.4863 26.0058 71.7646 25.9014 72.0548 25.9011H76.0557C76.346 25.9014 76.6243 26.0058 76.8295 26.1913C77.0348 26.3769 77.1502 26.6285 77.1506 26.8909V36.2434Z" fill="white"/>
<path d="M77.1506 36.2434H70.96V26.8909C70.9603 26.6285 71.0757 26.3769 71.281 26.1913C71.4863 26.0058 71.7646 25.9014 72.0548 25.9011H76.0557C76.346 25.9014 76.6243 26.0058 76.8295 26.1913C77.0348 26.3769 77.1502 26.6285 77.1506 26.8909V36.2434ZM71.2033 36.0235H76.9073V26.8909C76.907 26.6868 76.8172 26.4911 76.6576 26.3468C76.4979 26.2025 76.2815 26.1213 76.0557 26.1211H72.0548C71.8291 26.1213 71.6126 26.2025 71.453 26.3468C71.2933 26.4911 71.2035 26.6868 71.2033 26.8909V36.0235Z" fill="#160635"/>
<path d="M42.248 40.1818C48.8317 40.1818 54.1688 35.357 54.1688 29.4053C54.1688 23.4537 48.8317 18.6289 42.248 18.6289C35.6643 18.6289 30.3271 23.4537 30.3271 29.4053C30.3271 35.357 35.6643 40.1818 42.248 40.1818Z" fill="#F2F2F2"/>
<path d="M74.2407 24.2616C73.1671 24.2311 72.2114 23.3459 72.2038 22.3749C72.1961 21.4039 73.1377 20.5065 74.2107 20.4621C76.5999 20.3634 78.556 18.0455 78.0303 15.9363C77.5045 13.8272 74.6378 12.4918 72.4326 13.3289C70.741 13.9711 69.0317 11.9478 69.4604 10.3351C69.8891 8.72248 71.5115 7.63959 73.0126 6.686C74.5137 5.73242 76.1195 4.6128 76.4819 2.98691C76.8442 1.36102 74.9894 -0.586609 73.3551 0.167058" fill="#D9B2EE"/>
<path d="M46.2942 60.1515H37.1374C36.7722 60.1511 36.422 60.0198 36.1637 59.7863C35.9054 59.5528 35.7602 59.2363 35.7598 58.9061V52.0818C35.7602 51.7516 35.9055 51.4351 36.1637 51.2016C36.422 50.9681 36.7722 50.8368 37.1374 50.8364H46.2942C46.6594 50.8368 47.0096 50.9681 47.2679 51.2016C47.5261 51.4351 47.6714 51.7516 47.6718 52.0818V58.9061C47.6714 59.2363 47.5261 59.5528 47.2679 59.7863C47.0096 60.0198 46.6594 60.1511 46.2942 60.1515Z" fill="#D9B2EE"/>
<path d="M75.6599 60.1515H66.5031C66.1379 60.1511 65.7877 60.0198 65.5294 59.7863C65.2712 59.5528 65.1259 59.2363 65.1255 58.9061V52.0818C65.1259 51.7516 65.2712 51.4351 65.5295 51.2016C65.7877 50.9681 66.1379 50.8368 66.5031 50.8364H75.6599C76.0252 50.8368 76.3753 50.9681 76.6336 51.2016C76.8919 51.4351 77.0371 51.7516 77.0376 52.0818V58.9061C77.0372 59.2363 76.8919 59.5528 76.6336 59.7863C76.3753 60.0198 76.0252 60.1511 75.6599 60.1515Z" fill="#D9B2EE"/>
<path d="M28.2905 42.9989V38.5519C28.2905 38.2103 28.3904 37.8748 28.5801 37.5793C28.7697 37.2838 29.0424 37.0389 29.3705 36.8694L56.7027 22.7474C57.042 22.5721 57.4278 22.4839 57.8184 22.4925C58.2091 22.5011 58.5898 22.606 58.9192 22.796L83.304 36.856C83.6078 37.0312 83.8578 37.2727 84.031 37.5582C84.2042 37.8438 84.295 38.1642 84.295 38.4899V42.9989C84.295 43.5129 84.0691 44.0058 83.6671 44.3692C83.2651 44.7326 82.7198 44.9368 82.1512 44.9368H30.4342C29.8657 44.9368 29.3204 44.7326 28.9184 44.3692C28.5164 44.0058 28.2905 43.5129 28.2905 42.9989Z" fill="#B900F4"/>
<path opacity="0.2" d="M82.1513 42.957H30.4342C29.8657 42.957 29.3204 42.7528 28.9184 42.3893C28.5164 42.0259 28.2905 41.533 28.2905 41.019V42.7786C28.2905 43.2926 28.5164 43.7855 28.9184 44.1489C29.3204 44.5123 29.8657 44.7165 30.4342 44.7165H82.1513C82.7198 44.7165 83.2651 44.5123 83.6671 44.1489C84.0691 43.7855 84.295 43.2926 84.295 42.7786V41.019C84.295 41.533 84.0691 42.0259 83.6671 42.3893C83.2651 42.7528 82.7198 42.957 82.1513 42.957Z" fill="#160635"/>
<path d="M86.3501 58.1746C86.3501 54.7644 89.4082 46.6721 93.1806 46.6721C96.9529 46.6721 100.011 54.7644 100.011 58.1746C100.011 59.8122 99.2914 61.3828 98.0104 62.5408C96.7295 63.6987 94.9921 64.3493 93.1806 64.3493C91.369 64.3493 89.6317 63.6987 88.3507 62.5408C87.0697 61.3828 86.3501 59.8122 86.3501 58.1746Z" fill="#F2F2F2"/>
<path d="M93.1807 73.1561C93.1485 73.1561 93.1175 73.1445 93.0947 73.1239C93.0719 73.1033 93.0591 73.0753 93.0591 73.0461V50.8744C93.0591 50.8452 93.0719 50.8172 93.0947 50.7966C93.1175 50.776 93.1485 50.7644 93.1807 50.7644C93.213 50.7644 93.2439 50.776 93.2668 50.7966C93.2896 50.8172 93.3024 50.8452 93.3024 50.8744V73.0461C93.3024 73.0753 93.2896 73.1033 93.2668 73.1239C93.2439 73.1445 93.213 73.1561 93.1807 73.1561Z" fill="#160635"/>
<path d="M93.1807 60.7067C93.1569 60.7067 93.1336 60.7004 93.1137 60.6885C93.0939 60.6767 93.0783 60.6598 93.0689 60.64C93.0595 60.6202 93.0568 60.5984 93.061 60.5772C93.0652 60.556 93.0763 60.5364 93.0927 60.5209L96.5649 57.227C96.5759 57.2165 96.5891 57.2081 96.6037 57.2023C96.6183 57.1964 96.6341 57.1932 96.65 57.1929C96.666 57.1926 96.6819 57.1951 96.6968 57.2003C96.7117 57.2055 96.7253 57.2133 96.7369 57.2232C96.7485 57.2332 96.7577 57.2451 96.7642 57.2583C96.7707 57.2715 96.7742 57.2858 96.7746 57.3002C96.775 57.3146 96.7722 57.329 96.7664 57.3425C96.7607 57.3559 96.752 57.3683 96.741 57.3787L93.2688 60.6726C93.2575 60.6834 93.2438 60.692 93.2287 60.6978C93.2135 60.7037 93.1972 60.7067 93.1807 60.7067Z" fill="#160635"/>
<path d="M93.1806 55.1531C93.1502 55.1532 93.121 55.1429 93.0986 55.1243L90.0979 52.6442C90.0861 52.6345 90.0765 52.6227 90.0697 52.6096C90.0629 52.5965 90.059 52.5823 90.0582 52.5679C90.0575 52.5534 90.0599 52.539 90.0654 52.5254C90.0708 52.5118 90.0792 52.4993 90.09 52.4886C90.1008 52.478 90.1138 52.4693 90.1283 52.4632C90.1428 52.4571 90.1585 52.4536 90.1745 52.453C90.1905 52.4524 90.2065 52.4546 90.2215 52.4596C90.2365 52.4645 90.2503 52.4721 90.2621 52.4819L93.2628 54.962C93.2809 54.977 93.2935 54.9965 93.2991 55.0181C93.3047 55.0397 93.3029 55.0623 93.2941 55.083C93.2852 55.1036 93.2696 55.1214 93.2494 55.1339C93.2291 55.1464 93.2052 55.1531 93.1806 55.1531V55.1531Z" fill="#160635"/>
<path d="M2.97949 51.3896C2.97949 46.373 7.47808 34.469 13.0274 34.469C18.5767 34.469 23.0752 46.373 23.0752 51.3896C23.0752 53.7986 22.0166 56.109 20.1323 57.8124C18.2479 59.5159 15.6922 60.4728 13.0274 60.4728C10.3625 60.4728 7.80679 59.5159 5.92245 57.8124C4.0381 56.109 2.97949 53.7986 2.97949 51.3896Z" fill="#3BEDBF"/>
<path d="M13.0274 73.3761C12.9952 73.3761 12.9642 73.3645 12.9414 73.3439C12.9186 73.3233 12.9058 73.2953 12.9058 73.2661V40.6505C12.9058 40.6213 12.9186 40.5934 12.9414 40.5727C12.9642 40.5521 12.9951 40.5405 13.0274 40.5405C13.0597 40.5405 13.0906 40.5521 13.1134 40.5727C13.1362 40.5934 13.1491 40.6213 13.1491 40.6505V73.2661C13.1491 73.2953 13.1362 73.3233 13.1134 73.3439C13.0906 73.3645 13.0597 73.3761 13.0274 73.3761Z" fill="#160635"/>
<path d="M13.0274 55.0622C13.0036 55.0622 12.9803 55.0559 12.9604 55.044C12.9406 55.0322 12.925 55.0153 12.9156 54.9955C12.9062 54.9757 12.9035 54.9539 12.9077 54.9327C12.9119 54.9115 12.9229 54.8919 12.9394 54.8764L18.0471 50.0309C18.0694 50.0098 18.1 49.9976 18.1323 49.9969C18.1645 49.9962 18.1958 50.0071 18.2191 50.0272C18.2425 50.0473 18.256 50.075 18.2568 50.1042C18.2576 50.1333 18.2455 50.1616 18.2233 50.1827L13.1155 55.0281C13.1041 55.0389 13.0905 55.0475 13.0753 55.0533C13.0602 55.0592 13.0439 55.0622 13.0274 55.0622Z" fill="#160635"/>
<path d="M13.0274 46.893C12.9971 46.893 12.9678 46.8827 12.9454 46.8642L8.53126 43.2158C8.50745 43.1961 8.49326 43.1687 8.49182 43.1396C8.49038 43.1104 8.5018 43.0819 8.52357 43.0604C8.54534 43.0389 8.57568 43.0261 8.60792 43.0248C8.64015 43.0235 8.67163 43.0338 8.69545 43.0535L13.1096 46.7019C13.1277 46.7168 13.1403 46.7364 13.1459 46.758C13.1515 46.7796 13.1498 46.8022 13.1409 46.8228C13.132 46.8435 13.1164 46.8613 13.0962 46.8738C13.0759 46.8863 13.052 46.893 13.0275 46.893H13.0274Z" fill="#160635"/>
<path d="M88.4092 73.1453C88.4207 73.1534 88.4329 73.1606 88.4445 73.1685H98.336C98.5299 72.4586 98.5983 71.7479 98.3088 71.1308C97.8963 70.2514 96.6755 69.7024 95.705 70.0801C95.475 70.172 95.2747 70.3152 95.1229 70.4964C94.7436 69.8827 94.0632 69.4199 93.2779 69.4204C92.2941 69.421 91.476 70.1484 91.2091 70.9886C90.7792 70.3326 89.9301 69.8742 89.1001 70.0714C87.712 70.4012 87.2736 72.3519 88.4092 73.1453Z" fill="#B900F4"/>
<path d="M3.43112 73.3416C3.45435 73.3578 3.47888 73.3724 3.5024 73.3883H23.4706C23.8619 71.9553 24.0001 70.5206 23.4156 69.2748C22.5829 67.4995 20.1185 66.3913 18.1592 67.1537C17.695 67.3392 17.2907 67.6284 16.9842 67.9942C16.2185 66.7552 14.8451 65.821 13.2597 65.822C11.2736 65.8233 9.62218 67.2916 9.08324 68.9877C8.21546 67.6635 6.50135 66.7381 4.8259 67.1362C2.02369 67.802 1.13857 71.7399 3.43112 73.3416Z" fill="#B900F4"/>
<path d="M103.699 73.0503L0.299805 73.2449L0.300223 73.4648L103.7 73.2703L103.699 73.0503Z" fill="#160635"/>
<path d="M35.1914 68.5921C35.2161 68.5052 35.2194 68.4144 35.2011 68.3262C35.1828 68.238 35.1433 68.1545 35.0854 68.0816C35.0275 68.0087 34.9526 67.9481 34.8661 67.9042C34.7795 67.8603 34.6833 67.834 34.5843 67.8273L30.721 63.4609L29.7651 64.2664L33.8463 68.4373C33.8448 68.5884 33.9048 68.7347 34.0147 68.8485C34.1247 68.9623 34.277 69.0357 34.4428 69.0548C34.6086 69.0739 34.7764 69.0373 34.9143 68.9521C35.0523 68.8668 35.1509 68.7387 35.1914 68.5921V68.5921Z" fill="#FFB8B8"/>
<path d="M31.4618 64.1547L30.2409 65C30.2062 65.024 30.1661 65.041 30.1234 65.0498C30.0808 65.0586 30.0365 65.0589 29.9937 65.0509C29.9508 65.0428 29.9104 65.0265 29.8752 65.003C29.84 64.9796 29.8107 64.9495 29.7895 64.915L29.0458 63.703C28.9107 63.5416 28.8519 63.3384 28.8824 63.1379C28.9128 62.9374 29.0298 62.756 29.208 62.6335C29.3861 62.5109 29.6107 62.4572 29.8325 62.4841C30.0544 62.511 30.2554 62.6163 30.3915 62.777L31.4887 63.7386C31.5201 63.7661 31.5446 63.7995 31.5604 63.8363C31.5763 63.8732 31.5832 63.9127 31.5807 63.9522C31.5781 63.9917 31.5662 64.0302 31.5457 64.0652C31.5252 64.1001 31.4966 64.1306 31.4618 64.1547H31.4618Z" fill="#160635"/>
<path d="M29.4115 61.5187C30.2689 61.5187 30.964 60.8903 30.964 60.1152C30.964 59.3401 30.2689 58.7117 29.4115 58.7117C28.554 58.7117 27.8589 59.3401 27.8589 60.1152C27.8589 60.8903 28.554 61.5187 29.4115 61.5187Z" fill="#FFB8B8"/>
<path d="M32.7258 78.321H33.5008L33.427 77.0098H32.2832L32.7258 78.321Z" fill="#FFB8B8"/>
<path d="M32.5278 78.0921L34.054 78.092H34.0541C34.1818 78.092 34.3083 78.1148 34.4263 78.159C34.5443 78.2031 34.6515 78.2679 34.7418 78.3496C34.8322 78.4312 34.9038 78.5281 34.9527 78.6348C35.0016 78.7415 35.0267 78.8558 35.0267 78.9713V78.9998L32.5279 78.9999L32.5278 78.0921Z" fill="#160635"/>
<path d="M24.4629 77.3291L25.1222 77.6973L25.8217 76.5467L25.0239 76.0955L24.4629 77.3291Z" fill="#FFB8B8"/>
<path d="M24.4277 77.0405L25.7261 77.7656L25.7262 77.7656C25.8348 77.8263 25.9292 77.9057 26.0039 77.9994C26.0786 78.0931 26.1322 78.1991 26.1616 78.3115C26.1909 78.4238 26.1955 78.5403 26.1751 78.6543C26.1547 78.7683 26.1096 78.8775 26.0425 78.9757L26.0258 79L23.8999 77.8129L24.4277 77.0405Z" fill="#160635"/>
<path d="M32.6696 77.9364C32.612 77.9364 32.5557 77.9205 32.5084 77.8909C32.461 77.8612 32.4246 77.8193 32.4043 77.7706L29.601 71.7118C29.595 71.697 29.5845 71.684 29.5709 71.6742C29.5572 71.6644 29.5408 71.6582 29.5235 71.6563C29.5061 71.6544 29.4886 71.6569 29.4727 71.6634C29.4568 71.6699 29.4432 71.6803 29.4335 71.6934L25.5823 77.1776C25.5447 77.2287 25.488 77.2658 25.4226 77.2823C25.3571 77.2987 25.2874 77.2934 25.2259 77.2673L24.699 77.0449C24.6315 77.0162 24.5791 76.9647 24.5531 76.9015C24.5271 76.8382 24.5294 76.7683 24.5597 76.7067L27.7148 70.3488C27.6459 70.1973 26.974 68.6416 28.0064 67.873L28.0136 67.8689L30.8133 66.74L30.8839 68.6814L33.6744 77.434C33.6849 77.4669 33.688 77.5014 33.6835 77.5355C33.6791 77.5695 33.6671 77.6024 33.6484 77.6322C33.6297 77.662 33.6046 77.6881 33.5745 77.709C33.5445 77.7299 33.5101 77.7452 33.4734 77.7539L32.7425 77.9278C32.7187 77.9335 32.6942 77.9364 32.6696 77.9364Z" fill="#160635"/>
<path d="M30.8556 63.9002C30.749 63.5134 30.5979 63.1235 30.3954 62.9435C30.3209 62.8779 30.251 62.8083 30.1859 62.7349C30.0496 62.5798 29.8783 62.4529 29.6833 62.3626C29.7546 62.3267 29.7964 62.2839 29.7964 62.2379C29.7964 62.1116 29.4851 62.0093 29.1011 62.0093C28.7171 62.0093 28.4058 62.1116 28.4058 62.2379C28.4067 62.2525 28.4108 62.2669 28.4179 62.2801C28.425 62.2933 28.4349 62.3051 28.4471 62.3149C28.1963 62.4073 27.9784 62.5601 27.8171 62.7568C27.6558 62.9534 27.5573 63.1863 27.5323 63.43C27.4425 64.2995 27.4163 65.411 27.731 66.114C27.995 66.6953 28.016 67.3437 27.79 67.938C27.7747 67.9794 27.7729 68.0239 27.7847 68.0662C27.7965 68.1085 27.8214 68.1469 27.8566 68.1768C27.8918 68.2066 27.9357 68.2268 27.9832 68.2348C28.0306 68.2428 28.0796 68.2383 28.1244 68.2219L30.9024 67.2099C30.9491 67.1929 30.9892 67.1636 31.0174 67.1258C31.0456 67.0881 31.0607 67.0435 31.0607 66.9979V65.4609C31.0629 64.9351 30.9941 64.4109 30.8556 63.9002Z" fill="#160635"/>
<path d="M25.5407 70.2307C25.6374 70.2104 25.728 70.1712 25.8061 70.1158C25.8843 70.0605 25.948 69.9903 25.9929 69.9102C26.0377 69.8302 26.0626 69.7422 26.0658 69.6525C26.069 69.5628 26.0504 69.4735 26.0113 69.391L28.1849 64.2094L27.0826 63.9521L25.0722 69.0804C24.9232 69.149 24.8073 69.2645 24.7463 69.4052C24.6853 69.5459 24.6835 69.7019 24.7413 69.8437C24.799 69.9855 24.9123 70.1032 25.0596 70.1745C25.207 70.2459 25.3782 70.2659 25.5407 70.2307L25.5407 70.2307Z" fill="#FFB8B8"/>
<path d="M28.1756 65.1926L26.7828 64.6032C26.7432 64.5865 26.708 64.5622 26.6797 64.532C26.6514 64.5018 26.6306 64.4665 26.6188 64.4284C26.6069 64.3904 26.6043 64.3504 26.6111 64.3114C26.6179 64.2723 26.6339 64.235 26.658 64.202L27.5045 63.0464C27.6007 62.8638 27.773 62.7232 27.9837 62.6553C28.1944 62.5873 28.4263 62.5976 28.6286 62.6839C28.8309 62.7701 28.9871 62.9253 29.0631 63.1155C29.1391 63.3057 29.1287 63.5153 29.0341 63.6986L28.5964 65.0222C28.5839 65.0601 28.5624 65.0951 28.5336 65.1248C28.5047 65.1546 28.4691 65.1783 28.4292 65.1945C28.3892 65.2107 28.3459 65.2189 28.3022 65.2186C28.2584 65.2182 28.2152 65.2094 28.1756 65.1926Z" fill="#160635"/>
<path d="M30.8377 59.7696C30.9077 59.7771 30.9787 59.7655 31.0414 59.7363C31.1559 59.6686 31.1446 59.5146 31.1059 59.3959C31.0093 59.1114 30.835 58.8536 30.5991 58.646C30.3632 58.4385 30.0733 58.2881 29.7561 58.2085C29.5351 58.1554 29.2554 58.1575 29.129 58.3298C28.8112 58.1384 28.4281 58.0563 28.0491 58.0984C27.6702 58.1405 27.3205 58.3039 27.0634 58.5591C26.8121 58.8256 26.6446 59.1482 26.5784 59.4931C26.4457 60.0807 25.8776 61.2928 26.1923 61.8207C26.4017 62.1719 27.3656 61.8982 27.7733 62.0512C27.9763 62.1311 28.198 62.1645 28.4187 62.1483C28.6395 62.1322 28.8524 62.0672 29.0386 61.9589C29.2209 61.8452 29.3579 61.6815 29.4294 61.492C29.5009 61.3025 29.5032 61.0973 29.4358 60.9066C29.3644 60.7664 29.2821 60.631 29.1895 60.5014C29.0965 60.3702 29.0586 60.2132 29.0826 60.0589C29.1397 59.8242 30.3651 59.7608 30.8377 59.7696Z" fill="#160635"/>
</g>
<defs>
<clipPath id="clip0_1_509">
<rect width="103.4" height="79" fill="white" transform="translate(0.299805)"/>
</clipPath>
</defs>
</svg>
