<svg width="138" height="121" viewBox="0 0 138 121" fill="none" xmlns="http://www.w3.org/2000/svg">
<g clip-path="url(#clip0_1_2232)">
<path d="M22.8892 42.1224C22.5663 42.1551 22.2414 42.1627 21.9174 42.1452C21.8621 42.1391 21.8067 42.1551 21.7631 42.1897C21.7195 42.2243 21.6911 42.2747 21.6841 42.3301L21.0642 47.0051C21.0165 47.3444 20.8783 47.6645 20.6643 47.9312C20.4878 48.1435 20.3567 48.39 20.2789 48.6553C20.2012 48.9207 20.1785 49.1993 20.2124 49.4739V57.4151C20.2124 57.4151 20.1724 58.4739 20.9816 58.4739C21.95 58.5963 22.9299 58.5963 23.8983 58.4739C23.8983 58.4739 24.5461 58.3506 24.5461 57.3736V49.5543C24.5956 49.2815 24.5854 49.0011 24.5163 48.7327C24.4473 48.4642 24.321 48.2141 24.1462 47.9996C23.9394 47.7318 23.8057 47.4144 23.7583 47.0788L23.1145 42.306C23.1071 42.2523 23.0798 42.2035 23.0379 42.1694C22.9961 42.1353 22.9429 42.1185 22.8892 42.1224Z" fill="white"/>
<path d="M22.437 58.6995C21.9476 58.6995 21.4586 58.6689 20.9729 58.6079C20.8644 58.6105 20.7565 58.5905 20.656 58.5491C20.5556 58.5078 20.4647 58.446 20.3891 58.3677C20.0598 58.0238 20.0782 57.4349 20.0791 57.41L20.079 49.482C20.0447 49.1905 20.0698 48.8951 20.1528 48.6136C20.2358 48.3322 20.375 48.0708 20.5619 47.8453C20.7601 47.5977 20.888 47.301 20.9321 46.9863L21.5519 42.3124C21.564 42.2225 21.6104 42.1408 21.6813 42.0848C21.7522 42.0287 21.842 42.0026 21.9318 42.0119C22.2466 42.0286 22.5621 42.021 22.8758 41.989L22.8795 41.9887C22.967 41.9823 23.0536 42.0097 23.1218 42.0652C23.19 42.1208 23.2345 42.2004 23.2464 42.2878L23.8904 47.0608C23.9346 47.373 24.0591 47.6682 24.2514 47.9173C24.4367 48.1449 24.5708 48.4101 24.6447 48.6947C24.7186 48.9793 24.7304 49.2766 24.6794 49.5662V57.3735C24.6794 58.4492 23.9306 58.6042 23.923 58.6056C23.4301 58.6681 22.9338 58.6994 22.437 58.6995ZM21.8992 42.2784C21.8794 42.2775 21.8599 42.284 21.8446 42.2966C21.8292 42.3093 21.8191 42.3273 21.8163 42.347L21.1963 47.0228C21.1453 47.3865 20.9973 47.7295 20.768 48.0154C20.6031 48.2139 20.4805 48.4443 20.4077 48.6923C20.3349 48.9403 20.3134 49.2007 20.3446 49.4574L20.3456 49.4738V57.4151C20.3454 57.425 20.3312 57.9215 20.5818 58.1824C20.6337 58.2355 20.6961 58.2769 20.7649 58.3041C20.8338 58.3312 20.9076 58.3434 20.9815 58.3399L20.9981 58.341C21.9555 58.4618 22.9242 58.4618 23.8816 58.341C23.8942 58.3378 24.4128 58.2189 24.4128 57.3735L24.4149 49.5303C24.4611 49.2766 24.4517 49.0158 24.3875 48.7662C24.3233 48.5165 24.2057 48.2839 24.043 48.0845C23.821 47.7976 23.6773 47.4574 23.6263 47.0976L22.9823 42.324C22.9795 42.3044 22.9695 42.2866 22.9543 42.274C22.9391 42.2614 22.9198 42.255 22.9001 42.256C22.5712 42.2891 22.2402 42.2968 21.9102 42.279C21.9065 42.2786 21.9028 42.2784 21.8992 42.2784H21.8992Z" fill="#160635"/>
<path d="M21.9106 49.616H22.8931C23.2838 49.616 23.6584 49.772 23.9347 50.0497C24.2109 50.3275 24.3661 50.7042 24.3661 51.097V54.8136C24.3661 55.2064 24.2109 55.5831 23.9347 55.8609C23.6584 56.1386 23.2838 56.2946 22.8931 56.2946H21.9106C21.52 56.2946 21.1453 56.1386 20.8691 55.8609C20.5928 55.5831 20.4376 55.2064 20.4376 54.8136V51.097C20.4376 50.9025 20.4757 50.7099 20.5497 50.5302C20.6238 50.3505 20.7323 50.1873 20.8691 50.0498C21.0058 49.9122 21.1682 49.8031 21.3469 49.7287C21.5257 49.6543 21.7172 49.616 21.9106 49.616Z" fill="#B900F4"/>
<path d="M3.84859 117.878H7.05164L8.57546 105.457L3.84802 105.457L3.84859 117.878Z" fill="#9F616A"/>
<path d="M3.03149 116.827L9.33946 116.827H9.33971C10.4058 116.827 11.4283 117.253 12.1821 118.011C12.936 118.768 13.3596 119.796 13.3596 120.868V121L3.03168 121L3.03149 116.827Z" fill="#160635"/>
<path d="M1.83489 73.511C1.83489 73.511 0.446715 75.0887 2.74532 81.2387L2.34045 114.961L9.78952 114.814L11.4269 98.3652L14.4081 74.361L1.83489 73.511Z" fill="#160635"/>
<path d="M16.9629 78.1732L16.8814 78.1607C7.35193 76.6994 0.160857 75.2986 0.0893309 75.2846L0 75.2672L2.49807 69.1583C2.47833 68.5199 1.93759 50.5944 2.97275 45.4443C3.97485 40.4586 8.6984 39.6416 9.23667 39.5647L9.77716 37.7642L16.6055 41.3366L17.7964 45.4575L18.0383 56.752L16.9629 78.1732Z" fill="#160635"/>
<path d="M21.0755 54.9265C20.768 54.9264 20.4638 54.9904 20.1821 55.1142C19.9004 55.2381 19.6472 55.4193 19.4385 55.6463H7.96126L3.7572 56.5461L4.44744 61.8987L19.4024 58.665C19.6501 58.9462 19.9638 59.1605 20.3149 59.2884C20.6661 59.4163 21.0435 59.4537 21.4127 59.3972C21.782 59.3407 22.1313 59.1922 22.4287 58.9651C22.7262 58.738 22.9623 58.4396 23.1156 58.0971C23.2688 57.7547 23.3343 57.3791 23.3061 57.0046C23.2778 56.6302 23.1567 56.2688 22.9539 55.9535C22.751 55.6382 22.4728 55.3791 22.1447 55.1997C21.8166 55.0203 21.449 54.9264 21.0755 54.9265H21.0755Z" fill="#9F616A"/>
<path d="M21.1751 35.7407C22.6404 33.0456 21.6553 29.6665 18.9748 28.1932C16.2942 26.7199 12.9333 27.7104 11.468 30.4055C10.0027 33.1006 10.9878 36.4797 13.6684 37.953C16.3489 39.4263 19.7098 38.4358 21.1751 35.7407Z" fill="#9F616A"/>
<path d="M11.1192 28.6271L10.851 28.0844L12.2003 27.4104C12.2003 27.4104 13.6888 24.9753 16.3823 25.6596C19.0758 26.3439 20.2877 26.7535 20.2877 26.7535L21.6336 27.4344L20.9581 28.1101L22.1699 28.5197L21.3603 28.9241L22.3023 29.4685L21.7952 32.2591C21.7952 32.2591 20.953 30.1425 19.3338 30.9513C17.7147 31.7602 14.753 30.5332 14.753 30.5332L12.1799 35.5399C12.1799 35.5399 11.6491 33.7848 10.7027 34.2528C10.7026 34.2528 8.28477 30.3813 11.1192 28.6271Z" fill="#160635"/>
<path d="M4.52088 62.9022L3.20835 58.9768L2.89087 45.8917L3.45011 44.0352C3.6514 43.367 3.98479 42.7465 4.4303 42.211C4.87582 41.6754 5.42428 41.2358 6.04282 40.9185C6.66136 40.6012 7.33726 40.4127 8.02999 40.3643C8.72273 40.3159 9.41806 40.4086 10.0743 40.6369C10.7305 40.8652 11.3342 41.2243 11.8491 41.6928C12.364 42.1612 12.7795 42.7294 13.0708 43.3632C13.362 43.997 13.523 44.6834 13.5441 45.3812C13.5652 46.0791 13.4459 46.774 13.1935 47.4244L10.196 55.1472L10.3484 55.4446L16.8424 55.3917L19.1492 59.5665L4.52088 62.9022Z" fill="#160635"/>
<path d="M69.4948 61.2893C69.7371 61.1252 69.9407 60.9097 70.0913 60.6579C70.2418 60.4061 70.3356 60.1241 70.366 59.832C70.3965 59.5398 70.3628 59.2444 70.2675 58.9667C70.1721 58.689 70.0174 58.4357 69.8141 58.2247L73.0151 51.8496L69.3487 52.2772L66.871 58.2655C66.541 58.6323 66.3563 59.1081 66.3519 59.6027C66.3475 60.0973 66.5237 60.5764 66.8471 60.9491C67.1705 61.3218 67.6186 61.5623 68.1066 61.6251C68.5946 61.6878 69.0885 61.5683 69.4948 61.2893Z" fill="#FFB7B7"/>
<path d="M95.1666 106.447L92.2817 106.447L90.9093 95.2588L95.167 95.2592L95.1666 106.447Z" fill="#FFB7B7"/>
<path d="M95.9022 109.258L86.6003 109.258V109.14C86.6004 108.174 86.9819 107.248 87.6609 106.566C88.3398 105.883 89.2607 105.5 90.2209 105.5H90.2211L95.9024 105.5L95.9022 109.258Z" fill="#160635"/>
<path d="M79.401 106.447L76.5161 106.447L75.1437 95.2588L79.4015 95.2592L79.401 106.447Z" fill="#FFB7B7"/>
<path d="M79.4307 109.258L70.1288 109.258V109.14C70.1289 108.174 70.5103 107.248 71.1893 106.566C71.8683 105.883 72.7891 105.5 73.7493 105.5H73.7496L79.4308 105.5L79.4307 109.258Z" fill="#160635"/>
<path d="M79.1645 59.1956L76.3408 65.736L74.0116 103.329L79.8942 103.093L81.5009 85.1719L86.4572 69.2104L89.3065 87.005L90.4832 102.62L95.3508 102.832L97.2905 59.1956H79.1645Z" fill="#160635"/>
<path d="M93.2794 26.9214L85.0954 27.1272L80.2905 29.6072L80.0268 47.9041L77.0302 60.5366C77.0302 60.5366 95.7538 61.8323 98.3422 59.9396L95.2832 45.5079L99.386 29.9113L93.2794 26.9214Z" fill="#B900F4"/>
<path d="M81.5542 29.9106L80.7924 29.3933C80.7924 29.3933 77.6361 30.3445 76.7032 34.576C76.7032 34.576 75.9893 36.699 75.676 38.1586C75.3168 39.8328 67.3833 55.2108 67.3833 55.2108L72.1332 56.5809L80.8414 42.4216L81.5542 29.9106Z" fill="#B900F4"/>
<path d="M99.2577 63.6354C99.0698 63.4105 98.9332 63.1468 98.8575 62.8631C98.7819 62.5793 98.7691 62.2823 98.8199 61.993C98.8708 61.7037 98.9842 61.4291 99.152 61.1886C99.3198 60.9481 99.538 60.7476 99.7913 60.6011L98.4629 53.5857L101.87 55.0132L102.609 61.4563C102.826 61.9004 102.873 62.4089 102.741 62.8856C102.61 63.3623 102.309 63.7739 101.896 64.0425C101.483 64.3111 100.986 64.418 100.5 64.343C100.014 64.268 99.5717 64.0162 99.2577 63.6354Z" fill="#FFB7B7"/>
<path d="M98.1546 30.13L99.0287 29.844C99.0287 29.844 101.802 31.6334 101.538 35.9595C101.538 35.9595 101.642 38.1981 101.543 39.688C101.429 41.3969 102.955 58.3782 102.955 58.3782H98.013L95.8953 43.0002L98.1546 30.13Z" fill="#B900F4"/>
<path d="M95.2883 19.2451C95.2883 20.3733 94.9556 21.4761 94.3322 22.4141C93.7088 23.3521 92.8228 24.0832 91.7861 24.515C90.7495 24.9467 89.6088 25.0597 88.5082 24.8396C87.4077 24.6195 86.3969 24.0762 85.6034 23.2785C84.81 22.4808 84.2697 21.4644 84.0508 20.3579C83.8319 19.2514 83.9442 18.1045 84.3736 17.0623C84.803 16.02 85.5302 15.1291 86.4631 14.5023C87.3961 13.8756 88.493 13.541 89.615 13.541C91.1159 13.5373 92.5568 14.1331 93.6208 15.1975C94.6847 16.2619 95.2846 17.7076 95.2883 19.2167C95.2883 19.2262 95.2883 19.2356 95.2883 19.2451Z" fill="#FFB7B7"/>
<path d="M83.9606 11.5837C84.6252 10.1468 85.9113 10.4309 87.0361 10.9179C88.4605 10.6003 89.8152 9.64922 91.3499 10.2117C92.8616 12.4223 97.9372 11.7719 96.8574 15.3709C96.856 16.2333 98.4714 15.7314 98.1894 17.1438C99.0451 19.8619 95.1005 25.0097 92.836 23.9257C93.3961 22.8937 94.6754 20.5497 92.735 20.3172C88.5609 24.2222 92.3043 12.8813 87.0596 16.1794C85.3231 17.7772 82.9457 13.1819 83.9606 11.5837Z" fill="#160635"/>
<path d="M100.251 64.2042C100.521 64.2588 100.8 64.2532 101.068 64.1878C101.336 64.1223 101.586 63.9986 101.801 63.8254C102.016 63.6522 102.191 63.4336 102.313 63.1851C102.435 62.9367 102.501 62.6643 102.507 62.3873L116.752 48.9066L113.547 46.3359L100.528 60.4294C100.065 60.45 99.625 60.641 99.292 60.966C98.9591 61.291 98.7563 61.7275 98.7221 62.1928C98.6879 62.6581 98.8246 63.1199 99.1064 63.4906C99.3881 63.8613 99.7954 64.1152 100.251 64.2042Z" fill="#9F616A"/>
<path d="M114.734 51.0858L111.963 47.8203C111.884 47.7274 111.826 47.6185 111.792 47.501C111.759 47.3835 111.752 47.2602 111.77 47.1395C111.789 47.0188 111.833 46.9035 111.899 46.8014C111.966 46.6994 112.054 46.613 112.157 46.5482L115.765 44.2773C116.24 43.8743 116.855 43.6772 117.474 43.7291C118.094 43.7811 118.667 44.0779 119.069 44.5545C119.471 45.0311 119.669 45.6486 119.619 46.2715C119.569 46.8945 119.275 47.472 118.802 47.8775L116.014 51.0929C115.934 51.1849 115.835 51.2585 115.725 51.3088C115.614 51.359 115.494 51.3847 115.372 51.384C115.251 51.3834 115.131 51.3564 115.021 51.3049C114.911 51.2534 114.813 51.1787 114.734 51.0858V51.0858Z" fill="#CBCBCB"/>
<path d="M107.282 117.605L103.799 117.605L102.142 104.098L107.282 104.099L107.282 117.605Z" fill="#9F616A"/>
<path d="M108.17 121L96.9393 121V120.857C96.9394 119.691 97.4 118.573 98.2197 117.749C99.0394 116.925 100.151 116.462 101.31 116.462H101.311L108.17 116.462L108.17 121Z" fill="#160635"/>
<path d="M135.122 117.605L131.64 117.605L129.983 104.098L135.123 104.099L135.122 117.605Z" fill="#9F616A"/>
<path d="M136.011 121L124.78 121V120.857C124.78 119.691 125.241 118.573 126.061 117.749C126.88 116.925 127.992 116.462 129.151 116.462H129.152L136.011 116.462L136.011 121Z" fill="#160635"/>
<path d="M125.754 58.2457L129.265 45.2043L124.71 42.6304H118.353L115.88 45.2901C115.88 45.2901 111.749 48.18 112.749 51.3818L114.362 58.6747L111.895 70.2575L99.4651 87.5889L96.5227 104.613L108.105 107.666L120.63 82.87L126.703 110.326L138 109.754L134.107 76.4644C134.107 76.4644 132.997 66.3231 127.181 59.991L125.754 58.2457Z" fill="#160635"/>
<path d="M133.004 69.7845C133.2 69.5894 133.351 69.3536 133.446 69.0936C133.542 68.8336 133.579 68.5557 133.556 68.2796C133.533 68.0034 133.45 67.7357 133.313 67.4953C133.176 67.2548 132.988 67.0476 132.763 66.888L130.039 48.4111L126.129 49.6524L130.043 67.4476C129.801 67.846 129.713 68.3197 129.796 68.7788C129.879 69.2379 130.126 69.6506 130.491 69.9386C130.856 70.2267 131.314 70.3701 131.777 70.3417C132.24 70.3133 132.677 70.115 133.004 69.7845Z" fill="#9F616A"/>
<path d="M130.712 51.311L126.471 51.8027C126.35 51.8167 126.228 51.8044 126.112 51.7666C125.997 51.7288 125.89 51.6664 125.801 51.5837C125.712 51.501 125.641 51.3998 125.594 51.2872C125.547 51.1746 125.525 51.0531 125.529 50.931L125.666 46.6535C125.598 46.0324 125.779 45.4096 126.167 44.9217C126.555 44.4338 127.12 44.1207 127.738 44.0509C128.355 43.9811 128.975 44.1605 129.462 44.5495C129.948 44.9386 130.261 45.5057 130.332 46.1265L131.432 50.2467C131.463 50.3647 131.469 50.4881 131.449 50.6085C131.428 50.7289 131.382 50.8436 131.314 50.9446C131.246 51.0456 131.157 51.1306 131.053 51.1938C130.949 51.2571 130.833 51.2971 130.712 51.311V51.311Z" fill="#CBCBCB"/>
<path d="M114.422 38.9215V33.4266C114.422 31.4738 115.194 29.6009 116.567 28.2201C117.94 26.8392 119.803 26.0635 121.746 26.0635C123.688 26.0635 125.551 26.8392 126.924 28.2201C128.297 29.6009 129.069 31.4738 129.069 33.4266V38.9215C129.069 39.1837 128.965 39.4351 128.78 39.6206C128.596 39.806 128.346 39.9103 128.085 39.9106H115.406C115.145 39.9103 114.895 39.806 114.711 39.6206C114.526 39.4351 114.422 39.1837 114.422 38.9215Z" fill="#160635"/>
<path d="M122.816 39.1211C125.418 37.691 126.374 34.411 124.952 31.7949C123.53 29.1788 120.267 28.2173 117.665 29.6474C115.063 31.0775 114.107 34.3576 115.529 36.9737C116.952 39.5898 120.214 40.5512 122.816 39.1211Z" fill="#9F616A"/>
<path d="M112.69 33.8663C112.691 32.3221 113.302 30.8416 114.388 29.7497C115.474 28.6577 116.947 28.0435 118.483 28.0417H119.576C121.112 28.0435 122.584 28.6577 123.67 29.7497C124.756 30.8416 125.367 32.3221 125.369 33.8663V33.9762H123.059L122.271 31.7581L122.113 33.9762H120.92L120.522 32.8571L120.443 33.9762H112.69V33.8663Z" fill="#160635"/>
<path d="M119.712 40.5286C119.604 40.3809 119.539 40.2055 119.525 40.0224C119.512 39.8394 119.55 39.6562 119.635 39.494C120.794 37.2788 122.415 33.1858 120.263 30.6616L120.108 30.4802H126.357V39.9138L120.68 40.9209C120.623 40.9311 120.565 40.9363 120.506 40.9364C120.351 40.9364 120.198 40.8994 120.06 40.8285C119.922 40.7576 119.803 40.6548 119.712 40.5286Z" fill="#160635"/>
<path d="M62.2714 45.5519C62.1922 45.6338 62.1195 45.7219 62.0541 45.8153L51.8715 45.5648L50.6836 43.3823L47.1733 44.7543L48.9028 48.8234C49.0426 49.1521 49.2846 49.4264 49.5925 49.6051C49.9005 49.7838 50.2578 49.8572 50.6108 49.8143L62.1152 48.417C62.3866 48.7624 62.7561 49.0166 63.1747 49.1457C63.5932 49.2748 64.0409 49.2727 64.4583 49.1398C64.8756 49.0068 65.2428 48.7492 65.511 48.4013C65.7792 48.0534 65.9357 47.6316 65.9597 47.1921C65.9837 46.7526 65.874 46.3161 65.6452 45.9408C65.4165 45.5655 65.0795 45.2691 64.6791 45.091C64.2787 44.913 63.8339 44.8617 63.4038 44.944C62.9737 45.0263 62.5788 45.2384 62.2714 45.5519H62.2714Z" fill="#FFB7B7"/>
<path d="M29.0777 107.727H32.4258L34.0186 94.7429L29.0771 94.7431L29.0777 107.727Z" fill="#FFB7B7"/>
<path d="M28.2238 106.628L34.8174 106.628H34.8176C35.932 106.628 37.0008 107.073 37.7888 107.865C38.5768 108.658 39.0195 109.732 39.0196 110.853V110.99L28.224 110.99L28.2238 106.628Z" fill="#160635"/>
<path d="M59.4797 107.652L62.5586 106.33L58.9502 93.7603L54.4062 95.7122L59.4797 107.652Z" fill="#FFB7B7"/>
<path d="M58.2649 106.979L64.3284 104.375L64.3286 104.374C65.3534 103.934 66.5102 103.922 67.5444 104.339C68.5786 104.756 69.4056 105.57 69.8434 106.6L69.897 106.726L59.9694 110.99L58.2649 106.979Z" fill="#160635"/>
<path d="M45.3518 48.3646L45.5938 52.3092L38.517 53.0707L31.1118 53.8675L33.2913 47.8777L45.3518 48.3646Z" fill="#FFB7B7"/>
<path d="M45.6004 49.7799C45.5201 49.7483 37.5267 46.6221 32.6169 49.1783L32.4961 49.2412L31.5166 44.3939L30.9585 33.9722L34.5903 32.2469L35.5902 29.9948L42.4011 29.5896L43.8008 31.5195L48.566 33.0897L45.718 49.8267L45.6004 49.7799Z" fill="#FF7A7A"/>
<path d="M45.8507 40.373L46.6931 33.7176L48.6114 33.1306L48.6437 33.1426C48.688 33.1589 49.7305 33.5601 50.0159 35.0113C50.2898 36.4041 52.3528 45.0718 52.3736 45.1592L52.3942 45.246L47.5472 47.1958L45.8507 40.373Z" fill="#FF7A7A"/>
<path d="M56.986 105.37L63.4382 104.04L53.1257 75.4295L49.5963 65.6709C49.5963 65.6709 47.3578 57.8466 46.3464 54.8186L45.736 50.7559L31.2876 52.3638C31.2876 52.3638 27.2521 58.3224 28.4781 68.0345L27.9236 104.539L34.3758 104.871L39.7802 68.0551L49.2654 88.2376C49.2654 88.2376 52.2551 96.8501 54.3941 98.7169L56.986 105.37Z" fill="#160635"/>
<path d="M37.0817 53.7187C36.9681 53.716 36.8544 53.7223 36.7418 53.7375L30.0013 46.0598L30.7853 43.7001L27.398 42.0449L25.6062 46.0867C25.4614 46.4132 25.4259 46.7781 25.505 47.1266C25.5841 47.4752 25.7735 47.7885 26.0448 48.0196L34.8858 55.5515C34.8184 55.9864 34.8843 56.4317 35.0747 56.8281C35.2651 57.2244 35.571 57.5531 35.9518 57.7704C36.3325 57.9877 36.77 58.0833 37.2061 58.0445C37.6422 58.0057 38.0562 57.8343 38.3931 57.5531C38.7299 57.272 38.9737 56.8944 39.0919 56.4705C39.2101 56.0467 39.1971 55.5967 39.0548 55.1805C38.9124 54.7642 38.6474 54.4014 38.2949 54.1403C37.9425 53.8791 37.5193 53.7321 37.0817 53.7187Z" fill="#FFB7B7"/>
<path d="M26.7878 43.1823L29.423 35.6357C29.7191 34.746 30.0902 34.2056 30.526 34.0292C30.6119 33.9904 30.7048 33.9699 30.7989 33.969C30.893 33.9681 30.9863 33.9869 31.0729 34.0241L32.2545 35.525L33.3511 40.157L30.5394 46.8069L26.7878 43.1823Z" fill="#FF7A7A"/>
<path d="M44.23 28.0278H32.6617C32.4237 28.0275 32.1956 27.9324 32.0273 27.7632C31.8591 27.594 31.7644 27.3646 31.7642 27.1254V22.112C31.7642 20.3303 32.4681 18.6215 33.7212 17.3617C34.9742 16.1018 36.6737 15.394 38.4458 15.394C40.2179 15.394 41.9174 16.1018 43.1705 17.3617C44.4235 18.6215 45.1275 20.3303 45.1275 22.112V27.1254C45.1272 27.3646 45.0326 27.594 44.8643 27.7632C44.6961 27.9324 44.4679 28.0275 44.23 28.0278Z" fill="#160635"/>
<path d="M39.8188 27.9113C42.5243 27.9113 44.7176 25.7061 44.7176 22.9859C44.7176 20.2657 42.5243 18.0605 39.8188 18.0605C37.1133 18.0605 34.92 20.2657 34.92 22.9859C34.92 25.7061 37.1133 27.9113 39.8188 27.9113Z" fill="#FFB7B7"/>
<path d="M46.7083 22.6134H39.6346L39.562 21.5924L39.1993 22.6134H38.1101L37.9664 20.5897L37.2476 22.6134H35.14V22.5132C35.1416 21.1042 35.6989 19.7535 36.6898 18.7572C37.6807 17.761 39.0242 17.2006 40.4255 17.199H41.4228C42.8241 17.2006 44.1676 17.761 45.1584 18.7572C46.1493 19.7535 46.7067 21.1042 46.7083 22.5132L46.7083 22.6134Z" fill="#160635"/>
<path d="M39.5767 28.9638C39.5234 28.9637 39.4703 28.959 39.4178 28.9497L34.2382 28.0308V19.4238H39.94L39.7988 19.5893C37.8348 21.8923 39.3145 25.6267 40.3713 27.6478C40.4492 27.7958 40.4839 27.9629 40.4715 28.1299C40.4591 28.2969 40.4 28.457 40.301 28.5917C40.2182 28.7069 40.1093 28.8007 39.9834 28.8654C39.8575 28.93 39.7181 28.9638 39.5767 28.9638Z" fill="#160635"/>
<path d="M101.623 49.6522C101.3 49.6849 100.976 49.6925 100.651 49.6749C100.596 49.6689 100.541 49.6849 100.497 49.7195C100.454 49.7541 100.425 49.8045 100.418 49.8599L99.7983 54.5349C99.7507 54.8742 99.6125 55.1942 99.3984 55.461C99.222 55.6733 99.0908 55.9197 99.0131 56.1851C98.9353 56.4505 98.9127 56.7291 98.9465 57.0037V64.9449C98.9465 64.9449 98.9065 66.0037 99.7157 66.0037C100.684 66.1261 101.664 66.1261 102.632 66.0037C102.632 66.0037 103.28 65.8804 103.28 64.9033V57.0841C103.33 56.8113 103.32 56.5309 103.25 56.2625C103.181 55.994 103.055 55.7439 102.88 55.5293C102.674 55.2616 102.54 54.9442 102.492 54.6086L101.849 49.8358C101.841 49.7821 101.814 49.7333 101.772 49.6992C101.73 49.6651 101.677 49.6483 101.623 49.6522Z" fill="white"/>
<path d="M101.171 66.2293C100.682 66.2293 100.193 66.1987 99.707 66.1377C99.5985 66.1403 99.4906 66.1203 99.3902 66.0789C99.2897 66.0376 99.1989 65.9758 99.1233 65.8975C98.794 65.5536 98.8123 64.9647 98.8132 64.9398L98.8131 57.0118C98.7788 56.7203 98.8039 56.4248 98.8869 56.1434C98.9699 55.862 99.1092 55.6006 99.2961 55.3751C99.4942 55.1275 99.6221 54.8307 99.6663 54.5161L100.286 49.8422C100.298 49.7523 100.345 49.6706 100.415 49.6145C100.486 49.5585 100.576 49.5323 100.666 49.5417C100.981 49.5584 101.296 49.5508 101.61 49.5188L101.614 49.5185C101.701 49.5121 101.788 49.5395 101.856 49.595C101.924 49.6506 101.969 49.7302 101.981 49.8176L102.624 54.5906C102.669 54.9028 102.793 55.198 102.986 55.4471C103.171 55.6747 103.305 55.9399 103.379 56.2245C103.453 56.5091 103.465 56.8064 103.414 57.096V64.9033C103.414 65.9789 102.665 66.134 102.657 66.1354C102.164 66.1979 101.668 66.2292 101.171 66.2293ZM100.633 49.8082C100.613 49.8073 100.594 49.8137 100.579 49.8264C100.563 49.8391 100.553 49.8571 100.55 49.8768L99.9304 54.5526C99.8794 54.9162 99.7314 55.2593 99.5021 55.5451C99.3373 55.7437 99.2147 55.974 99.1419 56.2221C99.0691 56.4701 99.0476 56.7305 99.0787 56.9871L99.0798 57.0036V64.9449C99.0795 64.9547 99.0653 65.4513 99.3159 65.7122C99.3678 65.7652 99.4302 65.8067 99.4991 65.8338C99.5679 65.861 99.6417 65.8732 99.7156 65.8697L99.7323 65.8708C100.69 65.9916 101.658 65.9916 102.616 65.8708C102.628 65.8676 103.147 65.7487 103.147 64.9033L103.149 57.06C103.195 56.8064 103.186 56.5456 103.122 56.2959C103.057 56.0463 102.94 55.8136 102.777 55.6143C102.555 55.3274 102.411 54.9872 102.36 54.6274L101.716 49.8538C101.714 49.8342 101.704 49.8164 101.688 49.8038C101.673 49.7912 101.654 49.7848 101.634 49.7858C101.305 49.8188 100.974 49.8266 100.644 49.8088C100.641 49.8084 100.637 49.8082 100.633 49.8082Z" fill="#160635"/>
<path d="M100.645 57.1458H101.627C102.018 57.1458 102.393 57.3018 102.669 57.5795C102.945 57.8573 103.1 58.234 103.1 58.6268V62.3434C103.1 62.7362 102.945 63.1129 102.669 63.3906C102.393 63.6684 102.018 63.8244 101.627 63.8244H100.645C100.254 63.8244 99.8794 63.6684 99.6032 63.3906C99.3269 63.1129 99.1718 62.7362 99.1718 62.3434V58.6268C99.1718 58.234 99.3269 57.8573 99.6032 57.5795C99.8794 57.3018 100.254 57.1458 100.645 57.1458Z" fill="#B900F4"/>
<path d="M68.2837 43.2132C67.9608 43.2459 67.6359 43.2535 67.3119 43.236C67.2567 43.2299 67.2013 43.2459 67.1576 43.2805C67.114 43.3151 67.0856 43.3655 67.0786 43.4209L66.4587 48.0959C66.4111 48.4352 66.2729 48.7553 66.0588 49.022C65.8824 49.2343 65.7512 49.4808 65.6735 49.7462C65.5957 50.0115 65.5731 50.2902 65.6069 50.5647V58.5059C65.6069 58.5059 65.5669 59.5648 66.3761 59.5648C67.3445 59.6871 68.3244 59.6871 69.2928 59.5648C69.2928 59.5648 69.9407 59.4415 69.9407 58.4644V50.6451C69.9901 50.3723 69.9799 50.092 69.9109 49.8235C69.8418 49.555 69.7155 49.3049 69.5408 49.0904C69.3339 48.8227 69.2002 48.5053 69.1529 48.1696L68.509 43.3968C68.5017 43.3432 68.4743 43.2943 68.4325 43.2602C68.3906 43.2261 68.3374 43.2093 68.2837 43.2132Z" fill="white"/>
<path d="M67.8317 59.7903C67.3422 59.7903 66.8532 59.7598 66.3676 59.6987C66.259 59.7013 66.1512 59.6813 66.0507 59.64C65.9502 59.5986 65.8594 59.5368 65.7838 59.4585C65.4545 59.1147 65.4728 58.5257 65.4738 58.5008L65.4737 50.5729C65.4393 50.2814 65.4644 49.9859 65.5474 49.7045C65.6305 49.4231 65.7697 49.1616 65.9566 48.9361C66.1547 48.6886 66.2826 48.3918 66.3268 48.0771L66.9465 43.4032C66.9586 43.3133 67.005 43.2317 67.0759 43.1756C67.1469 43.1195 67.2367 43.0934 67.3264 43.1028C67.6412 43.1195 67.9568 43.1118 68.2704 43.0798L68.2741 43.0795C68.3617 43.0731 68.4483 43.1005 68.5165 43.1561C68.5846 43.2116 68.6292 43.2912 68.6411 43.3786L69.285 48.1516C69.3293 48.4638 69.4537 48.759 69.6461 49.0081C69.8313 49.2357 69.9655 49.5009 70.0394 49.7855C70.1132 50.0701 70.1251 50.3674 70.074 50.657V58.4643C70.074 59.54 69.3252 59.695 69.3177 59.6965C68.8248 59.7589 68.3285 59.7903 67.8317 59.7903ZM67.2938 43.3692C67.274 43.3683 67.2545 43.3748 67.2392 43.3875C67.2239 43.4001 67.2138 43.4181 67.2109 43.4378L66.5909 48.1136C66.5399 48.4773 66.3919 48.8203 66.1626 49.1062C65.9978 49.3047 65.8752 49.5351 65.8024 49.7831C65.7296 50.0311 65.7081 50.2915 65.7393 50.5482L65.7403 50.5647V58.5059C65.74 58.5158 65.7259 59.0124 65.9765 59.2732C66.0283 59.3263 66.0907 59.3677 66.1596 59.3949C66.2285 59.422 66.3023 59.4342 66.3762 59.4308L66.3928 59.4318C67.3502 59.5526 68.3188 59.5526 69.2762 59.4318C69.2889 59.4287 69.8074 59.3097 69.8074 58.4643L69.8096 50.6211C69.8557 50.3674 69.8464 50.1067 69.7822 49.857C69.7179 49.6073 69.6004 49.3747 69.4377 49.1753C69.2156 48.8885 69.072 48.5483 69.0209 48.1884L68.3769 43.4148C68.3741 43.3952 68.3641 43.3774 68.3489 43.3648C68.3337 43.3523 68.3144 43.3458 68.2948 43.3468C67.9658 43.3799 67.6349 43.3876 67.3048 43.3698C67.3012 43.3694 67.2975 43.3692 67.2938 43.3692Z" fill="#160635"/>
<path d="M67.3052 50.7068H68.2876C68.6783 50.7068 69.053 50.8628 69.3292 51.1406C69.6055 51.4183 69.7607 51.795 69.7607 52.1878V55.9044C69.7607 56.2972 69.6055 56.6739 69.3292 56.9517C69.053 57.2294 68.6783 57.3855 68.2876 57.3855H67.3052C66.9145 57.3855 66.5398 57.2294 66.2636 56.9517C65.9873 56.6739 65.8322 56.2972 65.8322 55.9044V52.1878C65.8322 51.795 65.9873 51.4183 66.2636 51.1406C66.5398 50.8628 66.9145 50.7068 67.3052 50.7068Z" fill="#B900F4"/>
<path d="M62.6329 36.3956C62.3101 36.4283 61.9852 36.4359 61.6611 36.4184C61.6059 36.4123 61.5505 36.4283 61.5069 36.4629C61.4632 36.4975 61.4349 36.5479 61.4279 36.6033L60.808 41.2783C60.7603 41.6176 60.6221 41.9377 60.4081 42.2044C60.2316 42.4167 60.1005 42.6632 60.0227 42.9285C59.945 43.1939 59.9223 43.4725 59.9562 43.7471V51.6883C59.9562 51.6883 59.9162 52.7471 60.7253 52.7471C61.6938 52.8695 62.6736 52.8695 63.6421 52.7471C63.6421 52.7471 64.2899 52.6238 64.2899 51.6468V43.8275C64.3393 43.5547 64.3292 43.2743 64.2601 43.0059C64.1911 42.7374 64.0648 42.4873 63.89 42.2728C63.6831 42.005 63.5494 41.6876 63.5021 41.352L62.8582 36.5792C62.8509 36.5255 62.8236 36.4767 62.7817 36.4426C62.7399 36.4085 62.6867 36.3917 62.6329 36.3956Z" fill="white"/>
<path d="M62.1808 52.9727C61.6913 52.9727 61.2024 52.9421 60.7167 52.8811C60.6082 52.8837 60.5003 52.8637 60.3998 52.8223C60.2994 52.781 60.2085 52.7192 60.1329 52.6409C59.8036 52.297 59.8219 51.7081 59.8229 51.6832L59.8228 43.7552C59.7884 43.4637 59.8135 43.1683 59.8966 42.8868C59.9796 42.6054 60.1188 42.344 60.3057 42.1185C60.5038 41.8709 60.6318 41.5742 60.6759 41.2595L61.2957 36.5856C61.3077 36.4957 61.3541 36.414 61.4251 36.358C61.496 36.3019 61.5858 36.2758 61.6756 36.2851C61.9903 36.3018 62.3059 36.2942 62.6195 36.2622L62.6233 36.2619C62.7108 36.2555 62.7974 36.2829 62.8656 36.3384C62.9338 36.394 62.9783 36.4736 62.9902 36.561L63.6341 41.334C63.6784 41.6462 63.8028 41.9414 63.9952 42.1905C64.1805 42.4181 64.3146 42.6833 64.3885 42.9679C64.4624 43.2525 64.4742 43.5498 64.4232 43.8394V51.6467C64.4232 52.7224 63.6744 52.8774 63.6668 52.8788C63.1739 52.9413 62.6776 52.9726 62.1808 52.9727ZM61.643 36.5516C61.6231 36.5507 61.6037 36.5572 61.5883 36.5698C61.573 36.5825 61.5629 36.6005 61.56 36.6202L60.94 41.296C60.8891 41.6597 60.7411 42.0027 60.5117 42.2886C60.3469 42.4871 60.2243 42.7174 60.1515 42.9655C60.0787 43.2135 60.0572 43.4739 60.0884 43.7306L60.0894 43.747V51.6883C60.0891 51.6982 60.075 52.1947 60.3256 52.4556C60.3774 52.5087 60.4398 52.5501 60.5087 52.5773C60.5776 52.6044 60.6514 52.6166 60.7253 52.6131L60.7419 52.6142C61.6993 52.735 62.668 52.735 63.6253 52.6142C63.638 52.611 64.1566 52.4921 64.1566 51.6467L64.1587 43.8035C64.2049 43.5498 64.1955 43.289 64.1313 43.0393C64.0671 42.7897 63.9495 42.557 63.7868 42.3577C63.5647 42.0708 63.4211 41.7306 63.3701 41.3708L62.7261 36.5972C62.7232 36.5776 62.7132 36.5598 62.698 36.5472C62.6829 36.5346 62.6635 36.5282 62.6439 36.5292C62.315 36.5623 61.984 36.57 61.6539 36.5522C61.6503 36.5518 61.6466 36.5516 61.643 36.5516Z" fill="#160635"/>
<path d="M61.6544 43.8892H62.6369C63.0275 43.8892 63.4022 44.0452 63.6785 44.3229C63.9547 44.6007 64.1099 44.9774 64.1099 45.3702V49.0868C64.1099 49.4796 63.9547 49.8563 63.6785 50.1341C63.4022 50.4118 63.0275 50.5678 62.6369 50.5678H61.6544C61.2637 50.5678 60.8891 50.4118 60.6128 50.1341C60.3366 49.8563 60.1814 49.4796 60.1814 49.0868V45.3702C60.1814 44.9774 60.3366 44.6007 60.6128 44.3229C60.8891 44.0452 61.2637 43.8892 61.6544 43.8892Z" fill="#B900F4"/>
<path d="M10.5834 13.4461C13.1841 13.4461 15.2923 11.3264 15.2923 8.7116C15.2923 6.09678 13.1841 3.97705 10.5834 3.97705C7.98267 3.97705 5.87439 6.09678 5.87439 8.7116C5.87439 11.3264 7.98267 13.4461 10.5834 13.4461Z" fill="#3BEDBF"/>
<path d="M119.078 9.46909C121.679 9.46909 123.787 7.34936 123.787 4.73454C123.787 2.11973 121.679 0 119.078 0C116.478 0 114.369 2.11973 114.369 4.73454C114.369 7.34936 116.478 9.46909 119.078 9.46909Z" fill="#3BEDBF"/>
<path d="M65.2076 21.4C67.0801 21.4 68.5981 19.8738 68.5981 17.9911C68.5981 16.1085 67.0801 14.5823 65.2076 14.5823C63.3351 14.5823 61.8171 16.1085 61.8171 17.9911C61.8171 19.8738 63.3351 21.4 65.2076 21.4Z" fill="#3BEDBF"/>
</g>
<defs>
<clipPath id="clip0_1_2232">
<rect width="138" height="121" fill="white"/>
</clipPath>
</defs>
</svg>
