<svg width="14" height="22" viewBox="0 0 14 22" fill="none" xmlns="http://www.w3.org/2000/svg">
<path d="M5.26895 1.37698H5.26529H5.26895ZM5.26895 1.37698L6.76879 9.53924L1.33532 9.55818L8.73127 20.6234L7.23141 11.6436L12.6645 11.6239L5.26895 1.37698ZM5.26793 4.30306e-05C5.30382 4.30306e-05 5.3397 0.00139847 5.37492 0.00413087C5.60956 0.023774 5.76512 0.105014 5.94954 0.233415C6.0534 0.305133 6.14703 0.391575 6.22772 0.490218C6.25195 0.519823 6.2748 0.55061 6.2962 0.582474L13.745 10.7936C14.0391 11.2112 14.0823 11.7623 13.8563 12.2229C13.6307 12.6835 13.1744 12.9754 12.6742 12.9792L8.83696 13.0081L10.0434 20.3704C10.158 21.0031 9.83232 21.6337 9.25903 21.8878C9.09243 21.9619 8.91297 22.0001 8.73163 22C8.31387 22 7.97056 21.7976 7.71297 21.432L0.254877 10.3668C-0.0392464 9.94919 -0.0821391 9.39738 0.143542 8.93747C0.369203 8.47688 0.825509 8.18494 1.32568 8.18118L5.16291 8.17429L3.96947 1.70088C3.94418 1.5949 3.93145 1.48613 3.93156 1.37696C3.93156 0.632022 4.50421 0.0247852 5.22074 0.000688478C5.23667 0 5.25231 0 5.26791 0L5.26793 4.30306e-05Z" fill="#F57ED4"/>
</svg>
