<svg width="19" height="20" viewBox="0 0 19 20" fill="none" xmlns="http://www.w3.org/2000/svg">
<path d="M5.5 15.5002C4.49167 15.5002 3.67583 16.3252 3.67583 17.3335C3.67583 18.3418 4.49167 19.1668 5.5 19.1668C6.50833 19.1668 7.33333 18.3418 7.33333 17.3335C7.33333 16.3252 6.50833 15.5002 5.5 15.5002ZM14.6667 15.5002C13.6583 15.5002 12.8425 16.3252 12.8425 17.3335C12.8425 18.3418 13.6583 19.1668 14.6667 19.1668C15.675 19.1668 16.5 18.3418 16.5 17.3335C16.5 16.3252 15.675 15.5002 14.6667 15.5002ZM13.3375 10.9168C14.025 10.9168 14.63 10.541 14.9417 9.97266L18.2233 4.0235C18.3006 3.88455 18.3402 3.72784 18.3383 3.56888C18.3364 3.40991 18.293 3.2542 18.2125 3.11715C18.1319 2.9801 18.0169 2.86646 17.879 2.78748C17.741 2.7085 17.5848 2.66691 17.4258 2.66683H3.85917L2.9975 0.833496H0V2.66683H1.83333L5.13333 9.62433L3.89583 11.861C3.22667 13.0893 4.10667 14.5835 5.5 14.5835H16.5V12.7502H5.5L6.50833 10.9168H13.3375ZM4.73 4.50016H15.8675L13.3375 9.0835H6.9025L4.73 4.50016Z" fill="#F57ED4"/>
</svg>
