<svg width="21" height="21" viewBox="0 0 21 21" fill="none" xmlns="http://www.w3.org/2000/svg">
<g clip-path="url(#clip0_317_3328)">
<path d="M19.79 2.25586C19.9678 2.56348 20.1284 2.85742 20.272 3.1377C20.4155 3.41797 20.5454 3.70166 20.6616 3.98877C20.7778 4.27588 20.8599 4.57324 20.9077 4.88086C20.9556 5.18848 20.9863 5.53027 21 5.90625C21 6.44629 20.9316 6.96582 20.7949 7.46484C20.6582 7.96387 20.46 8.43555 20.2002 8.87988C19.9404 9.32422 19.6294 9.72412 19.2671 10.0796C18.9048 10.4351 18.5049 10.7427 18.0674 11.0024C17.6299 11.2622 17.1616 11.4604 16.6626 11.5972C16.1636 11.7339 15.6406 11.8057 15.0938 11.8125C14.9365 11.8125 14.7793 11.8057 14.6221 11.792C14.4648 11.7783 14.3042 11.7578 14.1401 11.7305L5.87549 19.9951C5.54736 20.3232 5.1748 20.5728 4.75781 20.7437C4.34082 20.9146 3.8999 21 3.43506 21C2.96338 21 2.51904 20.9111 2.10205 20.7334C1.68506 20.5557 1.32275 20.3096 1.01514 19.9951C0.70752 19.6807 0.461426 19.3149 0.276855 18.8979C0.0922852 18.481 0 18.0366 0 17.5649C0 17.1069 0.0854492 16.6694 0.256348 16.2524C0.427246 15.8354 0.676758 15.4595 1.00488 15.1245L9.26953 6.85986C9.24219 6.70264 9.22168 6.54541 9.20801 6.38818C9.19434 6.23096 9.1875 6.07031 9.1875 5.90625C9.1875 5.36621 9.25586 4.84668 9.39258 4.34766C9.5293 3.84863 9.72754 3.37695 9.9873 2.93262C10.2471 2.48828 10.5581 2.08838 10.9204 1.73291C11.2827 1.37744 11.6826 1.06982 12.1201 0.810059C12.5576 0.550293 13.0259 0.352051 13.5249 0.215332C14.0239 0.0786133 14.5469 0.00683594 15.0938 0C15.4629 0 15.8013 0.0273437 16.1089 0.0820312C16.4165 0.136719 16.7173 0.222168 17.0112 0.338379C17.3052 0.45459 17.5889 0.581055 17.8623 0.717773C18.1357 0.854492 18.4297 1.01855 18.7441 1.20996L14.7041 5.25L15.75 6.2959L19.79 2.25586ZM15.0938 10.5C15.7295 10.5 16.3242 10.3804 16.8779 10.1411C17.4316 9.90186 17.917 9.57373 18.334 9.15674C18.751 8.73975 19.0791 8.25439 19.3184 7.70068C19.5576 7.14697 19.6807 6.54883 19.6875 5.90625C19.6875 5.40723 19.6055 4.92529 19.4414 4.46045L15.75 8.1416L12.8584 5.25L16.5396 1.55859C16.0747 1.39453 15.5928 1.3125 15.0938 1.3125C14.458 1.3125 13.8633 1.43213 13.3096 1.67139C12.7559 1.91064 12.2705 2.23877 11.8535 2.65576C11.4365 3.07275 11.1084 3.55811 10.8691 4.11182C10.6299 4.66553 10.5068 5.26367 10.5 5.90625C10.5 6.14551 10.5205 6.37793 10.5615 6.60352C10.6025 6.8291 10.6504 7.05469 10.7051 7.28027L1.93799 16.0576C1.73975 16.2559 1.58594 16.4849 1.47656 16.7446C1.36719 17.0044 1.3125 17.2778 1.3125 17.5649C1.3125 17.8521 1.36719 18.1255 1.47656 18.3853C1.58594 18.645 1.73975 18.8706 1.93799 19.062C2.13623 19.2534 2.36182 19.4038 2.61475 19.5132C2.86768 19.6226 3.14111 19.6807 3.43506 19.6875C3.72217 19.6875 3.99561 19.6328 4.25537 19.5234C4.51514 19.4141 4.74414 19.2603 4.94238 19.062L13.7197 10.2949C13.9453 10.3496 14.1709 10.3975 14.3965 10.4385C14.6221 10.4795 14.8545 10.5 15.0938 10.5Z" fill="#F57ED4"/>
</g>
<defs>
<clipPath id="clip0_317_3328">
<rect width="21" height="21" fill="white"/>
</clipPath>
</defs>
</svg>
