<svg width="24" height="17" viewBox="0 0 24 17" fill="none" xmlns="http://www.w3.org/2000/svg">
<path d="M19.0233 0.00012207C20.0003 0.00012207 20.8716 0.742361 20.8716 1.73939C20.8716 2.73997 20.0003 3.47865 19.0233 3.47865C18.0463 3.47865 17.175 2.73997 17.175 1.73939C17.175 0.742361 18.0463 0.00012207 19.0233 0.00012207ZM12.005 0.00012207C12.9767 0.00012207 13.8533 0.742361 13.8533 1.73939C13.8533 2.73997 12.9767 3.47865 12.005 3.47865C11.028 3.47865 10.1514 2.73997 10.1514 1.73939C10.1514 0.742361 11.028 0.00012207 12.005 0.00012207ZM4.98144 0.00012207C5.9584 0.00012207 6.82975 0.742361 6.82975 1.73939C6.82975 2.73997 5.9584 3.47865 4.98144 3.47865C4.00447 3.47865 3.12838 2.73997 3.12838 1.73939C3.12838 0.742361 4.00447 0.00012207 4.98144 0.00012207ZM12.005 4.30819C15.3848 4.38719 18.2364 4.38719 21.6585 4.4741C23.2903 5.17723 24.0454 8.77979 23.9979 10.032L23.0685 10.7312C22.6618 9.04051 22.1496 6.78495 21.2994 6.28328V9.74364L21.5159 17.0001H20.3435L19.4616 9.70414H18.5111L17.6291 17.0001H16.4515L16.6733 9.74364L16.2508 6.24773H14.7035L14.3233 9.73179L14.5451 16.9883H13.3675L12.4803 9.69229H11.5297L10.6425 16.9883H9.47019L9.69198 9.73179L9.30648 6.24773H7.75918L7.33671 9.74364L7.55851 17.0001H6.38087L5.49896 9.70414H4.54841L3.65646 17.0001H2.48411L2.70591 9.74364V6.28328C1.8504 6.78495 1.33816 9.04051 0.93153 10.7312L0.00209534 10.032C-0.0454326 8.77979 0.715014 5.17723 2.34153 4.4741C5.77357 4.38719 8.62525 4.38719 12.005 4.30819Z" fill="white"/>
</svg>
