<svg width="16" height="20" viewBox="0 0 16 20" fill="none" xmlns="http://www.w3.org/2000/svg">
<path d="M8 19.625C5.88333 19.625 4.02067 18.8877 2.412 17.413C0.803334 15.9383 -0.000666252 13.9423 4.1425e-07 11.425C4.1425e-07 9.84167 0.600001 8.125 1.8 6.275C3 4.425 4.81667 2.425 7.25 0.275C7.35 0.191667 7.46667 0.125 7.6 0.075C7.73333 0.025 7.86667 0 8 0C8.13333 0 8.26667 0.025 8.4 0.075C8.53333 0.125 8.65 0.191667 8.75 0.275C11.1833 2.425 13 4.425 14.2 6.275C15.4 8.125 16 9.84167 16 11.425C16 13.9417 15.1957 15.9377 13.587 17.413C11.9783 18.8883 10.116 19.6257 8 19.625ZM8 17.625C9.68333 17.625 11.1043 17.05 12.263 15.9C13.4217 14.75 14.0007 13.2583 14 11.425C14 10.2417 13.5083 8.88733 12.525 7.362C11.5417 5.83667 10.0333 4.141 8 2.275C5.96667 4.14167 4.45833 5.83767 3.475 7.363C2.49167 8.88833 2 10.2423 2 11.425C2 13.2583 2.57933 14.75 3.738 15.9C4.89667 17.05 6.31733 17.625 8 17.625ZM8.275 16.625C8.475 16.6083 8.646 16.529 8.788 16.387C8.93 16.245 9.00067 16.0743 9 15.875C9 15.6417 8.925 15.454 8.775 15.312C8.625 15.17 8.43333 15.1077 8.2 15.125C7.51667 15.175 6.79167 14.9873 6.025 14.562C5.25833 14.1367 4.775 13.366 4.575 12.25C4.54167 12.0667 4.45433 11.9167 4.313 11.8C4.17167 11.6833 4.009 11.625 3.825 11.625C3.59167 11.625 3.4 11.7127 3.25 11.888C3.1 12.0633 3.05 12.2673 3.1 12.5C3.38333 14.0167 4.05 15.1 5.1 15.75C6.15 16.4 7.20833 16.6917 8.275 16.625Z" fill="#F57ED4"/>
</svg>
