<svg width="104" height="91" viewBox="0 0 104 91" fill="none" xmlns="http://www.w3.org/2000/svg">
<g clip-path="url(#clip0_322_14845)">
<path d="M17.2514 31.6791C17.0081 31.7037 16.7633 31.7095 16.5191 31.6963C16.4774 31.6917 16.4357 31.7037 16.4028 31.7297C16.3699 31.7558 16.3485 31.7937 16.3433 31.8354L15.8761 35.3512C15.8402 35.6064 15.736 35.8471 15.5747 36.0478C15.4417 36.2074 15.3429 36.3928 15.2843 36.5923C15.2257 36.7919 15.2086 37.0015 15.2341 37.2079V43.1803C15.2341 43.1803 15.204 43.9766 15.8138 43.9766C16.5436 44.0686 17.2821 44.0686 18.0119 43.9766C18.0119 43.9766 18.5002 43.8838 18.5002 43.149V37.2684C18.5374 37.0633 18.5298 36.8524 18.4777 36.6505C18.4257 36.4486 18.3305 36.2605 18.1988 36.0992C18.0429 35.8978 17.9421 35.6591 17.9064 35.4067L17.4212 31.8172C17.4157 31.7769 17.3951 31.7401 17.3635 31.7145C17.332 31.6888 17.2919 31.6762 17.2514 31.6791Z" fill="white"/>
<path d="M16.9094 44.1454C16.5405 44.1455 16.172 44.1225 15.806 44.0766C15.7242 44.0785 15.6429 44.0635 15.5672 44.0324C15.4915 44.0013 15.423 43.9548 15.3661 43.8959C15.1179 43.6373 15.1317 43.1944 15.1324 43.1757L15.1323 37.2133C15.1065 36.9941 15.1254 36.7719 15.1879 36.5602C15.2505 36.3486 15.3554 36.152 15.4963 35.9824C15.6456 35.7962 15.742 35.573 15.7753 35.3364L16.2423 31.8213C16.2514 31.7537 16.2864 31.6923 16.3398 31.6501C16.3933 31.6079 16.461 31.5882 16.5286 31.5953C16.7659 31.6079 17.0037 31.6021 17.24 31.5781L17.2428 31.5778C17.3088 31.573 17.3741 31.5936 17.4255 31.6354C17.4768 31.6772 17.5104 31.737 17.5194 31.8028L18.0047 35.3924C18.038 35.6272 18.1318 35.8492 18.2768 36.0365C18.4164 36.2077 18.5175 36.4071 18.5732 36.6212C18.6288 36.8352 18.6377 37.0588 18.5993 37.2766V43.1482C18.5993 43.9572 18.035 44.0738 18.0293 44.0749C17.6578 44.1218 17.2838 44.1454 16.9094 44.1454ZM16.5041 31.7957C16.4891 31.795 16.4744 31.7999 16.4629 31.8094C16.4513 31.8189 16.4437 31.8325 16.4416 31.8473L15.9743 35.3638C15.9359 35.6373 15.8244 35.8953 15.6516 36.1103C15.5273 36.2596 15.4349 36.4328 15.3801 36.6194C15.3252 36.8059 15.309 37.0017 15.3325 37.1948L15.3333 37.2072V43.1795C15.3331 43.1869 15.3224 43.5604 15.5113 43.7566C15.5503 43.7965 15.5974 43.8276 15.6493 43.8481C15.7012 43.8685 15.7568 43.8777 15.8125 43.875L15.825 43.8758C16.5465 43.9667 17.2765 43.9667 17.998 43.8758C18.0076 43.8735 18.3984 43.784 18.3984 43.1482L18.4 37.2496C18.4348 37.0588 18.4277 36.8627 18.3793 36.6749C18.3309 36.4871 18.2423 36.3122 18.1197 36.1623C17.9524 35.9465 17.8441 35.6907 17.8057 35.42L17.3203 31.83C17.3182 31.8153 17.3107 31.8019 17.2992 31.7924C17.2878 31.7829 17.2732 31.7781 17.2584 31.7788C17.0105 31.8037 16.7611 31.8095 16.5123 31.7962C16.5096 31.7959 16.5068 31.7957 16.5041 31.7957H16.5041Z" fill="#3F3D56"/>
<path d="M16.5124 37.3145H17.2529C17.5473 37.3145 17.8296 37.4318 18.0378 37.6407C18.246 37.8496 18.363 38.1329 18.363 38.4283V41.2234C18.363 41.5188 18.246 41.8021 18.0378 42.011C17.8296 42.2199 17.5473 42.3373 17.2529 42.3373H16.5124C16.218 42.3373 15.9357 42.2199 15.7275 42.011C15.5193 41.8021 15.4023 41.5188 15.4023 41.2234V38.4283C15.4023 38.282 15.4311 38.1372 15.4868 38.002C15.5426 37.8669 15.6244 37.7441 15.7275 37.6407C15.8306 37.5373 15.9529 37.4552 16.0876 37.3992C16.2223 37.3433 16.3667 37.3145 16.5124 37.3145Z" fill="#B900F4"/>
<path d="M2.89886 88.6525H5.31275L6.46115 79.3105L2.89844 79.3107L2.89886 88.6525Z" fill="#9F616A"/>
<path d="M2.28516 87.8615L7.03898 87.8613H7.03917C7.84263 87.8614 8.61317 88.1816 9.1813 88.7517C9.74943 89.3217 10.0686 90.0948 10.0687 90.901V90.9997L2.2853 91L2.28516 87.8615Z" fill="#2F2E41"/>
<path d="M1.38341 55.2852C1.38341 55.2852 0.337249 56.4717 2.06953 61.0969L1.76441 86.458L7.3782 86.3481L8.61218 73.9772L10.8589 55.9245L1.38341 55.2852Z" fill="#2F2E41"/>
<path d="M12.7837 58.7916L12.7222 58.7822C5.54059 57.6833 0.121225 56.6297 0.0673219 56.6192L0 56.6061L1.8826 52.0118C1.86773 51.5317 1.46021 38.0506 2.24033 34.1773C2.99554 30.4278 6.55532 29.8133 6.96097 29.7555L7.36829 28.4014L12.5143 31.0881L13.4117 34.1873L13.594 42.6815L12.7837 58.7916Z" fill="#3F3D56"/>
<path d="M15.8835 41.3086C15.6518 41.3085 15.4225 41.3566 15.2102 41.4498C14.9979 41.5429 14.8071 41.6792 14.6498 41.8499H6.00031L2.83203 42.5266L3.35221 46.5522L14.6227 44.1202C14.8092 44.3316 15.0457 44.4928 15.3103 44.589C15.5749 44.6852 15.8594 44.7133 16.1377 44.6708C16.4159 44.6284 16.6792 44.5166 16.9033 44.3458C17.1275 44.1751 17.3054 43.9506 17.4209 43.6931C17.5364 43.4355 17.5858 43.1531 17.5645 42.8715C17.5432 42.5899 17.452 42.3181 17.2991 42.081C17.1462 41.8439 16.9365 41.6489 16.6893 41.514C16.442 41.3791 16.165 41.3085 15.8835 41.3086H15.8835Z" fill="#9F616A"/>
<path d="M15.9595 26.8795C17.0638 24.8526 16.3214 22.3113 14.3013 21.2033C12.2812 20.0953 9.74834 20.8402 8.64404 22.8671C7.53974 24.894 8.28216 27.4353 10.3023 28.5433C12.3224 29.6513 14.8553 28.9064 15.9595 26.8795Z" fill="#9F616A"/>
<path d="M8.37803 21.529L8.17594 21.1209L9.19281 20.614C9.19281 20.614 10.3146 18.7826 12.3445 19.2973C14.3744 19.8119 15.2876 20.1199 15.2876 20.1199L16.3019 20.632L15.7929 21.1402L16.7061 21.4482L16.096 21.7524L16.8059 22.1618L16.4238 24.2605C16.4238 24.2605 15.789 22.6687 14.5688 23.277C13.3485 23.8853 11.1165 22.9625 11.1165 22.9625L9.17743 26.7279C9.17743 26.7279 8.77738 25.408 8.06414 25.7599C8.06413 25.7599 6.24196 22.8483 8.37803 21.529Z" fill="#2F2E41"/>
<path d="M3.4081 47.307L2.41895 44.3549L2.17969 34.514L2.60114 33.1178C2.75284 32.6153 3.00409 32.1486 3.33984 31.7459C3.67559 31.3431 4.08892 31.0125 4.55507 30.7738C5.02122 30.5352 5.53059 30.3934 6.05265 30.357C6.57472 30.3206 7.09873 30.3904 7.59329 30.5621C8.08785 30.7337 8.54278 31.0038 8.93081 31.3561C9.31884 31.7085 9.63199 32.1357 9.85149 32.6124C10.071 33.0891 10.1923 33.6053 10.2082 34.1301C10.2241 34.6549 10.1342 35.1776 9.94399 35.6667L7.68502 41.4748L7.79985 41.6984L12.6939 41.6586L14.4323 44.7983L3.4081 47.307Z" fill="#3F3D56"/>
<path d="M52.3725 46.0934C52.5552 45.97 52.7086 45.8079 52.8221 45.6185C52.9355 45.4292 53.0062 45.2171 53.0291 44.9974C53.0521 44.7776 53.0267 44.5555 52.9548 44.3467C52.883 44.1378 52.7663 43.9473 52.6132 43.7886L55.0255 38.9941L52.2624 39.3157L50.3952 43.8193C50.1465 44.0952 50.0073 44.453 50.004 44.825C50.0006 45.197 50.1334 45.5573 50.3771 45.8376C50.6209 46.1179 50.9586 46.2988 51.3264 46.3459C51.6941 46.3931 52.0664 46.3032 52.3725 46.0934Z" fill="#FFB7B7"/>
<path d="M71.7201 80.0547L69.546 80.0545L68.5117 71.6406L71.7204 71.6409L71.7201 80.0547Z" fill="#FFB7B7"/>
<path d="M72.2757 82.1696L65.2656 82.1694V82.0804C65.2657 81.3543 65.5532 80.658 66.0648 80.1446C66.5765 79.6312 67.2705 79.3428 67.9942 79.3428H67.9943L72.2759 79.3429L72.2757 82.1696Z" fill="#2F2E41"/>
<path d="M59.8373 80.0547L57.6632 80.0545L56.6289 71.6406L59.8377 71.6409L59.8373 80.0547Z" fill="#FFB7B7"/>
<path d="M59.8617 82.1696L52.8516 82.1694V82.0804C52.8516 81.3543 53.1391 80.658 53.6508 80.1446C54.1625 79.6312 54.8565 79.3428 55.5801 79.3428H55.5803L59.8618 79.3429L59.8617 82.1696Z" fill="#2F2E41"/>
<path d="M59.6607 44.5186L57.5327 49.4374L55.7773 77.7102L60.2106 77.5323L61.4215 64.0545L65.1567 52.0504L67.304 65.4331L68.1907 77.1764L71.8591 77.3357L73.3209 44.5186H59.6607Z" fill="#2F2E41"/>
<path d="M70.2966 20.2471L64.1289 20.4019L60.5079 22.267L60.3092 36.0275L58.0508 45.528C58.0508 45.528 72.1613 46.5024 74.112 45.0789L71.8067 34.2253L74.8986 22.4957L70.2966 20.2471Z" fill="#B900F4"/>
<path d="M61.4608 22.4945L60.8867 22.1055C60.8867 22.1055 58.508 22.8208 57.8049 26.0032C57.8049 26.0032 57.2669 27.5998 57.0308 28.6976C56.7601 29.9567 50.7812 41.5219 50.7812 41.5219L54.3609 42.5523L60.9236 31.9036L61.4608 22.4945Z" fill="#B900F4"/>
<path d="M74.8021 47.8579C74.6605 47.6887 74.5575 47.4904 74.5005 47.277C74.4435 47.0636 74.4339 46.8402 74.4722 46.6227C74.5105 46.4051 74.596 46.1986 74.7224 46.0177C74.8489 45.8369 75.0134 45.686 75.2043 45.5758L74.2031 40.2998L76.7707 41.3734L77.3278 46.219C77.491 46.553 77.5265 46.9355 77.4274 47.2939C77.3284 47.6524 77.1018 47.962 76.7904 48.164C76.4791 48.366 76.1048 48.4464 75.7383 48.39C75.3718 48.3336 75.0387 48.1443 74.8021 47.8579Z" fill="#FFB7B7"/>
<path d="M73.9722 22.6595L74.631 22.4443C74.631 22.4443 76.7208 23.7901 76.522 27.0436C76.522 27.0436 76.6003 28.7272 76.5255 29.8477C76.4397 31.1329 77.5895 43.904 77.5895 43.904H73.8655L72.2695 32.3387L73.9722 22.6595Z" fill="#B900F4"/>
<path d="M71.8127 14.4734C71.8127 15.3219 71.562 16.1513 71.0922 16.8567C70.6224 17.5622 69.9546 18.1121 69.1734 18.4367C68.3921 18.7614 67.5325 18.8464 66.7031 18.6809C65.8738 18.5153 65.1119 18.1068 64.514 17.5068C63.916 16.9069 63.5088 16.1425 63.3439 15.3104C63.1789 14.4782 63.2636 13.6157 63.5872 12.8318C63.9108 12.0479 64.4588 11.378 65.1619 10.9066C65.865 10.4352 66.6916 10.1836 67.5372 10.1836C68.6683 10.1808 69.7542 10.6289 70.556 11.4294C71.3579 12.2299 71.8099 13.3172 71.8127 14.4521C71.8127 14.4592 71.8128 14.4663 71.8127 14.4734Z" fill="#FFB7B7"/>
<path d="M63.2733 8.71175C63.7742 7.63114 64.7434 7.84479 65.5911 8.21109C66.6645 7.97218 67.6855 7.25693 68.842 7.67992C69.9813 9.3425 73.8064 8.85334 72.9926 11.56C72.9916 12.2086 74.209 11.8311 73.9964 12.8933C74.6414 14.9376 71.6686 18.809 69.962 17.9938C70.3841 17.2176 71.3482 15.4548 69.8859 15.28C66.7402 18.2168 69.5613 9.68763 65.6088 12.168C64.3001 13.3697 62.5084 9.91375 63.2733 8.71175Z" fill="#2F2E41"/>
<path d="M75.5506 48.2858C75.7542 48.3269 75.9643 48.3226 76.1662 48.2734C76.368 48.2242 76.5567 48.1312 76.7188 48.0009C76.8809 47.8706 77.0126 47.7062 77.1046 47.5194C77.1966 47.3325 77.2466 47.1277 77.2511 46.9193L87.9866 36.781L85.571 34.8477L75.7598 45.4468C75.4104 45.4624 75.0788 45.606 74.8279 45.8504C74.577 46.0949 74.4242 46.4231 74.3984 46.7731C74.3726 47.123 74.4757 47.4703 74.688 47.7491C74.9004 48.0279 75.2073 48.2188 75.5506 48.2858Z" fill="#9F616A"/>
<path d="M86.4676 38.4197L84.379 35.9638C84.3196 35.894 84.2759 35.8121 84.2508 35.7237C84.2258 35.6354 84.22 35.5426 84.234 35.4518C84.2479 35.361 84.2811 35.2743 84.3314 35.1976C84.3818 35.1208 84.448 35.0559 84.5256 35.0072L87.2446 33.2993C87.6026 32.9962 88.0658 32.8479 88.5327 32.887C88.9995 32.9261 89.4318 33.1493 89.7348 33.5078C90.0379 33.8662 90.1869 34.3306 90.1491 34.7991C90.1114 35.2675 89.8901 35.7019 89.5336 36.0069L87.4323 38.425C87.3721 38.4942 87.2977 38.5496 87.2143 38.5874C87.1308 38.6252 87.0402 38.6445 86.9487 38.644C86.8572 38.6435 86.7668 38.6232 86.6838 38.5845C86.6007 38.5458 86.527 38.4896 86.4676 38.4197V38.4197Z" fill="#CBCBCB"/>
<path d="M80.8501 88.4473L78.2253 88.4471L76.9766 78.2891L80.8506 78.2892L80.8501 88.4473Z" fill="#9F616A"/>
<path d="M81.5181 90.9998L73.0547 90.9995V90.8921C73.0547 90.0155 73.4018 89.1749 74.0196 88.555C74.6374 87.9352 75.4752 87.587 76.3489 87.5869H76.3491L81.5183 87.5871L81.5181 90.9998Z" fill="#2F2E41"/>
<path d="M101.83 88.4473L99.2058 88.4471L97.957 78.2891L101.831 78.2892L101.83 88.4473Z" fill="#9F616A"/>
<path d="M102.503 90.9998L94.0391 90.9995V90.8921C94.0391 90.0155 94.3862 89.1749 95.004 88.555C95.6218 87.9352 96.4596 87.587 97.3333 87.5869H97.3335L102.503 87.5871L102.503 90.9998Z" fill="#2F2E41"/>
<path d="M94.7715 43.8043L97.4173 33.9963L93.9849 32.0605H89.1939L87.3305 34.0609C87.3305 34.0609 84.2172 36.2342 84.9707 38.6422L86.1863 44.127L84.3271 52.838L74.9596 65.8723L72.7422 78.6755L81.4711 80.9715L90.9101 62.3234L95.4866 82.9718L104 82.5422L101.067 57.5059C101.067 57.5059 100.23 49.879 95.8467 45.1169L94.7715 43.8043Z" fill="#2F2E41"/>
<path d="M100.236 52.4824C100.384 52.3357 100.497 52.1583 100.569 51.9628C100.641 51.7672 100.669 51.5583 100.652 51.3506C100.635 51.1429 100.572 50.9415 100.469 50.7607C100.365 50.5799 100.224 50.424 100.054 50.304L98.0012 36.4082L95.0547 37.3417L98.0042 50.7249C97.8222 51.0245 97.7561 51.3807 97.8184 51.726C97.8807 52.0713 98.067 52.3817 98.3421 52.5983C98.6172 52.8149 98.962 52.9228 99.3111 52.9014C99.6601 52.8801 99.9893 52.731 100.236 52.4824Z" fill="#9F616A"/>
<path d="M98.508 38.5894L95.3116 38.9592C95.2207 38.9697 95.1285 38.9604 95.0415 38.932C94.9544 38.9036 94.8745 38.8566 94.8071 38.7944C94.7398 38.7322 94.6866 38.6562 94.6512 38.5715C94.6158 38.4868 94.5989 38.3954 94.6019 38.3036L94.7054 35.0866C94.6544 34.6195 94.7902 34.1511 95.0828 33.7842C95.3755 33.4172 95.8012 33.1817 96.2667 33.1293C96.7322 33.0768 97.1994 33.2117 97.5659 33.5043C97.9324 33.7969 98.1683 34.2234 98.2219 34.6903L99.0505 37.7889C99.0741 37.8777 99.0785 37.9705 99.0632 38.061C99.048 38.1516 99.0134 38.2378 98.9619 38.3138C98.9104 38.3897 98.8433 38.4537 98.7649 38.5012C98.6866 38.5488 98.599 38.5789 98.508 38.5894V38.5894Z" fill="#CBCBCB"/>
<path d="M86.2305 29.2716V25.1391C86.2305 23.6705 86.8119 22.262 87.847 21.2235C88.882 20.185 90.2858 19.6016 91.7495 19.6016C93.2133 19.6016 94.6171 20.185 95.6521 21.2235C96.6871 22.262 97.2686 23.6705 97.2686 25.1391V29.2716C97.2684 29.4689 97.1902 29.6579 97.0512 29.7974C96.9122 29.9368 96.7238 30.0153 96.5272 30.0155H86.9718C86.7753 30.0153 86.5868 29.9368 86.4479 29.7974C86.3089 29.6579 86.2307 29.4689 86.2305 29.2716Z" fill="#2F2E41"/>
<path d="M92.5573 29.4216C94.5182 28.3461 95.2389 25.8792 94.1669 23.9118C93.095 21.9443 90.6364 21.2212 88.6755 22.2967C86.7146 23.3723 85.994 25.8391 87.0659 27.8066C88.1378 29.774 90.5964 30.4971 92.5573 29.4216Z" fill="#9F616A"/>
<path d="M84.9258 25.4693C84.9271 24.308 85.3875 23.1945 86.206 22.3733C87.0244 21.5521 88.1341 21.0902 89.2916 21.0889H90.1154C91.2729 21.0902 92.3826 21.5521 93.201 22.3733C94.0195 23.1945 94.4799 24.308 94.4812 25.4693V25.552H92.7404L92.1466 23.8838L92.0279 25.552H91.1282L90.8286 24.7103L90.7687 25.552H84.9258V25.4693Z" fill="#2F2E41"/>
<path d="M90.2171 30.4799C90.1353 30.3688 90.0865 30.2369 90.0763 30.0992C90.066 29.9616 90.0947 29.8238 90.159 29.7018C91.0319 28.0359 92.2542 24.9576 90.6319 23.0593L90.5153 22.9229H95.225V30.0175L90.9466 30.7749C90.9032 30.7826 90.8593 30.7865 90.8154 30.7866C90.6986 30.7866 90.5834 30.7588 90.4794 30.7054C90.3754 30.6521 90.2855 30.5748 90.2171 30.4799Z" fill="#2F2E41"/>
<path d="M46.9291 34.2576C46.8693 34.3192 46.8146 34.3855 46.7652 34.4557L39.0914 34.2673L38.1962 32.626L35.5508 33.6578L36.8542 36.718C36.9595 36.9653 37.1418 37.1715 37.3739 37.3059C37.606 37.4403 37.8753 37.4955 38.1413 37.4633L46.8113 36.4124C47.0158 36.6722 47.2943 36.8633 47.6097 36.9604C47.9252 37.0575 48.2626 37.056 48.5771 36.9559C48.8916 36.8559 49.1684 36.6622 49.3705 36.4006C49.5726 36.1389 49.6905 35.8217 49.7086 35.4912C49.7267 35.1606 49.644 34.8324 49.4716 34.5501C49.2992 34.2679 49.0453 34.0449 48.7435 33.911C48.4418 33.7771 48.1066 33.7386 47.7824 33.8005C47.4583 33.8624 47.1607 34.0218 46.9291 34.2576H46.9291Z" fill="#FFB7B7"/>
<path d="M21.9145 81.0179H24.4377L25.638 71.2529L21.9141 71.2531L21.9145 81.0179Z" fill="#FFB7B7"/>
<path d="M21.2695 80.1916L26.2386 80.1914H26.2388C27.0787 80.1915 27.8841 80.5262 28.478 81.1221C29.0718 81.7179 29.4055 82.526 29.4055 83.3687V83.4719L21.2697 83.4722L21.2695 80.1916Z" fill="#2F2E41"/>
<path d="M44.8235 80.9614L47.1438 79.9669L44.4244 70.5137L41 71.9817L44.8235 80.9614Z" fill="#FFB7B7"/>
<path d="M43.9102 80.4554L48.4797 78.4967L48.4799 78.4966C49.2523 78.1656 50.124 78.156 50.9034 78.4699C51.6828 78.7837 52.306 79.3954 52.636 80.1703L52.6764 80.2652L45.1947 83.4722L43.9102 80.4554Z" fill="#2F2E41"/>
<path d="M34.1769 36.373L34.3593 39.3396L29.026 39.9123L23.4453 40.5115L25.0878 36.0068L34.1769 36.373Z" fill="#FFB7B7"/>
<path d="M34.3665 37.4374C34.306 37.4136 28.282 35.0625 24.5818 36.9849L24.4908 37.0322L23.7527 33.3867L23.332 25.549L26.069 24.2514L26.8226 22.5577L31.9555 22.2529L33.0103 23.7043L36.6015 24.8852L34.4551 37.4726L34.3665 37.4374Z" fill="#3BEDBF"/>
<path d="M34.5547 30.3628L35.1896 25.3575L36.6352 24.916L36.6596 24.925C36.6929 24.9373 37.4786 25.2391 37.6937 26.3304C37.9001 27.3779 39.4548 33.8966 39.4705 33.9623L39.486 34.0275L35.8332 35.494L34.5547 30.3628Z" fill="#3BEDBF"/>
<path d="M42.9451 79.2457L47.8076 78.2449L40.0359 56.7281L37.376 49.389C37.376 49.389 35.689 43.5045 34.9268 41.2273L34.4669 38.1719L23.5781 39.3812C23.5781 39.3812 20.5369 43.8624 21.4608 51.1666L21.043 78.6202L25.9055 78.8704L29.9784 51.1821L37.1267 66.3606C37.1267 66.3606 39.3798 72.8378 40.9918 74.2418L42.9451 79.2457Z" fill="#2F2E41"/>
<path d="M27.9469 40.3996C27.8612 40.3975 27.7756 40.4022 27.6907 40.4137L22.6109 34.6396L23.2018 32.8649L20.6491 31.6201L19.2987 34.6598C19.1896 34.9053 19.1628 35.1798 19.2224 35.4419C19.282 35.704 19.4247 35.9397 19.6292 36.1135L26.292 41.778C26.2412 42.1051 26.2908 42.4399 26.4343 42.738C26.5778 43.0361 26.8084 43.2833 27.0953 43.4467C27.3823 43.6101 27.712 43.682 28.0406 43.6529C28.3693 43.6237 28.6813 43.4948 28.9352 43.2833C29.189 43.0719 29.3727 42.7879 29.4618 42.4691C29.5509 42.1504 29.5411 41.812 29.4338 41.4989C29.3265 41.1858 29.1268 40.913 28.8612 40.7166C28.5956 40.5202 28.2767 40.4096 27.9469 40.3996Z" fill="#FFB7B7"/>
<path d="M20.1875 32.4759L22.1734 26.8003C22.3966 26.1313 22.6763 25.7248 23.0047 25.5922C23.0694 25.563 23.1394 25.5476 23.2103 25.5469C23.2813 25.5462 23.3516 25.5603 23.4168 25.5883L24.3073 26.7171L25.1337 30.2007L23.0147 35.2019L20.1875 32.4759Z" fill="#3BEDBF"/>
<path d="M33.332 21.0786H24.6139C24.4346 21.0784 24.2626 21.0068 24.1358 20.8796C24.009 20.7523 23.9377 20.5798 23.9375 20.3999V16.6295C23.9375 15.2895 24.468 14.0044 25.4124 13.0569C26.3567 12.1094 27.6375 11.5771 28.973 11.5771C30.3084 11.5771 31.5892 12.1094 32.5336 13.0569C33.4779 14.0044 34.0084 15.2895 34.0084 16.6295V20.3999C34.0082 20.5798 33.9369 20.7523 33.8101 20.8796C33.6833 21.0068 33.5113 21.0784 33.332 21.0786Z" fill="#2F2E41"/>
<path d="M30.0082 20.9914C32.0472 20.9914 33.7001 19.333 33.7001 17.2872C33.7001 15.2414 32.0472 13.583 30.0082 13.583C27.9693 13.583 26.3164 15.2414 26.3164 17.2872C26.3164 19.333 27.9693 20.9914 30.0082 20.9914Z" fill="#FFB7B7"/>
<path d="M35.1986 17.0066H29.8677L29.813 16.2387L29.5397 17.0066H28.7188L28.6105 15.4846L28.0688 17.0066H26.4805V16.9312C26.4817 15.8716 26.9017 14.8557 27.6484 14.1065C28.3952 13.3572 29.4076 12.9358 30.4637 12.9346H31.2153C32.2714 12.9358 33.2838 13.3572 34.0306 14.1065C34.7773 14.8557 35.1974 15.8716 35.1986 16.9312L35.1986 17.0066Z" fill="#2F2E41"/>
<path d="M29.824 21.7831C29.7839 21.783 29.7438 21.7795 29.7043 21.7725L25.8008 21.0814V14.6084H30.0978L29.9914 14.7329C28.5113 16.4649 29.6264 19.2734 30.4229 20.7933C30.4816 20.9047 30.5077 21.0303 30.4984 21.1559C30.489 21.2815 30.4445 21.4019 30.3699 21.5032C30.3075 21.5899 30.2254 21.6604 30.1305 21.709C30.0356 21.7577 29.9306 21.7831 29.824 21.7831Z" fill="#2F2E41"/>
<path d="M76.5874 37.3422C76.344 37.3668 76.0992 37.3725 75.855 37.3593C75.8134 37.3548 75.7716 37.3668 75.7387 37.3928C75.7059 37.4188 75.6845 37.4568 75.6792 37.4985L75.212 41.0143C75.1761 41.2695 75.0719 41.5102 74.9106 41.7108C74.7777 41.8705 74.6788 42.0559 74.6202 42.2554C74.5617 42.455 74.5446 42.6646 74.5701 42.871V48.8434C74.5701 48.8434 74.5399 49.6397 75.1497 49.6397C75.8796 49.7317 76.618 49.7317 77.3479 49.6397C77.3479 49.6397 77.8361 49.5469 77.8361 48.8121V42.9315C77.8734 42.7263 77.8657 42.5155 77.8136 42.3136C77.7616 42.1117 77.6664 41.9236 77.5347 41.7622C77.3788 41.5609 77.278 41.3222 77.2424 41.0698L76.7571 37.4803C76.7516 37.44 76.731 37.4032 76.6995 37.3776C76.6679 37.3519 76.6278 37.3393 76.5874 37.3422Z" fill="white"/>
<path d="M76.2453 49.8085C75.8765 49.8086 75.508 49.7856 75.1419 49.7397C75.0602 49.7416 74.9789 49.7266 74.9031 49.6955C74.8274 49.6644 74.759 49.6179 74.702 49.559C74.4538 49.3004 74.4676 48.8575 74.4684 48.8387L74.4683 42.8764C74.4424 42.6572 74.4613 42.435 74.5239 42.2233C74.5865 42.0117 74.6914 41.815 74.8322 41.6455C74.9815 41.4593 75.0779 41.2361 75.1112 40.9995L75.5783 37.4844C75.5874 37.4167 75.6223 37.3553 75.6758 37.3132C75.7292 37.271 75.7969 37.2513 75.8646 37.2584C76.1018 37.2709 76.3396 37.2652 76.576 37.2412L76.5788 37.2409C76.6447 37.2361 76.71 37.2567 76.7614 37.2985C76.8128 37.3403 76.8464 37.4001 76.8553 37.4658L77.3406 41.0555C77.374 41.2903 77.4677 41.5123 77.6127 41.6996C77.7523 41.8708 77.8534 42.0702 77.9091 42.2843C77.9648 42.4983 77.9737 42.7219 77.9352 42.9397V48.8113C77.9352 49.6203 77.3709 49.7369 77.3652 49.738C76.9937 49.7849 76.6197 49.8085 76.2453 49.8085ZM75.84 37.4588C75.8251 37.4581 75.8104 37.463 75.7988 37.4725C75.7873 37.482 75.7797 37.4955 75.7775 37.5104L75.3103 41.0269C75.2719 41.3004 75.1603 41.5584 74.9875 41.7734C74.8633 41.9227 74.7709 42.0959 74.716 42.2824C74.6611 42.469 74.6449 42.6648 74.6684 42.8578L74.6692 42.8702V48.8426C74.669 48.85 74.6583 49.2235 74.8472 49.4197C74.8863 49.4596 74.9333 49.4907 74.9852 49.5111C75.0371 49.5316 75.0927 49.5408 75.1484 49.5381L75.1609 49.5389C75.8825 49.6298 76.6125 49.6298 77.334 49.5389C77.3435 49.5365 77.7343 49.4471 77.7343 48.8113L77.7359 42.9127C77.7707 42.7219 77.7637 42.5258 77.7153 42.338C77.6669 42.1502 77.5783 41.9753 77.4557 41.8253C77.2883 41.6096 77.18 41.3538 77.1416 41.0831L76.6563 37.4931C76.6541 37.4783 76.6466 37.4649 76.6351 37.4555C76.6237 37.446 76.6091 37.4412 76.5943 37.4419C76.3464 37.4668 76.097 37.4726 75.8483 37.4593C75.8455 37.459 75.8428 37.4588 75.84 37.4588Z" fill="#3F3D56"/>
<path d="M75.8484 42.9775H76.5888C76.8832 42.9775 77.1656 43.0949 77.3738 43.3038C77.5819 43.5127 77.6989 43.796 77.6989 44.0914V46.8865C77.6989 47.1819 77.5819 47.4652 77.3737 47.6741C77.1656 47.883 76.8832 48.0003 76.5888 48.0003H75.8484C75.554 48.0003 75.2716 47.883 75.0634 47.6741C74.8552 47.4652 74.7383 47.1819 74.7383 46.8865V44.0914C74.7383 43.796 74.8552 43.5127 75.0634 43.3038C75.2716 43.0949 75.554 42.9775 75.8484 42.9775Z" fill="#B900F4"/>
<path d="M51.4585 32.4994C51.2151 32.524 50.9703 32.5298 50.7261 32.5166C50.6845 32.512 50.6427 32.524 50.6098 32.55C50.577 32.5761 50.5556 32.614 50.5503 32.6557L50.0831 36.1715C50.0472 36.4268 49.943 36.6675 49.7817 36.8681C49.6488 37.0277 49.5499 37.2131 49.4913 37.4127C49.4327 37.6122 49.4157 37.8218 49.4412 38.0283V44.0006C49.4412 44.0006 49.411 44.7969 50.0208 44.7969C50.7507 44.8889 51.4891 44.8889 52.219 44.7969C52.219 44.7969 52.7072 44.7042 52.7072 43.9693V38.0887C52.7444 37.8836 52.7368 37.6727 52.6847 37.4708C52.6327 37.2689 52.5375 37.0808 52.4058 36.9195C52.2499 36.7181 52.1491 36.4794 52.1135 36.227L51.6282 32.6375C51.6227 32.5972 51.6021 32.5604 51.5706 32.5348C51.539 32.5091 51.4989 32.4965 51.4585 32.4994Z" fill="white"/>
<path d="M51.1203 44.9667C50.7515 44.9668 50.383 44.9438 50.0169 44.8979C49.9352 44.8998 49.8539 44.8848 49.7781 44.8537C49.7024 44.8226 49.634 44.7761 49.577 44.7172C49.3288 44.4586 49.3426 44.0157 49.3434 43.9969L49.3433 38.0346C49.3174 37.8154 49.3363 37.5932 49.3989 37.3815C49.4615 37.1699 49.5664 36.9733 49.7072 36.8037C49.8565 36.6175 49.9529 36.3943 49.9862 36.1577L50.4533 32.6426C50.4624 32.5749 50.4973 32.5135 50.5508 32.4714C50.6042 32.4292 50.6719 32.4095 50.7396 32.4166C50.9768 32.4291 51.2146 32.4234 51.451 32.3994L51.4538 32.3991C51.5197 32.3943 51.585 32.4149 51.6364 32.4567C51.6878 32.4985 51.7214 32.5583 51.7303 32.624L52.2156 36.2137C52.249 36.4485 52.3427 36.6705 52.4877 36.8578C52.6273 37.029 52.7284 37.2284 52.7841 37.4425C52.8398 37.6565 52.8487 37.8801 52.8102 38.0979V43.9695C52.8102 44.7785 52.2459 44.8951 52.2402 44.8962C51.8687 44.9431 51.4947 44.9667 51.1203 44.9667ZM50.715 32.617C50.7001 32.6163 50.6854 32.6212 50.6738 32.6307C50.6623 32.6402 50.6547 32.6537 50.6525 32.6686L50.1853 36.1851C50.1469 36.4586 50.0353 36.7166 49.8625 36.9316C49.7383 37.0809 49.6459 37.2541 49.591 37.4406C49.5361 37.6272 49.5199 37.823 49.5434 38.016L49.5442 38.0284V44.0008C49.544 44.0082 49.5333 44.3817 49.7222 44.5779C49.7613 44.6178 49.8083 44.6489 49.8602 44.6693C49.9121 44.6898 49.9677 44.699 50.0234 44.6963L50.0359 44.6971C50.7575 44.788 51.4875 44.788 52.209 44.6971C52.2185 44.6948 52.6093 44.6053 52.6093 43.9695L52.6109 38.0709C52.6457 37.8801 52.6387 37.684 52.5903 37.4962C52.5419 37.3084 52.4533 37.1335 52.3307 36.9835C52.1633 36.7678 52.055 36.512 52.0166 36.2413L51.5313 32.6513C51.5291 32.6365 51.5216 32.6231 51.5101 32.6137C51.4987 32.6042 51.4841 32.5994 51.4693 32.6001C51.2214 32.625 50.972 32.6308 50.7233 32.6175C50.7205 32.6172 50.7178 32.617 50.715 32.617Z" fill="#3F3D56"/>
<path d="M50.7234 38.1348H51.4638C51.7582 38.1348 52.0406 38.2521 52.2488 38.461C52.4569 38.6699 52.5739 38.9532 52.5739 39.2486V42.0437C52.5739 42.3391 52.4569 42.6225 52.2488 42.8313C52.0406 43.0402 51.7582 43.1576 51.4638 43.1576H50.7234C50.429 43.1576 50.1466 43.0402 49.9384 42.8313C49.7302 42.6225 49.6133 42.3391 49.6133 42.0437V39.2486C49.6133 38.9532 49.7302 38.6699 49.9384 38.461C50.1466 38.2521 50.429 38.1348 50.7234 38.1348Z" fill="#B900F4"/>
<path d="M47.2006 27.3715C46.9573 27.3961 46.7125 27.4018 46.4683 27.3886C46.4266 27.3841 46.3849 27.3961 46.352 27.4221C46.3191 27.4481 46.2977 27.4861 46.2925 27.5277L45.8253 31.0436C45.7894 31.2988 45.6852 31.5395 45.5239 31.7401C45.3909 31.8998 45.2921 32.0851 45.2335 32.2847C45.1749 32.4843 45.1579 32.6938 45.1834 32.9003V38.8727C45.1834 38.8727 45.1532 39.669 45.763 39.669C46.4929 39.761 47.2313 39.761 47.9611 39.669C47.9611 39.669 48.4494 39.5762 48.4494 38.8414V32.9608C48.4866 32.7556 48.479 32.5448 48.4269 32.3429C48.3749 32.141 48.2797 31.9529 48.148 31.7915C47.9921 31.5902 47.8913 31.3515 47.8557 31.0991L47.3704 27.5096C47.3649 27.4693 47.3443 27.4325 47.3128 27.4069C47.2812 27.3812 47.2411 27.3686 47.2006 27.3715Z" fill="white"/>
<path d="M46.8625 39.8388C46.4937 39.8388 46.1251 39.8158 45.7591 39.7699C45.6773 39.7719 45.596 39.7568 45.5203 39.7257C45.4446 39.6946 45.3761 39.6482 45.3192 39.5893C45.071 39.3307 45.0848 38.8878 45.0855 38.869L45.0855 32.9067C45.0596 32.6874 45.0785 32.4652 45.1411 32.2536C45.2036 32.0419 45.3086 31.8453 45.4494 31.6757C45.5987 31.4896 45.6951 31.2664 45.7284 31.0297L46.1955 27.5146C46.2046 27.447 46.2395 27.3856 46.293 27.3434C46.3464 27.3013 46.4141 27.2816 46.4818 27.2887C46.719 27.3012 46.9568 27.2955 47.1932 27.2714L47.196 27.2712C47.2619 27.2664 47.3272 27.287 47.3786 27.3288C47.43 27.3705 47.4636 27.4304 47.4725 27.4961L47.9578 31.0857C47.9911 31.3205 48.0849 31.5425 48.2299 31.7299C48.3695 31.9011 48.4706 32.1005 48.5263 32.3145C48.582 32.5286 48.5909 32.7522 48.5524 32.97V38.8416C48.5524 39.6505 47.9881 39.7671 47.9824 39.7682C47.6109 39.8152 47.2369 39.8388 46.8625 39.8388ZM46.4572 27.4891C46.4422 27.4884 46.4276 27.4932 46.416 27.5028C46.4045 27.5123 46.3969 27.5258 46.3947 27.5407L45.9275 31.0571C45.889 31.3307 45.7775 31.5886 45.6047 31.8036C45.4805 31.9529 45.3881 32.1262 45.3332 32.3127C45.2783 32.4992 45.2621 32.6951 45.2856 32.8881L45.2864 32.9005V38.8728C45.2862 38.8803 45.2755 39.2537 45.4644 39.4499C45.5035 39.4898 45.5505 39.521 45.6024 39.5414C45.6543 39.5618 45.7099 39.571 45.7656 39.5684L45.7781 39.5692C46.4996 39.66 47.2297 39.66 47.9512 39.5692C47.9607 39.5668 48.3515 39.4774 48.3515 38.8416L48.3531 32.9429C48.3879 32.7522 48.3808 32.5561 48.3324 32.3683C48.284 32.1805 48.1955 32.0056 48.0728 31.8556C47.9055 31.6399 47.7972 31.384 47.7588 31.1134L47.2734 27.5233C47.2713 27.5086 47.2638 27.4952 47.2523 27.4858C47.2409 27.4763 47.2263 27.4715 47.2115 27.4722C46.9636 27.4971 46.7142 27.5029 46.4655 27.4895C46.4627 27.4892 46.46 27.4891 46.4572 27.4891Z" fill="#3F3D56"/>
<path d="M46.4656 33.0078H47.206C47.5004 33.0078 47.7828 33.1252 47.9909 33.334C48.1991 33.5429 48.3161 33.8262 48.3161 34.1216V36.9168C48.3161 37.2122 48.1991 37.4955 47.9909 37.7044C47.7828 37.9133 47.5004 38.0306 47.206 38.0306H46.4656C46.1712 38.0306 45.8888 37.9133 45.6806 37.7044C45.4724 37.4955 45.3555 37.2122 45.3555 36.9168V34.1216C45.3555 33.8262 45.4724 33.5429 45.6806 33.334C45.8888 33.1252 46.1712 33.0078 46.4656 33.0078Z" fill="#B900F4"/>
<path d="M7.97458 10.1126C9.93452 10.1126 11.5234 8.51842 11.5234 6.5519C11.5234 4.58539 9.93452 2.99121 7.97458 2.99121C6.01463 2.99121 4.42578 4.58539 4.42578 6.5519C4.42578 8.51842 6.01463 10.1126 7.97458 10.1126Z" fill="#F0F0F0"/>
<path d="M89.7402 7.12138C91.7001 7.12138 93.289 5.52721 93.289 3.56069C93.289 1.59418 91.7001 0 89.7402 0C87.7803 0 86.1914 1.59418 86.1914 3.56069C86.1914 5.52721 87.7803 7.12138 89.7402 7.12138Z" fill="#F0F0F0"/>
<path d="M49.1411 16.0942C50.5522 16.0942 51.6962 14.9464 51.6962 13.5305C51.6962 12.1146 50.5522 10.9668 49.1411 10.9668C47.7299 10.9668 46.5859 12.1146 46.5859 13.5305C46.5859 14.9464 47.7299 16.0942 49.1411 16.0942Z" fill="#F0F0F0"/>
</g>
<defs>
<clipPath id="clip0_322_14845">
<rect width="104" height="91" fill="white"/>
</clipPath>
</defs>
</svg>
