<svg width="20" height="20" viewBox="0 0 20 20" fill="none" xmlns="http://www.w3.org/2000/svg">
<circle cx="10" cy="10" r="10" fill="#3BEDBF"/>
<path d="M14.6433 8.92997H11.0718V5.35854C11.0718 5.07438 10.959 4.80186 10.758 4.60092C10.5571 4.39999 10.2846 4.28711 10.0004 4.28711C9.71626 4.28711 9.44374 4.39999 9.2428 4.60092C9.04187 4.80186 8.92899 5.07438 8.92899 5.35854V8.92997H5.35756C5.0734 8.92997 4.80088 9.04285 4.59995 9.24378C4.39902 9.44471 4.28613 9.71723 4.28613 10.0014C4.28613 10.2856 4.39902 10.5581 4.59995 10.759C4.80088 10.9599 5.0734 11.0728 5.35756 11.0728H8.92899V14.6443C8.92899 14.9284 9.04187 15.2009 9.2428 15.4019C9.44374 15.6028 9.71626 15.7157 10.0004 15.7157C10.2846 15.7157 10.5571 15.6028 10.758 15.4019C10.959 15.2009 11.0718 14.9284 11.0718 14.6443V11.0728H14.6433C14.9274 11.0728 15.2 10.9599 15.4009 10.759C15.6018 10.5581 15.7147 10.2856 15.7147 10.0014C15.7147 9.71723 15.6018 9.44471 15.4009 9.24378C15.2 9.04285 14.9274 8.92997 14.6433 8.92997Z" fill="white"/>
</svg>
