<svg width="18" height="19" viewBox="0 0 18 19" fill="none" xmlns="http://www.w3.org/2000/svg">
<path d="M8 3.40186H2.55556C2.143 3.40186 1.74733 3.56574 1.45561 3.85747C1.16389 4.14919 1 4.54485 1 4.95741V15.8463C1 16.2589 1.16389 16.6545 1.45561 16.9462C1.74733 17.238 2.143 17.4019 2.55556 17.4019H13.4444C13.857 17.4019 14.2527 17.238 14.5444 16.9462C14.8361 16.6545 15 16.2589 15 15.8463V10.4019" stroke="#3BEDBF" stroke-width="2" stroke-linecap="round" stroke-linejoin="round"/>
<path d="M14.1791 1.88584C14.489 1.57595 14.9093 1.40186 15.3476 1.40186C15.7858 1.40186 16.2061 1.57595 16.516 1.88584C16.8259 2.19573 17 2.61604 17 3.05429C17 3.49254 16.8259 3.91284 16.516 4.22273L9.11586 11.6229L6 12.4019L6.77896 9.286L14.1791 1.88584Z" stroke="#3BEDBF" stroke-width="2" stroke-linecap="round" stroke-linejoin="round"/>
</svg>
