<svg width="26" height="26" viewBox="0 0 26 26" fill="none" xmlns="http://www.w3.org/2000/svg">
<path d="M13 21.45C13.5417 21.45 14.0019 21.2602 14.3806 20.8806C14.7602 20.5019 14.95 20.0417 14.95 19.5H11.05C11.05 20.0417 11.2398 20.5019 11.6194 20.8806C11.9981 21.2602 12.4583 21.45 13 21.45ZM6.5 18.2H19.5V15.6H18.2V12.22C18.2 10.8983 17.859 9.6902 17.1769 8.5956C16.494 7.50187 15.535 6.80333 14.3 6.5V4.55H11.7V6.5C10.465 6.80333 9.50647 7.50187 8.8244 8.5956C8.14147 9.6902 7.8 10.8983 7.8 12.22V15.6H6.5V18.2ZM13 26C11.2017 26 9.51167 25.6585 7.93 24.9756C6.34833 24.2935 4.9725 23.3675 3.8025 22.1975C2.6325 21.0275 1.70647 19.6517 1.0244 18.07C0.341467 16.4883 0 14.7983 0 13C0 11.2017 0.341467 9.51167 1.0244 7.93C1.70647 6.34833 2.6325 4.9725 3.8025 3.8025C4.9725 2.6325 6.34833 1.70603 7.93 1.0231C9.51167 0.341033 11.2017 0 13 0C14.7983 0 16.4883 0.341033 18.07 1.0231C19.6517 1.70603 21.0275 2.6325 22.1975 3.8025C23.3675 4.9725 24.2935 6.34833 24.9756 7.93C25.6585 9.51167 26 11.2017 26 13C26 14.7983 25.6585 16.4883 24.9756 18.07C24.2935 19.6517 23.3675 21.0275 22.1975 22.1975C21.0275 23.3675 19.6517 24.2935 18.07 24.9756C16.4883 25.6585 14.7983 26 13 26Z" fill="#B900F4"/>
</svg>
