<svg width="42" height="42" viewBox="0 0 42 42" fill="none" xmlns="http://www.w3.org/2000/svg">
<path fill-rule="evenodd" clip-rule="evenodd" d="M30.625 35C31.7853 35 32.8981 34.5391 33.7186 33.7186C34.5391 32.8981 35 31.7853 35 30.625C35 29.4647 34.5391 28.3519 33.7186 27.5314C32.8981 26.7109 31.7853 26.25 30.625 26.25C29.4647 26.25 28.3519 26.7109 27.5314 27.5314C26.7109 28.3519 26.25 29.4647 26.25 30.625C26.25 31.7853 26.7109 32.8981 27.5314 33.7186C28.3519 34.5391 29.4647 35 30.625 35ZM30.625 36.75C32.2495 36.75 33.8074 36.1047 34.956 34.956C36.1047 33.8074 36.75 32.2495 36.75 30.625C36.75 29.0005 36.1047 27.4426 34.956 26.294C33.8074 25.1453 32.2495 24.5 30.625 24.5C29.0005 24.5 27.4426 25.1453 26.294 26.294C25.1453 27.4426 24.5 29.0005 24.5 30.625C24.5 32.2495 25.1453 33.8074 26.294 34.956C27.4426 36.1047 29.0005 36.75 30.625 36.75V36.75Z" fill="#B900F4"/>
<path fill-rule="evenodd" clip-rule="evenodd" d="M30.625 27.5625C30.8571 27.5625 31.0796 27.6547 31.2437 27.8188C31.4078 27.9829 31.5 28.2054 31.5 28.4375V30.2627L32.1186 30.8814C32.278 31.0464 32.3662 31.2674 32.3642 31.4969C32.3622 31.7263 32.2702 31.9457 32.108 32.108C31.9457 32.2702 31.7263 32.3622 31.4969 32.3642C31.2674 32.3662 31.0464 32.278 30.8814 32.1186L29.75 30.9873V28.4375C29.75 28.2054 29.8422 27.9829 30.0063 27.8188C30.1704 27.6547 30.3929 27.5625 30.625 27.5625ZM12.25 20.125H10.5V21.875H12.25V20.125ZM10.5 18.375C10.0359 18.375 9.59075 18.5594 9.26256 18.8876C8.93437 19.2158 8.75 19.6609 8.75 20.125V21.875C8.75 22.3391 8.93437 22.7842 9.26256 23.1124C9.59075 23.4406 10.0359 23.625 10.5 23.625H12.25C12.7141 23.625 13.1592 23.4406 13.4874 23.1124C13.8156 22.7842 14 22.3391 14 21.875V20.125C14 19.6609 13.8156 19.2158 13.4874 18.8876C13.1592 18.5594 12.7141 18.375 12.25 18.375H10.5ZM19.25 20.125H17.5V21.875H19.25V20.125ZM17.5 18.375C17.0359 18.375 16.5908 18.5594 16.2626 18.8876C15.9344 19.2158 15.75 19.6609 15.75 20.125V21.875C15.75 22.3391 15.9344 22.7842 16.2626 23.1124C16.5908 23.4406 17.0359 23.625 17.5 23.625H19.25C19.7141 23.625 20.1592 23.4406 20.4874 23.1124C20.8156 22.7842 21 22.3391 21 21.875V20.125C21 19.6609 20.8156 19.2158 20.4874 18.8876C20.1592 18.5594 19.7141 18.375 19.25 18.375H17.5ZM26.25 20.125H24.5V21.875H26.25V20.125ZM24.5 18.375C24.0359 18.375 23.5908 18.5594 23.2626 18.8876C22.9344 19.2158 22.75 19.6609 22.75 20.125V21.875C22.75 22.3391 22.9344 22.7842 23.2626 23.1124C23.5908 23.4406 24.0359 23.625 24.5 23.625H26.25C26.7141 23.625 27.1592 23.4406 27.4874 23.1124C27.8156 22.7842 28 22.3391 28 21.875V20.125C28 19.6609 27.8156 19.2158 27.4874 18.8876C27.1592 18.5594 26.7141 18.375 26.25 18.375H24.5ZM12.25 27.125H10.5V28.875H12.25V27.125ZM10.5 25.375C10.0359 25.375 9.59075 25.5594 9.26256 25.8876C8.93437 26.2158 8.75 26.6609 8.75 27.125V28.875C8.75 29.3391 8.93437 29.7842 9.26256 30.1124C9.59075 30.4406 10.0359 30.625 10.5 30.625H12.25C12.7141 30.625 13.1592 30.4406 13.4874 30.1124C13.8156 29.7842 14 29.3391 14 28.875V27.125C14 26.6609 13.8156 26.2158 13.4874 25.8876C13.1592 25.5594 12.7141 25.375 12.25 25.375H10.5ZM19.25 27.125H17.5V28.875H19.25V27.125ZM17.5 25.375C17.0359 25.375 16.5908 25.5594 16.2626 25.8876C15.9344 26.2158 15.75 26.6609 15.75 27.125V28.875C15.75 29.3391 15.9344 29.7842 16.2626 30.1124C16.5908 30.4406 17.0359 30.625 17.5 30.625H19.25C19.7141 30.625 20.1592 30.4406 20.4874 30.1124C20.8156 29.7842 21 29.3391 21 28.875V27.125C21 26.6609 20.8156 26.2158 20.4874 25.8876C20.1592 25.5594 19.7141 25.375 19.25 25.375H17.5Z" fill="#B900F4"/>
<path fill-rule="evenodd" clip-rule="evenodd" d="M7 10.5C7 10.2679 7.09219 10.0454 7.25628 9.88128C7.42038 9.71719 7.64294 9.625 7.875 9.625H12.25V7.875H7.875C7.17881 7.875 6.51113 8.15156 6.01884 8.64384C5.52656 9.13613 5.25 9.80381 5.25 10.5V31.5C5.25 32.1962 5.52656 32.8639 6.01884 33.3562C6.51113 33.8484 7.17881 34.125 7.875 34.125H25.5981C25.225 33.5905 24.9399 32.9997 24.7537 32.375H7.875C7.64294 32.375 7.42038 32.2828 7.25628 32.1187C7.09219 31.9546 7 31.7321 7 31.5V10.5ZM29.75 24.5612C30.3304 24.4782 30.9196 24.4782 31.5 24.5612V10.5C31.5 9.80381 31.2234 9.13613 30.7312 8.64384C30.2389 8.15156 29.5712 7.875 28.875 7.875H26.25V9.625H28.875C29.1071 9.625 29.3296 9.71719 29.4937 9.88128C29.6578 10.0454 29.75 10.2679 29.75 10.5V24.5612ZM14 9.625H23.2426V7.875H14V9.625Z" fill="#B900F4"/>
<path fill-rule="evenodd" clip-rule="evenodd" d="M31.5 15.75H7V14H31.5V15.75Z" fill="#B900F4"/>
<path d="M10.5 6.125C10.5 5.89294 10.5922 5.67038 10.7563 5.50628C10.9204 5.34219 11.1429 5.25 11.375 5.25C11.6071 5.25 11.8296 5.34219 11.9937 5.50628C12.1578 5.67038 12.25 5.89294 12.25 6.125V10.5C12.25 10.7321 12.1578 10.9546 11.9937 11.1187C11.8296 11.2828 11.6071 11.375 11.375 11.375C11.1429 11.375 10.9204 11.2828 10.7563 11.1187C10.5922 10.9546 10.5 10.7321 10.5 10.5V6.125ZM22.75 6.125C22.75 5.89294 22.8422 5.67038 23.0063 5.50628C23.1704 5.34219 23.3929 5.25 23.625 5.25C23.8571 5.25 24.0796 5.34219 24.2437 5.50628C24.4078 5.67038 24.5 5.89294 24.5 6.125V10.5C24.5 10.7321 24.4078 10.9546 24.2437 11.1187C24.0796 11.2828 23.8571 11.375 23.625 11.375C23.3929 11.375 23.1704 11.2828 23.0063 11.1187C22.8422 10.9546 22.75 10.7321 22.75 10.5V6.125Z" fill="#B900F4"/>
</svg>
