<svg width="29" height="25" viewBox="0 0 29 25" fill="none" xmlns="http://www.w3.org/2000/svg">
<path d="M26.3148 3.84615H21.75L20.6625 0.728022C20.5874 0.514657 20.4497 0.330226 20.2683 0.199923C20.0868 0.0696202 19.8705 -0.000200075 19.6488 4.30641e-07H9.35116C8.89803 4.30641e-07 8.4919 0.291896 8.34086 0.728022L7.25 3.84615H2.68518C1.20162 3.84615 0 5.07555 0 6.59341V22.2527C0 23.7706 1.20162 25 2.68518 25H26.3148C27.7984 25 29 23.7706 29 22.2527V6.59341C29 5.07555 27.7984 3.84615 26.3148 3.84615ZM26.5833 22.2527C26.5833 22.4038 26.4625 22.5275 26.3148 22.5275H2.68518C2.5375 22.5275 2.41667 22.4038 2.41667 22.2527V6.59341C2.41667 6.44231 2.5375 6.31868 2.68518 6.31868H8.95174L9.52569 4.6772L10.2943 2.47253H18.7023L19.4709 4.6772L20.0449 6.31868H26.3148C26.4625 6.31868 26.5833 6.44231 26.5833 6.59341V22.2527ZM14.5 8.51648C11.5329 8.51648 9.12963 10.9753 9.12963 14.011C9.12963 17.0467 11.5329 19.5055 14.5 19.5055C17.4671 19.5055 19.8704 17.0467 19.8704 14.011C19.8704 10.9753 17.4671 8.51648 14.5 8.51648ZM14.5 17.3077C12.7211 17.3077 11.2778 15.831 11.2778 14.011C11.2778 12.1909 12.7211 10.7143 14.5 10.7143C16.2789 10.7143 17.7222 12.1909 17.7222 14.011C17.7222 15.831 16.2789 17.3077 14.5 17.3077Z" fill="white"/>
</svg>
