<svg width="50" height="50" viewBox="0 0 50 50" fill="none" xmlns="http://www.w3.org/2000/svg">
<path d="M25 0C11.2 0 0 11.2 0 25C0 38.8 11.2 50 25 50C38.8 50 50 38.8 50 25C50 11.2 38.8 0 25 0ZM35.075 26.325L27.575 33.825C27.2 34.2 26.725 34.375 26.25 34.375C25.775 34.375 25.3 34.2 24.925 33.825C24.5763 33.4722 24.3807 32.9961 24.3807 32.5C24.3807 32.0039 24.5763 31.5278 24.925 31.175L29.225 26.875H16.25C15.225 26.875 14.375 26.025 14.375 25C14.375 23.975 15.225 23.125 16.25 23.125H29.225L24.925 18.825C24.5763 18.4722 24.3807 17.9961 24.3807 17.5C24.3807 17.0039 24.5763 16.5278 24.925 16.175C25.65 15.45 26.85 15.45 27.575 16.175L35.075 23.675C35.8 24.4 35.8 25.6 35.075 26.325Z" fill="#B900F4"/>
</svg>
