<svg width="30" height="30" viewBox="0 0 30 30" fill="none" xmlns="http://www.w3.org/2000/svg">
<path d="M19.6676 13.445V13.4605M4.38165 9.36646C3.69941 8.84211 3.17543 8.13933 2.86763 7.3358C2.55982 6.53227 2.48018 5.65928 2.6375 4.81332C2.79482 3.96736 3.18298 3.18136 3.75907 2.54221C4.33517 1.90306 5.07676 1.43563 5.9019 1.1916C6.72704 0.947568 7.60358 0.93643 8.43465 1.15942C9.26573 1.38241 10.019 1.83084 10.6111 2.45514C11.2033 3.07945 11.6113 3.85533 11.79 4.69702C11.9688 5.53872 11.9114 6.41345 11.6241 7.22454" stroke="#939393" stroke-width="2" stroke-linecap="round" stroke-linejoin="round"/>
<path d="M21.2238 2.55664V8.47243C23.1489 9.5864 24.6147 11.3494 25.3584 13.4455H27.4444C27.857 13.4455 28.2527 13.6094 28.5444 13.9012C28.8361 14.1929 29 14.5885 29 15.0011V18.1122C29 18.5248 28.8361 18.9204 28.5444 19.2122C28.2527 19.5039 27.857 19.6678 27.4444 19.6678H25.3569C24.8342 21.1456 23.946 22.4678 22.7778 23.5147V26.6678C22.7778 27.2866 22.5319 27.8801 22.0943 28.3177C21.6568 28.7553 21.0633 29.0011 20.4444 29.0011C19.8256 29.0011 19.2321 28.7553 18.7945 28.3177C18.3569 27.8801 18.1111 27.2866 18.1111 26.6678V25.7609C17.5971 25.847 17.0767 25.8902 16.5555 25.89H10.3333C9.8121 25.8902 9.29178 25.847 8.77774 25.7609V26.6678C8.77774 27.2866 8.53191 27.8801 8.09432 28.3177C7.65674 28.7553 7.06324 29.0011 6.4444 29.0011C5.82556 29.0011 5.23207 28.7553 4.79449 28.3177C4.3569 27.8801 4.11107 27.2866 4.11107 26.6678V23.5567L4.11262 23.5147C2.70333 22.2547 1.70985 20.5965 1.26368 18.7595C0.817512 16.9225 0.939683 14.9933 1.61403 13.2273C2.28837 11.4612 3.48309 9.94161 5.04007 8.86949C6.59706 7.79738 8.44289 7.22333 10.3333 7.22332H14.2222L21.2222 2.55664H21.2238Z" stroke="#939393" stroke-width="2" stroke-linecap="round" stroke-linejoin="round"/>
</svg>
