<svg width="27" height="27" viewBox="0 0 27 27" fill="none" xmlns="http://www.w3.org/2000/svg">
<path d="M25.0465 13.9764C25.0465 20.6166 19.6635 25.9996 13.0233 25.9996C6.38299 25.9996 1 20.6166 1 13.9764C1 7.33612 6.38299 1.95312 13.0233 1.95312C19.6635 1.95312 25.0465 7.33612 25.0465 13.9764Z" fill="white" stroke="#F57ED4" stroke-width="2"/>
<path d="M11.8967 7.71011L12.8733 13.0251L9.33527 13.0374L14.1512 20.2426L13.1746 14.3953L16.7124 14.3825L11.8967 7.71011ZM11.896 6.8135C11.9194 6.8135 11.9428 6.81439 11.9657 6.81617C12.1185 6.82896 12.2198 6.88186 12.3399 6.96547C12.4075 7.01217 12.4685 7.06846 12.521 7.13269C12.5368 7.15197 12.5517 7.17201 12.5656 7.19276L17.416 13.8419C17.6075 14.1138 17.6356 14.4727 17.4885 14.7726C17.3415 15.0725 17.0444 15.2626 16.7187 15.2651L14.2201 15.2839L15.0056 20.0779C15.0803 20.4899 14.8682 20.9006 14.4949 21.066C14.3864 21.1143 14.2695 21.1391 14.1515 21.1391C13.8794 21.1391 13.6559 21.0073 13.4882 20.7692L8.63172 13.5639C8.4402 13.292 8.41227 12.9327 8.55922 12.6332C8.70616 12.3333 9.00329 12.1432 9.32899 12.1408L11.8276 12.1363L11.0505 7.92103C11.0341 7.85202 11.0258 7.78119 11.0258 7.7101C11.0258 7.22503 11.3987 6.82962 11.8653 6.81392C11.8757 6.81348 11.8859 6.8135 11.896 6.8135Z" fill="#F57ED4"/>
</svg>
