<svg width="156" height="99" viewBox="0 0 156 99" fill="none" xmlns="http://www.w3.org/2000/svg">
<g clip-path="url(#clip0_322_14062)">
<path d="M78.4911 27.9735C78.3302 28.8557 77.7861 30.718 76.0284 30.6717C74.6866 30.6377 73.6529 29.4683 73.6884 28.1287L74.1943 9.8869L74.3593 3.93789C74.3593 3.93789 75.2293 2.29204 76.0952 9.67045V9.69767L78.5007 27.1935C78.5392 27.4523 78.536 27.7157 78.4911 27.9735Z" fill="white"/>
<path d="M77.3171 29.7451H74.7344V35.2599H77.3171V29.7451Z" fill="white"/>
<path d="M77.0415 33.9502H75.0547V36.3706H77.0415V33.9502Z" fill="white"/>
<path d="M76.0966 9.69963C75.1925 9.43689 74.5775 9.637 74.1875 9.88885L74.3525 3.93984C74.3525 3.93984 75.2225 2.29399 76.0884 9.6724L76.0966 9.69963Z" fill="#B900F4"/>
<path d="M77.3171 31.3934V35.2595H74.7344V31.4696C75.5538 31.1153 76.4781 31.0881 77.3171 31.3934Z" fill="#B900F4"/>
<path d="M83.3997 43.6848C82.6756 43.1539 81.2383 41.8497 82.0497 40.2923C82.6688 39.1039 84.1742 38.6873 85.3647 39.3067L101.566 47.7579L106.85 50.5132C106.85 50.5132 107.949 52.0107 100.927 49.5603L100.901 49.5521L84.0938 44.0387C83.8453 43.9578 83.611 43.8384 83.3997 43.6848Z" fill="white"/>
<path d="M78.4877 37.124L77.3555 39.4414L82.3205 41.8589L83.4527 39.5415L78.4877 37.124Z" fill="white"/>
<path d="M78.6564 39.7661L79.5273 37.9834L77.3482 36.9223L76.4772 38.7051L78.6564 39.7661Z" fill="white"/>
<path d="M100.898 49.5507C101.531 48.8537 101.621 48.2139 101.564 47.7578L106.848 50.5131C106.848 50.5131 107.947 52.0106 100.924 49.5602L100.898 49.5507Z" fill="#B900F4"/>
<path d="M80.8368 41.1351L77.3555 39.4402L78.4873 37.126L81.8964 38.7868C81.8567 39.6759 81.4775 40.5162 80.8368 41.1351Z" fill="#B900F4"/>
<path d="M68.6535 43.6848C69.3776 43.1539 70.8149 41.8497 70.0035 40.2923C69.3845 39.1039 67.879 38.6873 66.6885 39.3067L50.4872 47.7579L45.2031 50.5132C45.2031 50.5132 44.104 52.0107 51.1267 49.5603L51.1526 49.5521L67.9595 44.0401C68.2081 43.9587 68.4423 43.8388 68.6535 43.6848Z" fill="white"/>
<path d="M73.5666 37.1235L68.6016 39.541L69.7338 41.8584L74.6988 39.4409L73.5666 37.1235Z" fill="white"/>
<path d="M75.578 38.7046L74.707 36.9219L72.5279 37.9829L73.3988 39.7656L75.578 38.7046Z" fill="white"/>
<path d="M51.1526 49.5507C50.5199 48.8537 50.4299 48.2139 50.4872 47.7578L45.2031 50.5131C45.2031 50.5131 44.104 52.0106 51.1267 49.5602L51.1526 49.5507Z" fill="#B900F4"/>
<path d="M71.2197 41.1351L74.7011 39.4402L73.5692 37.126L70.1602 38.7868C70.1999 39.6759 70.579 40.5162 71.2197 41.1351Z" fill="#B900F4"/>
<path d="M78.3511 97.658H73.2852L74.8942 38.0957H76.742L78.3511 97.658Z" fill="white"/>
<path d="M76.028 39.0474C76.9604 39.0474 77.7162 38.2929 77.7162 37.3621C77.7162 36.4313 76.9604 35.6768 76.028 35.6768C75.0957 35.6768 74.3398 36.4313 74.3398 37.3621C74.3398 38.2929 75.0957 39.0474 76.028 39.0474Z" fill="#B900F4"/>
<path d="M116.001 24.8348C115.893 25.4311 115.525 26.6903 114.336 26.659C113.898 26.6389 113.486 26.4469 113.189 26.1249C112.892 25.8029 112.735 25.3769 112.751 24.9397L113.095 12.5978L113.205 8.57376C113.205 8.57376 113.794 7.46019 114.381 12.4522V12.4699L116.008 24.3135C116.033 24.4865 116.03 24.6625 116.001 24.8348Z" fill="white"/>
<path d="M115.208 26.0312H113.461V29.7627H115.208V26.0312Z" fill="white"/>
<path d="M115.02 28.877H113.676V30.5146H115.02V28.877Z" fill="white"/>
<path d="M114.382 12.4709C113.77 12.2939 113.354 12.4287 113.094 12.5988L113.204 8.57473C113.204 8.57473 113.793 7.46117 114.38 12.4532L114.382 12.4709Z" fill="#B900F4"/>
<path d="M115.208 27.146V29.7597H113.461V27.1991C114.015 26.9587 114.64 26.9396 115.208 27.146Z" fill="#B900F4"/>
<path d="M119.319 35.4625C118.83 35.1045 117.856 34.2224 118.405 33.1687C118.615 32.7844 118.969 32.4987 119.389 32.3737C119.81 32.2487 120.262 32.2947 120.649 32.5016L131.61 38.2192L135.184 40.0829C135.184 40.0829 135.928 41.0998 131.177 39.4376H131.16L119.788 35.7089C119.62 35.6521 119.461 35.5689 119.319 35.4625Z" fill="white"/>
<path d="M115.996 31.0244L115.23 32.5918L118.59 34.2275L119.356 32.6602L115.996 31.0244Z" fill="white"/>
<path d="M116.114 32.8129L116.703 31.6064L115.229 30.8885L114.639 32.095L116.114 32.8129Z" fill="white"/>
<path d="M131.164 39.4327C131.592 38.9616 131.654 38.5287 131.614 38.2197L135.188 40.0834C135.188 40.0834 135.933 41.1003 131.182 39.4381L131.164 39.4327Z" fill="#B900F4"/>
<path d="M117.587 33.7389L115.227 32.5913L115.992 31.0244L118.3 32.1475C118.274 32.7494 118.019 33.3186 117.587 33.7389Z" fill="#B900F4"/>
<path d="M109.348 35.4625C109.838 35.1045 110.812 34.2224 110.262 33.1687C110.052 32.7844 109.698 32.4987 109.278 32.3737C108.858 32.2487 108.405 32.2947 108.019 32.5016L97.0579 38.2192L93.4838 40.0829C93.4838 40.0829 92.7393 41.0998 97.4902 39.4376H97.5079L108.879 35.7089C109.048 35.6521 109.206 35.5689 109.348 35.4625Z" fill="white"/>
<path d="M112.672 31.0254L109.312 32.6611L110.078 34.2285L113.438 32.5928L112.672 31.0254Z" fill="white"/>
<path d="M114.031 32.0941L113.441 30.8877L111.967 31.6056L112.556 32.812L114.031 32.0941Z" fill="white"/>
<path d="M97.5079 39.4327C97.0797 38.9616 97.0184 38.5287 97.0579 38.2197L93.4838 40.0834C93.4838 40.0834 92.7393 41.1003 97.4902 39.4381L97.5079 39.4327Z" fill="#B900F4"/>
<path d="M111.082 33.7389L113.437 32.5913L112.672 31.0244L110.363 32.1475C110.39 32.7501 110.648 33.3195 111.082 33.7389Z" fill="#B900F4"/>
<path d="M115.909 71.9793L112.465 72.5838L113.569 31.6826H114.82L115.909 71.9793Z" fill="white"/>
<path d="M114.334 32.3265C114.965 32.3265 115.477 31.8158 115.477 31.1857C115.477 30.5557 114.965 30.0449 114.334 30.0449C113.703 30.0449 113.191 30.5557 113.191 31.1857C113.191 31.8158 113.703 32.3265 114.334 32.3265Z" fill="#B900F4"/>
<path d="M37.8431 24.8348C37.7354 25.4311 37.3672 26.6903 36.1781 26.659C35.7404 26.6389 35.3284 26.4469 35.0319 26.1248C34.7353 25.8028 34.5783 25.3768 34.595 24.9397L34.9372 12.5978L35.0477 8.57376C35.0477 8.57376 35.6368 7.46019 36.2231 12.4522V12.4699L37.8513 24.3135C37.8753 24.4866 37.8725 24.6625 37.8431 24.8348Z" fill="white"/>
<path d="M37.0515 26.0312H35.3047V29.7627H37.0515V26.0312Z" fill="white"/>
<path d="M36.8602 28.877H35.5156V30.5146H36.8602V28.877Z" fill="white"/>
<path d="M36.2261 12.4709C35.6152 12.2939 35.198 12.4287 34.9375 12.5988L35.048 8.57473C35.048 8.57473 35.637 7.46117 36.2234 12.4532L36.2261 12.4709Z" fill="#B900F4"/>
<path d="M37.0515 27.146V29.7597H35.3047V27.1991C35.8586 26.9587 36.4839 26.9396 37.0515 27.146Z" fill="#B900F4"/>
<path d="M41.1656 35.4625C40.676 35.1044 39.7037 34.2223 40.2533 33.1686C40.463 32.7844 40.8164 32.4987 41.2364 32.3737C41.6565 32.2487 42.1089 32.2947 42.4951 32.5016L53.456 38.2191L57.0315 40.0828C57.0315 40.0828 57.7746 41.0997 53.0237 39.4375H53.006L41.636 35.7089C41.4672 35.652 41.3084 35.5688 41.1656 35.4625Z" fill="white"/>
<path d="M37.84 31.0254L37.0742 32.5928L40.4337 34.2285L41.1994 32.6611L37.84 31.0254Z" fill="white"/>
<path d="M37.9536 32.8129L38.543 31.6064L37.0685 30.8885L36.4791 32.095L37.9536 32.8129Z" fill="white"/>
<path d="M53.0039 39.4327C53.4321 38.9616 53.4935 38.5287 53.4539 38.2197L57.0294 40.0834C57.0294 40.0834 57.7725 41.1003 53.0216 39.4381L53.0039 39.4327Z" fill="#B900F4"/>
<path d="M39.4292 33.7389L37.0742 32.5913L37.8406 31.0244L40.1479 32.1475C40.1212 32.7503 39.864 33.3198 39.4292 33.7389Z" fill="#B900F4"/>
<path d="M31.1882 35.4625C31.6791 35.1045 32.6514 34.2224 32.1018 33.1687C31.8918 32.7844 31.5382 32.4987 31.1179 32.3737C30.6977 32.2487 30.245 32.2947 29.8587 32.5016L18.8977 38.2192L15.3237 40.0829C15.3237 40.0829 14.5791 41.0998 19.33 39.4376H19.3477L30.7191 35.7089C30.8875 35.6521 31.0459 35.5689 31.1882 35.4625Z" fill="white"/>
<path d="M34.5157 31.0254L31.1562 32.6611L31.922 34.2285L35.2814 32.5928L34.5157 31.0254Z" fill="white"/>
<path d="M35.8746 32.0951L35.2852 30.8887L33.8107 31.6066L34.4001 32.813L35.8746 32.0951Z" fill="white"/>
<path d="M19.3477 39.4327C18.9209 38.9616 18.8596 38.5287 18.8977 38.2197L15.3237 40.0834C15.3237 40.0834 14.5791 41.1003 19.33 39.4381L19.3477 39.4327Z" fill="#B900F4"/>
<path d="M32.9218 33.7389L35.2768 32.5913L34.5118 31.0244L32.2031 32.1475C32.231 32.75 32.488 33.3191 32.9218 33.7389Z" fill="#B900F4"/>
<path d="M37.7485 71.9793H34.3203L35.4099 31.6826H36.6589L37.7485 71.9793Z" fill="white"/>
<path d="M36.1779 32.3265C36.809 32.3265 37.3206 31.8158 37.3206 31.1857C37.3206 30.5557 36.809 30.0449 36.1779 30.0449C35.5468 30.0449 35.0352 30.5557 35.0352 31.1857C35.0352 31.8158 35.5468 32.3265 36.1779 32.3265Z" fill="#B900F4"/>
<path opacity="0.1" d="M28.5161 98.9987C37.6981 98.9987 45.1415 98.1265 45.1415 97.0506C45.1415 95.9747 37.6981 95.1025 28.5161 95.1025C19.3341 95.1025 11.8906 95.9747 11.8906 97.0506C11.8906 98.1265 19.3341 98.9987 28.5161 98.9987Z" fill="#B900F4"/>
<path d="M36.8399 95.3126C36.8399 95.3126 35.7613 95.186 35.059 94.6632L35.0058 94.621C35.0483 94.5575 35.0792 94.487 35.0972 94.4127C35.0218 94.2661 34.9821 94.1038 34.9813 93.939C34.9835 93.7843 34.9518 93.631 34.8886 93.4897V92.7247C34.8886 92.7247 34.6554 92.4769 34.6322 91.8466C34.609 91.2163 34.5858 88.1098 34.5858 88.1098C34.5499 87.9471 34.542 87.7795 34.5626 87.6142C34.5858 87.2548 34.5858 87.1201 34.5858 87.1201C34.5095 86.9112 34.4857 86.6868 34.5163 86.4666C34.5858 86.1944 34.3526 85.8813 34.3526 85.8813L34.7017 84.1714C34.7017 84.1714 34.8954 78.2646 34.3322 76.484V76.4731C34.3322 76.4731 34.3322 76.4581 34.3322 76.4513C34.3799 75.3024 33.6817 73.3897 34.0772 72.0624C34.4726 70.7351 34.519 70.4411 34.519 70.4411C34.519 70.4411 32.7763 66.0739 32.3372 65.0393C32.0331 64.326 31.7181 63.5418 31.4072 63.0953C31.3799 63.0563 31.3526 63.0195 31.3254 62.9851C31.3104 62.966 31.2954 62.9469 31.2804 62.9306C31.3754 62.7723 31.4328 62.5944 31.4481 62.4106C31.4726 62.0893 31.4263 61.719 31.6608 61.4917C31.7503 61.4186 31.8467 61.3543 31.9486 61.2997C32.1282 61.1817 32.2712 61.0159 32.3615 60.8211C32.4519 60.6263 32.486 60.4101 32.4599 60.197C32.4108 59.8581 32.2158 59.5763 31.9936 59.3027C32.0696 58.8874 32.0393 58.4598 31.9053 58.0594C31.7713 57.6591 31.538 57.299 31.2272 57.0129C31.2272 56.9707 31.2272 56.9271 31.2272 56.8849C31.2335 56.5731 31.1378 56.2677 30.9545 56.015L31.0199 56.0613C30.9831 56.0287 30.9476 55.9973 30.9095 55.966C30.8557 55.9119 30.7941 55.866 30.7267 55.8299C30.2097 55.4771 29.6053 55.2733 28.9799 55.2409C28.3544 55.2085 27.7321 55.3487 27.1813 55.6461C26.9055 55.7933 26.6685 56.0038 26.4899 56.2601C26.1258 56.8209 26.2172 57.5465 26.029 58.1836C25.8463 58.7922 25.4154 59.2958 25.0581 59.8268C24.7008 60.3577 24.4022 60.9866 24.5372 61.6074C24.634 62.058 24.9558 62.4623 24.9463 62.9238C24.9303 63.1655 24.8302 63.3941 24.6634 63.5701C24.4966 63.746 24.2735 63.8583 24.0326 63.8876H24.0204C23.9752 63.8946 23.9297 63.8982 23.884 63.8985C24.3176 64.1966 24.8563 64.3069 25.384 64.3763C25.3731 64.4172 25.3622 64.458 25.3526 64.5002C24.9258 66.1079 24.5454 68.1499 24.5454 68.1499C24.5454 68.1499 24.8004 70.2192 24.2658 71.8405C23.7313 73.4618 23.8008 76.793 23.8008 76.793C23.8008 76.793 25.2886 76.0266 25.3813 76.5208C25.474 77.0149 25.3813 77.1511 25.3813 77.1511C25.3813 77.1511 25.6854 77.3049 26.0426 77.441L26.0276 77.6384L25.9622 78.5233C25.9372 78.7089 25.9655 78.8977 26.044 79.0678C26.1722 79.3156 26.044 79.9908 26.044 79.9908C26.044 79.9908 25.9349 80.0589 26.044 80.3747C26.1531 80.6905 25.9581 81.1397 25.9581 81.1397C25.9581 81.1397 25.8217 82.8278 25.804 83.1817C25.7863 83.5357 25.339 84.5553 25.339 84.5553C25.339 84.5553 25.7345 85.0495 25.339 85.1176C24.9436 85.1856 24.8972 85.7982 24.8972 85.7982C24.8972 85.7982 24.4322 86.1808 24.4322 86.3155C24.4322 86.3155 22.3404 88.4324 21.8522 91.9201C21.8522 91.9201 21.364 92.3707 21.4336 92.7982C21.4731 93.0405 21.394 93.1235 21.3176 93.1508C21.4036 93.1617 21.4976 93.2175 21.454 93.423C21.3845 93.7824 21.199 94.5488 21.199 94.5488H21.2317C20.8513 94.9886 20.2949 95.725 20.2104 96.3717C20.2104 96.3989 20.2076 96.4261 20.2022 96.4533L19.9922 96.9257L21.829 97.7425L21.9913 97.4948C21.9913 97.4948 22.8095 98.4177 23.7354 98.6192C23.8953 98.6538 24.0585 98.6716 24.2222 98.6723C24.7389 98.6634 25.2498 98.5615 25.7304 98.3715C25.7304 98.3715 26.404 97.5397 24.6599 97.3818C24.6599 97.3818 23.6386 96.211 23.7313 95.7155C23.7663 95.507 23.7877 95.2965 23.7954 95.0852C23.7954 95.0389 23.7954 94.9935 23.7954 94.9491L23.914 94.9668L23.9358 94.5897C23.9868 94.5259 24.0117 94.4451 24.0054 94.3637C24.0054 94.2072 23.869 94.184 24.0054 94.0914C24.1417 93.9989 24.1417 94.0914 24.1417 93.8668C24.1417 93.6422 24.049 93.7089 24.2576 93.4843C24.4663 93.2597 24.2345 92.854 24.2345 92.854C24.2345 92.854 24.7226 92.4932 24.6995 92.0209C24.6763 91.5485 26.2567 88.5549 26.5813 88.4419C26.9058 88.3289 26.9304 87.7436 26.9304 87.7436C26.9304 87.7436 27.3722 87.8334 27.5113 87.7436C27.6504 87.6537 28.0922 86.9567 28.0922 86.9567C28.0922 86.9567 29.8649 82.4997 29.8826 80.8117L29.9986 80.4291C29.9986 80.4291 30.6736 81.3072 30.5795 81.9375C30.4854 82.5678 31.0949 83.017 31.0949 83.017V84.9311C31.163 85.2646 31.2005 85.6036 31.2067 85.9439C31.1836 86.2584 31.4795 86.5742 31.3676 86.8437C31.2558 87.1133 31.3676 87.587 31.3676 87.587C31.3676 87.587 31.3431 88.2173 31.3676 88.397C31.3922 88.5767 31.2763 90.6473 31.8817 91.5485C31.8817 91.5485 32.1367 92.2006 31.8817 92.628C31.6267 93.0555 32.1136 93.4843 32.1136 93.4843C32.1136 93.4843 31.8122 93.9785 32.1136 94.3392C32.2863 94.5672 32.364 94.8531 32.3304 95.1369C32.209 95.5943 32.119 96.1947 32.3222 96.6126V96.6222L32.3767 97.2647L34.1576 97.1286V96.7692C34.1576 96.7692 35.374 97.0918 36.5072 96.9162C37.1181 96.8223 37.7045 96.5827 38.0631 96.0708C38.0726 96.0776 38.7926 94.8402 36.8399 95.3126Z" fill="url(#paint0_linear_322_14062)"/>
<path d="M37.7429 96.088C37.3966 96.5985 36.8307 96.8368 36.2429 96.9307C35.152 97.105 33.9752 96.7837 33.9752 96.7837V97.1458L32.2557 97.2819L32.2025 96.6421V96.6312C32.0034 96.2092 32.0948 95.5993 32.2148 95.1406C32.2724 94.924 32.3435 94.7112 32.4275 94.5035C32.4275 94.5035 33.9084 93.2483 34.402 94.1904C34.5092 94.3852 34.6576 94.5543 34.837 94.6859C35.5189 95.2059 36.5566 95.3325 36.5566 95.3325C38.4384 94.856 37.7429 96.088 37.7429 96.088Z" fill="#65617D"/>
<path opacity="0.1" d="M33.1641 94.8561C33.1641 94.8561 33.1641 96.0214 34.0163 95.9996C34.8686 95.9778 34.9832 95.5354 34.7132 95.2359C34.5299 95.0236 34.3716 94.7911 34.2413 94.543L33.1641 94.8561Z" fill="black"/>
<path d="M25.8244 98.3708C25.3604 98.56 24.8652 98.6616 24.364 98.6703C24.2058 98.6694 24.0481 98.652 23.8935 98.6186C22.9963 98.4158 22.2108 97.4969 22.2108 97.4969L22.054 97.7446L20.2812 96.9374L20.4817 96.465L20.4899 96.3847C20.5717 95.7407 21.109 95.007 21.4772 94.5686C21.6776 94.3304 21.829 94.1807 21.829 94.1807L23.9617 94.4938C23.9617 94.4938 23.9699 94.766 23.9617 95.0982C23.9545 95.3085 23.9336 95.5182 23.899 95.7258C23.8103 96.2186 24.7963 97.3839 24.7963 97.3839C26.4749 97.5445 25.8244 98.3708 25.8244 98.3708Z" fill="#65617D"/>
<path d="M21.561 93.1676C21.5251 93.1797 21.4866 93.1826 21.4492 93.1758C21.4858 93.1667 21.5236 93.1639 21.561 93.1676Z" fill="#444053"/>
<path opacity="0.1" d="M23.9622 94.4982C23.9622 94.4982 23.9704 94.7705 23.9622 95.1027L21.4531 94.6943C21.4531 94.6943 21.4654 94.6466 21.4831 94.5677C21.6836 94.3294 21.8349 94.1797 21.8349 94.1797L23.9622 94.4982Z" fill="black"/>
<path opacity="0.1" d="M34.8338 94.68C34.4547 95.5554 32.1992 95.3484 32.1992 95.3484C32.2104 95.2778 32.2145 95.2062 32.2115 95.1347C32.2691 94.9181 32.3402 94.7054 32.4242 94.4976C32.4242 94.4976 33.9051 93.2425 34.3988 94.1845C34.5059 94.3793 34.6544 94.5484 34.8338 94.68Z" fill="black"/>
<path d="M34.8703 94.431C34.6467 95.4384 32.1989 95.2151 32.1989 95.2151C32.2459 94.9156 32.1735 94.6097 31.9971 94.3629C31.7053 94.0049 31.9971 93.5121 31.9971 93.5121C31.9971 93.5121 31.5253 93.086 31.7735 92.6599C32.0217 92.2338 31.7735 91.5844 31.7735 91.5844C31.1885 90.6887 31.3017 88.6263 31.2771 88.4534C31.2526 88.2805 31.2771 87.6475 31.2771 87.6475C31.2771 87.6475 31.1667 87.1764 31.2771 86.9069C31.3876 86.6374 31.0999 86.3243 31.1217 86.0112C31.1154 85.6724 31.0793 85.3349 31.0139 85.0024V83.0965C31.0139 83.0965 30.4262 82.6487 30.5162 82.0211C30.6062 81.3935 29.9544 80.5236 29.9544 80.5236L29.8426 80.9048C29.8208 82.5847 28.1149 87.0213 28.1149 87.0213C28.1149 87.0213 27.688 87.7169 27.553 87.8067C27.418 87.8966 26.9926 87.8067 26.9926 87.8067C26.9926 87.8067 26.9694 88.3894 26.6558 88.501C26.3421 88.6126 24.8149 91.5926 24.838 92.0636C24.8612 92.5346 24.388 92.8927 24.388 92.8927C24.388 92.8927 24.613 93.3011 24.4112 93.5202C24.2094 93.7394 24.298 93.6768 24.298 93.9014C24.298 94.126 24.298 94.0375 24.1617 94.1247C24.0253 94.2118 24.1617 94.2377 24.1617 94.3969C24.1681 94.4773 24.1437 94.5571 24.0935 94.6202L24.073 94.9973L21.4453 94.5766C21.4453 94.5766 21.6253 93.8143 21.6921 93.4549C21.7317 93.2453 21.6403 93.1894 21.5558 93.1826C21.6308 93.1554 21.7071 93.0724 21.6689 92.8328C21.6008 92.4067 22.078 91.9588 22.078 91.9588C22.5499 88.4847 24.5694 86.3773 24.5694 86.3773C24.5694 86.2412 25.018 85.8628 25.018 85.8628C25.018 85.8628 25.063 85.257 25.4449 85.1903C25.8267 85.1236 25.4449 84.6294 25.4449 84.6294C25.4449 84.6294 25.8717 83.622 25.8935 83.2681C25.9153 82.9141 26.0421 81.2261 26.0421 81.2261C26.0421 81.2261 26.2303 80.7782 26.1253 80.4651C26.0203 80.152 26.1253 80.0839 26.1253 80.0839C26.1253 80.0839 26.2521 79.4114 26.1253 79.165C26.0501 78.9964 26.0227 78.8104 26.0462 78.6273L26.1103 77.7452L26.203 76.4315C26.203 76.4315 33.1862 75.2281 33.9553 76.1905C34.0385 76.3095 34.0999 76.4422 34.1367 76.5826C34.6821 78.3523 34.4939 84.2346 34.4939 84.2346L34.1571 85.9376C34.1571 85.9376 34.3821 86.2521 34.3153 86.5203C34.2852 86.7394 34.3081 86.9625 34.3821 87.171C34.3821 87.171 34.3821 87.3071 34.3589 87.6638C34.3393 87.8282 34.3472 87.9947 34.3821 88.1566C34.3821 88.1566 34.4039 91.2482 34.4271 91.8758C34.4503 92.5033 34.6739 92.7497 34.6739 92.7497V93.5121C34.7345 93.6535 34.7647 93.8061 34.7626 93.96C34.7615 94.1232 34.7984 94.2844 34.8703 94.431Z" fill="#444053"/>
<path opacity="0.1" d="M24.364 98.6732C24.2058 98.6722 24.0481 98.6549 23.8935 98.6214C22.9963 98.4186 22.2108 97.4997 22.2108 97.4997L22.054 97.7475L20.2812 96.9402L20.4817 96.4651L20.4899 96.3848L22.3226 97.3173C22.3226 97.3173 23.7858 98.017 24.364 98.6732Z" fill="black"/>
<path opacity="0.1" d="M36.2397 96.9304C35.1488 97.1046 33.9719 96.7833 33.9719 96.7833V97.1455L32.2524 97.2816L32.1992 96.6418C32.7447 96.6513 33.6215 96.6608 34.0033 96.6309C34.7589 96.6295 35.5112 96.7303 36.2397 96.9304Z" fill="black"/>
<path opacity="0.1" d="M22.4372 92.5904C22.5268 92.5823 22.6171 92.5939 22.7017 92.6244C22.7902 92.6772 22.8742 92.7373 22.9526 92.8041C23.0115 92.8354 23.0672 92.8724 23.119 92.9144C23.1844 92.9784 23.2117 93.0737 23.2772 93.1376C23.3972 93.2561 23.5949 93.2288 23.7544 93.286C23.7722 93.286 23.7913 93.301 23.794 93.3187C23.7967 93.3364 23.7817 93.3514 23.7667 93.3623C23.7272 93.3847 23.6826 93.3965 23.6372 93.3965C23.5917 93.3965 23.5471 93.3847 23.5076 93.3623C23.4285 93.3175 23.3556 93.2626 23.2908 93.1989C23.1662 93.0885 23.0237 93.0001 22.8694 92.9375C22.6581 92.8545 22.2899 92.8313 22.1562 92.6244C22.219 92.5768 22.3553 92.5917 22.4372 92.5904Z" fill="black"/>
<path opacity="0.1" d="M22.2562 93.0615C22.3036 93.0748 22.3494 93.0935 22.3925 93.1173L22.623 93.233C22.4593 93.2439 22.296 93.2075 22.1525 93.1282C22.1016 93.1076 22.052 93.084 22.0039 93.0574C22.0876 93.0447 22.1729 93.0461 22.2562 93.0615Z" fill="black"/>
<path opacity="0.1" d="M22.5606 93.4539C22.611 93.4518 22.6613 93.456 22.7106 93.4662C22.7975 93.4965 22.8779 93.5427 22.9479 93.6023C23.116 93.7379 23.3263 93.8106 23.5425 93.8079C23.4999 93.8278 23.4528 93.8358 23.4061 93.831H22.9234C22.7978 93.8392 22.6726 93.8103 22.5634 93.748C22.4816 93.7085 22.1434 93.6118 22.1406 93.4988C22.1379 93.3859 22.4788 93.4539 22.5606 93.4539Z" fill="black"/>
<path opacity="0.1" d="M33.5469 94.0255C33.6945 94.0419 33.8432 94.046 33.9914 94.0378C34.1475 94.0335 34.2995 93.9864 34.4305 93.9016C34.5601 93.8023 34.5328 93.7002 34.3678 93.6934C34.2144 93.7004 34.0638 93.7374 33.9246 93.8023C33.8526 93.8312 33.7833 93.8662 33.7173 93.9071C33.6832 93.9221 33.5714 94.0269 33.5469 94.0255Z" fill="black"/>
<path opacity="0.1" d="M34.0818 94.2705C34.0682 94.325 34.0109 94.3549 33.9591 94.3753C33.8322 94.4233 33.699 94.4526 33.5637 94.4625C33.5296 94.4625 33.4341 94.4625 33.4464 94.4094C33.4587 94.3563 33.6005 94.3726 33.6346 94.3685C33.7857 94.3459 33.9351 94.3132 34.0818 94.2705Z" fill="black"/>
<path opacity="0.1" d="M32.7344 94.1818C32.923 94.1601 33.1137 94.1977 33.2799 94.2893C33.2849 94.2925 33.2887 94.2973 33.2908 94.3029C33.2917 94.3048 33.2922 94.3069 33.2922 94.309C33.2922 94.3112 33.2917 94.3133 33.2908 94.3152C33.2734 94.3477 33.2468 94.3744 33.2143 94.3918C33.1818 94.4093 33.1448 94.4167 33.108 94.4132C33.0351 94.4047 32.9636 94.3868 32.8953 94.3601C32.7817 94.3235 32.6629 94.3056 32.5435 94.307C32.4904 94.3118 32.437 94.3118 32.384 94.307C32.2258 94.2798 32.2776 94.2158 32.399 94.2022C32.5103 94.1895 32.6223 94.1827 32.7344 94.1818Z" fill="black"/>
<path opacity="0.1" d="M26.5671 85.3776C26.3421 85.2202 26.0754 85.1331 25.8008 85.1271C26.0789 85.1098 26.3531 85.1994 26.5671 85.3776Z" fill="black"/>
<path opacity="0.1" d="M26.361 84.4736C26.5633 84.4747 26.7614 84.5312 26.9337 84.637L26.7265 84.5798C26.6017 84.5403 26.4734 84.5134 26.3433 84.4995C26.2683 84.4927 26.1933 84.4995 26.1183 84.4913C26.0433 84.4831 25.9478 84.4695 25.8633 84.4668C26.0283 84.475 26.1946 84.4654 26.361 84.4736Z" fill="black"/>
<path opacity="0.1" d="M27.0348 84.9031C27.0976 84.9153 27.1712 84.9425 27.1848 85.0065C27.1848 84.9684 26.7403 84.8432 26.6857 84.8255C26.5944 84.7928 26.3012 84.6648 26.2344 84.7533C26.4921 84.8227 26.7703 84.8486 27.0348 84.9031Z" fill="black"/>
<path opacity="0.1" d="M27.6574 82.9135C27.9522 82.8147 28.2179 82.6444 28.4306 82.418C28.4283 82.5189 28.4011 82.6176 28.3514 82.7055C28.3017 82.7934 28.231 82.8676 28.1456 82.9217C27.9728 83.0263 27.7817 83.0974 27.5824 83.1313C27.3834 83.1652 27.1892 83.2233 27.0042 83.3042C26.9156 83.3491 26.6388 83.6105 26.5515 83.5969C26.4411 83.5805 26.617 83.4063 26.6579 83.375C26.9497 83.1476 27.3193 83.0469 27.6574 82.9135Z" fill="black"/>
<path opacity="0.1" d="M33.1594 85.82C33.064 85.7873 31.9049 86.0119 31.9758 85.7873C32.0194 85.6512 32.3958 85.7002 32.4899 85.7043C32.7174 85.7107 32.9429 85.7496 33.1594 85.82Z" fill="black"/>
<path d="M31.9093 59.0287C31.9093 59.6181 31.705 60.1895 31.3311 60.6457C30.9571 61.1019 30.4366 61.415 29.8579 61.5317C29.2791 61.6485 28.6777 61.5618 28.1556 61.2863C27.6336 61.0108 27.2231 60.5635 26.9938 60.0203C26.7645 59.4771 26.7304 58.8714 26.8975 58.306C27.0645 57.7406 27.4223 57.2503 27.9102 56.9183C28.3981 56.5862 28.9861 56.4329 29.5743 56.4843C30.1625 56.5358 30.7148 56.7888 31.1375 57.2004C31.3827 57.4377 31.5774 57.7219 31.71 58.036C31.8427 58.3501 31.9104 58.6878 31.9093 59.0287Z" fill="#FBBEBE"/>
<path d="M30.6705 60.0812C30.6705 60.0812 29.8401 62.5017 30.3119 62.9945C30.7837 63.4873 26.9219 63.7786 26.9219 63.7786C26.9219 63.7786 28.5378 60.8885 28.381 60.1711C28.2241 59.4537 30.6705 60.0812 30.6705 60.0812Z" stroke="#B900F4" stroke-miterlimit="10"/>
<path opacity="0.1" d="M34.1315 76.5893C34.1315 76.6479 34.1315 76.7037 34.1315 76.7581C34.0865 77.9016 32.0437 80.2091 31.5719 79.8279C31.1001 79.4468 27.8901 78.6844 27.8901 78.6844C27.8901 78.6844 27.4183 77.9452 26.9246 77.9452C26.6444 77.921 26.3701 77.8501 26.1133 77.7356L26.206 76.4219C26.206 76.4219 33.1865 75.228 33.9556 76.1905C34.0376 76.3119 34.0972 76.4469 34.1315 76.5893Z" fill="black"/>
<path d="M34.1273 76.5502C34.1041 77.1233 33.5818 77.9878 33.005 78.6602C32.4282 79.3327 31.8036 79.8092 31.5677 79.6132C31.3951 79.5008 31.2079 79.4124 31.0114 79.3504C29.9491 78.9597 27.8873 78.4697 27.8873 78.4697C27.8873 78.4697 27.4155 77.7305 26.9218 77.7305C26.4282 77.7305 25.4859 77.2377 25.4859 77.2377C25.4859 77.2377 25.5759 77.1015 25.4859 76.6101C25.3959 76.1186 23.96 76.8824 23.96 76.8824C23.96 76.8824 23.8918 73.5661 24.4086 71.9516C24.9255 70.3371 24.6814 68.276 24.6814 68.276C24.6814 68.276 25.0509 66.2449 25.4518 64.6399C25.6932 63.6774 25.9468 62.8702 26.1405 62.7422C26.6573 62.406 29.3505 62.7422 29.3505 62.7422C29.3505 62.7422 30.4727 62.764 30.8995 62.8784C31.0321 62.9301 31.1451 63.022 31.2227 63.1411C31.2486 63.1765 31.2759 63.2132 31.3018 63.2527C31.6018 63.702 31.9073 64.4779 32.2005 65.1872C32.6273 66.2177 34.3114 70.5644 34.3114 70.5644C34.3114 70.5644 34.2664 70.8557 33.8845 72.1776C33.5027 73.4994 34.1723 75.408 34.1273 76.5502Z" fill="#65617D"/>
<path d="M32.1969 77.8721L33.0055 78.6589C33.0055 78.6589 33.746 81.2101 32.7805 80.9868C31.8151 80.7635 31.0078 79.3532 31.0078 79.3532L32.1969 77.8721Z" fill="#FBBEBE"/>
<path opacity="0.1" d="M34.2426 70.7691C32.3335 70.7474 31.8412 68.0805 31.8412 68.0805C31.8412 68.0805 31.7048 65.4368 31.4594 64.9495C31.323 64.6772 31.2616 64.0074 31.2344 63.4629C31.5344 63.9121 31.8385 64.6881 32.133 65.3973C32.5598 66.4224 34.2426 70.7691 34.2426 70.7691Z" fill="black"/>
<path d="M34.3076 70.5674C32.3985 70.5456 31.9076 67.8774 31.9076 67.8774C31.9076 67.8774 31.7712 65.2337 31.5258 64.7463C31.3894 64.4741 31.3281 63.8043 31.3008 63.2598C31.6008 63.709 31.9062 64.485 32.1994 65.1942C32.6235 66.2207 34.3076 70.5674 34.3076 70.5674Z" fill="#65617D"/>
<path opacity="0.1" d="M30.89 63.9895C30.89 63.9895 30.3281 62.4662 29.4077 63.9895C28.4872 65.5129 28.4654 67.4405 28.4654 67.4405L28.3086 71.6525C28.3086 71.6525 28.6004 72.2133 28.5895 72.5264C28.5786 72.8395 29.135 73.7367 29.135 73.7367C29.135 73.7367 29.2713 75.5064 29.7854 75.7977L30.279 77.2543C30.279 77.2543 30.3022 78.2182 30.639 78.5993C30.9759 78.9805 30.7986 79.5686 30.7986 79.5686L32.7936 78.8716C32.7936 78.8716 32.5686 78.9519 32.7936 78.3502C33.0186 77.7485 32.6572 76.963 32.6572 76.963C32.6572 76.963 31.3781 74.1845 31.2213 73.7816C31.0645 73.3786 30.8395 72.9076 30.9295 72.4366C31.0195 71.9656 30.9472 66.9695 31.0659 66.2085C31.1845 65.4475 30.89 63.9895 30.89 63.9895Z" fill="black"/>
<path d="M31.1009 63.7786C31.1009 63.7786 30.5391 62.2553 29.6186 63.7786C28.6982 65.3019 28.6763 67.2296 28.6763 67.2296L28.5195 71.4415C28.5195 71.4415 28.8113 72.0024 28.8004 72.3155C28.7895 72.6286 29.3459 73.5257 29.3459 73.5257C29.3459 73.5257 29.4823 75.2954 29.9963 75.5868L30.49 77.0434C30.49 77.0434 30.5132 78.0072 30.85 78.3884C31.1868 78.7696 31.0109 79.3577 31.0109 79.3577L33.0045 78.6593C33.0045 78.6593 32.7795 78.741 33.0045 78.1393C33.2295 77.5376 32.8682 76.7521 32.8682 76.7521C32.8682 76.7521 31.5891 73.9736 31.4323 73.5706C31.2754 73.1677 31.0504 72.6967 31.1404 72.2256C31.2304 71.7546 31.1595 66.7585 31.2768 65.9962C31.3941 65.2339 31.1009 63.7786 31.1009 63.7786Z" fill="#444053"/>
<path opacity="0.1" d="M31.1377 76.9546C31.2226 76.9646 31.3051 76.989 31.3818 77.0267C31.4432 77.0594 31.4963 77.107 31.5563 77.1411C31.6268 77.1807 31.706 77.2023 31.7868 77.2037C31.6968 77.2037 31.6068 77.2132 31.5141 77.2146C31.4583 77.2175 31.4024 77.2106 31.3491 77.1942C31.3 77.1695 31.2542 77.1388 31.2127 77.103C31.158 77.0622 31.0979 77.0292 31.0341 77.0049C30.9863 76.9845 30.9345 76.9777 30.9141 76.9287C30.9892 76.9313 31.064 76.9399 31.1377 76.9546Z" fill="black"/>
<path opacity="0.1" d="M31.8961 77.5562C31.9806 77.5562 32.0652 77.5371 32.1511 77.5317C32.2746 77.5272 32.3982 77.5335 32.5206 77.5507C32.3402 77.641 32.1375 77.6769 31.937 77.6542C31.8793 77.6392 31.8188 77.6392 31.7611 77.6542C31.6984 77.6801 31.517 77.8856 31.5006 77.7032C31.4843 77.5208 31.7924 77.5603 31.8961 77.5562Z" fill="black"/>
<path opacity="0.1" d="M30.866 56.3404L30.5469 56.1035C30.5818 56.1154 30.6156 56.1305 30.6478 56.1484C30.7158 56.1863 30.7775 56.2345 30.8305 56.2914C30.866 56.3213 30.9014 56.354 30.9355 56.3853L30.866 56.3404Z" fill="black"/>
<path opacity="0.1" d="M31.2278 63.1437C31.1692 63.2773 31.0748 63.3923 30.955 63.4758C30.8833 63.5249 30.8011 63.5566 30.715 63.5684C30.5928 63.5795 30.4695 63.5666 30.3523 63.5303C30.2032 63.4925 30.0562 63.447 29.9118 63.3941C29.6297 63.2781 29.3405 63.1799 29.0459 63.1001C28.5973 62.998 28.075 63.0348 27.7532 63.3615C27.4709 63.6487 27.4014 64.0952 27.1191 64.3825C26.7414 64.7664 26.1223 64.7432 25.5864 64.6684L25.4609 64.6507C25.7023 63.6882 25.9559 62.8809 26.1496 62.753C26.6664 62.4167 29.3596 62.753 29.3596 62.753C29.3596 62.753 30.4818 62.7747 30.9087 62.8891C31.0386 62.9394 31.15 63.0282 31.2278 63.1437Z" fill="black"/>
<path opacity="0.1" d="M26.7891 59.0287C26.789 58.5262 26.9374 58.035 27.2157 57.6163C27.494 57.1977 27.8898 56.8703 28.3536 56.6751C28.8173 56.48 29.3284 56.4257 29.8229 56.5192C30.3174 56.6126 30.7734 56.8495 31.1336 57.2004C31.1418 57.6455 31.045 58.1016 31.1704 58.5304C31.2863 58.9293 31.5795 59.2506 31.8441 59.5827C31.7069 60.1964 31.3479 60.738 30.8357 61.1038C30.3235 61.4696 29.6941 61.6339 29.0681 61.5653C28.442 61.4967 27.8633 61.1999 27.4428 60.7319C27.0223 60.2638 26.7895 59.6574 26.7891 59.0287Z" fill="black"/>
<path d="M30.9265 56.2518C30.43 55.8025 29.8045 55.5205 29.1386 55.4458C28.4727 55.371 27.8001 55.5072 27.216 55.8352C26.9477 55.9828 26.7186 56.1924 26.5479 56.4464C26.196 57.0059 26.286 57.7274 26.1019 58.3618C25.9274 58.9676 25.5101 59.4686 25.1651 59.9954C24.8201 60.5223 24.5324 61.1512 24.6619 61.7652C24.756 62.2144 25.071 62.6173 25.0601 63.0761C25.0476 63.3314 24.9391 63.5727 24.7564 63.7518C24.5737 63.9309 24.3302 64.0348 24.0742 64.0427C24.5079 64.349 25.0492 64.4511 25.5742 64.5259C26.0992 64.6008 26.7279 64.6239 27.1069 64.2387C27.3892 63.9528 27.4588 63.5049 27.741 63.2191C28.0629 62.891 28.5851 62.8542 29.0338 62.9577C29.4824 63.0611 29.8956 63.2776 30.3401 63.3933C30.4576 63.4285 30.5807 63.441 30.7029 63.4301C31.086 63.3783 31.3083 62.9536 31.3383 62.5697C31.3629 62.2498 31.3165 61.8809 31.5442 61.6549C31.6287 61.5823 31.7201 61.518 31.8169 61.4629C31.9917 61.3425 32.13 61.1765 32.2168 60.9831C32.3036 60.7896 32.3356 60.5761 32.3092 60.3657C32.2042 59.6061 31.3806 59.1323 31.1651 58.3959C31.0397 57.9684 31.1365 57.5124 31.1283 57.0672C31.1201 56.622 30.9524 56.1143 30.5324 55.9645" fill="#444053"/>
<path opacity="0.1" d="M32.2742 60.3698C32.1679 59.6102 31.3442 59.1364 31.1288 58.4C31.0033 57.9725 31.1002 57.5165 31.0933 57.0713C31.0969 56.7611 31.0014 56.4578 30.8206 56.2055L30.8833 56.2518C30.8497 56.2191 30.8142 56.1878 30.777 56.1579C30.7258 56.1037 30.6664 56.0577 30.6011 56.0217C30.5629 55.9931 30.5233 55.9673 30.4852 55.9414L30.5465 55.9972L30.4838 55.9509C30.6647 56.2032 30.7603 56.5065 30.7565 56.8167C30.7565 57.2605 30.6665 57.7179 30.792 58.1454C31.0074 58.8819 31.8311 59.3556 31.9374 60.1152C31.9633 60.3257 31.931 60.5392 31.844 60.7326C31.757 60.9261 31.6186 61.092 31.4438 61.2125C31.3468 61.2674 31.2555 61.3317 31.1711 61.4044C30.9447 61.6304 30.9897 61.9993 30.9652 62.3192C30.9352 62.7031 30.7129 63.1279 30.3311 63.1796C30.2085 63.1905 30.0849 63.178 29.967 63.1428C29.5224 63.0271 29.1092 62.8093 28.6606 62.7072C28.212 62.6051 27.6911 62.6405 27.3679 62.9686C27.0856 63.2545 27.0161 63.701 26.7338 63.9882C26.3561 64.3735 25.737 64.349 25.2024 64.2755C24.851 64.2355 24.5051 64.156 24.1715 64.0386C24.1264 64.0458 24.0808 64.0494 24.0352 64.0495C24.4688 64.3558 25.0102 64.4579 25.5352 64.5328C26.0602 64.6076 26.6888 64.6308 27.0665 64.2455C27.3488 63.9596 27.4183 63.5118 27.7006 63.2259C28.0238 62.8978 28.5461 62.861 28.9933 62.9645C29.4406 63.068 29.8552 63.2844 30.2997 63.4001C30.4176 63.4353 30.5412 63.4478 30.6638 63.4369C31.0456 63.3852 31.2679 62.9604 31.2979 62.5765C31.3224 62.2566 31.2774 61.8877 31.5038 61.6617C31.5886 61.5894 31.6799 61.5252 31.7765 61.4698C31.9526 61.3497 32.0922 61.1835 32.18 60.9895C32.2678 60.7955 32.3004 60.5811 32.2742 60.3698Z" fill="black"/>
</g>
<defs>
<linearGradient id="paint0_linear_322_14062" x1="29.0958" y1="98.6737" x2="29.0958" y2="55.2309" gradientUnits="userSpaceOnUse">
<stop stop-color="#808080" stop-opacity="0.25"/>
<stop offset="0.54" stop-color="#808080" stop-opacity="0.12"/>
<stop offset="1" stop-color="#808080" stop-opacity="0.1"/>
</linearGradient>
<clipPath id="clip0_322_14062">
<rect width="156" height="99" fill="white"/>
</clipPath>
</defs>
</svg>
