<svg width="27" height="27" viewBox="0 0 27 27" fill="none" xmlns="http://www.w3.org/2000/svg">
<circle cx="13.0233" cy="13.0233" r="12.0233" fill="white" stroke="#F57ED4" stroke-width="2"/>
<g clip-path="url(#clip0_322_15544)">
<mask id="path-2-inside-1_322_15544" fill="white">
<path d="M13.8788 15.4394V13.9236C13.8788 13.8012 13.8326 13.6838 13.7502 13.5972C13.6678 13.5107 13.556 13.462 13.4395 13.462H12.5609C12.4444 13.462 12.3327 13.5107 12.2503 13.5972C12.1679 13.6838 12.1216 13.8012 12.1216 13.9236V15.4385C11.4539 15.6179 10.8514 16.0001 10.3893 16.5373C9.92717 17.0746 9.62604 17.743 9.52352 18.459C9.5135 18.5258 9.51735 18.594 9.53481 18.659C9.55227 18.7241 9.58292 18.7844 9.62466 18.8358C9.66641 18.8872 9.71825 18.9285 9.77662 18.9568C9.83499 18.9852 9.89852 18.9999 9.96283 19H16.0446C16.1089 18.9999 16.1725 18.9852 16.2308 18.9568C16.2892 18.9285 16.3411 18.8872 16.3828 18.8358C16.4245 18.7844 16.4552 18.7241 16.4727 18.659C16.4901 18.594 16.494 18.5258 16.4839 18.459C16.3807 17.7422 16.0785 17.0733 15.6151 16.5362C15.1517 15.999 14.5477 15.6175 13.8788 15.4394ZM17.9548 11.8733L15.7582 7.25756C15.7221 7.18047 15.6661 7.11551 15.5967 7.07001C15.5274 7.02451 15.4473 7.00026 15.3655 7H10.635C10.5536 7.00017 10.4739 7.02409 10.4047 7.06908C10.3355 7.11406 10.2796 7.17836 10.2431 7.25479L8.04656 11.8705C8.01309 11.9407 7.99721 12.0187 8.0004 12.0971C8.0036 12.1755 8.02577 12.2517 8.06481 12.3186C8.10386 12.3855 8.1585 12.4409 8.22356 12.4794C8.28863 12.5179 8.36197 12.5384 8.43666 12.5389H15.6361V13.9236C15.6361 14.046 15.6824 14.1634 15.7647 14.25C15.8471 14.3366 15.9589 14.3852 16.0754 14.3852C16.1919 14.3852 16.3036 14.3366 16.386 14.25C16.4684 14.1634 16.5147 14.046 16.5147 13.9236V12.5389H17.5638C17.6382 12.5383 17.7112 12.5179 17.7761 12.4796C17.8409 12.4413 17.8954 12.3863 17.9345 12.3198C17.9736 12.2532 17.996 12.1774 17.9995 12.0993C18.003 12.0212 17.9876 11.9434 17.9548 11.8733Z"/>
</mask>
<path d="M13.8788 15.4394H12.8788V16.208L13.6215 16.4058L13.8788 15.4394ZM12.1216 15.4385L12.3811 16.4042L13.1216 16.2053V15.4385H12.1216ZM9.52352 18.459L10.5125 18.6075L10.5134 18.6008L9.52352 18.459ZM9.96283 19L9.96115 20H9.96283V19ZM16.0446 19V20L16.0463 20L16.0446 19ZM16.4839 18.459L15.4941 18.6015L15.495 18.6075L16.4839 18.459ZM17.9548 11.8733L18.8601 11.4487L18.8577 11.4436L17.9548 11.8733ZM15.7582 7.25756L14.8528 7.68216L14.8552 7.68727L15.7582 7.25756ZM15.3655 7L15.3686 6H15.3655V7ZM10.635 7V6L10.6328 6L10.635 7ZM10.2431 7.25479L9.3405 6.82431L9.34014 6.82508L10.2431 7.25479ZM8.04656 11.8705L8.94915 12.301L8.94952 12.3002L8.04656 11.8705ZM8.43666 12.5389L8.43033 13.5389H8.43666V12.5389ZM15.6361 12.5389H16.6361V11.5389H15.6361V12.5389ZM16.5147 12.5389V11.5389H15.5147V12.5389H16.5147ZM17.5638 12.5389V13.5389L17.5711 13.5389L17.5638 12.5389ZM14.8788 15.4394V13.9236H12.8788V15.4394H14.8788ZM14.8788 13.9236C14.8788 13.5515 14.7386 13.1853 14.4745 12.9078L13.0258 14.2866C12.9265 14.1823 12.8788 14.0509 12.8788 13.9236H14.8788ZM14.4745 12.9078C14.2088 12.6287 13.8377 12.462 13.4395 12.462V14.462C13.2744 14.462 13.1267 14.3927 13.0258 14.2866L14.4745 12.9078ZM13.4395 12.462H12.5609V14.462H13.4395V12.462ZM12.5609 12.462C12.1628 12.462 11.7916 12.6287 11.5259 12.9078L12.9746 14.2866C12.8737 14.3927 12.726 14.462 12.5609 14.462V12.462ZM11.5259 12.9078C11.2618 13.1853 11.1216 13.5515 11.1216 13.9236H13.1216C13.1216 14.0509 13.0739 14.1823 12.9746 14.2866L11.5259 12.9078ZM11.1216 13.9236V15.4385H13.1216V13.9236H11.1216ZM11.8621 14.4728C10.9954 14.7056 10.2207 15.1998 9.63113 15.8852L11.1474 17.1894C11.482 16.8004 11.9124 16.5302 12.3811 16.4042L11.8621 14.4728ZM9.63113 15.8852C9.042 16.5702 8.66257 17.4167 8.53361 18.3173L10.5134 18.6008C10.5895 18.0693 10.8123 17.579 11.1474 17.1894L9.63113 15.8852ZM8.5346 18.3106C8.5042 18.5131 8.51579 18.7201 8.56901 18.9184L10.5006 18.3997C10.5189 18.4679 10.5228 18.5385 10.5124 18.6075L8.5346 18.3106ZM8.56901 18.9184C8.62226 19.1167 8.7166 19.3039 8.84839 19.4662L10.4009 18.2054C10.4492 18.2649 10.4823 18.3315 10.5006 18.3997L8.56901 18.9184ZM8.84839 19.4662C8.98031 19.6286 9.14719 19.7628 9.33973 19.8563L10.2135 18.0573C10.2893 18.0941 10.3525 18.1457 10.4009 18.2054L8.84839 19.4662ZM9.33973 19.8563C9.53247 19.9499 9.74465 19.9996 9.96115 20L9.9645 18C10.0524 18.0001 10.1375 18.0204 10.2135 18.0573L9.33973 19.8563ZM9.96283 20H16.0446V18H9.96283V20ZM16.0463 20C16.2628 19.9996 16.475 19.9499 16.6677 19.8563L15.794 18.0573C15.8699 18.0204 15.9551 18.0001 16.043 18L16.0463 20ZM16.6677 19.8563C16.8603 19.7628 17.0272 19.6286 17.1591 19.4662L15.6065 18.2054C15.655 18.1457 15.7182 18.0941 15.794 18.0573L16.6677 19.8563ZM17.1591 19.4662C17.2909 19.3039 17.3852 19.1167 17.4384 18.9184L15.5069 18.3997C15.5252 18.3315 15.5582 18.2649 15.6065 18.2054L17.1591 19.4662ZM17.4384 18.9184C17.4917 18.7201 17.5033 18.5131 17.4729 18.3106L15.495 18.6075C15.4847 18.5385 15.4886 18.4679 15.5069 18.3997L17.4384 18.9184ZM17.4737 18.3165C17.3439 17.4149 16.9631 16.5678 16.3723 15.8829L14.8579 17.1894C15.1939 17.5788 15.4176 18.0695 15.4941 18.6015L17.4737 18.3165ZM16.3723 15.8829C15.781 15.1976 15.0044 14.7043 14.1361 14.4731L13.6215 16.4058C14.091 16.5307 14.5224 16.8005 14.8579 17.1894L16.3723 15.8829ZM18.8577 11.4436L16.6612 6.82785L14.8552 7.68727L17.0518 12.303L18.8577 11.4436ZM16.6636 6.83296C16.551 6.59287 16.3735 6.38357 16.1451 6.23379L15.0484 7.90623C14.9587 7.84746 14.8931 7.76807 14.8528 7.68216L16.6636 6.83296ZM16.1451 6.23379C15.9162 6.08365 15.6471 6.00089 15.3686 6.00001L15.3623 7.99999C15.2474 7.99963 15.1385 7.96536 15.0484 7.90623L16.1451 6.23379ZM15.3655 6H10.635V8H15.3655V6ZM10.6328 6C10.3558 6.00059 10.088 6.08222 9.85959 6.23071L10.9498 7.90744C10.8598 7.96595 10.7514 7.99975 10.6371 8L10.6328 6ZM9.85959 6.23071C9.63175 6.37885 9.4541 6.58614 9.3405 6.82431L11.1457 7.68526C11.105 7.77058 11.0392 7.84928 10.9498 7.90744L9.85959 6.23071ZM9.34014 6.82508L7.14359 11.4408L8.94952 12.3002L11.1461 7.6845L9.34014 6.82508ZM7.14396 11.44C7.03976 11.6585 6.99148 11.8984 7.00123 12.1378L8.99957 12.0564C9.00294 12.1389 8.98643 12.2229 8.94915 12.301L7.14396 11.44ZM7.00123 12.1378C7.01099 12.3772 7.07866 12.6128 7.20116 12.8227L8.92846 11.8145C8.97287 11.8906 8.99621 11.9738 8.99957 12.0564L7.00123 12.1378ZM7.20116 12.8227C7.32381 13.0328 7.4988 13.2124 7.71392 13.3398L8.73321 11.619C8.8182 11.6694 8.88392 11.7382 8.92846 11.8145L7.20116 12.8227ZM7.71392 13.3398C7.92943 13.4674 8.17616 13.5373 8.43033 13.5389L8.44299 11.5389C8.54779 11.5396 8.64783 11.5684 8.73321 11.619L7.71392 13.3398ZM8.43666 13.5389H15.6361V11.5389H8.43666V13.5389ZM14.6361 12.5389V13.9236H16.6361V12.5389H14.6361ZM14.6361 13.9236C14.6361 14.2957 14.7763 14.662 15.0404 14.9394L16.4891 13.5606C16.5884 13.6649 16.6361 13.7963 16.6361 13.9236H14.6361ZM15.0404 14.9394C15.3061 15.2186 15.6773 15.3852 16.0754 15.3852V13.3852C16.2405 13.3852 16.3882 13.4546 16.4891 13.5606L15.0404 14.9394ZM16.0754 15.3852C16.4735 15.3852 16.8447 15.2186 17.1104 14.9394L15.6617 13.5606C15.7626 13.4546 15.9103 13.3852 16.0754 13.3852V15.3852ZM17.1104 14.9394C17.3745 14.662 17.5147 14.2957 17.5147 13.9236H15.5147C15.5147 13.7963 15.5624 13.6649 15.6617 13.5606L17.1104 14.9394ZM17.5147 13.9236V12.5389H15.5147V13.9236H17.5147ZM16.5147 13.5389H17.5638V11.5389H16.5147V13.5389ZM17.5711 13.5389C17.8243 13.537 18.0701 13.4675 18.2849 13.3405L17.2673 11.6187C17.3524 11.5684 17.452 11.5397 17.5564 11.5389L17.5711 13.5389ZM18.2849 13.3405C18.4993 13.2137 18.674 13.0353 18.7968 12.8263L17.0723 11.8132C17.1169 11.7373 17.1825 11.6688 17.2673 11.6187L18.2849 13.3405ZM18.7968 12.8263C18.9194 12.6175 18.9877 12.383 18.9985 12.1445L17.0005 12.054C17.0043 11.9717 17.0278 11.889 17.0723 11.8132L18.7968 12.8263ZM18.9985 12.1445C19.0093 11.9061 18.9625 11.6669 18.8601 11.4487L17.0494 12.2979C17.0128 12.2199 16.9968 12.1363 17.0005 12.054L18.9985 12.1445Z" fill="#F57ED4" mask="url(#path-2-inside-1_322_15544)"/>
</g>
<defs>
<clipPath id="clip0_322_15544">
<rect width="20.8372" height="20.8372" fill="white" transform="translate(2.60547 1.95312)"/>
</clipPath>
</defs>
</svg>
