<svg width="27" height="27" viewBox="0 0 27 27" fill="none" xmlns="http://www.w3.org/2000/svg">
<circle cx="13.025" cy="13.025" r="12.025" fill="white" stroke="#F57ED4" stroke-width="2"/>
<path d="M16.7155 12.0673C16.5755 11.8857 16.405 11.7284 16.2467 11.571C15.8388 11.2079 15.376 10.9476 14.9864 10.5663C14.0792 9.68273 13.8783 8.22415 14.4567 7.10449C13.8783 7.24369 13.3729 7.55841 12.9406 7.90338C11.3637 9.16224 10.7427 11.3834 11.4855 13.2898C11.5098 13.3504 11.5342 13.4109 11.5342 13.4896C11.5342 13.6227 11.4429 13.7437 11.3211 13.7922C11.1811 13.8527 11.0349 13.8164 10.9193 13.7195C10.8845 13.691 10.8556 13.656 10.834 13.6167C10.146 12.7512 10.0364 11.5105 10.4991 10.5179C9.48237 11.341 8.92831 12.733 9.00746 14.0464C9.04399 14.349 9.08052 14.6516 9.18403 14.9542C9.26927 15.3173 9.43366 15.6804 9.61631 16.0012C10.2739 17.0482 11.4124 17.7987 12.6362 17.95C13.9391 18.1134 15.3334 17.8774 16.3319 16.9817C17.4461 15.977 17.8358 14.3671 17.2635 12.9872L17.1843 12.8299C17.0565 12.5515 16.7155 12.0673 16.7155 12.0673ZM14.7915 15.8802C14.6211 16.0254 14.341 16.1828 14.1218 16.2433C13.4399 16.4854 12.758 16.1465 12.3561 15.747C13.0807 15.5776 13.5129 15.045 13.6408 14.5063C13.7443 14.0221 13.5495 13.6227 13.4703 13.1567C13.3973 12.7088 13.4094 12.3275 13.5738 11.9099C13.6895 12.1399 13.8113 12.3699 13.9574 12.5515C14.4262 13.1567 15.1629 13.423 15.3212 14.2461C15.3456 14.3308 15.3578 14.4155 15.3578 14.5063C15.376 15.0026 15.1568 15.5473 14.7915 15.8802Z" fill="#F57ED4"/>
</svg>
