<svg width="31" height="31" viewBox="0 0 31 31" fill="none" xmlns="http://www.w3.org/2000/svg">
<path fill-rule="evenodd" clip-rule="evenodd" d="M15.4999 3.58337C8.91853 3.58337 3.58325 8.91865 3.58325 15.5C3.58325 22.0814 8.91853 27.4167 15.4999 27.4167C22.0813 27.4167 27.4166 22.0814 27.4166 15.5C27.4166 8.91865 22.0813 3.58337 15.4999 3.58337ZM1.58325 15.5C1.58325 7.81408 7.81396 1.58337 15.4999 1.58337C23.1859 1.58337 29.4166 7.81408 29.4166 15.5C29.4166 23.186 23.1859 29.4167 15.4999 29.4167C7.81396 29.4167 1.58325 23.186 1.58325 15.5Z" fill="#B900F4"/>
<path fill-rule="evenodd" clip-rule="evenodd" d="M1.58325 15.5C1.58325 14.9477 2.03097 14.5 2.58325 14.5H28.4166C28.9689 14.5 29.4166 14.9477 29.4166 15.5C29.4166 16.0523 28.9689 16.5 28.4166 16.5H2.58325C2.03097 16.5 1.58325 16.0523 1.58325 15.5Z" fill="#B900F4"/>
<path fill-rule="evenodd" clip-rule="evenodd" d="M11.3335 15.5C11.4248 19.6611 12.8965 23.6627 15.4999 26.8833C18.1034 23.6627 19.5751 19.6611 19.6664 15.5C19.5751 11.3389 18.1034 7.33737 15.4999 4.11677C12.8965 7.33737 11.4248 11.3389 11.3335 15.5ZM15.4999 2.58336L14.7616 1.90894C11.3673 5.62495 9.4383 10.4474 9.33347 15.4792C9.33318 15.4931 9.33318 15.507 9.33347 15.5209C9.4383 20.5527 11.3673 25.3751 14.7616 29.0911C14.951 29.2985 15.219 29.4167 15.4999 29.4167C15.7808 29.4167 16.0488 29.2985 16.2383 29.0911C19.6326 25.3751 21.5615 20.5527 21.6664 15.5209C21.6667 15.507 21.6667 15.4931 21.6664 15.4792C21.5615 10.4474 19.6326 5.62495 16.2383 1.90894L15.4999 2.58336Z" fill="#B900F4"/>
</svg>
