<svg width="27" height="27" viewBox="0 0 27 27" fill="none" xmlns="http://www.w3.org/2000/svg">
<circle cx="13.0233" cy="13.6746" r="12.0233" fill="white" stroke="#F57ED4" stroke-width="2"/>
<path d="M10.6908 17.9078C10.0342 17.9078 9.50294 18.445 9.50294 19.1016C9.50294 19.7582 10.0342 20.2954 10.6908 20.2954C11.3474 20.2954 11.8846 19.7582 11.8846 19.1016C11.8846 18.445 11.3474 17.9078 10.6908 17.9078ZM16.6598 17.9078C16.0032 17.9078 15.4719 18.445 15.4719 19.1016C15.4719 19.7582 16.0032 20.2954 16.6598 20.2954C17.3164 20.2954 17.8536 19.7582 17.8536 19.1016C17.8536 18.445 17.3164 17.9078 16.6598 17.9078ZM15.7943 14.9233C16.2419 14.9233 16.6359 14.6786 16.8388 14.3085L18.9757 10.4346C19.026 10.3442 19.0518 10.2421 19.0506 10.1386C19.0494 10.0351 19.0211 9.9337 18.9687 9.84445C18.9162 9.75521 18.8413 9.68121 18.7515 9.62978C18.6617 9.57835 18.5599 9.55127 18.4564 9.55122H9.62232L9.06124 8.35742H7.10938V9.55122H8.30317L10.452 14.0817L9.6462 15.5381C9.21046 16.338 9.78348 17.3109 10.6908 17.3109H17.8536V16.1171H10.6908L11.3474 14.9233H15.7943ZM10.1894 10.745H17.4417L15.7943 13.7295H11.604L10.1894 10.745Z" fill="#F57ED4"/>
</svg>
