<svg width="39" height="32" viewBox="0 0 39 32" fill="none" xmlns="http://www.w3.org/2000/svg">
<path d="M34.3296 0.63C33.4896 -0.21 32.0196 -0.21 30.9696 0.63L25.9296 5.67C23.7114 4.84659 21.3657 4.42008 18.9996 4.41C11.0196 4.62 3.87961 8.82 0.0996094 15.75C0.519609 16.59 1.14961 17.43 1.77961 18.27C3.45961 20.58 5.55961 22.47 7.86961 23.94L4.29961 27.51C3.45961 28.35 3.24961 29.82 4.29961 30.87C5.13961 31.71 6.60961 31.92 7.65961 30.87L34.3296 3.99C35.1696 2.94 35.1696 1.47 34.3296 0.63ZM12.0696 19.53L9.33961 22.26C6.81961 20.79 4.50961 18.69 2.82961 16.17C5.34961 12.6 8.70961 10.08 12.6996 8.82C9.96961 11.76 9.75961 16.38 12.0696 19.53ZM19.2096 12.6C18.1596 11.55 18.3696 9.87 19.4196 8.82C20.4696 7.98 21.9396 7.98 22.9896 8.82L19.2096 12.6ZM36.4296 13.65C35.3796 12.18 34.1196 10.71 32.6496 9.66L30.5496 11.76C32.2296 13.02 33.6996 14.49 34.9596 16.38C31.3896 21.84 25.2996 25.2 18.7896 25.2H17.1096L15.0096 27.3C16.4796 27.09 17.7396 27.3 18.9996 27.3C25.9296 27.3 32.4396 23.94 36.4296 18.27C37.0596 17.43 37.4796 16.59 38.1096 15.75C37.4796 15.12 37.0596 14.28 36.4296 13.65ZM27.3996 14.7L18.9996 23.1C23.6196 23.1 27.3996 19.32 27.3996 14.7Z" fill="white"/>
</svg>
