<svg width="26" height="26" viewBox="0 0 26 26" fill="none" xmlns="http://www.w3.org/2000/svg">
<circle cx="13" cy="13" r="12" fill="white" stroke="#F57ED4" stroke-width="2"/>
<g clip-path="url(#clip0_322_15585)">
<path d="M17.3904 9.10254C17.4745 9.24796 17.5504 9.38691 17.6183 9.51941C17.6861 9.6519 17.7475 9.78601 17.8025 9.92173C17.8574 10.0575 17.8962 10.198 17.9188 10.3434C17.9414 10.4889 17.956 10.6504 17.9624 10.8282C17.9624 11.0835 17.9301 11.3291 17.8655 11.565C17.8009 11.8009 17.7071 12.0238 17.5843 12.2339C17.4615 12.4439 17.3145 12.633 17.1432 12.801C16.972 12.9691 16.7829 13.1145 16.5761 13.2373C16.3693 13.3601 16.1479 13.4538 15.912 13.5184C15.6761 13.5831 15.4289 13.617 15.1704 13.6202C15.0961 13.6202 15.0217 13.617 14.9474 13.6105C14.8731 13.6041 14.7971 13.5944 14.7196 13.5814L10.8127 17.4884C10.6575 17.6435 10.4814 17.7614 10.2843 17.8422C10.0872 17.923 9.87875 17.9634 9.659 17.9634C9.43603 17.9634 9.22598 17.9214 9.02885 17.8374C8.83173 17.7534 8.66046 17.637 8.51504 17.4884C8.36962 17.3397 8.25328 17.1668 8.16603 16.9697C8.07878 16.7726 8.03516 16.5625 8.03516 16.3396C8.03516 16.123 8.07555 15.9162 8.15634 15.7191C8.23713 15.522 8.35508 15.3442 8.51019 15.1859L12.4171 11.279C12.4042 11.2047 12.3945 11.1303 12.388 11.056C12.3816 10.9817 12.3783 10.9057 12.3783 10.8282C12.3783 10.5729 12.4107 10.3273 12.4753 10.0914C12.5399 9.85549 12.6336 9.63251 12.7564 9.42246C12.8792 9.21241 13.0263 9.02337 13.1975 8.85533C13.3688 8.68729 13.5578 8.54187 13.7647 8.41907C13.9715 8.29627 14.1928 8.20256 14.4287 8.13793C14.6646 8.0733 14.9119 8.03936 15.1704 8.03613C15.3449 8.03613 15.5048 8.04906 15.6503 8.07491C15.7957 8.10076 15.9379 8.14116 16.0768 8.19609C16.2158 8.25103 16.3499 8.31081 16.4792 8.37544C16.6084 8.44007 16.7474 8.51763 16.896 8.60811L14.9862 10.518L15.4806 11.0124L17.3904 9.10254ZM15.1704 12.9998C15.4709 12.9998 15.7521 12.9432 16.0138 12.8301C16.2756 12.717 16.505 12.5619 16.7021 12.3648C16.8993 12.1676 17.0544 11.9382 17.1675 11.6765C17.2806 11.4147 17.3387 11.1319 17.342 10.8282C17.342 10.5923 17.3032 10.3645 17.2256 10.1447L15.4806 11.8849L14.1137 10.518L15.8539 8.77292C15.6341 8.69537 15.4063 8.65659 15.1704 8.65659C14.8699 8.65659 14.5887 8.71314 14.327 8.82624C14.0652 8.93935 13.8358 9.09446 13.6386 9.29158C13.4415 9.48871 13.2864 9.71815 13.1733 9.9799C13.0602 10.2417 13.002 10.5244 12.9988 10.8282C12.9988 10.9413 13.0085 11.0512 13.0279 11.1578C13.0473 11.2644 13.0699 11.3711 13.0957 11.4777L8.9513 15.627C8.85758 15.7207 8.78487 15.829 8.73317 15.9518C8.68146 16.0746 8.65561 16.2038 8.65561 16.3396C8.65561 16.4753 8.68146 16.6045 8.73317 16.7273C8.78487 16.8501 8.85758 16.9568 8.9513 17.0473C9.04501 17.1377 9.15165 17.2088 9.27122 17.2605C9.39078 17.3123 9.52005 17.3397 9.659 17.343C9.79473 17.343 9.92399 17.3171 10.0468 17.2654C10.1696 17.2137 10.2778 17.141 10.3716 17.0473L14.5208 12.9028C14.6275 12.9287 14.7341 12.9513 14.8408 12.9707C14.9474 12.9901 15.0573 12.9998 15.1704 12.9998Z" fill="#F57ED4"/>
</g>
<defs>
<clipPath id="clip0_322_15585">
<rect width="9.92727" height="9.92727" fill="white" transform="translate(8.03516 8.03613)"/>
</clipPath>
</defs>
</svg>
