<svg width="32" height="32" viewBox="0 0 32 32" fill="none" xmlns="http://www.w3.org/2000/svg">
<path d="M16.0003 0.166656C7.07033 0.166656 0.166992 6.70582 0.166992 15.525C0.166992 20.1325 2.05116 24.1383 5.13866 26.8775C5.39199 27.0833 5.55033 27.4317 5.56616 27.78L5.64533 30.5983C5.70866 31.5008 6.61116 32.0867 7.43449 31.7225L10.5695 30.345C10.8387 30.25 11.1395 30.2025 11.4087 30.25C12.8337 30.6775 14.417 30.8833 16.0003 30.8833C24.9303 30.8833 31.8337 24.3442 31.8337 15.525C31.8337 6.70582 24.9303 0.166656 16.0003 0.166656ZM25.5003 11.9783L20.8612 19.3725C20.117 20.5283 18.5337 20.8292 17.4253 19.9583L13.7203 17.2192C13.5559 17.0958 13.3559 17.0292 13.1503 17.0292C12.9448 17.0292 12.7448 17.0958 12.5803 17.2192L7.57699 21.0192C6.91199 21.5417 6.04116 20.75 6.50033 20.0217L11.1395 12.6275C11.8837 11.4717 13.467 11.1708 14.5753 11.9942L18.2803 14.7808C18.4448 14.9042 18.6448 14.9708 18.8503 14.9708C19.0559 14.9708 19.2559 14.9042 19.4203 14.7808L24.4237 10.9808C25.0887 10.4583 25.9595 11.25 25.5003 11.9783V11.9783Z" fill="white"/>
</svg>
