<svg width="26" height="26" viewBox="0 0 26 26" fill="none" xmlns="http://www.w3.org/2000/svg">
<circle cx="13" cy="13" r="12" fill="white" stroke="#F57ED4" stroke-width="2"/>
<path d="M9.45327 12.291C9.20252 12.291 8.96204 12.3906 8.78473 12.5679C8.60742 12.7452 8.50781 12.9857 8.50781 13.2365C8.50781 13.4872 8.60742 13.7277 8.78473 13.905C8.96204 14.0823 9.20252 14.1819 9.45327 14.1819C9.70402 14.1819 9.9445 14.0823 10.1218 13.905C10.2991 13.7277 10.3987 13.4872 10.3987 13.2365C10.3987 12.9857 10.2991 12.7452 10.1218 12.5679C9.9445 12.3906 9.70402 12.291 9.45327 12.291ZM12.2896 13.2365C12.2896 12.9857 12.3892 12.7452 12.5665 12.5679C12.7439 12.3906 12.9843 12.291 13.2351 12.291C13.4858 12.291 13.7263 12.3906 13.9036 12.5679C14.0809 12.7452 14.1805 12.9857 14.1805 13.2365C14.1805 13.4872 14.0809 13.7277 13.9036 13.905C13.7263 14.0823 13.4858 14.1819 13.2351 14.1819C12.9843 14.1819 12.7439 14.0823 12.5665 13.905C12.3892 13.7277 12.2896 13.4872 12.2896 13.2365ZM16.0714 13.2365C16.0714 12.9857 16.1711 12.7452 16.3484 12.5679C16.5257 12.3906 16.7662 12.291 17.0169 12.291C17.2677 12.291 17.5081 12.3906 17.6854 12.5679C17.8627 12.7452 17.9624 12.9857 17.9624 13.2365C17.9624 13.4872 17.8627 13.7277 17.6854 13.905C17.5081 14.0823 17.2677 14.1819 17.0169 14.1819C16.7662 14.1819 16.5257 14.0823 16.3484 13.905C16.1711 13.7277 16.0714 13.4872 16.0714 13.2365Z" fill="#F57ED4"/>
</svg>
