<svg width="29" height="23" viewBox="0 0 29 23" fill="none" xmlns="http://www.w3.org/2000/svg">
<path d="M27.9643 0H1.03571C0.462835 0 0 0.467187 0 1.04545V21.9545C0 22.5328 0.462835 23 1.03571 23H27.9643C28.5372 23 29 22.5328 29 21.9545V1.04545C29 0.467187 28.5372 0 27.9643 0ZM26.6696 20.6477H2.33036V19.3442L6.81306 13.9764L11.6712 19.7918L19.2287 10.7486L26.6696 19.6545V20.6477ZM26.6696 16.4071L19.4261 7.73636C19.3225 7.61222 19.1348 7.61222 19.0312 7.73636L11.6712 16.5443L7.01049 10.9675C6.90692 10.8433 6.7192 10.8433 6.61562 10.9675L2.33036 16.0967V2.35227H26.6696V16.4071ZM7.76786 9.67045C8.14189 9.67045 8.51226 9.59609 8.85782 9.45161C9.20338 9.30713 9.51737 9.09536 9.78185 8.82839C10.0463 8.56142 10.2561 8.24448 10.3993 7.89567C10.5424 7.54686 10.6161 7.173 10.6161 6.79545C10.6161 6.4179 10.5424 6.04405 10.3993 5.69524C10.2561 5.34643 10.0463 5.02949 9.78185 4.76252C9.51737 4.49555 9.20338 4.28378 8.85782 4.1393C8.51226 3.99482 8.14189 3.92045 7.76786 3.92045C7.01246 3.92045 6.28801 4.22336 5.75387 4.76252C5.21972 5.30169 4.91964 6.03296 4.91964 6.79545C4.91964 7.55795 5.21972 8.28922 5.75387 8.82839C6.28801 9.36755 7.01246 9.67045 7.76786 9.67045ZM7.76786 5.88068C8.26953 5.88068 8.67411 6.28906 8.67411 6.79545C8.67411 7.30185 8.26953 7.71023 7.76786 7.71023C7.26618 7.71023 6.86161 7.30185 6.86161 6.79545C6.86161 6.28906 7.26618 5.88068 7.76786 5.88068Z" fill="white"/>
</svg>
