<svg width="20" height="20" viewBox="0 0 20 20" fill="none" xmlns="http://www.w3.org/2000/svg">
<path d="M14.9971 13.2313C14.7847 13.018 14.4962 12.8982 14.1952 12.8982H13.875C13.7875 12.8982 13.7034 12.8642 13.6404 12.8035C13.5112 12.679 13.5024 12.4757 13.6137 12.335C14.2429 11.5392 14.7076 10.625 14.9792 9.64545C15.2794 8.56313 15.3364 7.42789 15.1463 6.32096C14.595 3.06167 11.8734 0.458926 8.58873 0.0603082C7.43396 -0.0856965 6.26107 0.0342475 5.15981 0.410962C4.05855 0.787676 3.05812 1.41118 2.23506 2.23375C1.412 3.05633 0.788138 4.05617 0.411203 5.15679C0.0342676 6.2574 -0.0857468 7.4296 0.0603435 8.5837C0.459195 11.8664 3.06346 14.5864 6.32466 15.1374C7.43224 15.3274 8.56815 15.2704 9.6511 14.9704C10.6313 14.6989 11.5461 14.2345 12.3424 13.6056C12.4832 13.4944 12.6863 13.5032 12.8109 13.6322C12.8717 13.6953 12.9057 13.7795 12.9057 13.8672V14.1877C12.9057 14.488 13.0251 14.7761 13.2375 14.9884L17.8914 19.6395C18.3723 20.1202 19.1583 20.1202 19.6393 19.6395C20.1202 19.1588 20.1202 18.3733 19.6393 17.8926L14.9971 13.2313ZM7.6268 12.8982C4.70579 12.8982 2.34788 10.5416 2.34788 7.62233C2.34788 4.70304 4.70579 2.3465 7.6268 2.3465C10.5478 2.3465 12.9057 4.70304 12.9057 7.62233C12.9057 10.5416 10.5478 12.8982 7.6268 12.8982Z" fill="#3BEDBF"/>
</svg>
