<svg width="18" height="18" viewBox="0 0 18 18" fill="none" xmlns="http://www.w3.org/2000/svg">
<path d="M13.1454 11.5834H12.3225L12.0308 11.3021C12.6818 10.5458 13.1576 9.65501 13.4241 8.69338C13.6906 7.73176 13.7413 6.72311 13.5725 5.73962C13.0829 2.84379 10.6662 0.531285 7.74955 0.177118C6.72415 0.047395 5.68266 0.153964 4.70478 0.488669C3.7269 0.823375 2.83855 1.37735 2.1077 2.10819C1.37686 2.83904 0.822886 3.72739 0.488181 4.70527C0.153475 5.68315 0.0469067 6.72463 0.17663 7.75003C0.530796 10.6667 2.8433 13.0834 5.73913 13.573C6.72262 13.7418 7.73127 13.6911 8.69289 13.4246C9.65452 13.158 10.5453 12.6823 11.3016 12.0313L11.5829 12.323V13.1459L16.01 17.573C16.437 18 17.135 18 17.562 17.573C17.9891 17.1459 17.9891 16.448 17.562 16.0209L13.1454 11.5834ZM6.89538 11.5834C4.30163 11.5834 2.20788 9.48962 2.20788 6.89587C2.20788 4.30212 4.30163 2.20837 6.89538 2.20837C9.48913 2.20837 11.5829 4.30212 11.5829 6.89587C11.5829 9.48962 9.48913 11.5834 6.89538 11.5834Z" fill="#B900F4"/>
</svg>
