<svg width="27" height="27" viewBox="0 0 27 27" fill="none" xmlns="http://www.w3.org/2000/svg">
<path d="M25.0465 13.326C25.0465 19.9662 19.6635 25.3492 13.0233 25.3492C6.38299 25.3492 1 19.9662 1 13.326C1 6.68573 6.38299 1.30273 13.0233 1.30273C19.6635 1.30273 25.0465 6.68573 25.0465 13.326Z" fill="white" stroke="#F57ED4" stroke-width="2"/>
<path d="M17.5982 8.11719C18.2344 8.11719 18.8018 8.60051 18.8018 9.24973C18.8018 9.90127 18.2344 10.3823 17.5982 10.3823C16.962 10.3823 16.3947 9.90127 16.3947 9.24973C16.3947 8.60051 16.962 8.11719 17.5982 8.11719ZM13.0282 8.11719C13.6609 8.11719 14.2317 8.60051 14.2317 9.24973C14.2317 9.90127 13.6609 10.3823 13.0282 10.3823C12.392 10.3823 11.8212 9.90127 11.8212 9.24973C11.8212 8.60051 12.392 8.11719 13.0282 8.11719ZM8.45466 8.11719C9.09083 8.11719 9.65821 8.60051 9.65821 9.24973C9.65821 9.90127 9.09083 10.3823 8.45466 10.3823C7.8185 10.3823 7.24802 9.90127 7.24802 9.24973C7.24802 8.60051 7.8185 8.11719 8.45466 8.11719ZM13.0282 10.9224C15.2289 10.9739 17.0858 10.9739 19.3141 11.0305C20.3767 11.4883 20.8684 13.8342 20.8375 14.6496L20.2323 15.1049C19.9675 14.0039 19.6339 12.5352 19.0803 12.2085V14.4618L19.2213 19.187H18.4579L17.8836 14.4361H17.2646L16.6904 19.187H15.9235L16.068 14.4618L15.7929 12.1854H14.7853L14.5377 14.4541L14.6822 19.1792H13.9153L13.3376 14.4284H12.7187L12.141 19.1792H11.3776L11.522 14.4541L11.271 12.1854H10.2634L9.98833 14.4618L10.1328 19.187H9.36592L8.79166 14.4361H8.17269L7.59189 19.187H6.8285L6.97292 14.4618V12.2085C6.41585 12.5352 6.0823 14.0039 5.81752 15.1049L5.2123 14.6496C5.18135 13.8342 5.67653 11.4883 6.73565 11.0305C8.97047 10.9739 10.8274 10.9739 13.0282 10.9224Z" fill="#F57ED4"/>
</svg>
