<svg width="15" height="13" viewBox="0 0 15 13" fill="none" xmlns="http://www.w3.org/2000/svg">
<path fill-rule="evenodd" clip-rule="evenodd" d="M1.90333 6.29698C1.90333 9.34098 4.11033 11.415 6.58933 11.844C6.65676 11.8557 6.72123 11.8805 6.77906 11.9171C6.83689 11.9537 6.88694 12.0014 6.92636 12.0573C6.96578 12.1133 6.99379 12.1764 7.0088 12.2432C7.02381 12.31 7.02552 12.379 7.01383 12.4465C7.00214 12.5139 6.97729 12.5784 6.94068 12.6362C6.90408 12.694 6.85644 12.7441 6.80049 12.7835C6.74455 12.8229 6.68138 12.8509 6.61461 12.866C6.54784 12.881 6.47876 12.8827 6.41133 12.871C3.50033 12.367 0.861328 9.91298 0.861328 6.29698C0.861328 4.75998 1.56033 3.55198 2.37633 2.63398C2.96133 1.97598 3.63033 1.44098 4.16833 1.03198H2.53233C2.39972 1.03198 2.27254 0.979304 2.17877 0.885536C2.08501 0.791768 2.03233 0.664591 2.03233 0.531982C2.03233 0.399374 2.08501 0.272197 2.17877 0.178429C2.27254 0.0846609 2.39972 0.0319824 2.53233 0.0319824H5.53233C5.66494 0.0319824 5.79211 0.0846609 5.88588 0.178429C5.97965 0.272197 6.03233 0.399374 6.03233 0.531982V3.53198C6.03233 3.66459 5.97965 3.79177 5.88588 3.88554C5.79211 3.9793 5.66494 4.03198 5.53233 4.03198C5.39972 4.03198 5.27254 3.9793 5.17877 3.88554C5.08501 3.79177 5.03233 3.66459 5.03233 3.53198V1.68598L5.03133 1.68798C4.45933 2.11798 3.76133 2.64498 3.15633 3.32598C2.44133 4.12998 1.90333 5.10298 1.90333 6.29698ZM13.0113 6.70298C13.0113 3.69098 10.8513 1.62998 8.40433 1.16998C8.33613 1.15841 8.27091 1.13337 8.21249 1.09633C8.15407 1.05929 8.10361 1.01098 8.06405 0.954227C8.0245 0.897475 7.99664 0.833414 7.98211 0.765782C7.96758 0.69815 7.96666 0.628301 7.97941 0.56031C7.99215 0.492318 8.01832 0.427547 8.05636 0.369773C8.09441 0.312 8.14358 0.262382 8.20101 0.223814C8.25843 0.185246 8.32297 0.1585 8.39084 0.145137C8.45871 0.131774 8.52857 0.132062 8.59633 0.145983C11.4703 0.685983 14.0533 3.12598 14.0533 6.70298C14.0533 8.23998 13.3543 9.44698 12.5383 10.366C11.9533 11.024 11.2843 11.559 10.7463 11.968H12.3823C12.5149 11.968 12.6421 12.0207 12.7359 12.1144C12.8296 12.2082 12.8823 12.3354 12.8823 12.468C12.8823 12.6006 12.8296 12.7278 12.7359 12.8215C12.6421 12.9153 12.5149 12.968 12.3823 12.968H9.38233C9.24972 12.968 9.12254 12.9153 9.02877 12.8215C8.93501 12.7278 8.88233 12.6006 8.88233 12.468V9.46798C8.88233 9.33537 8.93501 9.2082 9.02877 9.11443C9.12254 9.02066 9.24972 8.96798 9.38233 8.96798C9.51494 8.96798 9.64211 9.02066 9.73588 9.11443C9.82965 9.2082 9.88233 9.33537 9.88233 9.46798V11.313H9.88433C10.4553 10.881 11.1543 10.355 11.7583 9.67298C12.4733 8.86998 13.0113 7.89798 13.0113 6.70298Z" fill="#00B9F4"/>
</svg>
