<svg width="38" height="33" viewBox="0 0 38 33" fill="none" xmlns="http://www.w3.org/2000/svg">
<path d="M21.1797 20.1477C20.9141 20.1477 20.6916 20.0552 20.5122 19.8703C20.3322 19.686 20.2422 19.4575 20.2422 19.1846V12.2986L18.4844 14.1043C18.2969 14.297 18.0781 14.3933 17.8281 14.3933C17.5781 14.3933 17.3516 14.2889 17.1484 14.0803C16.9609 13.8876 16.8713 13.6587 16.8794 13.3936C16.8869 13.1291 16.9766 12.9085 17.1484 12.7319L20.5234 9.26485C20.6172 9.16854 20.7188 9.10016 20.8281 9.05971C20.9375 9.0199 21.0547 9 21.1797 9C21.3047 9 21.4219 9.0199 21.5312 9.05971C21.6406 9.10016 21.7422 9.16854 21.8359 9.26485L25.2109 12.7319C25.3984 12.9246 25.4881 13.1531 25.48 13.4177C25.4725 13.6828 25.3828 13.9037 25.2109 14.0803C25.0234 14.2729 24.8009 14.373 24.5434 14.3807C24.2853 14.3891 24.0625 14.297 23.875 14.1043L22.1172 12.2986V19.1846C22.1172 19.4575 22.0275 19.686 21.8481 19.8703C21.6681 20.0552 21.4453 20.1477 21.1797 20.1477ZM15.5547 24C15.0391 24 14.5978 23.8116 14.2309 23.4347C13.8634 23.0571 13.6797 22.6035 13.6797 22.0738V20.1477C13.6797 19.8748 13.7694 19.6459 13.9488 19.461C14.1288 19.2767 14.3516 19.1846 14.6172 19.1846C14.8828 19.1846 15.1056 19.2767 15.2856 19.461C15.465 19.6459 15.5547 19.8748 15.5547 20.1477V22.0738H26.8047V20.1477C26.8047 19.8748 26.8947 19.6459 27.0747 19.461C27.2541 19.2767 27.4766 19.1846 27.7422 19.1846C28.0078 19.1846 28.2303 19.2767 28.4097 19.461C28.5897 19.6459 28.6797 19.8748 28.6797 20.1477V22.0738C28.6797 22.6035 28.4963 23.0571 28.1294 23.4347C27.7619 23.8116 27.3203 24 26.8047 24H15.5547Z" fill="#3BEDBF"/>
</svg>
