<svg width="126" height="98" viewBox="0 0 126 98" fill="none" xmlns="http://www.w3.org/2000/svg">
<g clip-path="url(#clip0_322_14557)">
<path d="M114.756 30.7192C115.895 30.2193 113.584 29.9283 110.961 29.8327C108.339 29.737 105.166 29.7423 103.49 29.4701C101.87 29.2069 101.989 28.739 101.853 28.315C101.716 27.8909 101.093 27.4562 98.5641 27.3619C95.4124 27.2445 90.2151 27.6966 87.8359 27.4252C85.6157 27.1719 86.9354 26.3774 83.698 26.3469C81.8493 26.3296 79.4677 26.5915 77.4106 26.6547C75.4794 26.7141 74.0507 26.5912 73.0481 26.426C72.0454 26.2607 71.3471 26.0512 70.2187 25.9053C67.2562 25.5221 61.46 25.6509 56.2867 26.142C51.1135 26.6331 46.679 27.4379 44.1781 28.235C41.6773 29.0321 40.9863 29.817 41.5689 30.4825C41.9409 30.9075 42.8928 31.3048 45.2019 31.4756C49.5209 31.795 57.2106 31.2452 61.6736 31.5358C64.161 31.6978 65.2645 32.0994 67.447 32.3191C69.7916 32.5552 73.224 32.5677 76.5964 32.5621C83.618 32.5504 90.8192 32.4779 98.1623 32.3448C101.229 32.2892 104.443 32.2169 107.707 31.952C110.97 31.6871 114.299 31.176 114.988 30.6969" fill="#F2F2F2"/>
<path d="M82.877 64.6271L79.5414 63.1469V61.8743L80.7301 61.8676C80.9146 61.8665 81.0941 61.8074 81.2435 61.6985C81.3928 61.5895 81.5045 61.4363 81.5628 61.2603L82.398 58.7402C82.4422 58.6067 82.4543 58.4645 82.4332 58.3254C82.4121 58.1863 82.3584 58.0542 82.2766 57.94C82.1948 57.8259 82.0872 57.7329 81.9627 57.6688C81.8381 57.6047 81.7002 57.5712 81.5603 57.5712H79.5414V56.387H82.0759C82.2757 56.387 82.4696 56.3188 82.6259 56.1937C82.7822 56.0685 82.8917 55.8937 82.9364 55.6978L83.5116 53.1814C83.5413 53.0512 83.5415 52.916 83.5121 52.7858C83.4827 52.6555 83.4245 52.5336 83.3418 52.4292C83.2591 52.3247 83.154 52.2403 83.0345 52.1823C82.9149 52.1243 82.7838 52.0942 82.651 52.0942H79.5414V51.7982C79.5414 51.6411 79.4794 51.4905 79.369 51.3795C79.2586 51.2684 79.1088 51.2061 78.9527 51.2061C78.7966 51.2061 78.6469 51.2684 78.5365 51.3795C78.4261 51.4905 78.3641 51.6411 78.3641 51.7982V52.0942H57.5161V51.7982C57.5161 51.6411 57.454 51.4905 57.3436 51.3795C57.2333 51.2684 57.0835 51.2061 56.9274 51.2061C56.7713 51.2061 56.6216 51.2684 56.5112 51.3795C56.4008 51.4905 56.3388 51.6411 56.3388 51.7982V52.0942H53.8668C53.734 52.0942 53.603 52.1243 53.4834 52.1823C53.3638 52.2403 53.2587 52.3247 53.176 52.4292C53.0933 52.5336 53.0351 52.6555 53.0057 52.7858C52.9763 52.916 52.9765 53.0512 53.0063 53.1814L53.5814 55.6978C53.6261 55.8937 53.7356 56.0685 53.8919 56.1937C54.0482 56.3188 54.2421 56.387 54.4419 56.387H56.3388V57.5712H54.9575C54.8183 57.5712 54.6811 57.6043 54.5571 57.6678C54.4331 57.7312 54.3257 57.8233 54.2438 57.9364C54.1619 58.0496 54.1077 58.1806 54.0856 58.3188C54.0636 58.457 54.0744 58.5985 54.1171 58.7318L54.9695 61.3926C55.027 61.5723 55.14 61.7289 55.292 61.8396C55.444 61.9503 55.6272 62.0094 55.8148 62.0084L56.3388 62.0054V63.1469L53.6408 64.6271C53.5248 64.6271 53.41 64.6501 53.3029 64.6948C53.1958 64.7394 53.0984 64.8048 53.0164 64.8873C52.9344 64.9698 52.8694 65.0677 52.825 65.1754C52.7806 65.2832 52.7578 65.3987 52.7578 65.5153C52.7578 65.7509 52.8508 65.9768 53.0164 66.1433C53.182 66.3099 53.4066 66.4035 53.6408 66.4035H56.3388V72.9166C56.3388 73.0737 56.4008 73.2243 56.5112 73.3353C56.6216 73.4464 56.7713 73.5087 56.9274 73.5087C57.0835 73.5087 57.2333 73.4464 57.3436 73.3353C57.454 73.2243 57.5161 73.0737 57.5161 72.9166V66.4035H78.3641V72.9166C78.3641 73.0737 78.4261 73.2243 78.5365 73.3353C78.6469 73.4464 78.7966 73.5087 78.9527 73.5087C79.1088 73.5087 79.2586 73.4464 79.369 73.3353C79.4794 73.2243 79.5414 73.0737 79.5414 72.9166V66.4035H82.877C83.1112 66.4035 83.3358 66.3099 83.5014 66.1433C83.667 65.9768 83.76 65.7509 83.76 65.5153C83.76 65.3987 83.7372 65.2832 83.6928 65.1754C83.6484 65.0677 83.5834 64.9698 83.5014 64.8873C83.4194 64.8048 83.3221 64.7394 83.2149 64.6947C83.1078 64.6501 82.993 64.6271 82.877 64.6271ZM57.5161 56.387H78.3641V57.5712H57.5161L57.5161 56.387ZM57.5161 63.1469V61.9987L78.3641 61.8809V63.1469H57.5161Z" fill="#F2F2F2"/>
<path d="M47.5039 44.2646C47.0548 43.4281 46.9921 42.3317 47.5436 41.5596C47.8163 42.5564 48.4308 43.4241 49.2784 44.009C49.606 44.2334 49.9937 44.4487 50.1058 44.8312C50.1648 45.075 50.1284 45.3322 50.0043 45.5499C49.8804 45.7648 49.7296 45.9628 49.5557 46.1391L49.5398 46.1989C48.7267 45.7142 47.9531 45.1011 47.5039 44.2646Z" fill="#CCCCCC"/>
<path d="M66.6524 45.9286C66.2032 45.0921 66.1405 43.9957 66.692 43.2236C66.9648 44.2205 67.5793 45.0881 68.4268 45.6731C68.7545 45.8975 69.1421 46.1128 69.2542 46.4952C69.3132 46.739 69.2769 46.9963 69.1527 47.214C69.0288 47.4288 68.8781 47.6268 68.7041 47.8031L68.6882 47.863C67.8751 47.3783 67.1015 46.7652 66.6524 45.9286Z" fill="#CCCCCC"/>
<path d="M99.3855 76.6848C98.4837 76.4001 97.6788 75.658 97.5391 74.7178C98.4255 75.2411 99.4674 75.4322 100.48 75.2572C100.871 75.1883 101.298 75.0707 101.643 75.2663C101.855 75.3998 102.007 75.6097 102.069 75.8528C102.129 76.0937 102.158 76.3414 102.156 76.5898L102.186 76.6438C101.267 76.8666 100.287 76.9695 99.3855 76.6848Z" fill="#CCCCCC"/>
<path d="M101.042 78.9446C100.14 78.6598 99.3351 77.9178 99.1953 76.9775C100.082 77.5009 101.124 77.692 102.137 77.517C102.527 77.4481 102.954 77.3305 103.3 77.5261C103.511 77.6595 103.663 77.8695 103.725 78.1125C103.785 78.3535 103.814 78.6012 103.812 78.8495L103.842 78.9036C102.923 79.1263 101.944 79.2293 101.042 78.9446Z" fill="#CCCCCC"/>
<path d="M95.8386 77.7551C94.9368 77.4704 94.132 76.7284 93.9922 75.7881C94.8786 76.3114 95.9206 76.5025 96.9336 76.3275C97.324 76.2586 97.7512 76.1411 98.0966 76.3366C98.3079 76.4701 98.4601 76.68 98.522 76.9231C98.5821 77.164 98.6112 77.4117 98.6088 77.6601L98.6388 77.7141C97.72 77.9369 96.7404 78.0398 95.8386 77.7551Z" fill="#CCCCCC"/>
<path d="M99.8582 75.1389C98.9564 74.8542 98.1515 74.1122 98.0117 73.1719C98.8982 73.6952 99.9401 73.8863 100.953 73.7113C101.344 73.6424 101.771 73.5249 102.116 73.7204C102.327 73.8539 102.48 74.0638 102.542 74.3069C102.602 74.5478 102.631 74.7955 102.628 75.0439L102.658 75.0979C101.739 75.3207 100.76 75.4236 99.8582 75.1389Z" fill="#CCCCCC"/>
<path d="M35.1134 76.6366C34.2439 76.2639 33.5157 75.4456 33.4688 74.4961C34.2996 75.1048 35.3177 75.3983 36.343 75.3246C36.7382 75.2947 37.1748 75.2201 37.4994 75.449C37.6966 75.6027 37.8275 75.8267 37.8653 76.0748C37.9014 76.3205 37.9062 76.5699 37.8794 76.8168L37.904 76.8735C36.9678 77.0041 35.9829 77.0094 35.1134 76.6366Z" fill="#CCCCCC"/>
<path d="M41.2383 64.8359C40.7891 63.9993 40.7264 62.903 41.2779 62.1309C41.5507 63.1277 42.1652 63.9953 43.0127 64.5803C43.3404 64.8047 43.7281 65.02 43.8402 65.4024C43.8992 65.6463 43.8628 65.9035 43.7387 66.1212C43.6148 66.336 43.464 66.534 43.29 66.7104L43.2742 66.7702C42.461 66.2855 41.6875 65.6724 41.2383 64.8359Z" fill="#CCCCCC"/>
<path d="M41.906 72.509C41.0134 72.1963 40.2318 71.4295 40.1211 70.4854C40.991 71.0361 42.0265 71.2596 43.0445 71.1163C43.4368 71.0596 43.8674 70.9554 44.2066 71.1617C44.4137 71.3017 44.5594 71.5162 44.6137 71.7611C44.6664 72.0038 44.6879 72.2523 44.6777 72.5005L44.7061 72.5554C43.7808 72.7494 42.7986 72.8217 41.906 72.509Z" fill="#CCCCCC"/>
<path d="M43.5622 69.5364C42.6697 69.2237 41.8881 68.4569 41.7773 67.5127C42.6472 68.0634 43.6828 68.2869 44.7007 68.1436C45.0931 68.0869 45.5236 67.9828 45.8629 68.189C46.0699 68.329 46.2157 68.5436 46.27 68.7885C46.3226 69.0312 46.3441 69.2796 46.334 69.5278L46.3624 69.5828C45.4371 69.7767 44.4548 69.8491 43.5622 69.5364Z" fill="#CCCCCC"/>
<path d="M40.2537 70.6067C39.3611 70.294 38.5795 69.5272 38.4688 68.583C39.3386 69.1338 40.3742 69.3572 41.3921 69.2139C41.7845 69.1572 42.215 69.0531 42.5543 69.2593C42.7613 69.3993 42.9071 69.6139 42.9614 69.8588C43.014 70.1015 43.0355 70.3499 43.0254 70.5981L43.0538 70.6531C42.1285 70.8471 41.1463 70.9194 40.2537 70.6067Z" fill="#CCCCCC"/>
<path d="M7.06259 40.9768C7.03483 40.9768 7.00712 40.9766 6.97924 40.9762C5.5172 40.9546 4.10897 40.4181 2.99952 39.4601C1.89007 38.502 1.14962 37.1831 0.906986 35.7327C0.664351 34.2823 0.934884 32.7922 1.67152 31.5217C2.40816 30.2512 3.56428 29.2807 4.93877 28.7789C5.12152 28.714 5.27951 28.5932 5.39062 28.4334C5.50173 28.2736 5.5604 28.0829 5.55841 27.888L5.55836 27.8656C5.55828 27.3634 5.61795 26.863 5.73608 26.375C5.77619 26.218 5.77422 26.0532 5.73035 25.8972C5.68649 25.7412 5.6023 25.5998 5.48638 25.4872C4.43791 24.4954 3.60616 23.2949 3.04404 21.9621C2.48192 20.6294 2.20175 19.1935 2.22133 17.7459C2.30295 12.0947 6.94253 7.49707 12.5637 7.49707L12.6141 7.49719C14.012 7.49885 15.3948 7.78805 16.6775 8.347C17.9602 8.90596 19.1157 9.72286 20.073 10.7475C20.5541 11.2583 21.1332 11.6655 21.7753 11.9447C22.4174 12.2238 23.1091 12.369 23.8086 12.3714L23.8285 12.4308L23.8284 12.3714L23.8694 12.3712C25.8271 12.3771 27.7433 12.9388 29.3976 13.9917C31.0519 15.0447 32.3769 16.5461 33.2203 18.3232C33.266 18.4212 33.3382 18.5043 33.4286 18.563C33.5191 18.6216 33.6241 18.6535 33.7317 18.6548L33.803 18.6563C35.6509 18.7003 37.4533 19.2416 39.0227 20.2239C40.5921 21.2063 41.8711 22.5937 42.7266 24.2419C43.5821 25.89 43.9828 27.7387 43.8871 29.5955C43.7914 31.4523 43.2028 33.2494 42.1824 34.7997C41.1621 36.3501 39.7473 37.597 38.0854 38.4109C36.4234 39.2247 34.575 39.5757 32.7325 39.4272C30.8899 39.2788 29.1206 38.6364 27.6086 37.5668C26.0966 36.4973 24.8972 35.0397 24.1352 33.3458C24.112 33.2954 24.0749 33.2528 24.0282 33.2231C23.9816 33.1934 23.9275 33.1778 23.8723 33.1782C23.1614 33.1784 22.4524 33.1056 21.7563 32.9607C19.2249 32.4263 16.5921 32.6747 14.2037 33.6733C14.1233 33.7068 14.0421 33.7387 13.9601 33.7689C13.7743 33.8367 13.6136 33.96 13.4995 34.1223C13.3854 34.2847 13.3235 34.4783 13.322 34.6771V34.6893C13.322 36.3567 12.6636 37.9558 11.4915 39.1349C10.3194 40.314 8.72972 40.9766 7.07206 40.9768H7.06259V40.9768Z" fill="#3BEDBF"/>
<path d="M23.0347 72.7237C22.6751 72.7249 22.3207 72.6375 22.0024 72.4692C21.6841 72.3008 21.4117 72.0566 21.2089 71.7579C20.9856 71.4347 20.8506 71.0582 20.8175 70.666C20.7844 70.2738 20.8542 69.8798 21.0201 69.5234C22.2672 66.7986 22.7196 63.7645 22.3648 60.5056C21.4928 52.495 13.5403 39.9923 13.4601 39.8669L9.80909 35.1939C8.97771 34.1297 9.38604 32.9875 10.1173 32.3767C10.8368 31.7755 12.0097 31.5853 12.8843 32.5883C13.1373 32.857 13.3327 33.1753 13.4581 33.5232C13.705 31.892 14.6673 24.5208 12.9663 18.4522C12.4342 16.5537 13.6167 15.2408 14.9404 14.8244C16.2402 14.4157 17.9245 14.8113 18.5518 16.6457C18.9151 17.7079 19.031 18.9104 18.8964 20.2196C18.5508 23.5798 18.2897 26.7116 18.1204 29.528C18.1011 29.8499 18.1841 30.1696 18.3575 30.4408C18.5309 30.712 18.7856 30.9207 19.0848 31.0366C19.3839 31.1525 19.712 31.1695 20.0214 31.0853C20.3309 31.0011 20.6056 30.82 20.8059 30.5682L23.6622 26.9792C25.3805 24.8202 27.9651 24.7353 29.7642 25.6091C31.3948 26.4009 33.0719 28.3248 32.4326 31.141C32.2795 31.8155 32.0038 32.3529 31.6133 32.7383C31.5316 32.8189 31.4488 32.8996 31.3648 32.9805C29.4631 34.8067 28.1708 37.181 27.666 39.7765C27.1611 42.3719 27.4684 45.061 28.5456 47.4735C31.098 53.1426 32.7871 58.0053 33.566 61.9264C34.636 67.3132 33.9301 70.7508 31.468 72.1439L31.4453 72.1507L23.192 72.7183L23.1883 72.6643L23.192 72.7183C23.1394 72.7219 23.0868 72.7237 23.0347 72.7237Z" fill="#E6E6E6"/>
<path d="M6.24211 33.4797C6.2144 33.4797 6.18681 33.4795 6.15899 33.4792C4.69694 33.4576 3.28869 32.9211 2.17923 31.963C1.06977 31.005 0.329311 29.686 0.0866737 28.2356C-0.155963 26.7852 0.114576 25.2952 0.851226 24.0247C1.58788 22.7541 2.74402 21.7836 4.11852 21.2819C4.30127 21.2169 4.45926 21.0961 4.57037 20.9363C4.68148 20.7766 4.74014 20.5859 4.73816 20.3909L4.7381 20.3686C4.738 19.8664 4.79766 19.366 4.91583 18.878C4.95593 18.721 4.95394 18.5561 4.91006 18.4002C4.86619 18.2442 4.782 18.1027 4.66607 17.9901C3.61762 16.9983 2.78588 15.7978 2.22377 14.4651C1.66167 13.1323 1.38149 11.6965 1.40108 10.2489C1.4827 4.59762 6.12228 0 11.7435 0L11.7938 0.000118844C13.1917 0.00178876 14.5745 0.290987 15.8572 0.84994C17.1399 1.40889 18.2954 2.22579 19.2528 3.25043C19.7338 3.76119 20.3129 4.16845 20.955 4.44758C21.5971 4.72671 22.2888 4.87189 22.9882 4.87434L23.0082 4.93374L23.008 4.87429L23.0491 4.87417C25.0068 4.88002 26.923 5.44175 28.5773 6.49471C30.2316 7.54768 31.5567 9.04908 32.4001 10.8261C32.4457 10.9241 32.5179 11.0072 32.6083 11.0659C32.6988 11.1245 32.8038 11.1564 32.9114 11.1578L32.9826 11.1592C34.8306 11.2032 36.633 11.7445 38.2024 12.7269C39.7718 13.7092 41.0507 15.0966 41.9062 16.7448C42.7617 18.393 43.1625 20.2416 43.0668 22.0984C42.9711 23.9552 42.3825 25.7523 41.3621 27.3027C40.3418 28.853 38.927 30.1 37.2651 30.9138C35.6031 31.7276 33.7547 32.0786 31.9122 31.9302C30.0696 31.7817 28.3003 31.1393 26.7883 30.0698C25.2763 29.0002 24.0769 27.5427 23.3149 25.8487C23.2917 25.7984 23.2545 25.7558 23.2079 25.7261C23.1613 25.6963 23.1072 25.6807 23.052 25.6811C22.3411 25.6814 21.6321 25.6085 20.9359 25.4637C18.4046 24.9291 15.7718 25.1775 13.3834 26.1762C13.303 26.2097 13.2218 26.2416 13.1398 26.2719C12.954 26.3396 12.7933 26.4629 12.6792 26.6253C12.5651 26.7876 12.5032 26.9812 12.5017 27.18V27.1923C12.5017 28.8597 11.8432 30.4588 10.6712 31.6379C9.4991 32.817 7.90941 33.4795 6.25175 33.4797H6.24211Z" fill="#C0FFEA"/>
<path d="M32.4965 16.3329C32.5157 16.3299 32.5349 16.3271 32.5542 16.3244C33.5699 16.1821 34.6031 16.4025 35.4739 16.9472C36.3448 17.492 36.9982 18.3265 37.3206 19.3058C37.6429 20.285 37.6138 21.3469 37.2383 22.3068C36.8627 23.2667 36.1645 24.0638 35.2652 24.5594C35.1454 24.624 35.0487 24.7248 34.9887 24.8475C34.9287 24.9701 34.9083 25.1086 34.9304 25.2436L34.9328 25.259C34.9862 25.6071 34.9981 25.9604 34.968 26.3113C34.9569 26.4245 34.9758 26.5385 35.0228 26.6419C35.0698 26.7453 35.1432 26.8343 35.2355 26.8999C36.4355 27.7265 37.3608 28.8968 37.8912 30.259C38.4216 31.6212 38.5326 33.1123 38.2099 34.5388C37.8872 35.9652 37.1457 37.2612 36.0815 38.2584C35.0173 39.2555 33.6797 39.9079 32.2423 40.1308L32.2074 40.1361C31.2383 40.2853 30.2491 40.2336 29.3006 39.9841C28.3521 39.7347 27.4643 39.2927 26.6918 38.6855C26.304 38.3832 25.8594 38.1632 25.3846 38.0388C24.9099 37.9143 24.415 37.8881 23.9299 37.9616L23.9098 37.9226L23.9162 37.9638L23.8878 37.9683C22.5302 38.1748 21.1423 37.9916 19.8837 37.4396C18.6251 36.8877 17.547 35.9895 16.7735 34.8485C16.7315 34.7855 16.6726 34.7357 16.6037 34.7047C16.5348 34.6738 16.4586 34.663 16.3838 34.6736L16.3343 34.6803C15.0488 34.8486 13.7419 34.6672 12.5497 34.1551C11.3574 33.643 10.3234 32.8189 9.55524 31.7685C8.78705 30.7181 8.31275 29.4798 8.1817 28.1825C8.05064 26.8852 8.26762 25.5762 8.81006 24.3919C9.35249 23.2075 10.2006 22.191 11.266 21.4482C12.3315 20.7053 13.5754 20.2633 14.8683 20.168C16.1612 20.0727 17.4559 20.3277 18.6176 20.9064C19.7793 21.4851 20.7656 22.3664 21.4739 23.4586C21.4953 23.491 21.5256 23.5165 21.5611 23.5321C21.5965 23.5477 21.6357 23.5527 21.6739 23.5465C22.1666 23.4698 22.6659 23.4441 23.1638 23.4696C24.9752 23.5679 26.7737 23.1125 28.323 22.1634C28.3752 22.1315 28.428 22.1007 28.4817 22.0709C28.6033 22.0039 28.7016 21.9012 28.7634 21.7764C28.8252 21.6516 28.8475 21.5107 28.8274 21.3728L28.8261 21.3643C28.6489 20.2085 28.9353 19.0293 29.6224 18.086C30.3094 17.1426 31.3409 16.5124 32.4899 16.334L32.4965 16.3329Z" fill="#3BEDBF"/>
<path d="M107.557 36.6992C105.886 36.6992 103.271 41.2223 103.244 41.2692C100.834 44.3629 98.3558 52.1969 97.0926 56.5919C96.9489 57.0908 96.9098 57.6142 96.9777 58.129C97.0456 58.6438 97.2191 59.1389 97.4871 59.5828C97.7551 60.0267 98.1118 60.4097 98.5347 60.7077C98.9576 61.0057 99.4373 61.2121 99.9436 61.3139C102.584 61.8443 104.829 62.598 106.616 63.5544C110.846 65.8184 115.863 63.6779 116.371 63.4498L114.706 54.7962C112.857 48.6196 109.01 36.8946 107.679 36.7076C107.639 36.702 107.598 36.6992 107.557 36.6992Z" fill="#2F2E41"/>
<path opacity="0.1" d="M114.764 54.7826C114.764 54.7826 109.409 36.8911 107.688 36.6493C105.967 36.4075 103.898 41.2891 103.898 41.2891C102.813 45.8018 100.103 52.0084 98.1362 56.1999C97.8938 56.716 97.7699 57.2802 97.7735 57.8509C97.7771 58.4216 97.9082 58.9843 98.1571 59.4972C98.406 60.0101 98.7663 60.4602 99.2113 60.8142C99.6564 61.1682 100.175 61.417 100.728 61.5424C102.601 61.9646 104.735 62.6151 106.589 63.6075C111.107 66.0252 116.439 63.4851 116.439 63.4851L114.764 54.7826Z" fill="black"/>
<path d="M111.352 55.9826L102.723 54.9124L104.496 47.0645L111.352 47.3023V55.9826Z" fill="#9E616A"/>
<path d="M106.55 89.4672L104.82 89.185L105.08 82.3408L107.632 82.757L106.55 89.4672Z" fill="#9E616A"/>
<path d="M115.168 85.8386L113.604 86.6324L109.461 80.5847L111.77 79.4131L115.168 85.8386Z" fill="#9E616A"/>
<path d="M110.232 83.6393L103.029 65.1652C100.451 58.0823 102.754 53.2008 102.778 53.1524L102.79 53.1286L102.814 53.1196C103.11 54.2775 109.817 54.1987 111.353 52.415C112.25 53.173 113.444 54.9575 113.7 57.09C113.967 59.3778 113.765 61.6965 113.104 63.9022L110.267 73.5767L113.777 81.5306L110.232 83.6393Z" fill="#2F2E41"/>
<path d="M106.757 72.1797L104.156 85.4447L107.62 86.1017L109.799 74.6196L106.757 72.1797Z" fill="#2F2E41"/>
<path d="M107.12 87.2457L106.909 87.2327L104.898 87.1114L104.614 87.0947V88.1756L102.231 89.8308C102.113 89.9126 102.025 90.0301 101.978 90.1661C101.931 90.3022 101.929 90.4496 101.972 90.587C102.015 90.7244 102.1 90.8444 102.215 90.9296C102.33 91.0147 102.47 91.0605 102.613 91.0603H105.597L106.111 89.9925L106.312 91.0603H107.436L107.12 87.2457Z" fill="#2F2E41"/>
<path d="M117.403 88.4121L115.08 85.3799L114.961 85.4477L113.398 86.3347L112.894 86.6201L113.476 87.5274L112.367 90.2183C112.313 90.3512 112.302 90.4981 112.336 90.6377C112.37 90.7773 112.448 90.9022 112.558 90.9943C112.667 91.0864 112.804 91.1409 112.946 91.1497C113.089 91.1586 113.231 91.1214 113.351 91.0435L115.858 89.4157L115.714 88.2373L116.459 89.0256L117.403 88.4121Z" fill="#2F2E41"/>
<path d="M110.792 35.0511C113.166 35.0511 115.091 33.1148 115.091 30.7263C115.091 28.3377 113.166 26.4014 110.792 26.4014C108.417 26.4014 106.492 28.3377 106.492 30.7263C106.492 33.1148 108.417 35.0511 110.792 35.0511Z" fill="#2F2E41"/>
<path d="M89.0303 48.8979C88.6336 48.7351 88.3101 48.4316 88.121 48.0449C87.932 47.6582 87.8905 47.2152 88.0045 46.7998C88.1184 46.3844 88.3799 46.0255 88.7394 45.7911C89.0989 45.5567 89.5313 45.463 89.9549 45.5279L95.4712 44.4609L97.541 46.9344L91.3978 47.6587C91.343 47.9086 91.2343 48.1434 91.0795 48.3465C90.9246 48.5496 90.7274 48.7161 90.5017 48.8343C90.276 48.9524 90.0272 49.0193 89.773 49.0303C89.5188 49.0413 89.2653 48.9961 89.0303 48.8979H89.0303Z" fill="#9E616A"/>
<path d="M106.169 43.369L99.3228 47.5934L93.1461 47.7773L91.293 45.0666L98.0259 43.8212L107.298 36.7021L106.169 43.369Z" fill="#2F2E41"/>
<path d="M104.968 40.7336C103.296 42.4155 104.848 44.2176 104.848 44.2176L102.938 48.5425L110.462 50.5848L113.091 38.766L111.3 36.8439C110.919 36.8311 111.051 35.6297 110.746 35.618C109.636 35.5753 109.008 35.5398 108.652 35.5134C108.188 35.479 107.715 36.649 107.715 36.649C107.087 37.267 104.968 40.7336 104.968 40.7336Z" fill="#B900F4"/>
<path d="M118.239 58.9375C117.839 58.6032 117.471 58.2318 117.14 57.8281C116.53 57.0943 115.984 56.3089 115.508 55.4808C114.864 54.3684 114.326 53.1975 113.9 51.9837C113.898 51.9814 113.898 51.979 113.897 51.9766C113.764 51.5973 113.64 51.2069 113.526 50.8053C113.525 50.8008 113.523 50.7964 113.521 50.7923C113.329 50.1139 113.174 49.4256 113.055 48.7304C112.578 45.9158 113.505 43.3521 114.366 41.6969C114.44 41.5573 114.503 41.4122 114.554 41.2629C114.789 40.6091 114.808 39.8964 114.607 39.2313C114.405 38.5662 113.996 37.9845 113.438 37.5731L113.397 37.5422C113.056 37.2889 112.669 37.106 112.258 37.004C111.846 36.902 111.419 36.8829 111 36.9479C110.582 37.0129 110.18 37.1607 109.818 37.3827C109.456 37.6047 109.142 37.8966 108.893 38.2414C108.89 38.2447 108.887 38.2483 108.885 38.2521C107.412 40.3164 106.024 43.3676 106.623 47.1382C106.766 48.0261 107.003 48.8962 107.328 49.734C107.427 49.992 107.536 50.2524 107.654 50.5152C108.138 51.5854 108.612 52.5898 109.078 53.5283C109.485 54.3524 109.884 55.1257 110.274 55.8483C111.535 58.1908 112.689 59.9994 113.668 61.2658C114.8 62.7283 115.699 63.4668 116.26 63.4668C116.318 63.4674 116.375 63.4585 116.429 63.4406C116.432 63.4394 116.433 63.4394 116.435 63.4382C116.873 63.2896 117.41 62.8318 117.859 62.2503C118.273 61.7093 118.61 61.0612 118.717 60.4536C118.796 60.0006 118.777 59.3704 118.239 58.9375Z" fill="#2F2E41"/>
<path d="M111.013 34.6263C112.546 33.7829 113.11 31.8486 112.272 30.3058C111.433 28.763 109.51 28.196 107.976 29.0394C106.443 29.8827 105.879 31.8171 106.717 33.3599C107.556 34.9027 109.479 35.4697 111.013 34.6263Z" fill="#9E616A"/>
<path d="M105.398 31.3542H109.969L110.016 30.6942L110.25 31.3542H110.954L111.046 30.0461L111.511 31.3542H112.873V31.2894C112.872 30.3787 112.511 29.5057 111.871 28.8617C111.231 28.2177 110.363 27.8555 109.458 27.8545H108.813C107.908 27.8555 107.04 28.2177 106.4 28.8617C105.76 29.5057 105.399 30.3787 105.398 31.2894V31.3542Z" fill="#2F2E41"/>
<path d="M120.121 61.1779C119.981 61.585 119.697 61.9261 119.323 62.1365C118.949 62.3469 118.511 62.4121 118.093 62.3196C117.675 62.2272 117.304 61.9836 117.053 61.6349C116.801 61.2863 116.685 60.8569 116.727 60.428L115.375 54.9436L117.721 52.7334L118.766 58.8656C119.017 58.9074 119.256 59.0041 119.465 59.1489C119.675 59.2936 119.851 59.4829 119.98 59.7034C120.11 59.9238 120.189 60.1701 120.214 60.4249C120.238 60.6797 120.207 60.9367 120.121 61.1779V61.1779Z" fill="#9E616A"/>
<path d="M114.027 39.4072L118.958 56.7438L116.287 58.3365L108.547 39.6395L114.027 39.4072Z" fill="#2F2E41"/>
<path d="M122.688 33.2662C121.746 32.6086 121.16 31.5468 120.756 30.4665C120.353 29.3862 120.099 28.2511 119.643 27.1927C119.089 25.9147 118.254 24.7801 117.201 23.8748C116.526 23.2962 115.741 22.8076 114.866 22.6644C113.991 22.5211 113.016 22.7768 112.457 23.4685C111.897 24.1601 111.898 25.3045 112.576 25.8793C112.374 25.6652 111.981 25.7183 111.806 25.9551C111.725 26.0789 111.685 26.2254 111.692 26.3735C111.7 26.5215 111.754 26.6633 111.847 26.7784C111.914 26.8636 111.997 26.9351 112.092 26.9891C112.303 27.4643 112.665 27.8558 113.12 28.1028C113.674 28.3774 114.412 28.3201 114.831 27.8642C115.251 27.4083 115.191 26.5568 114.651 26.2561C115.491 26.0933 116.361 26.5842 116.848 27.2919C117.335 27.9996 117.499 28.8838 117.539 29.7437C117.579 30.6036 117.508 31.4674 117.58 32.3252C117.652 33.183 117.885 34.0609 118.449 34.7092C119.371 35.7714 120.994 35.9696 122.337 35.5619C123.679 35.1541 124.81 34.2527 125.904 33.3699C124.994 34.0725 123.631 33.9238 122.688 33.2662Z" fill="#2F2E41"/>
<path d="M85.5574 46.5278C84.9478 46.9801 84.7928 47.8078 85.0024 48.51C85.1113 48.8937 85.3263 49.2385 85.6223 49.5042C85.9183 49.77 86.2833 49.9457 86.6747 50.011C87.5526 50.1774 88.4922 49.8311 89.175 49.2827C89.9447 48.6646 90.391 47.7631 90.8342 46.9016C91.4345 45.7347 92.0935 44.5959 92.7278 43.4474C93.4352 42.1663 94.1423 40.8851 94.8491 39.6037C96.438 36.7215 98.0194 33.835 99.5934 30.9444C101.165 28.0506 102.72 25.1469 104.256 22.2334C105.501 19.8594 106.733 17.4768 107.887 15.0561C108 14.8182 108.112 14.5798 108.223 14.3409C108.256 14.2525 108.253 14.1546 108.215 14.0685C108.177 13.9823 108.106 13.9146 108.019 13.88C107.931 13.8481 107.834 13.8516 107.749 13.89C107.663 13.9283 107.596 13.9984 107.561 14.0856C106.511 16.3402 105.376 18.5545 104.229 20.7602C102.792 23.525 101.328 26.276 99.8388 29.0132C98.2992 31.8591 96.7479 34.6987 95.1851 37.5319C93.8325 39.9898 92.4773 42.4463 91.1196 44.9012C90.7899 45.4989 90.4555 46.0942 90.1434 46.7014C89.7401 47.4861 89.3208 48.3076 88.5895 48.8344C87.9683 49.2818 87.0879 49.5187 86.3684 49.1729C85.8326 48.9153 85.5592 48.2719 85.6328 47.7157C85.6477 47.5891 85.6888 47.467 85.7534 47.3572C85.818 47.2475 85.9048 47.1526 86.0081 47.0787C86.3762 46.8055 85.924 46.2557 85.5574 46.5278V46.5278Z" fill="#2F2E41"/>
<path d="M123.921 31.346L123.879 31.3409C122.268 31.142 120.672 30.9019 119.135 30.6274C118.041 30.432 116.973 30.2195 115.961 29.9956C115.107 29.8078 114.263 29.6067 113.452 29.3978C112.548 29.1662 111.651 28.9169 110.786 28.6566C110.425 28.5497 110.057 28.4365 109.694 28.3203C109.02 28.1052 108.371 27.8864 107.764 27.6701C107.175 27.463 106.581 27.2419 105.999 27.0133C105.987 27.0095 105.974 27.0051 105.962 26.9998C104.783 26.5389 103.624 26.0414 102.52 25.5217C102.307 25.4219 102.094 25.3206 101.883 25.2178C95.5158 22.1229 90.1853 17.9238 86.0392 12.7371L86.0156 12.7077L86.0321 12.6737C88.2484 8.10134 92.0849 4.52828 96.7875 2.65705C101.49 0.785815 106.719 0.751792 111.445 2.56167C112.027 2.78541 112.6 3.03575 113.149 3.30575L114.625 4.03184C115.423 4.42406 116.195 4.86807 116.935 5.36107C121.032 8.09611 124.002 12.2357 125.29 17.0091C126.579 21.7824 126.099 26.8641 123.94 31.308L123.921 31.346Z" fill="#B900F4"/>
<path d="M88.9927 15.591C94.495 11.4884 100.495 8.10777 106.846 5.53086C108.628 4.80757 110.434 4.1491 112.265 3.55548C112.481 3.48517 112.331 3.16165 112.116 3.23149C105.569 5.35672 99.3187 8.31376 93.5162 12.0309C91.8949 13.0683 90.3119 14.1632 88.7674 15.3155C88.5837 15.4525 88.8097 15.7274 88.9927 15.591Z" fill="#3F3D56"/>
<path d="M115.8 4.72656C115.779 4.75682 115.769 4.79298 115.77 4.82981C115.771 4.86664 115.783 4.90221 115.805 4.93136C116.807 6.32831 117.656 7.82959 118.339 9.40929C119.021 10.989 119.542 12.6346 119.892 14.3207C120.246 16.0069 120.431 17.7243 120.447 19.4475C120.462 21.1705 120.306 22.8907 119.979 24.582C119.7 26.0284 119.289 27.4459 118.752 28.8167C118.662 29.0469 118.568 29.2755 118.471 29.5025C118.386 29.6986 118.3 29.8932 118.21 30.0863C118.114 30.2955 118.446 30.4212 118.542 30.2143C118.659 29.9582 118.773 29.7005 118.881 29.4398C119.443 28.0903 119.884 26.6928 120.198 25.2641C120.573 23.5601 120.774 21.822 120.798 20.0768C120.823 18.3292 120.677 16.5833 120.361 14.8647C120.045 13.1479 119.558 11.4676 118.907 9.84948C118.254 8.225 117.428 6.67599 116.445 5.22924C116.401 5.16275 116.355 5.09615 116.309 5.03073L115.8 4.72656Z" fill="#3F3D56"/>
<path d="M98.2027 23.0631L103.893 16.1659L109.584 9.26861L112.787 5.38605C112.933 5.20893 112.645 5.0012 112.5 5.17707L106.809 12.0743L101.118 18.9716L97.9152 22.8541C97.7691 23.0312 98.0576 23.239 98.2027 23.0631H98.2027Z" fill="#3F3D56"/>
<path d="M110.653 28.3877L112.271 19.9417L113.883 11.5247L114.792 6.77746C114.835 6.55214 114.482 6.5191 114.439 6.74297L112.822 15.189L111.21 23.606L110.301 28.3533C110.257 28.5786 110.611 28.6116 110.653 28.3877Z" fill="#3F3D56"/>
<path d="M116.9 5.41052C116.555 6.02976 116.009 6.51084 115.354 6.773C114.698 7.03515 113.973 7.06241 113.299 6.8502C112.626 6.638 112.046 6.19924 111.656 5.6076C111.266 5.01596 111.091 4.30746 111.159 3.60105C111.191 3.26063 111.28 2.92806 111.421 2.61719C111.993 2.8367 112.559 3.084 113.121 3.35907L114.597 4.08514C115.393 4.47606 116.162 4.91879 116.9 5.41052Z" fill="#3F3D56"/>
<path d="M45.0791 7.35376C45.6307 9.29275 46.4565 11.1419 47.5313 12.8445C47.8372 13.3283 48.1628 13.7987 48.508 14.2556C48.6441 14.4363 48.9522 14.2587 48.8142 14.0756C47.6147 12.4872 46.6496 10.7329 45.9488 8.86701C45.7511 8.33845 45.5752 7.80242 45.421 7.25893C45.4073 7.21477 45.377 7.17771 45.3366 7.15556C45.2962 7.13342 45.2489 7.12791 45.2045 7.14021C45.1602 7.15251 45.1223 7.18165 45.0989 7.22149C45.0755 7.26133 45.0684 7.30875 45.0791 7.35376H45.0791Z" fill="#F2F2F2"/>
<path d="M55.5838 15.0816L57.7381 18.8511C57.7626 18.8903 57.8013 18.9183 57.846 18.9293C57.8907 18.9402 57.9379 18.9333 57.9777 18.91C58.0174 18.8866 58.0465 18.8486 58.059 18.8041C58.0714 18.7595 58.0661 18.7118 58.0443 18.6711L55.89 14.9016C55.8654 14.8624 55.8267 14.8344 55.782 14.8234C55.7373 14.8125 55.6901 14.8194 55.6504 14.8428C55.6107 14.8661 55.5815 14.9041 55.5691 14.9486C55.5567 14.9932 55.5619 15.0409 55.5838 15.0816Z" fill="#F2F2F2"/>
<path d="M60.3896 9.69389L62.1441 13.4634C62.2408 13.6711 62.5466 13.4902 62.4503 13.2833L60.6958 9.51384C60.5991 9.3061 60.2933 9.48701 60.3896 9.69389Z" fill="#F2F2F2"/>
<path d="M77.8252 12.2288C78.3768 14.1678 79.2026 16.0169 80.2774 17.7195C80.5833 18.2033 80.9089 18.6737 81.2541 19.1306C81.3902 19.3113 81.6983 19.1337 81.5603 18.9506C80.3608 17.3622 79.3957 15.6079 78.6949 13.742C78.4972 13.2134 78.3213 12.6774 78.1671 12.1339C78.1534 12.0898 78.1231 12.0527 78.0827 12.0306C78.0423 12.0084 77.995 12.0029 77.9506 12.0152C77.9063 12.0275 77.8684 12.0567 77.845 12.0965C77.8216 12.1363 77.8145 12.1838 77.8252 12.2288H77.8252Z" fill="#F2F2F2"/>
<path d="M88.3299 19.9566L90.4841 23.7261C90.5087 23.7653 90.5474 23.7933 90.5921 23.8043C90.6368 23.8152 90.684 23.8083 90.7238 23.785C90.7635 23.7616 90.7926 23.7236 90.8051 23.6791C90.8175 23.6345 90.8122 23.5868 90.7904 23.5461L88.6361 19.7766C88.6115 19.7374 88.5728 19.7094 88.5281 19.6984C88.4834 19.6875 88.4362 19.6944 88.3965 19.7178C88.3568 19.7411 88.3276 19.7791 88.3152 19.8236C88.3028 19.8682 88.308 19.9159 88.3299 19.9566Z" fill="#F2F2F2"/>
<path d="M93.1357 14.5689L94.8902 18.3384C94.9869 18.5461 95.2927 18.3652 95.1964 18.1583L93.4419 14.3888C93.3452 14.1811 93.0394 14.362 93.1357 14.5689Z" fill="#F2F2F2"/>
<path d="M72.5049 35.2971C73.0565 37.2361 73.8823 39.0853 74.9571 40.7879C75.263 41.2717 75.5886 41.7421 75.9338 42.199C76.0699 42.3796 76.378 42.2021 76.24 42.019C75.0405 40.4306 74.0754 38.6763 73.3746 36.8104C73.1769 36.2818 73.001 35.7458 72.8468 35.2023C72.8331 35.1581 72.8028 35.1211 72.7624 35.0989C72.722 35.0768 72.6747 35.0713 72.6303 35.0836C72.586 35.0959 72.5481 35.125 72.5247 35.1648C72.5013 35.2047 72.4942 35.2521 72.5049 35.2971H72.5049Z" fill="#F2F2F2"/>
<path d="M83.0096 43.025L85.1638 46.7945C85.1884 46.8336 85.2271 46.8617 85.2718 46.8726C85.3165 46.8836 85.3637 46.8767 85.4034 46.8533C85.4432 46.83 85.4723 46.792 85.4847 46.7474C85.4972 46.7029 85.4919 46.6552 85.4701 46.6145L83.3158 42.8449C83.2912 42.8058 83.2525 42.7778 83.2078 42.7668C83.1631 42.7558 83.1159 42.7628 83.0762 42.7861C83.0365 42.8095 83.0073 42.8474 82.9949 42.892C82.9824 42.9366 82.9877 42.9842 83.0096 43.025Z" fill="#F2F2F2"/>
<path d="M87.8154 37.6372L89.5699 41.4067C89.6666 41.6145 89.9724 41.4336 89.8761 41.2267L88.1216 37.4572C88.0249 37.2495 87.7191 37.4304 87.8154 37.6372Z" fill="#F2F2F2"/>
<path d="M36.6885 44.929C37.24 46.8679 38.0659 48.7171 39.1407 50.4197C39.4466 50.9035 39.7722 51.3739 40.1174 51.8308C40.2535 52.0114 40.5616 51.8339 40.4236 51.6508C39.2241 50.0624 38.259 48.3081 37.5581 46.4422C37.3605 45.9136 37.1845 45.3776 37.0304 44.8341C37.0167 44.79 36.9864 44.7529 36.946 44.7308C36.9056 44.7086 36.8583 44.7031 36.8139 44.7154C36.7696 44.7277 36.7317 44.7568 36.7083 44.7967C36.6849 44.8365 36.6778 44.8839 36.6884 44.929H36.6885Z" fill="#F2F2F2"/>
<path d="M47.1892 52.6568L49.3435 56.4263C49.3681 56.4655 49.4068 56.4935 49.4515 56.5045C49.4962 56.5154 49.5434 56.5085 49.5831 56.4851C49.6228 56.4618 49.652 56.4238 49.6644 56.3793C49.6769 56.3347 49.6716 56.287 49.6497 56.2463L47.4955 52.4768C47.4709 52.4376 47.4322 52.4096 47.3875 52.3986C47.3428 52.3877 47.2956 52.3946 47.2559 52.418C47.2162 52.4413 47.187 52.4793 47.1746 52.5238C47.1621 52.5684 47.1674 52.6161 47.1892 52.6568Z" fill="#F2F2F2"/>
<path d="M51.9951 47.2691L53.7496 51.0386C53.8462 51.2463 54.1521 51.0654 54.0558 50.8585L52.3013 47.089C52.2046 46.8813 51.8988 47.0622 51.9951 47.2691Z" fill="#F2F2F2"/>
<path d="M82.083 56.9387C82.6346 58.8777 83.4604 60.7269 84.5352 62.4295C84.8411 62.9133 85.1667 63.3837 85.5119 63.8406C85.648 64.0212 85.9562 63.8437 85.8181 63.6606C84.6186 62.0722 83.6535 60.3179 82.9527 58.452C82.755 57.9234 82.5791 57.3874 82.425 56.8439C82.4112 56.7997 82.3809 56.7627 82.3405 56.7405C82.3001 56.7184 82.2528 56.7129 82.2084 56.7252C82.1641 56.7375 82.1262 56.7666 82.1028 56.8064C82.0794 56.8463 82.0723 56.8937 82.083 56.9387H82.083Z" fill="#F2F2F2"/>
<path d="M92.5838 64.6666L94.7381 68.4361C94.7626 68.4752 94.8013 68.5033 94.846 68.5142C94.8907 68.5252 94.9379 68.5183 94.9777 68.4949C95.0174 68.4716 95.0465 68.4336 95.059 68.389C95.0714 68.3445 95.0661 68.2968 95.0443 68.2561L92.89 64.4865C92.8654 64.4474 92.8267 64.4194 92.782 64.4084C92.7373 64.3974 92.6901 64.4044 92.6504 64.4277C92.6107 64.4511 92.5815 64.489 92.5691 64.5336C92.5567 64.5782 92.5619 64.6258 92.5838 64.6666Z" fill="#F2F2F2"/>
<path d="M97.3896 59.2788L99.1441 63.0483C99.2408 63.2561 99.5466 63.0752 99.4503 62.8683L97.6958 59.0988C97.5991 58.8911 97.2933 59.072 97.3896 59.2788Z" fill="#F2F2F2"/>
<path d="M101.587 44.2151C102.138 46.1541 102.964 48.0032 104.039 49.7058C104.345 50.1897 104.671 50.6601 105.016 51.117C105.152 51.2976 105.46 51.12 105.322 50.9369C104.123 49.3486 103.157 47.5943 102.457 45.7283C102.259 45.1998 102.083 44.6637 101.929 44.1203C101.915 44.0761 101.885 44.039 101.844 44.0169C101.804 43.9947 101.757 43.9892 101.712 44.0015C101.668 44.0138 101.63 44.043 101.607 44.0828C101.583 44.1227 101.576 44.1701 101.587 44.2151H101.587Z" fill="#F2F2F2"/>
<path d="M112.092 51.9429L114.246 55.7125C114.27 55.7516 114.309 55.7796 114.354 55.7906C114.399 55.8016 114.446 55.7946 114.485 55.7713C114.525 55.7479 114.554 55.71 114.567 55.6654C114.579 55.6208 114.574 55.5732 114.552 55.5324L112.398 51.7629C112.373 51.7238 112.335 51.6957 112.29 51.6848C112.245 51.6738 112.198 51.6807 112.158 51.7041C112.118 51.7274 112.089 51.7654 112.077 51.81C112.064 51.8545 112.07 51.9022 112.092 51.9429Z" fill="#F2F2F2"/>
<path d="M116.897 46.5562L118.652 50.3257C118.749 50.5334 119.054 50.3525 118.958 50.1456L117.204 46.3761C117.107 46.1684 116.801 46.3493 116.897 46.5562Z" fill="#F2F2F2"/>
<path d="M106.079 17.342C106.631 19.281 107.457 21.1302 108.531 22.8328C108.837 23.3166 109.163 23.787 109.508 24.2439C109.644 24.4245 109.952 24.247 109.814 24.0639C108.615 22.4755 107.65 20.7212 106.949 18.8553C106.751 18.3267 106.575 17.7907 106.421 17.2472C106.407 17.2031 106.377 17.166 106.337 17.1438C106.296 17.1217 106.249 17.1162 106.205 17.1285C106.16 17.1408 106.122 17.1699 106.099 17.2098C106.075 17.2496 106.068 17.297 106.079 17.342H106.079Z" fill="#F2F2F2"/>
<path d="M116.584 25.0699L118.738 28.8394C118.763 28.8786 118.801 28.9066 118.846 28.9175C118.891 28.9285 118.938 28.9216 118.978 28.8982C119.017 28.8749 119.047 28.8369 119.059 28.7924C119.071 28.7478 119.066 28.7001 119.044 28.6594L116.89 24.8898C116.865 24.8507 116.827 24.8227 116.782 24.8117C116.737 24.8008 116.69 24.8077 116.65 24.831C116.611 24.8544 116.582 24.8924 116.569 24.9369C116.557 24.9815 116.562 25.0292 116.584 25.0699Z" fill="#F2F2F2"/>
<path d="M121.39 19.6822L123.144 23.4517C123.241 23.6594 123.547 23.4785 123.45 23.2716L121.696 19.5021C121.599 19.2944 121.293 19.4753 121.39 19.6822Z" fill="#F2F2F2"/>
<path d="M10.3252 7.82935C10.8768 9.76834 11.7026 11.6175 12.7774 13.3201C13.0833 13.8039 13.4089 14.2743 13.7541 14.7312C13.8902 14.9118 14.1983 14.7343 14.0603 14.5512C12.8608 12.9628 11.8957 11.2085 11.1949 9.3426C10.9972 8.81403 10.8213 8.27801 10.6671 7.73452C10.6534 7.69036 10.6231 7.6533 10.5827 7.63115C10.5423 7.609 10.495 7.6035 10.4506 7.6158C10.4063 7.62809 10.3684 7.65724 10.345 7.69708C10.3216 7.73691 10.3145 7.78434 10.3252 7.82935H10.3252Z" fill="#F2F2F2"/>
<path d="M20.8299 15.5572L22.9841 19.3267C23.0087 19.3659 23.0474 19.3939 23.0921 19.4048C23.1368 19.4158 23.184 19.4089 23.2237 19.3855C23.2635 19.3622 23.2926 19.3242 23.3051 19.2797C23.3175 19.2351 23.3122 19.1874 23.2904 19.1467L21.1361 15.3771C21.1115 15.338 21.0728 15.31 21.0281 15.299C20.9834 15.2881 20.9362 15.295 20.8965 15.3183C20.8568 15.3417 20.8276 15.3797 20.8152 15.4242C20.8028 15.4688 20.808 15.5165 20.8299 15.5572Z" fill="#F2F2F2"/>
<path d="M25.6357 10.1695L27.3902 13.939C27.4869 14.1467 27.7927 13.9658 27.6964 13.7589L25.9419 9.98943C25.8452 9.78168 25.5394 9.96259 25.6357 10.1695Z" fill="#F2F2F2"/>
<path d="M17.7744 22.9309C18.326 24.8699 19.1518 26.7191 20.2266 28.4216C20.5325 28.9055 20.8581 29.3759 21.2033 29.8328C21.3395 30.0134 21.6476 29.8359 21.5095 29.6527C20.31 28.0644 19.3449 26.3101 18.6441 24.4442C18.4464 23.9156 18.2705 23.3796 18.1164 22.8361C18.1026 22.7919 18.0723 22.7549 18.0319 22.7327C17.9916 22.7106 17.9442 22.7051 17.8998 22.7174C17.8555 22.7297 17.8176 22.7588 17.7942 22.7986C17.7708 22.8385 17.7637 22.8859 17.7744 22.9309H17.7744Z" fill="#F2F2F2"/>
<path d="M28.2752 30.6587L30.4295 34.4283C30.454 34.4674 30.4927 34.4954 30.5374 34.5064C30.5821 34.5174 30.6293 34.5105 30.6691 34.4871C30.7088 34.4637 30.7379 34.4258 30.7504 34.3812C30.7628 34.3367 30.7575 34.289 30.7357 34.2482L28.5814 30.4787C28.5568 30.4396 28.5181 30.4116 28.4734 30.4006C28.4287 30.3896 28.3815 30.3965 28.3418 30.4199C28.3021 30.4433 28.2729 30.4812 28.2605 30.5258C28.2481 30.5703 28.2533 30.618 28.2752 30.6587Z" fill="#F2F2F2"/>
<path d="M33.081 25.271L34.8355 29.0405C34.9322 29.2483 35.238 29.0674 35.1417 28.8605L33.3872 25.091C33.2905 24.8832 32.9847 25.0642 33.081 25.271Z" fill="#F2F2F2"/>
<path d="M0.629857 50.1604C1.18145 52.0994 2.0073 53.9486 3.08207 55.6511C3.38799 56.135 3.71356 56.6054 4.05878 57.0623C4.19492 57.2429 4.50303 57.0653 4.36501 56.8822C3.1655 55.2939 2.20038 53.5396 1.49955 51.6737C1.30186 51.1451 1.12595 50.6091 0.971829 50.0656C0.958074 50.0214 0.927809 49.9844 0.887416 49.9622C0.847022 49.9401 0.799657 49.9346 0.755306 49.9469C0.710956 49.9591 0.673086 49.9883 0.649682 50.0281C0.626278 50.068 0.619169 50.1154 0.629853 50.1604H0.629857Z" fill="#F2F2F2"/>
<path d="M11.1346 57.8892L13.2888 61.6588C13.3134 61.6979 13.3521 61.7259 13.3968 61.7369C13.4415 61.7479 13.4887 61.7409 13.5284 61.7176C13.5682 61.6942 13.5973 61.6563 13.6097 61.6117C13.6222 61.5671 13.6169 61.5195 13.5951 61.4787L11.4408 57.7092C11.4162 57.67 11.3775 57.642 11.3328 57.6311C11.2881 57.6201 11.2409 57.627 11.2012 57.6504C11.1615 57.6737 11.1323 57.7117 11.1199 57.7562C11.1074 57.8008 11.1127 57.8485 11.1346 57.8892Z" fill="#F2F2F2"/>
<path d="M15.9404 52.5015L17.6949 56.271C17.7916 56.4787 18.0974 56.2978 18.0011 56.0909L16.2466 52.3215C16.1499 52.1137 15.8441 52.2946 15.9404 52.5015Z" fill="#F2F2F2"/>
<path d="M48.1533 28.8762C48.7049 30.8152 49.5307 32.6644 50.6055 34.367C50.9114 34.8508 51.237 35.3212 51.5822 35.7781C51.7184 35.9587 52.0265 35.7812 51.8884 35.5981C50.6889 34.0097 49.7238 32.2554 49.023 30.3895C48.8253 29.8609 48.6494 29.3249 48.4953 28.7814C48.4815 28.7372 48.4512 28.7002 48.4109 28.678C48.3705 28.6559 48.3231 28.6504 48.2787 28.6627C48.2344 28.675 48.1965 28.7041 48.1731 28.7439C48.1497 28.7838 48.1426 28.8312 48.1533 28.8762H48.1533Z" fill="#F2F2F2"/>
<path d="M58.658 36.6041L60.8123 40.3736C60.8368 40.4127 60.8756 40.4408 60.9203 40.4517C60.965 40.4627 61.0122 40.4558 61.0519 40.4324C61.0916 40.4091 61.1207 40.3711 61.1332 40.3265C61.1456 40.282 61.1403 40.2343 61.1185 40.1936L58.9642 36.424C58.9397 36.3849 58.9009 36.3569 58.8562 36.3459C58.8115 36.3349 58.7644 36.3419 58.7246 36.3652C58.6849 36.3886 58.6557 36.4265 58.6433 36.4711C58.6309 36.5157 58.6361 36.5633 58.658 36.6041Z" fill="#F2F2F2"/>
<path d="M63.4638 31.2163L65.2183 34.9858C65.315 35.1936 65.6208 35.0127 65.5245 34.8058L63.7701 31.0363C63.6734 30.8286 63.3675 31.0095 63.4638 31.2163Z" fill="#F2F2F2"/>
<path d="M25.1689 52.672C26.5096 52.3837 27.1761 50.1717 26.6576 47.7313C26.139 45.2909 24.6317 43.5462 23.291 43.8345C21.9502 44.1228 21.2837 46.3348 21.8022 48.7752C22.3208 51.2156 23.8281 52.9602 25.1689 52.672Z" fill="#CCCCCC"/>
<path d="M26.4722 50.394C26.4722 51.3791 26.3876 53.3667 25.4083 53.3667C24.429 53.3667 22.9258 51.3791 22.9258 50.394C22.9258 49.9209 23.1126 49.4673 23.4451 49.1328C23.7777 48.7983 24.2287 48.6104 24.699 48.6104C25.1693 48.6104 25.6203 48.7983 25.9529 49.1328C26.2854 49.4673 26.4722 49.9209 26.4722 50.394Z" fill="#E6E6E6"/>
<path d="M25.0978 51.3256C25.0452 51.354 24.9835 51.3602 24.9263 51.3428C24.8691 51.3255 24.8211 51.286 24.7928 51.2331C24.7888 51.2255 24.788 51.2167 24.7905 51.2085C24.793 51.2004 24.7985 51.1935 24.806 51.1895C24.8135 51.1855 24.8223 51.1846 24.8304 51.187C24.8386 51.1894 24.8454 51.195 24.8495 51.2025C24.8697 51.2403 24.904 51.2685 24.9448 51.2809C24.9857 51.2933 25.0298 51.2889 25.0674 51.2686C25.105 51.2483 25.133 51.2138 25.1454 51.1727C25.1577 51.1316 25.1533 51.0872 25.1331 51.0494C25.1291 51.0419 25.1283 51.033 25.1308 51.0249C25.1333 51.0167 25.1389 51.0098 25.1463 51.0058C25.1538 51.0018 25.1626 51.0009 25.1707 51.0033C25.1789 51.0057 25.1857 51.0113 25.1898 51.0188C25.218 51.0718 25.2241 51.1338 25.2069 51.1913C25.1896 51.2489 25.1504 51.2972 25.0978 51.3256Z" fill="white"/>
<path d="M24.8596 50.849C24.9849 50.7813 25.0655 50.6872 25.0396 50.6387C25.0138 50.5903 24.8912 50.6058 24.7659 50.6734C24.6406 50.7411 24.56 50.8352 24.5859 50.8837C24.6117 50.9321 24.7343 50.9166 24.8596 50.849Z" fill="white"/>
<path d="M23.5297 50.931C23.5467 50.8484 23.5815 50.7705 23.6316 50.7028C23.6818 50.6352 23.7461 50.5795 23.82 50.5396C23.8939 50.4996 23.9757 50.4766 24.0594 50.4719C24.1432 50.4673 24.227 50.4812 24.3048 50.5127C24.344 50.3922 24.3467 50.2628 24.3128 50.1408C24.2788 50.0188 24.2097 49.9096 24.114 49.8272C24.0184 49.7447 23.9006 49.6926 23.7755 49.6774C23.6504 49.6623 23.5237 49.6848 23.4114 49.7421C23.299 49.7994 23.2061 49.889 23.1443 49.9994C23.0825 50.1098 23.0547 50.2362 23.0644 50.3626C23.074 50.4889 23.1207 50.6095 23.1985 50.7092C23.2763 50.8088 23.3817 50.8831 23.5014 50.9224C23.5108 50.9255 23.5202 50.9284 23.5297 50.931Z" fill="white"/>
<path d="M23.7191 50.6986C23.8401 50.6986 23.9382 50.5999 23.9382 50.4782C23.9382 50.3565 23.8401 50.2578 23.7191 50.2578C23.5981 50.2578 23.5 50.3565 23.5 50.4782C23.5 50.5999 23.5981 50.6986 23.7191 50.6986Z" fill="#3F3D56"/>
<path d="M25.0454 50.1381C25.0623 50.0554 25.0971 49.9775 25.1472 49.9099C25.1974 49.8422 25.2617 49.7865 25.3356 49.7466C25.4096 49.7067 25.4913 49.6836 25.5751 49.6789C25.6588 49.6743 25.7426 49.6882 25.8204 49.7197C25.8596 49.5993 25.8624 49.4699 25.8284 49.3478C25.7944 49.2258 25.7253 49.1167 25.6296 49.0342C25.534 48.9517 25.4162 48.8996 25.2911 48.8845C25.1661 48.8693 25.0393 48.8918 24.927 48.9492C24.8146 49.0065 24.7217 49.096 24.6599 49.2064C24.5982 49.3169 24.5704 49.4432 24.58 49.5696C24.5896 49.6959 24.6363 49.8166 24.7141 49.9162C24.7919 50.0159 24.8973 50.0901 25.0171 50.1295C25.0264 50.1326 25.0359 50.1354 25.0454 50.1381Z" fill="white"/>
<path d="M25.3168 49.8929C25.4378 49.8929 25.5359 49.7942 25.5359 49.6725C25.5359 49.5508 25.4378 49.4521 25.3168 49.4521C25.1958 49.4521 25.0977 49.5508 25.0977 49.6725C25.0977 49.7942 25.1958 49.8929 25.3168 49.8929Z" fill="#3F3D56"/>
<path d="M26.416 49.658L25.668 50.4248L25.7435 50.4993L26.4916 49.7326L26.416 49.658Z" fill="white"/>
<path d="M26.6538 50.0282L25.75 50.6006L25.8064 50.6906L26.7102 50.1183L26.6538 50.0282Z" fill="white"/>
<path d="M24.0644 51.291L23.0156 51.4941L23.0356 51.5986L24.0844 51.3955L24.0644 51.291Z" fill="white"/>
<path d="M24.1653 51.4573L23.1914 51.8984L23.2348 51.9955L24.2087 51.5543L24.1653 51.4573Z" fill="white"/>
<path d="M26.3374 52.1252C26.6251 52.1252 26.8583 51.8906 26.8583 51.6012C26.8583 51.3118 26.6251 51.0771 26.3374 51.0771C26.0496 51.0771 25.8164 51.3118 25.8164 51.6012C25.8164 51.8906 26.0496 52.1252 26.3374 52.1252Z" fill="#CCCCCC"/>
<path d="M24.7866 53.0617C25.0743 53.0617 25.3075 52.8271 25.3075 52.5377C25.3075 52.2483 25.0743 52.0137 24.7866 52.0137C24.4989 52.0137 24.2656 52.2483 24.2656 52.5377C24.2656 52.8271 24.4989 53.0617 24.7866 53.0617Z" fill="#CCCCCC"/>
<path d="M24.7004 48.0149C24.464 47.896 24.3359 48.7808 24.3359 48.7808H24.8931C24.8931 48.7808 24.9369 48.1338 24.7004 48.0149Z" fill="#E6E6E6"/>
<path d="M22.8196 48.8217C22.5876 48.9491 23.2369 49.5598 23.2369 49.5598L23.5548 49.0996C23.5548 49.0996 23.0516 48.6942 22.8196 48.8217Z" fill="#E6E6E6"/>
</g>
<defs>
<clipPath id="clip0_322_14557">
<rect width="126" height="98" fill="white"/>
</clipPath>
</defs>
</svg>
