<svg width="26" height="26" viewBox="0 0 26 26" fill="none" xmlns="http://www.w3.org/2000/svg">
<circle cx="13" cy="13" r="12" fill="white" stroke="#F57ED4" stroke-width="2"/>
<path d="M13.2349 17.7861C12.2343 17.7861 11.3538 17.4375 10.5933 16.7404C9.83288 16.0433 9.45281 15.0997 9.45313 13.9097C9.45313 13.1612 9.73676 12.3497 10.304 11.4752C10.8713 10.6006 11.7301 9.65515 12.8804 8.63879C12.9277 8.5994 12.9828 8.56788 13.0459 8.54424C13.1089 8.52061 13.1719 8.50879 13.2349 8.50879C13.298 8.50879 13.361 8.52061 13.424 8.54424C13.4871 8.56788 13.5422 8.5994 13.5895 8.63879C14.7398 9.65515 15.5986 10.6006 16.1659 11.4752C16.7331 12.3497 17.0168 13.1612 17.0168 13.9097C17.0168 15.0994 16.6365 16.043 15.8761 16.7404C15.1156 17.4378 14.2352 17.7864 13.2349 17.7861ZM13.2349 16.8406C14.0307 16.8406 14.7024 16.5688 15.2502 16.0252C15.7979 15.4815 16.0716 14.7764 16.0713 13.9097C16.0713 13.3503 15.8389 12.7101 15.374 11.989C14.9092 11.2679 14.1962 10.4664 13.2349 9.58424C12.2737 10.4667 11.5607 11.2684 11.0959 11.9895C10.631 12.7105 10.3986 13.3506 10.3986 13.9097C10.3986 14.7764 10.6724 15.4815 11.2202 16.0252C11.7679 16.5688 12.4395 16.8406 13.2349 16.8406ZM13.3649 16.3679C13.4595 16.36 13.5403 16.3225 13.6075 16.2554C13.6746 16.1882 13.708 16.1076 13.7077 16.0133C13.7077 15.903 13.6722 15.8143 13.6013 15.7472C13.5304 15.6801 13.4398 15.6506 13.3295 15.6588C13.0065 15.6824 12.6637 15.5937 12.3013 15.3926C11.9389 15.1916 11.7104 14.8273 11.6159 14.2997C11.6001 14.213 11.5588 14.1421 11.492 14.087C11.4252 14.0318 11.3483 14.0042 11.2613 14.0042C11.151 14.0042 11.0604 14.0457 10.9895 14.1286C10.9186 14.2115 10.8949 14.3079 10.9186 14.4179C11.0525 15.1349 11.3677 15.647 11.864 15.9542C12.3604 16.2615 12.8607 16.3994 13.3649 16.3679Z" fill="#F57ED4"/>
</svg>
