<svg width="174" height="16" viewBox="0 0 174 16" fill="none" xmlns="http://www.w3.org/2000/svg">
<path d="M173.354 8.35355C173.549 8.15829 173.549 7.84171 173.354 7.64645L170.172 4.46447C169.976 4.2692 169.66 4.2692 169.464 4.46447C169.269 4.65973 169.269 4.97631 169.464 5.17157L172.293 8L169.464 10.8284C169.269 11.0237 169.269 11.3403 169.464 11.5355C169.66 11.7308 169.976 11.7308 170.172 11.5355L173.354 8.35355ZM2.54412 8.5C2.82026 8.5 3.04412 8.27614 3.04412 8C3.04412 7.72386 2.82026 7.5 2.54412 7.5V8.5ZM7.63235 7.5C7.35621 7.5 7.13235 7.72386 7.13235 8C7.13235 8.27614 7.35621 8.5 7.63235 8.5V7.5ZM12.7206 8.5C12.9967 8.5 13.2206 8.27614 13.2206 8C13.2206 7.72386 12.9967 7.5 12.7206 7.5V8.5ZM17.8088 7.5C17.5327 7.5 17.3088 7.72386 17.3088 8C17.3088 8.27614 17.5327 8.5 17.8088 8.5V7.5ZM22.8971 8.5C23.1732 8.5 23.3971 8.27614 23.3971 8C23.3971 7.72386 23.1732 7.5 22.8971 7.5V8.5ZM27.9853 7.5C27.7092 7.5 27.4853 7.72386 27.4853 8C27.4853 8.27614 27.7092 8.5 27.9853 8.5V7.5ZM33.0735 8.5C33.3497 8.5 33.5735 8.27614 33.5735 8C33.5735 7.72386 33.3497 7.5 33.0735 7.5V8.5ZM38.1618 7.5C37.8856 7.5 37.6618 7.72386 37.6618 8C37.6618 8.27614 37.8856 8.5 38.1618 8.5V7.5ZM43.25 8.5C43.5261 8.5 43.75 8.27614 43.75 8C43.75 7.72386 43.5261 7.5 43.25 7.5V8.5ZM48.3382 7.5C48.0621 7.5 47.8382 7.72386 47.8382 8C47.8382 8.27614 48.0621 8.5 48.3382 8.5V7.5ZM53.4265 8.5C53.7026 8.5 53.9265 8.27614 53.9265 8C53.9265 7.72386 53.7026 7.5 53.4265 7.5V8.5ZM58.5147 7.5C58.2386 7.5 58.0147 7.72386 58.0147 8C58.0147 8.27614 58.2386 8.5 58.5147 8.5V7.5ZM63.6029 8.5C63.8791 8.5 64.1029 8.27614 64.1029 8C64.1029 7.72386 63.8791 7.5 63.6029 7.5V8.5ZM68.6912 7.5C68.415 7.5 68.1912 7.72386 68.1912 8C68.1912 8.27614 68.415 8.5 68.6912 8.5V7.5ZM73.7794 8.5C74.0555 8.5 74.2794 8.27614 74.2794 8C74.2794 7.72386 74.0555 7.5 73.7794 7.5V8.5ZM78.8676 7.5C78.5915 7.5 78.3676 7.72386 78.3676 8C78.3676 8.27614 78.5915 8.5 78.8676 8.5V7.5ZM83.9559 8.5C84.232 8.5 84.4559 8.27614 84.4559 8C84.4559 7.72386 84.232 7.5 83.9559 7.5V8.5ZM89.0441 7.5C88.768 7.5 88.5441 7.72386 88.5441 8C88.5441 8.27614 88.768 8.5 89.0441 8.5V7.5ZM94.1323 8.5C94.4085 8.5 94.6323 8.27614 94.6323 8C94.6323 7.72386 94.4085 7.5 94.1323 7.5V8.5ZM99.2206 7.5C98.9444 7.5 98.7206 7.72386 98.7206 8C98.7206 8.27614 98.9444 8.5 99.2206 8.5V7.5ZM104.309 8.5C104.585 8.5 104.809 8.27614 104.809 8C104.809 7.72386 104.585 7.5 104.309 7.5V8.5ZM109.397 7.5C109.121 7.5 108.897 7.72386 108.897 8C108.897 8.27614 109.121 8.5 109.397 8.5V7.5ZM114.485 8.5C114.761 8.5 114.985 8.27614 114.985 8C114.985 7.72386 114.761 7.5 114.485 7.5V8.5ZM119.574 7.5C119.297 7.5 119.074 7.72386 119.074 8C119.074 8.27614 119.297 8.5 119.574 8.5V7.5ZM124.662 8.5C124.938 8.5 125.162 8.27614 125.162 8C125.162 7.72386 124.938 7.5 124.662 7.5V8.5ZM129.75 7.5C129.474 7.5 129.25 7.72386 129.25 8C129.25 8.27614 129.474 8.5 129.75 8.5V7.5ZM134.838 8.5C135.114 8.5 135.338 8.27614 135.338 8C135.338 7.72386 135.114 7.5 134.838 7.5V8.5ZM139.926 7.5C139.65 7.5 139.426 7.72386 139.426 8C139.426 8.27614 139.65 8.5 139.926 8.5V7.5ZM145.015 8.5C145.291 8.5 145.515 8.27614 145.515 8C145.515 7.72386 145.291 7.5 145.015 7.5V8.5ZM150.103 7.5C149.827 7.5 149.603 7.72386 149.603 8C149.603 8.27614 149.827 8.5 150.103 8.5V7.5ZM155.191 8.5C155.467 8.5 155.691 8.27614 155.691 8C155.691 7.72386 155.467 7.5 155.191 7.5V8.5ZM160.279 7.5C160.003 7.5 159.779 7.72386 159.779 8C159.779 8.27614 160.003 8.5 160.279 8.5V7.5ZM165.368 8.5C165.644 8.5 165.868 8.27614 165.868 8C165.868 7.72386 165.644 7.5 165.368 7.5V8.5ZM170.456 7.5C170.18 7.5 169.956 7.72386 169.956 8C169.956 8.27614 170.18 8.5 170.456 8.5V7.5ZM0 8.5H2.54412V7.5H0V8.5ZM7.63235 8.5H12.7206V7.5H7.63235V8.5ZM17.8088 8.5H22.8971V7.5H17.8088V8.5ZM27.9853 8.5H33.0735V7.5H27.9853V8.5ZM38.1618 8.5H43.25V7.5H38.1618V8.5ZM48.3382 8.5H53.4265V7.5H48.3382V8.5ZM58.5147 8.5H63.6029V7.5H58.5147V8.5ZM68.6912 8.5H73.7794V7.5H68.6912V8.5ZM78.8676 8.5H83.9559V7.5H78.8676V8.5ZM89.0441 8.5H94.1323V7.5H89.0441V8.5ZM99.2206 8.5H104.309V7.5H99.2206V8.5ZM109.397 8.5H114.485V7.5H109.397V8.5ZM119.574 8.5H124.662V7.5H119.574V8.5ZM129.75 8.5H134.838V7.5H129.75V8.5ZM139.926 8.5H145.015V7.5H139.926V8.5ZM150.103 8.5H155.191V7.5H150.103V8.5ZM160.279 8.5H165.368V7.5H160.279V8.5ZM170.456 8.5H173V7.5H170.456V8.5ZM173.707 8.70711C174.098 8.31658 174.098 7.68342 173.707 7.29289L167.343 0.928932C166.953 0.538408 166.319 0.538408 165.929 0.928932C165.538 1.31946 165.538 1.95262 165.929 2.34315L171.586 8L165.929 13.6569C165.538 14.0474 165.538 14.6805 165.929 15.0711C166.319 15.4616 166.953 15.4616 167.343 15.0711L173.707 8.70711ZM2.54412 9C3.0964 9 3.54412 8.55228 3.54412 8C3.54412 7.44772 3.0964 7 2.54412 7V9ZM7.63235 7C7.08007 7 6.63235 7.44772 6.63235 8C6.63235 8.55228 7.08007 9 7.63235 9V7ZM12.7206 9C13.2729 9 13.7206 8.55228 13.7206 8C13.7206 7.44772 13.2729 7 12.7206 7V9ZM17.8088 7C17.2565 7 16.8088 7.44772 16.8088 8C16.8088 8.55228 17.2565 9 17.8088 9V7ZM22.8971 9C23.4493 9 23.8971 8.55228 23.8971 8C23.8971 7.44772 23.4493 7 22.8971 7V9ZM27.9853 7C27.433 7 26.9853 7.44772 26.9853 8C26.9853 8.55228 27.433 9 27.9853 9V7ZM33.0735 9C33.6258 9 34.0735 8.55228 34.0735 8C34.0735 7.44772 33.6258 7 33.0735 7V9ZM38.1618 7C37.6095 7 37.1618 7.44772 37.1618 8C37.1618 8.55228 37.6095 9 38.1618 9V7ZM43.25 9C43.8023 9 44.25 8.55228 44.25 8C44.25 7.44772 43.8023 7 43.25 7V9ZM48.3382 7C47.7859 7 47.3382 7.44772 47.3382 8C47.3382 8.55228 47.7859 9 48.3382 9V7ZM53.4265 9C53.9788 9 54.4265 8.55228 54.4265 8C54.4265 7.44772 53.9788 7 53.4265 7V9ZM58.5147 7C57.9624 7 57.5147 7.44772 57.5147 8C57.5147 8.55228 57.9624 9 58.5147 9V7ZM63.6029 9C64.1552 9 64.6029 8.55228 64.6029 8C64.6029 7.44772 64.1552 7 63.6029 7V9ZM68.6912 7C68.1389 7 67.6912 7.44772 67.6912 8C67.6912 8.55228 68.1389 9 68.6912 9V7ZM73.7794 9C74.3317 9 74.7794 8.55228 74.7794 8C74.7794 7.44772 74.3317 7 73.7794 7V9ZM78.8676 7C78.3154 7 77.8676 7.44772 77.8676 8C77.8676 8.55228 78.3154 9 78.8676 9V7ZM83.9559 9C84.5082 9 84.9559 8.55228 84.9559 8C84.9559 7.44772 84.5082 7 83.9559 7V9ZM89.0441 7C88.4918 7 88.0441 7.44772 88.0441 8C88.0441 8.55228 88.4918 9 89.0441 9V7ZM94.1323 9C94.6846 9 95.1323 8.55228 95.1323 8C95.1323 7.44772 94.6846 7 94.1323 7V9ZM99.2206 7C98.6683 7 98.2206 7.44772 98.2206 8C98.2206 8.55228 98.6683 9 99.2206 9V7ZM104.309 9C104.861 9 105.309 8.55228 105.309 8C105.309 7.44772 104.861 7 104.309 7V9ZM109.397 7C108.845 7 108.397 7.44772 108.397 8C108.397 8.55228 108.845 9 109.397 9V7ZM114.485 9C115.038 9 115.485 8.55228 115.485 8C115.485 7.44772 115.038 7 114.485 7V9ZM119.574 7C119.021 7 118.574 7.44772 118.574 8C118.574 8.55228 119.021 9 119.574 9V7ZM124.662 9C125.214 9 125.662 8.55228 125.662 8C125.662 7.44772 125.214 7 124.662 7V9ZM129.75 7C129.198 7 128.75 7.44772 128.75 8C128.75 8.55228 129.198 9 129.75 9V7ZM134.838 9C135.391 9 135.838 8.55228 135.838 8C135.838 7.44772 135.391 7 134.838 7V9ZM139.926 7C139.374 7 138.926 7.44772 138.926 8C138.926 8.55228 139.374 9 139.926 9V7ZM145.015 9C145.567 9 146.015 8.55228 146.015 8C146.015 7.44772 145.567 7 145.015 7V9ZM150.103 7C149.551 7 149.103 7.44772 149.103 8C149.103 8.55228 149.551 9 150.103 9V7ZM155.191 9C155.743 9 156.191 8.55228 156.191 8C156.191 7.44772 155.743 7 155.191 7V9ZM160.279 7C159.727 7 159.279 7.44772 159.279 8C159.279 8.55228 159.727 9 160.279 9V7ZM165.368 9C165.92 9 166.368 8.55228 166.368 8C166.368 7.44772 165.92 7 165.368 7V9ZM170.456 7C169.904 7 169.456 7.44772 169.456 8C169.456 8.55228 169.904 9 170.456 9V7ZM0 9H2.54412V7H0V9ZM7.63235 9H12.7206V7H7.63235V9ZM17.8088 9H22.8971V7H17.8088V9ZM27.9853 9H33.0735V7H27.9853V9ZM38.1618 9H43.25V7H38.1618V9ZM48.3382 9H53.4265V7H48.3382V9ZM58.5147 9H63.6029V7H58.5147V9ZM68.6912 9H73.7794V7H68.6912V9ZM78.8676 9H83.9559V7H78.8676V9ZM89.0441 9H94.1323V7H89.0441V9ZM99.2206 9H104.309V7H99.2206V9ZM109.397 9H114.485V7H109.397V9ZM119.574 9H124.662V7H119.574V9ZM129.75 9H134.838V7H129.75V9ZM139.926 9H145.015V7H139.926V9ZM150.103 9H155.191V7H150.103V9ZM160.279 9H165.368V7H160.279V9ZM170.456 9H173V7H170.456V9Z" fill="#3BEDBF"/>
</svg>
