<svg width="104" height="95" viewBox="0 0 104 95" fill="none" xmlns="http://www.w3.org/2000/svg">
<g clip-path="url(#clip0_311_997)">
<path d="M64.6169 55.2047H26.5229C25.2311 55.2032 23.9926 54.6826 23.0791 53.7571C22.1657 52.8315 21.6518 51.5766 21.6504 50.2677V4.93701C21.6518 3.62809 22.1657 2.3732 23.0791 1.44765C23.9926 0.522101 25.2311 0.00147856 26.5229 0H61.9632L69.4894 6.07834V50.2677C69.488 51.5766 68.9741 52.8315 68.0607 53.7571C67.1472 54.6826 65.9087 55.2032 64.6169 55.2047Z" fill="#E6E6E6"/>
<path d="M26.5225 1.4209C25.6026 1.42195 24.7207 1.79269 24.0702 2.4518C23.4197 3.1109 23.0538 4.00453 23.0527 4.93665V50.2674C23.0538 51.1995 23.4197 52.0931 24.0702 52.7522C24.7207 53.4113 25.6026 53.782 26.5225 53.7831H64.6166C65.5365 53.782 66.4185 53.4113 67.069 52.7522C67.7194 52.0931 68.0853 51.1995 68.0864 50.2674V6.76268L61.4722 1.4209H26.5225Z" fill="white"/>
<path d="M57.2078 14.6023H39.8641C39.7576 14.6023 39.6521 14.581 39.5536 14.5397C39.4552 14.4984 39.3657 14.4378 39.2904 14.3615C39.215 14.2852 39.1553 14.1945 39.1145 14.0948C39.0737 13.995 39.0527 13.8881 39.0527 13.7802C39.0527 13.6722 39.0737 13.5653 39.1145 13.4655C39.1553 13.3658 39.215 13.2752 39.2904 13.1988C39.3657 13.1225 39.4552 13.0619 39.5536 13.0206C39.6521 12.9793 39.7576 12.958 39.8641 12.958H57.2078C57.3144 12.958 57.4199 12.9793 57.5183 13.0206C57.6168 13.0619 57.7062 13.1225 57.7816 13.1988C57.8569 13.2752 57.9167 13.3658 57.9575 13.4655C57.9982 13.5653 58.0192 13.6722 58.0192 13.7802C58.0192 13.8881 57.9982 13.995 57.9575 14.0948C57.9167 14.1945 57.8569 14.2852 57.7816 14.3615C57.7062 14.4378 57.6168 14.4984 57.5183 14.5397C57.4199 14.581 57.3144 14.6023 57.2078 14.6023Z" fill="#CCCCCC"/>
<path d="M60.5548 17.3767H39.8641C39.6489 17.3767 39.4426 17.2901 39.2904 17.1359C39.1382 16.9817 39.0527 16.7726 39.0527 16.5546C39.0527 16.3365 39.1382 16.1274 39.2904 15.9732C39.4426 15.819 39.6489 15.7324 39.8641 15.7324H60.5548C60.77 15.7324 60.9764 15.819 61.1286 15.9732C61.2808 16.1274 61.3662 16.3365 61.3662 16.5546C61.3662 16.7726 61.2808 16.9817 61.1286 17.1359C60.9764 17.2901 60.77 17.3767 60.5548 17.3767Z" fill="#CCCCCC"/>
<path d="M57.2078 27.0369H39.8641C39.6489 27.0369 39.4426 26.9502 39.2904 26.7961C39.1382 26.6419 39.0527 26.4328 39.0527 26.2147C39.0527 25.9967 39.1382 25.7876 39.2904 25.6334C39.4426 25.4792 39.6489 25.3926 39.8641 25.3926H57.2078C57.423 25.3926 57.6294 25.4792 57.7816 25.6334C57.9337 25.7876 58.0192 25.9967 58.0192 26.2147C58.0192 26.4328 57.9337 26.6419 57.7816 26.7961C57.6294 26.9502 57.423 27.0369 57.2078 27.0369Z" fill="#CCCCCC"/>
<path d="M60.5548 29.8123H39.8641C39.6489 29.8123 39.4426 29.7256 39.2904 29.5715C39.1382 29.4173 39.0527 29.2082 39.0527 28.9901C39.0527 28.7721 39.1382 28.563 39.2904 28.4088C39.4426 28.2546 39.6489 28.168 39.8641 28.168H60.5548C60.77 28.168 60.9764 28.2546 61.1286 28.4088C61.2808 28.563 61.3662 28.7721 61.3662 28.9901C61.3662 29.2082 61.2808 29.4173 61.1286 29.5715C60.9764 29.7256 60.77 29.8123 60.5548 29.8123Z" fill="#CCCCCC"/>
<path d="M57.2078 39.4724H39.8641C39.6489 39.4724 39.4426 39.3858 39.2904 39.2316C39.1382 39.0774 39.0527 38.8683 39.0527 38.6503C39.0527 38.4322 39.1382 38.2231 39.2904 38.0689C39.4426 37.9147 39.6489 37.8281 39.8641 37.8281H57.2078C57.423 37.8281 57.6294 37.9147 57.7816 38.0689C57.9337 38.2231 58.0192 38.4322 58.0192 38.6503C58.0192 38.8683 57.9337 39.0774 57.7816 39.2316C57.6294 39.3858 57.423 39.4724 57.2078 39.4724Z" fill="#CCCCCC"/>
<path d="M60.5548 42.2468H39.8641C39.6489 42.2468 39.4426 42.1602 39.2904 42.006C39.1382 41.8518 39.0527 41.6427 39.0527 41.4247C39.0527 41.2066 39.1382 40.9975 39.2904 40.8433C39.4426 40.6892 39.6489 40.6025 39.8641 40.6025H60.5548C60.77 40.6025 60.9764 40.6892 61.1286 40.8433C61.2808 40.9975 61.3662 41.2066 61.3662 41.4247C61.3662 41.6427 61.2808 41.8518 61.1286 42.006C60.9764 42.1602 60.77 42.2468 60.5548 42.2468Z" fill="#CCCCCC"/>
<path d="M32.6413 18.0734C34.2252 18.0734 35.5091 16.7724 35.5091 15.1675C35.5091 13.5627 34.2252 12.2617 32.6413 12.2617C31.0574 12.2617 29.7734 13.5627 29.7734 15.1675C29.7734 16.7724 31.0574 18.0734 32.6413 18.0734Z" fill="#3BEDBF"/>
<path d="M32.358 16.2755C32.2934 16.2756 32.2306 16.2544 32.179 16.2152L32.1758 16.2128L31.5018 15.6904C31.4389 15.6414 31.3977 15.569 31.3873 15.4893C31.377 15.4095 31.3983 15.3289 31.4466 15.265C31.4949 15.2012 31.5662 15.1594 31.6449 15.1488C31.7236 15.1383 31.8033 15.1598 31.8663 15.2087L32.3029 15.5479L33.3345 14.1842C33.3584 14.1526 33.3882 14.1261 33.4222 14.1061C33.4563 14.0862 33.4939 14.0733 33.5328 14.068C33.5718 14.0628 33.6114 14.0654 33.6494 14.0757C33.6874 14.086 33.723 14.1038 33.7542 14.128L33.7543 14.1281L33.7479 14.1371L33.7545 14.1281C33.8174 14.1771 33.8586 14.2494 33.869 14.3292C33.8794 14.409 33.8581 14.4896 33.8098 14.5535L32.5965 16.1567C32.5684 16.1937 32.5323 16.2236 32.491 16.2441C32.4497 16.2646 32.4042 16.2752 32.3582 16.2751L32.358 16.2755Z" fill="white"/>
<path d="M32.9362 30.5079C34.5201 30.5079 35.8041 29.207 35.8041 27.6021C35.8041 25.9973 34.5201 24.6963 32.9362 24.6963C31.3523 24.6963 30.0684 25.9973 30.0684 27.6021C30.0684 29.207 31.3523 30.5079 32.9362 30.5079Z" fill="#CCCCCC"/>
<path d="M32.6413 42.9435C34.2252 42.9435 35.5091 41.6425 35.5091 40.0377C35.5091 38.4328 34.2252 37.1318 32.6413 37.1318C31.0574 37.1318 29.7734 38.4328 29.7734 40.0377C29.7734 41.6425 31.0574 42.9435 32.6413 42.9435Z" fill="#CCCCCC"/>
<path d="M69.3426 6.27433H63.447C63.0166 6.27433 62.6039 6.10109 62.2995 5.79273C61.9952 5.48437 61.8242 5.06614 61.8242 4.63004V0.218004C61.8242 0.198688 61.8296 0.179761 61.8397 0.163397C61.8498 0.147033 61.8643 0.133893 61.8815 0.125484C61.8987 0.117075 61.9178 0.113737 61.9368 0.115853C61.9557 0.117969 61.9737 0.125454 61.9886 0.137448L69.4056 6.09101C69.4221 6.10425 69.4341 6.12238 69.44 6.14287C69.4459 6.16336 69.4453 6.18519 69.4384 6.20535C69.4314 6.2255 69.4185 6.24297 69.4013 6.25533C69.3842 6.26769 69.3636 6.27433 69.3426 6.27433Z" fill="#E6E6E6"/>
<path d="M29.4332 63.6981L6.89481 68.5117C6.24348 68.65 5.5646 68.5209 5.00709 68.1527C4.44959 67.7845 4.05899 67.2073 3.92101 66.5476L0.0534576 47.9561C-0.0830661 47.2962 0.0443459 46.6083 0.407741 46.0434C0.771136 45.4785 1.34084 45.0828 1.99186 44.943L24.5302 40.1294C25.1815 39.991 25.8604 40.1201 26.4179 40.4883C26.9754 40.8565 27.366 41.4338 27.504 42.0934L31.3716 60.6849C31.5081 61.3449 31.3807 62.0327 31.0173 62.5976C30.6539 63.1625 30.0842 63.5583 29.4332 63.6981Z" fill="white"/>
<path d="M29.4332 63.6981L6.89481 68.5117C6.24348 68.65 5.5646 68.5209 5.00709 68.1527C4.44959 67.7845 4.05899 67.2073 3.92101 66.5476L0.0534576 47.9561C-0.0830661 47.2962 0.0443459 46.6083 0.407741 46.0434C0.771136 45.4785 1.34084 45.0828 1.99186 44.943L24.5302 40.1294C25.1815 39.991 25.8604 40.1201 26.4179 40.4883C26.9754 40.8565 27.366 41.4338 27.504 42.0934L31.3716 60.6849C31.5081 61.3449 31.3807 62.0327 31.0173 62.5976C30.6539 63.1625 30.0842 63.5583 29.4332 63.6981ZM2.05276 45.2357C1.47834 45.3591 0.975662 45.7083 0.655019 46.2067C0.334377 46.7052 0.221951 47.3121 0.342409 47.8944L4.20996 66.4859C4.33172 67.068 4.67636 67.5773 5.16827 67.9022C5.66019 68.2271 6.25921 68.341 6.83391 68.2189L29.3723 63.4053C29.9467 63.2819 30.4494 62.9327 30.77 62.4343C31.0907 61.9359 31.2031 61.329 31.0826 60.7466L27.2151 42.1552C27.0933 41.5731 26.7487 41.0638 26.2568 40.7389C25.7648 40.414 25.1658 40.3001 24.5911 40.4221L2.05276 45.2357Z" fill="#3F3D56"/>
<path d="M23.1305 46.2593L11.7556 48.6887C11.6561 48.7121 11.5515 48.6963 11.463 48.6446C11.3745 48.5929 11.3087 48.509 11.2788 48.41C11.2652 48.3583 11.2621 48.3044 11.2697 48.2515C11.2773 48.1986 11.2955 48.1478 11.3231 48.1023C11.3507 48.0567 11.3872 48.0173 11.4303 47.9865C11.4734 47.9557 11.5223 47.9342 11.5739 47.9231L23.1528 45.4502C23.6049 45.7084 23.462 46.1885 23.1303 46.2594L23.1305 46.2593Z" fill="#CCCCCC"/>
<path d="M23.5504 48.2808L12.1756 50.7102C12.076 50.7336 11.9714 50.7178 11.8829 50.6661C11.7944 50.6143 11.7286 50.5305 11.6988 50.4315C11.6851 50.3798 11.682 50.3259 11.6896 50.273C11.6972 50.2201 11.7154 50.1693 11.743 50.1237C11.7706 50.0782 11.8071 50.0388 11.8502 50.008C11.8933 49.9772 11.9422 49.9556 11.9938 49.9446L23.5727 47.4717C24.0248 47.7298 23.8819 48.21 23.5502 48.2808L23.5504 48.2808Z" fill="#CCCCCC"/>
<path d="M9.95762 52.387L6.48614 53.1284C6.37276 53.1525 6.25459 53.13 6.15755 53.0659C6.0605 53.0018 5.99252 52.9014 5.96851 52.7865L5.10502 48.6356C5.08124 48.5208 5.10341 48.401 5.16666 48.3027C5.22992 48.2044 5.32909 48.1355 5.44242 48.1112L8.9139 47.3698C9.02726 47.3457 9.14542 47.3682 9.24245 47.4323C9.33949 47.4964 9.40748 47.5968 9.43152 47.7116L10.295 51.8625C10.3188 51.9774 10.2966 52.0971 10.2334 52.1954C10.1701 52.2938 10.0709 52.3627 9.95762 52.387V52.387Z" fill="#CCCCCC"/>
<path d="M24.3794 52.4273L7.01931 56.135C6.91977 56.1584 6.81517 56.1426 6.72666 56.0909C6.63815 56.0391 6.57233 55.9553 6.5425 55.8563C6.52886 55.8046 6.52575 55.7507 6.53335 55.6978C6.54096 55.6449 6.55912 55.5941 6.58674 55.5485C6.61435 55.503 6.65083 55.4636 6.69396 55.4328C6.73709 55.402 6.78597 55.3804 6.8376 55.3694L24.4018 51.6182C24.8539 51.8763 24.711 52.3565 24.3794 52.4273Z" fill="#CCCCCC"/>
<path d="M24.7993 54.4498L7.43923 58.1574C7.33969 58.1808 7.2351 58.1651 7.14659 58.1133C7.05807 58.0616 6.99225 57.9777 6.96242 57.8787C6.94878 57.8271 6.94567 57.7731 6.95327 57.7202C6.96088 57.6673 6.97904 57.6166 7.00666 57.571C7.03427 57.5254 7.07076 57.4861 7.11389 57.4553C7.15702 57.4245 7.20589 57.4029 7.25752 57.3919L24.8218 53.6406C25.2739 53.8988 25.131 54.379 24.7993 54.4498Z" fill="#CCCCCC"/>
<path d="M25.2212 56.4703L7.8611 60.178C7.76156 60.2014 7.65697 60.1856 7.56846 60.1339C7.47994 60.0821 7.41412 59.9983 7.3843 59.8992C7.37066 59.8476 7.36754 59.7937 7.37515 59.7408C7.38276 59.6879 7.40092 59.6371 7.42853 59.5915C7.45615 59.546 7.49263 59.5066 7.53576 59.4758C7.57889 59.445 7.62776 59.4234 7.67939 59.4124L25.2436 55.6611C25.6957 55.9193 25.5528 56.3995 25.2212 56.4703Z" fill="#CCCCCC"/>
<path d="M25.6411 58.4928L8.28103 62.2004C8.18149 62.2238 8.07689 62.2081 7.98838 62.1563C7.89987 62.1046 7.83405 62.0207 7.80422 61.9217C7.79058 61.87 7.78747 61.8161 7.79507 61.7632C7.80268 61.7103 7.82084 61.6595 7.84845 61.614C7.87607 61.5684 7.91255 61.529 7.95568 61.4982C7.99881 61.4674 8.04768 61.4459 8.09931 61.4348L25.6636 57.6836C26.1157 57.9418 25.9728 58.4219 25.6411 58.4928Z" fill="#CCCCCC"/>
<path d="M26.061 60.5143L8.70095 64.2219C8.60141 64.2453 8.49681 64.2295 8.4083 64.1778C8.31979 64.1261 8.25397 64.0422 8.22414 63.9432C8.2105 63.8915 8.20739 63.8376 8.21499 63.7847C8.2226 63.7318 8.24076 63.681 8.26838 63.6355C8.29599 63.5899 8.33247 63.5505 8.3756 63.5197C8.41873 63.4889 8.4676 63.4674 8.51923 63.4563L26.0835 59.7051C26.5356 59.9632 26.3927 60.4434 26.061 60.5143Z" fill="#CCCCCC"/>
<path d="M29.1262 51.2583C29.0867 51.3308 29.053 51.4064 29.0253 51.4842L21.9183 53.2712L20.682 51.9752L18.5078 53.6101L20.4765 56.1199C20.6355 56.3227 20.8552 56.4677 21.1025 56.5332C21.3498 56.5987 21.6114 56.5811 21.848 56.4832L29.5597 53.2902C29.8132 53.4793 30.1175 53.5857 30.4321 53.5952C30.7467 53.6048 31.0567 53.5171 31.3209 53.3438C31.5851 53.1704 31.791 52.9197 31.9111 52.625C32.0312 52.3302 32.06 52.0054 31.9935 51.6937C31.9269 51.3819 31.7684 51.0981 31.5388 50.88C31.3092 50.6618 31.0195 50.5197 30.7082 50.4724C30.397 50.4252 30.0789 50.475 29.7963 50.6154C29.5137 50.7558 29.2799 50.98 29.1262 51.2583L29.1262 51.2583Z" fill="#A0616A"/>
<path d="M4.86816 67.1598C5.08972 67.0905 5.29359 66.9728 5.4654 66.815C5.63721 66.6572 5.77278 66.4631 5.86257 66.2465C5.95236 66.0299 5.99417 65.7959 5.98508 65.5612C5.97598 65.3264 5.91619 65.0965 5.80992 64.8876L10.7008 51.1138L7.30423 50.5039L3.56472 64.2349C3.23032 64.4391 2.98144 64.7604 2.86524 65.1381C2.74904 65.5157 2.7736 65.9235 2.93427 66.284C3.09494 66.6445 3.38054 66.9328 3.73697 67.0942C4.0934 67.2557 4.49589 67.279 4.86816 67.1598Z" fill="#A0616A"/>
<path d="M10.0794 53.5588L6.7259 52.2547C6.63048 52.2176 6.54408 52.1601 6.47258 52.0861C6.40107 52.0121 6.34615 51.9233 6.31154 51.8259C6.27694 51.7285 6.26346 51.6246 6.27204 51.5214C6.28062 51.4182 6.31104 51.3181 6.36124 51.2279L8.12051 48.0674C8.31068 47.5739 8.68622 47.1769 9.16479 46.9635C9.64337 46.7501 10.1859 46.7377 10.6735 46.9289C11.1611 47.1202 11.554 47.4996 11.766 47.9839C11.978 48.4682 11.9918 49.0179 11.8044 49.5125L11.0284 53.0429C11.0062 53.1439 10.9627 53.239 10.9009 53.3215C10.8392 53.404 10.7606 53.472 10.6705 53.521C10.5805 53.57 10.481 53.5987 10.379 53.6052C10.277 53.6117 10.1748 53.5959 10.0794 53.5588V53.5588Z" fill="#B900F4"/>
<path d="M17.6487 93.02L19.4589 93.0199L20.32 85.9453L17.6484 85.9455L17.6487 93.02Z" fill="#A0616A"/>
<path d="M17.1855 92.4211L20.7504 92.4209H20.7506C21.0489 92.4209 21.3443 92.4804 21.62 92.5961C21.8956 92.7118 22.146 92.8813 22.357 93.0951C22.568 93.3088 22.7353 93.5626 22.8495 93.8419C22.9636 94.1212 23.0224 94.4205 23.0224 94.7228V94.7976L17.1857 94.7978L17.1855 92.4211Z" fill="#2F2E41"/>
<path d="M7.45928 93.02L9.26948 93.0199L10.1306 85.9453L7.45898 85.9455L7.45928 93.02Z" fill="#A0616A"/>
<path d="M6.99805 92.4211L10.5629 92.4209H10.5631C10.8614 92.4209 11.1568 92.4804 11.4325 92.5961C11.7081 92.7118 11.9585 92.8813 12.1695 93.0951C12.3805 93.3088 12.5478 93.5626 12.662 93.8419C12.7761 94.1212 12.8349 94.4205 12.8349 94.7228V94.7976L6.99816 94.7978L6.99805 92.4211Z" fill="#2F2E41"/>
<path d="M9.35752 90.1731H7.06677C6.97686 90.1731 6.88788 90.1546 6.80523 90.1187C6.72259 90.0829 6.64798 90.0304 6.58593 89.9645C6.52388 89.8985 6.47569 89.8205 6.44426 89.7352C6.41283 89.6498 6.39883 89.5589 6.40309 89.4679L7.49119 65.7804L7.55975 65.7785L18.6217 65.4863L20.7863 89.1874C20.7946 89.2762 20.7854 89.3659 20.7593 89.4511C20.7331 89.5363 20.6904 89.6154 20.6338 89.6838C20.5772 89.7521 20.5077 89.8084 20.4295 89.8493C20.3512 89.8903 20.2657 89.915 20.1779 89.9221L17.6048 90.1306C17.4432 90.1436 17.2824 90.0964 17.1528 89.9977C17.0232 89.899 16.9336 89.7556 16.901 89.5947L13.6098 72.7227C13.6008 72.6714 13.574 72.6251 13.5342 72.5922C13.4944 72.5593 13.4442 72.5419 13.3929 72.5432H13.392C13.3404 72.5421 13.2902 72.5597 13.2505 72.593C13.2107 72.6263 13.1841 72.6729 13.1755 72.7244L10.0094 89.6299C9.97946 89.7828 9.89813 89.9205 9.77928 90.0196C9.66043 90.1186 9.5114 90.1728 9.35752 90.1731Z" fill="#2F2E41"/>
<path d="M13.5542 44.6537C15.557 44.6537 17.1807 43.0085 17.1807 40.9792C17.1807 38.9498 15.557 37.3047 13.5542 37.3047C11.5514 37.3047 9.92773 38.9498 9.92773 40.9792C9.92773 43.0085 11.5514 44.6537 13.5542 44.6537Z" fill="#A0616A"/>
<path d="M12.3388 68.5554C10.6104 68.5554 8.83501 68.0951 7.36325 66.734C7.28493 66.662 7.22447 66.5724 7.18677 66.4723C7.14907 66.3722 7.1352 66.2646 7.14628 66.1581C7.30381 64.7239 8.06795 57.3192 7.63761 52.3728C7.55364 51.4489 7.68273 50.5179 8.0147 49.6532C8.34668 48.7885 8.87245 48.0138 9.55052 47.3902C10.2167 46.7681 11.0165 46.3113 11.8867 46.056C12.757 45.8007 13.6739 45.7538 14.5651 45.919H14.5651C14.6103 45.9272 14.6554 45.9358 14.7006 45.9446C17.604 46.5139 19.6212 49.2365 19.393 52.2775C19.0599 56.7149 18.7613 62.717 19.2301 66.1113C19.2496 66.2502 19.2256 66.3917 19.1617 66.5161C19.0978 66.6405 18.997 66.7415 18.8736 66.805C17.8068 67.3511 15.1342 68.5554 12.3388 68.5554Z" fill="#B900F4"/>
<path d="M17.0698 53.8241C16.9847 53.7667 16.9128 53.6914 16.8591 53.6033C16.8053 53.5153 16.771 53.4165 16.7583 53.3137L16.3165 49.7247C16.1763 49.2143 16.2415 48.6683 16.4979 48.2066C16.7543 47.7448 17.1809 47.4049 17.6842 47.2614C18.1876 47.1178 18.7266 47.1824 19.183 47.4409C19.6394 47.6994 19.9761 48.1307 20.1192 48.6403L21.5744 51.9558C21.616 52.0504 21.6369 52.153 21.6358 52.2565C21.6346 52.3601 21.6115 52.4621 21.5679 52.5558C21.5243 52.6495 21.4613 52.7325 21.3832 52.7993C21.3051 52.8661 21.2137 52.915 21.1153 52.9428L17.6547 53.9185C17.5563 53.9464 17.453 53.9523 17.3521 53.936C17.2511 53.9197 17.1549 53.8815 17.0698 53.8241Z" fill="#B900F4"/>
<path d="M12.2877 44.6021C11.9444 44.6086 11.6033 44.5461 11.2841 44.4182C11.1436 44.3633 10.9978 44.3182 10.8576 44.2633C9.61926 43.7786 8.80355 42.4423 8.77433 41.0976C8.74512 39.7528 9.43242 38.4476 10.453 37.5875C11.4736 36.7273 12.7955 36.2857 14.1192 36.1836C15.545 36.0736 17.1505 36.4399 17.9472 37.6431C18.1593 37.9633 18.3076 38.3519 18.1819 38.7386C18.1443 38.8552 18.0771 38.9599 17.987 39.042C17.6312 39.3627 17.2765 39.1215 16.9138 39.1002C16.4152 39.0709 15.9674 39.4798 15.8065 39.9588C15.6455 40.4378 15.7164 40.9652 15.8463 41.4537C15.9453 41.7477 16.0077 42.0531 16.0321 42.3627C16.0426 42.518 16.0138 42.6734 15.9484 42.8142C15.883 42.955 15.7832 43.0766 15.6584 43.1674C15.3469 43.3582 14.9378 43.2478 14.626 43.0573C14.3143 42.8668 14.045 42.6019 13.7083 42.4617C13.3716 42.3215 12.9192 42.3526 12.7232 42.6635C12.6609 42.7766 12.6188 42.8999 12.5987 43.0278C12.423 43.8389 12.4634 43.7911 12.2877 44.6021V44.6021Z" fill="#2F2E41"/>
<path d="M28.2991 95.0004H0.245308C0.206148 95.0004 0.168592 94.9846 0.140902 94.9566C0.113212 94.9285 0.0976562 94.8905 0.0976562 94.8508C0.0976562 94.8111 0.113212 94.773 0.140902 94.745C0.168592 94.7169 0.206148 94.7012 0.245308 94.7012H28.2991C28.3382 94.7012 28.3758 94.7169 28.4035 94.745C28.4312 94.773 28.4467 94.8111 28.4467 94.8508C28.4467 94.8905 28.4312 94.9285 28.4035 94.9566C28.3758 94.9846 28.3382 95.0004 28.2991 95.0004Z" fill="#CCCCCC"/>
<path d="M100.109 64.1255L80.02 75.5431C79.4392 75.8723 78.7533 75.9546 78.1127 75.772C77.472 75.5895 76.9291 75.1568 76.6028 74.5691L67.4292 57.998C67.1043 57.4095 67.0231 56.7145 67.2033 56.0654C67.3835 55.4163 67.8104 54.8661 68.3905 54.5356L88.4795 43.118C89.0603 42.7888 89.7463 42.7065 90.3869 42.8891C91.0275 43.0717 91.5705 43.5043 91.8967 44.092L101.07 60.6631C101.395 61.2516 101.476 61.9466 101.296 62.5957C101.116 63.2448 100.689 63.795 100.109 64.1255Z" fill="white"/>
<path d="M100.109 64.1255L80.02 75.5431C79.4392 75.8723 78.7533 75.9546 78.1127 75.772C77.472 75.5895 76.9291 75.1568 76.6028 74.5691L67.4292 57.998C67.1043 57.4095 67.0231 56.7145 67.2033 56.0654C67.3835 55.4163 67.8104 54.8661 68.3905 54.5356L88.4795 43.118C89.0603 42.7888 89.7463 42.7065 90.3869 42.8891C91.0275 43.0717 91.5705 43.5043 91.8967 44.092L101.07 60.6631C101.395 61.2516 101.476 61.9466 101.296 62.5957C101.116 63.2448 100.689 63.795 100.109 64.1255ZM68.5349 54.7966C68.0231 55.0882 67.6464 55.5737 67.4874 56.1464C67.3284 56.7191 67.4001 57.3324 67.6868 57.8516L76.8604 74.4227C77.1482 74.9413 77.6273 75.323 78.1926 75.4841C78.7578 75.6453 79.3631 75.5726 79.8755 75.2821L99.9646 63.8646C100.476 63.5729 100.853 63.0875 101.012 62.5147C101.171 61.942 101.099 61.3287 100.813 60.8095L91.6391 44.2384C91.3513 43.7198 90.8722 43.3381 90.3069 43.177C89.7417 43.0159 89.1365 43.0885 88.624 43.379L68.5349 54.7966Z" fill="#3F3D56"/>
<path d="M88.9511 49.3922L78.8124 55.1545C78.7243 55.207 78.6199 55.2236 78.5201 55.201C78.4204 55.1785 78.3329 55.1184 78.2752 55.0329C78.2469 54.9877 78.2281 54.9372 78.2197 54.8844C78.2114 54.8316 78.2137 54.7777 78.2267 54.7258C78.2396 54.674 78.2628 54.6254 78.2949 54.5829C78.3269 54.5405 78.3672 54.5051 78.4132 54.4789L88.7338 48.6133C89.2414 48.7228 89.2466 49.2243 88.951 49.3923L88.9511 49.3922Z" fill="#CCCCCC"/>
<path d="M89.9492 51.194L79.8105 56.9563C79.7224 57.0087 79.6179 57.0254 79.5182 57.0028C79.4185 56.9802 79.3309 56.9201 79.2732 56.8346C79.245 56.7895 79.2261 56.739 79.2178 56.6862C79.2094 56.6334 79.2118 56.5794 79.2247 56.5276C79.2376 56.4758 79.2608 56.4271 79.2929 56.3847C79.325 56.3422 79.3653 56.3069 79.4113 56.2807L89.7318 50.415C90.2394 50.5245 90.2447 51.026 89.949 51.194L89.9492 51.194Z" fill="#CCCCCC"/>
<path d="M78.1855 59.2286L75.0912 60.9872C74.9901 61.0445 74.8707 61.0588 74.7592 61.027C74.6477 60.9952 74.5532 60.9199 74.4964 60.8176L72.4483 57.1178C72.3917 57.0154 72.3776 56.8944 72.4089 56.7814C72.4403 56.6685 72.5146 56.5727 72.6156 56.5152L75.7098 54.7566C75.8109 54.6993 75.9303 54.685 76.0418 54.7168C76.1533 54.7485 76.2478 54.8238 76.3046 54.9261L78.3528 58.6259C78.4093 58.7283 78.4235 58.8493 78.3921 58.9623C78.3608 59.0753 78.2864 59.171 78.1855 59.2286L78.1855 59.2286Z" fill="#CCCCCC"/>
<path d="M91.9617 54.9001L76.4882 63.6944C76.4001 63.7469 76.2956 63.7635 76.1959 63.7409C76.0962 63.7184 76.0086 63.6583 75.951 63.5728C75.9227 63.5276 75.9039 63.4771 75.8955 63.4243C75.8872 63.3715 75.8895 63.3176 75.9024 63.2657C75.9154 63.2139 75.9386 63.1653 75.9706 63.1228C76.0027 63.0804 76.043 63.045 76.089 63.0188L91.7445 54.1211C92.2521 54.2306 92.2573 54.7321 91.9617 54.9001Z" fill="#CCCCCC"/>
<path d="M92.9597 56.7028L77.4862 65.4971C77.3982 65.5496 77.2937 65.5662 77.194 65.5437C77.0942 65.5211 77.0067 65.461 76.949 65.3755C76.9208 65.3304 76.9019 65.2799 76.8936 65.2271C76.8852 65.1743 76.8876 65.1203 76.9005 65.0685C76.9134 65.0166 76.9366 64.968 76.9687 64.9256C77.0008 64.8831 77.041 64.8477 77.0871 64.8216L92.7426 55.9238C93.2501 56.0333 93.2554 56.5348 92.9597 56.7028V56.7028Z" fill="#CCCCCC"/>
<path d="M93.9558 58.5046L78.4823 67.2989C78.3943 67.3514 78.2898 67.368 78.1901 67.3454C78.0903 67.3229 78.0028 67.2628 77.9451 67.1773C77.9169 67.1321 77.898 67.0816 77.8897 67.0288C77.8813 66.976 77.8837 66.9221 77.8966 66.8702C77.9095 66.8184 77.9327 66.7698 77.9648 66.7273C77.9969 66.6849 78.0371 66.6495 78.0832 66.6233L93.7387 57.7256C94.2462 57.8351 94.2515 58.3366 93.9558 58.5046Z" fill="#CCCCCC"/>
<path d="M94.9539 60.3063L79.4804 69.1007C79.3923 69.1531 79.2878 69.1698 79.1881 69.1472C79.0884 69.1246 79.0008 69.0645 78.9432 68.979C78.9149 68.9339 78.896 68.8834 78.8877 68.8306C78.8794 68.7778 78.8817 68.7238 78.8946 68.672C78.9075 68.6202 78.9308 68.5715 78.9628 68.5291C78.9949 68.4866 79.0352 68.4513 79.0812 68.4251L94.7367 59.5273C95.2443 59.6368 95.2495 60.1383 94.9539 60.3063H94.9539Z" fill="#CCCCCC"/>
<path d="M95.9519 62.1081L80.4784 70.9024C80.3903 70.9549 80.2859 70.9715 80.1862 70.9489C80.0864 70.9264 79.9989 70.8663 79.9412 70.7808C79.913 70.7356 79.8941 70.6851 79.8857 70.6323C79.8774 70.5795 79.8798 70.5256 79.8927 70.4737C79.9056 70.4219 79.9288 70.3733 79.9609 70.3308C79.993 70.2884 80.0332 70.253 80.0793 70.2269L95.7348 61.3291C96.2423 61.4386 96.2476 61.9401 95.9519 62.1081V62.1081Z" fill="#CCCCCC"/>
<path d="M93.2527 68.8591C93.337 68.6708 93.3794 68.466 93.3771 68.2593C93.3748 68.0525 93.3278 67.8488 93.2394 67.6624C93.151 67.4761 93.0234 67.3116 92.8655 67.1807C92.7075 67.0497 92.5232 66.9554 92.3254 66.9045L91.9046 61.8965L89.8809 63.5141L90.5907 68.0218C90.5282 68.3641 90.5919 68.7178 90.7695 69.0157C90.9472 69.3137 91.2265 69.5353 91.5547 69.6385C91.8828 69.7417 92.2369 69.7193 92.5498 69.5757C92.8628 69.4321 93.1129 69.1771 93.2527 68.8591Z" fill="#FFB8B8"/>
<path d="M91.9428 66.3791L90.2621 66.5822C90.1767 66.5925 90.0901 66.5849 90.0078 66.5597C89.9255 66.5345 89.8492 66.4924 89.7836 66.436C89.7181 66.3796 89.6648 66.31 89.627 66.2318C89.5892 66.1535 89.5678 66.0681 89.5641 65.9811L89.319 60.2359L86.133 51.4172C86.0054 51.1436 85.9472 50.8419 85.9637 50.5397C85.9802 50.2375 86.071 49.9443 86.2277 49.6866C86.3058 49.5621 86.3952 49.4453 86.4947 49.3376C86.6908 49.1237 86.935 48.9609 87.2065 48.8632C87.4781 48.7655 87.7689 48.7358 88.0542 48.7765C88.3482 48.8161 88.6285 48.9263 88.8721 49.0977C89.1156 49.2692 89.3152 49.497 89.4544 49.7623L91.5321 54.1738C92.4012 56.0189 92.8115 58.0514 92.7273 60.0941L92.493 65.7773C92.4868 65.9261 92.4291 66.0678 92.33 66.1777C92.2309 66.2876 92.0967 66.3585 91.9511 66.378L91.9428 66.3791Z" fill="#B900F4"/>
<path d="M97.9107 91.2093L96.3524 91.9023L92.9727 86.142L95.2725 85.1191L97.9107 91.2093Z" fill="#FFB8B8"/>
<path d="M98.9728 92.5636L93.9483 94.7983L93.9204 94.7339C93.8076 94.4737 93.7466 94.1935 93.7407 93.9094C93.7348 93.6253 93.7842 93.3428 93.8861 93.078C93.988 92.8132 94.1404 92.5713 94.3345 92.3662C94.5286 92.1611 94.7607 91.9967 95.0176 91.8825L95.0177 91.8825L98.0865 90.5176L98.9728 92.5636Z" fill="#2F2E41"/>
<path d="M76.9899 93.1266H75.2881L74.4785 86.4756L76.9902 86.4757L76.9899 93.1266Z" fill="#FFB8B8"/>
<path d="M77.4248 94.7981L71.9375 94.7979V94.7275C71.9375 94.4434 71.9927 94.1619 72.1001 93.8994C72.2074 93.6368 72.3647 93.3983 72.5631 93.1973C72.7614 92.9964 72.9968 92.8369 73.256 92.7282C73.5151 92.6194 73.7928 92.5635 74.0733 92.5635H74.0735L77.4249 92.5636L77.4248 94.7981Z" fill="#2F2E41"/>
<path d="M93.56 90.853L84.0799 69.417C84.0628 69.3768 84.0337 69.343 83.9968 69.3203C83.96 69.2976 83.917 69.287 83.8739 69.2901C83.8308 69.2932 83.7898 69.3098 83.7564 69.3376C83.723 69.3653 83.699 69.403 83.6877 69.4452L77.9115 90.1498C77.8734 90.2947 77.7854 90.4211 77.6635 90.5061C77.5416 90.5912 77.3937 90.6293 77.2465 90.6136L74.0919 90.294C73.9294 90.2767 73.7799 90.1959 73.6752 90.0688C73.5705 89.9416 73.5188 89.7781 73.5311 89.613C74.5345 76.9677 76.1162 65.0331 80.8548 57.2203L80.88 57.1787L88.0476 58.6028L97.6166 89.4776C97.6638 89.6366 97.6478 89.8081 97.5719 89.9553C97.496 90.1025 97.3662 90.2137 97.2103 90.2652L94.3248 91.2049C94.177 91.2536 94.0165 91.2445 93.875 91.1794C93.7335 91.1143 93.6211 90.9979 93.56 90.853Z" fill="#2F2E41"/>
<path d="M84.3429 46.2391C86.2259 46.2391 87.7523 44.6924 87.7523 42.7846C87.7523 40.8767 86.2259 39.3301 84.3429 39.3301C82.46 39.3301 80.9336 40.8767 80.9336 42.7846C80.9336 44.6924 82.46 46.2391 84.3429 46.2391Z" fill="#FFB8B8"/>
<path d="M80.4144 57.8181L80.3709 57.809L80.3607 57.7654C79.9013 55.8003 79.8904 53.6556 80.3281 51.3913C80.5502 50.2341 81.1681 49.1933 82.0732 48.4523C82.9782 47.7114 84.1123 47.3177 85.2756 47.3408C86.5379 47.3667 87.7426 47.8805 88.6434 48.7768C89.5442 49.6732 90.0729 50.8844 90.1213 52.1627C90.2674 56.0572 88.6966 59.4337 88.6808 59.4673L88.6574 59.5168L80.4144 57.8181Z" fill="#B900F4"/>
<path d="M71.2739 64.3899C71.4757 64.3597 71.6686 64.285 71.8389 64.1711C72.0092 64.0571 72.1528 63.9067 72.2595 63.7305C72.3662 63.5543 72.4335 63.3565 72.4566 63.151C72.4798 62.9456 72.4581 62.7375 72.3933 62.5415L76.3202 59.4707L73.8821 58.623L70.5268 61.6691C70.2089 61.8013 69.95 62.047 69.799 62.3597C69.648 62.6724 69.6155 63.0303 69.7076 63.3657C69.7997 63.7011 70.01 63.9906 70.2987 64.1794C70.5873 64.3681 70.9343 64.4431 71.2739 64.3899V64.3899Z" fill="#FFB8B8"/>
<path d="M73.42 62.0746C73.2921 62.1512 73.1415 62.1789 72.9952 62.1528C72.849 62.1267 72.7167 62.0484 72.6225 61.9321L71.5437 60.6105C71.4889 60.5434 71.4483 60.4655 71.4246 60.3818C71.4009 60.298 71.3945 60.2102 71.4058 60.1238C71.4172 60.0374 71.446 59.9543 71.4905 59.8798C71.535 59.8052 71.5942 59.7407 71.6644 59.6904L76.2981 56.3701L81.889 48.8801C82.0469 48.6231 82.2656 48.4101 82.5253 48.2606C82.785 48.111 83.0775 48.0295 83.3762 48.0235C83.5217 48.0226 83.667 48.0354 83.8102 48.0618C84.0939 48.1129 84.3612 48.2328 84.5893 48.4112C84.8174 48.5896 84.9996 48.8212 85.1203 49.0863C85.2466 49.3582 85.3071 49.6566 85.2968 49.9569C85.2864 50.2571 85.2055 50.5506 85.0608 50.8128L80.921 57.6059L80.9119 57.6208L73.42 62.0746Z" fill="#B900F4"/>
<path d="M84.9529 42.5704C84.7016 42.1516 84.1471 42.0333 83.6657 42.081C83.1842 42.1288 82.7161 42.3003 82.2323 42.2965C80.8892 42.2859 79.8524 40.6272 80.4171 39.3924C80.8802 38.3796 82.0369 37.9349 83.0832 37.5859C85.277 36.8542 87.797 36.151 89.7878 37.3376C90.4222 37.7269 90.9425 38.2807 91.295 38.9419C91.6475 39.6031 91.8194 40.3477 91.7929 41.0987C91.7481 42.0325 91.3951 42.9917 91.6936 43.8763C92.038 44.8968 93.1299 45.4444 94.1617 45.7092C95.9705 46.1736 97.8777 46.0988 99.6978 46.5152C101.518 46.9317 103.383 48.0374 103.874 49.8616C104.196 51.0597 103.86 52.3496 103.303 53.4558C102.735 54.5845 101.945 55.5838 100.982 56.3925C100.02 57.2011 98.9043 57.8022 97.7044 58.1588C96.5045 58.5154 95.2454 58.6201 94.0042 58.4664C92.7629 58.3127 91.5657 57.9039 90.4859 57.265C88.2855 55.9631 86.6969 53.7629 85.7498 51.366C85.2128 49.9679 84.8348 48.5124 84.623 47.0275C84.4109 45.6376 84.5908 44.2329 84.975 42.8814C84.9932 42.8309 85.0006 42.7771 84.9968 42.7235C84.993 42.6699 84.978 42.6177 84.9529 42.5704Z" fill="#2F2E41"/>
<path d="M97.2522 95.0004H69.1984C69.1593 95.0004 69.1217 94.9846 69.094 94.9566C69.0663 94.9285 69.0508 94.8905 69.0508 94.8508C69.0508 94.8111 69.0663 94.773 69.094 94.745C69.1217 94.7169 69.1593 94.7012 69.1984 94.7012H97.2522C97.2913 94.7012 97.3289 94.7169 97.3566 94.745C97.3843 94.773 97.3998 94.8111 97.3998 94.8508C97.3998 94.8905 97.3843 94.9285 97.3566 94.9566C97.3289 94.9846 97.2913 95.0004 97.2522 95.0004Z" fill="#CCCCCC"/>
</g>
<defs>
<clipPath id="clip0_311_997">
<rect width="104" height="95" fill="white"/>
</clipPath>
</defs>
</svg>
