<svg width="274" height="215" viewBox="0 0 274 215" fill="none" xmlns="http://www.w3.org/2000/svg">
<g clip-path="url(#clip0_322_1359)">
<path d="M248.565 168.628L247.965 168.439L24.9375 100.384L25.5554 100.075L178.662 23.6064L178.783 23.864L248.565 168.645V168.628ZM26.4135 100.263L247.536 167.735L178.405 24.3447L26.4135 100.263Z" fill="#3BEDBF"/>
<path d="M272.901 138.498H217.363V182.449H272.901V138.498Z" fill="white"/>
<path d="M274 183.565H216.266V137.416H274V183.565ZM218.462 181.367H271.804V139.596H218.462V181.367Z" fill="white"/>
<path d="M56.6356 78.9404H1.09766V122.892H56.6356V78.9404Z" fill="white"/>
<path d="M57.7348 123.99H0V77.8418H57.7348V123.99ZM2.19681 121.793H55.538V80.0222H2.19681V121.793Z" fill="white"/>
<path d="M210.431 1.09863H154.893V45.0498H210.431V1.09863Z" fill="white"/>
<path d="M211.528 46.1487H153.793V0H211.528V46.1487ZM155.99 43.9511H209.331V2.19756H155.99V43.9511Z" fill="white"/>
<path d="M107.523 131.716C108.655 129.639 107.883 127.029 105.806 125.896C105.583 125.776 105.36 125.673 105.12 125.587L104.416 115.801L98.375 114.788L99.5764 128.591C98.9757 130.892 100.366 133.261 102.666 133.862C104.588 134.36 106.613 133.484 107.557 131.716H107.523Z" fill="#A0616A"/>
<path d="M125.801 209.249H131.413L134.09 187.6H125.801V209.249Z" fill="#A0616A"/>
<path d="M124.377 207.412H135.43C139.326 207.412 142.466 210.571 142.466 214.451V214.674H124.377V207.395V207.412Z" fill="#160635"/>
<path d="M107.488 209.249H113.1L115.778 187.6H107.488V209.249Z" fill="#A0616A"/>
<path d="M106.064 207.412H117.117C121.013 207.412 124.154 210.571 124.154 214.451V214.674H106.064V207.395V207.412Z" fill="#160635"/>
<path d="M106.031 114.376L103.285 129.896L106.941 202.244H115.179L119.727 166.654L121.58 139.511L124.515 202.244L133.028 202.862L137.953 166.894L139.206 131.047L137.885 114.376H106.031Z" fill="#160635"/>
<path d="M117.236 66.9395L129.594 69.2228L133.026 113.414C133.026 113.414 117.923 120.282 112.431 114.324C106.939 108.367 117.236 66.9395 117.236 66.9395Z" fill="#A5A5A5"/>
<path d="M141.265 75.8668L129.594 69.2227L127.998 99.6794C127.998 99.6794 127.535 135.39 136.699 135.39L143.564 133.106L139.909 103.336L141.282 75.8668H141.265Z" fill="#160635"/>
<path d="M103.283 73.1201L117.236 66.9395L118.833 93.7222C118.833 93.7222 123.415 129.432 108.758 130.806C108.758 130.806 104.639 131.269 102.803 128.059L105.549 101.499L103.266 73.1029L103.283 73.1201Z" fill="#160635"/>
<path d="M106.03 74.4936L103.284 73.1201C103.284 73.1201 101.911 73.1201 101.448 74.03C100.985 74.94 95.2695 101.499 95.2695 101.499L98.7707 126.291L105.567 123.012L104.16 102.289L106.03 74.4764V74.4936Z" fill="#160635"/>
<path d="M136.27 134.857C134.983 132.866 135.55 130.205 137.523 128.917C137.729 128.78 137.952 128.66 138.193 128.557L138.124 118.753L144.079 117.26L143.976 131.115C144.766 133.364 143.565 135.819 141.316 136.609C139.428 137.261 137.352 136.54 136.27 134.857Z" fill="#A0616A"/>
<path d="M136.236 76.3307L141.264 75.8672C141.264 75.8672 143.101 76.5196 143.547 82.1508C143.993 87.7821 144.01 101.877 144.01 101.877L145.383 127.149H137.609L135.326 101.517L136.236 76.3307Z" fill="#160635"/>
<path d="M124.943 63.1278C130.886 63.1278 135.703 58.3083 135.703 52.3632C135.703 46.4181 130.886 41.5986 124.943 41.5986C118.999 41.5986 114.182 46.4181 114.182 52.3632C114.182 58.3083 118.999 63.1278 124.943 63.1278Z" fill="#A0616A"/>
<path d="M123.348 54.5607L123.194 52.0027C123.159 51.4018 123.348 50.5777 123.932 50.612C124.429 50.6464 125.562 50.8524 125.716 50.6807C126.283 50.0798 127.433 50.6807 128.033 50.1485C128.291 49.9253 128.394 49.5132 128.737 49.4102C128.96 49.3759 129.2 49.4274 129.389 49.5647C129.921 49.8566 130.505 50.0455 131.105 50.097C131.723 50.1313 132.307 49.8394 132.633 49.3244C132.684 49.2042 132.77 49.084 132.856 48.9982C132.976 48.9295 133.131 48.9123 133.268 48.9295L135.122 49.0497C135.259 47.041 134.521 45.0838 133.096 43.676C132.187 42.8519 131.157 42.1823 130.024 41.6844C128.771 41.0835 127.484 40.5342 126.18 40.0363C124.755 39.4869 123.245 39.0062 121.718 39.092C120.19 39.1607 118.611 39.9161 117.925 41.2724C117.427 41.0492 116.998 40.6715 116.723 40.1908C116.397 40.6372 116.5 41.2381 116.929 41.5643C116.981 41.5986 117.032 41.6329 117.084 41.6501L115.402 40.9977C115.076 41.5128 116.054 42.148 115.796 42.7145C115.711 42.8519 115.591 42.9721 115.453 43.0579C114.715 43.5386 114.063 44.1567 113.548 44.8778C112.862 45.9079 112.639 47.1612 112.484 48.3801C112.124 51.0927 112.072 54.1487 113.806 56.2604C114.012 56.5008 116.792 60.5697 117.084 60.6899C118.045 61.1019 117.204 59.7971 117.993 60.501C118.594 61.0504 117.993 58.5782 118.817 58.973C119.469 59.2649 120.224 59.1447 120.756 58.664C121.014 58.4065 120.688 57.2905 120.31 56.2776C120.07 55.6252 120.396 54.9213 121.048 54.6809C121.203 54.6294 121.357 54.5951 121.512 54.6123C122.438 54.6466 123.348 54.6466 123.331 54.5264L123.348 54.5607Z" fill="#160635"/>
<path d="M168.863 215H78.6397C78.4338 215 78.2793 214.829 78.2793 214.64C78.2793 214.451 78.4509 214.279 78.6397 214.279H168.88C169.086 214.279 169.241 214.451 169.241 214.64C169.241 214.829 169.069 215 168.88 215H168.863Z" fill="#A5A5A5"/>
<path d="M18.1758 93.8593C18.1758 93.2755 18.4161 92.709 18.828 92.2969C19.2399 91.8849 19.8062 91.6445 20.3897 91.6445H24.7147C25.0751 91.6445 25.4355 91.7304 25.7616 91.9021C26.0877 92.0737 26.3623 92.3141 26.5511 92.6231L27.4436 93.9623C27.6495 94.2713 27.9241 94.5117 28.233 94.6833C28.5591 94.855 28.9024 94.9409 29.2799 94.9409H35.8189C36.4024 94.9409 36.9688 95.1812 37.3807 95.5933C37.7926 96.0053 38.0328 96.5719 38.0328 97.1556V107.079C38.0328 107.663 37.7926 108.229 37.3807 108.641C36.9688 109.053 36.4024 109.294 35.8189 109.294H20.3897C19.8062 109.294 19.2399 109.053 18.828 108.641C18.4161 108.229 18.1758 107.663 18.1758 107.079V93.8593Z" stroke="#F57ED4" stroke-width="1.5" stroke-linecap="round" stroke-linejoin="round"/>
<path d="M175.891 24.2025C175.043 24.2025 174.321 24.0065 173.725 23.6145C173.129 23.2225 172.675 22.6885 172.363 22.0125C172.055 21.3325 171.903 20.5625 171.907 19.7025C171.927 18.8025 172.093 18.0165 172.405 17.3445C172.717 16.6685 173.165 16.1425 173.749 15.7665C174.333 15.3905 175.047 15.2025 175.891 15.2025C176.259 15.2025 176.615 15.2445 176.959 15.3285C177.307 15.4125 177.629 15.5405 177.925 15.7125L177.451 16.4565C177.223 16.3245 176.975 16.2265 176.707 16.1625C176.443 16.0945 176.171 16.0585 175.891 16.0545C175.215 16.0505 174.653 16.2045 174.205 16.5165C173.757 16.8245 173.419 17.2545 173.191 17.8065C172.967 18.3545 172.855 18.9865 172.855 19.7025C172.855 20.4345 172.967 21.0745 173.191 21.6225C173.419 22.1665 173.757 22.5905 174.205 22.8945C174.653 23.1985 175.215 23.3525 175.891 23.3565C176.459 23.3685 176.983 23.2345 177.463 22.9545L177.931 23.6865C177.635 23.8585 177.313 23.9865 176.965 24.0705C176.617 24.1585 176.259 24.2025 175.891 24.2025ZM170.989 21.0585V20.3025H176.419V21.0585H170.989ZM170.989 19.1205V18.3645H176.419V19.1205H170.989Z" fill="#F57ED4"/>
<path d="M173.725 23.6145L173.794 23.51L173.725 23.6145ZM172.363 22.0125L172.249 22.064L172.249 22.0648L172.363 22.0125ZM171.907 19.7025L171.782 19.6997L171.782 19.7019L171.907 19.7025ZM172.405 17.3445L172.518 17.3971L172.518 17.3968L172.405 17.3445ZM173.749 15.7665L173.817 15.8716L173.749 15.7665ZM176.959 15.3285L176.929 15.4499L176.93 15.45L176.959 15.3285ZM177.925 15.7125L178.03 15.7796L178.1 15.6698L177.988 15.6044L177.925 15.7125ZM177.451 16.4565L177.388 16.5646L177.492 16.6247L177.556 16.5236L177.451 16.4565ZM176.707 16.1625L176.676 16.2835L176.678 16.284L176.707 16.1625ZM175.891 16.0545L175.893 15.9295L175.892 15.9295L175.891 16.0545ZM174.205 16.5165L174.276 16.6195L174.276 16.619L174.205 16.5165ZM173.191 17.8065L173.075 17.7587L173.075 17.7592L173.191 17.8065ZM173.191 21.6225L173.075 21.6698L173.076 21.6708L173.191 21.6225ZM174.205 22.8945L174.275 22.791L174.205 22.8945ZM175.891 23.3565L175.894 23.2315L175.892 23.2315L175.891 23.3565ZM177.463 22.9545L177.568 22.8871L177.504 22.786L177.4 22.8465L177.463 22.9545ZM177.931 23.6865L177.994 23.7945L178.106 23.729L178.036 23.6191L177.931 23.6865ZM176.965 24.0705L176.936 23.9489L176.934 23.9493L176.965 24.0705ZM170.989 21.0585H170.864V21.1835H170.989V21.0585ZM170.989 20.3025V20.1775H170.864V20.3025H170.989ZM176.419 20.3025H176.544V20.1775H176.419V20.3025ZM176.419 21.0585V21.1835H176.544V21.0585H176.419ZM170.989 19.1205H170.864V19.2455H170.989V19.1205ZM170.989 18.3645V18.2395H170.864V18.3645H170.989ZM176.419 18.3645H176.544V18.2395H176.419V18.3645ZM176.419 19.1205V19.2455H176.544V19.1205H176.419ZM175.891 24.0775C175.063 24.0775 174.366 23.8862 173.794 23.51L173.656 23.7189C174.276 24.1267 175.023 24.3275 175.891 24.3275V24.0775ZM173.794 23.51C173.218 23.1314 172.779 22.6159 172.476 21.9601L172.249 22.0648C172.571 22.7611 173.04 23.3135 173.656 23.7189L173.794 23.51ZM172.477 21.9609C172.177 21.2996 172.028 20.5478 172.032 19.703L171.782 19.7019C171.778 20.5771 171.933 21.3653 172.249 22.064L172.477 21.9609ZM172.032 19.7052C172.052 18.8189 172.215 18.0505 172.518 17.3971L172.292 17.2918C171.971 17.9824 171.802 18.7861 171.782 19.6997L172.032 19.7052ZM172.518 17.3968C172.821 16.7408 173.254 16.2338 173.817 15.8716L173.681 15.6614C173.076 16.0512 172.613 16.5961 172.291 17.2921L172.518 17.3968ZM173.817 15.8716C174.376 15.5111 175.066 15.3275 175.891 15.3275V15.0775C175.028 15.0775 174.289 15.2698 173.681 15.6614L173.817 15.8716ZM175.891 15.3275C176.249 15.3275 176.595 15.3684 176.929 15.4499L176.989 15.207C176.634 15.1206 176.269 15.0775 175.891 15.0775V15.3275ZM176.93 15.45C177.266 15.5313 177.577 15.6549 177.862 15.8205L177.988 15.6044C177.681 15.426 177.347 15.2937 176.988 15.2069L176.93 15.45ZM177.819 15.6453L177.345 16.3893L177.556 16.5236L178.03 15.7796L177.819 15.6453ZM177.514 16.3483C177.275 16.2099 177.015 16.1076 176.736 16.0409L176.678 16.284C176.935 16.3454 177.171 16.439 177.388 16.5646L177.514 16.3483ZM176.738 16.0414C176.464 15.9709 176.182 15.9336 175.893 15.9295L175.889 16.1794C176.159 16.1833 176.422 16.2181 176.676 16.2835L176.738 16.0414ZM175.892 15.9295C175.196 15.9253 174.607 16.084 174.133 16.4139L174.276 16.619C174.699 16.325 175.234 16.1756 175.89 16.1795L175.892 15.9295ZM174.134 16.4135C173.664 16.7365 173.312 17.1867 173.075 17.7587L173.306 17.8542C173.526 17.3223 173.85 16.9124 174.276 16.6195L174.134 16.4135ZM173.075 17.7592C172.844 18.325 172.73 18.9736 172.73 19.7025H172.98C172.98 18.9994 173.09 18.384 173.307 17.8538L173.075 17.7592ZM172.73 19.7025C172.73 20.447 172.844 21.1037 173.075 21.6698L173.307 21.5752C173.09 21.0453 172.98 20.422 172.98 19.7025H172.73ZM173.076 21.6708C173.312 22.2351 173.665 22.6791 174.135 22.9979L174.275 22.791C173.849 22.5019 173.526 22.0979 173.306 21.5741L173.076 21.6708ZM174.135 22.9979C174.608 23.3189 175.196 23.4773 175.89 23.4815L175.892 23.2315C175.234 23.2276 174.698 23.078 174.275 22.791L174.135 22.9979ZM175.888 23.4814C176.479 23.4939 177.026 23.3543 177.526 23.0624L177.4 22.8465C176.94 23.1146 176.439 23.243 175.894 23.2315L175.888 23.4814ZM177.358 23.0218L177.826 23.7538L178.036 23.6191L177.568 22.8871L177.358 23.0218ZM177.868 23.5784C177.583 23.744 177.272 23.8677 176.936 23.949L176.994 24.192C177.353 24.1053 177.687 23.9729 177.994 23.7945L177.868 23.5784ZM176.934 23.9493C176.597 24.0347 176.249 24.0775 175.891 24.0775V24.3275C176.269 24.3275 176.637 24.2822 176.996 24.1916L176.934 23.9493ZM171.114 21.0585V20.3025H170.864V21.0585H171.114ZM170.989 20.4275H176.419V20.1775H170.989V20.4275ZM176.294 20.3025V21.0585H176.544V20.3025H176.294ZM176.419 20.9335H170.989V21.1835H176.419V20.9335ZM171.114 19.1205V18.3645H170.864V19.1205H171.114ZM170.989 18.4895H176.419V18.2395H170.989V18.4895ZM176.294 18.3645V19.1205H176.544V18.3645H176.294ZM176.419 18.9955H170.989V19.2455H176.419V18.9955Z" fill="#F57ED4"/>
<path d="M193.181 16.8594L187.294 22.731L184.359 19.7952L182.9 21.2717L187.311 25.6839L194.657 18.3359L193.198 16.8765L193.181 16.8594Z" fill="#F57ED4"/>
<path d="M234.578 151.597V167.495C234.578 168.027 234.784 168.525 235.162 168.902C235.539 169.28 236.037 169.486 236.569 169.486H252.462" stroke="#F57ED4" stroke-width="1.5" stroke-linecap="round" stroke-linejoin="round"/>
<path d="M238.561 162.533L242.525 158.567L246.49 162.533L252.445 156.575" stroke="#F57ED4" stroke-width="1.5" stroke-linecap="round" stroke-linejoin="round"/>
<path d="M249.475 156.575H252.461V159.563" stroke="#F57ED4" stroke-width="1.5" stroke-linecap="round" stroke-linejoin="round"/>
</g>
<defs>
<clipPath id="clip0_322_1359">
<rect width="274" height="215" fill="white"/>
</clipPath>
</defs>
</svg>
