<svg width="48" height="48" viewBox="0 0 48 48" fill="none" xmlns="http://www.w3.org/2000/svg">
<g clip-path="url(#clip0_317_3234)">
<path d="M10 12C7.2 12 5 9.8 5 7C5 4.2 7.2 2 10 2C12.8 2 15 4.2 15 7C15 9.8 12.8 12 10 12Z" fill="#3BEDBF"/>
<path d="M22.4 40.4C21.8 42.9 21.4 44 20 44C19.4 44 18.8 43.5 18.1 42.9C17.1 42.1 15.9 41 14 41V43C15.1 43 15.9 43.7 16.8 44.4C17.7 45.1 18.7 46 20 46C23.1 46 23.8 43.1 24.4 40.8C25 38.2 25.4 37 27 37V35C23.7 35 22.9 38.1 22.4 40.4Z" fill="#B900F4"/>
<path d="M14.4 40H10V44H14.1L14.4 40Z" fill="#B900F4"/>
<path d="M36 46C41.5228 46 46 41.5228 46 36C46 30.4772 41.5228 26 36 26C30.4772 26 26 30.4772 26 36C26 41.5228 30.4772 46 36 46Z" fill="#B900F4"/>
<path d="M35 34C35.1 34.2 35.1 34.3 35.3 34.4C35.4 34.5 35.6 34.6 35.8 34.8C36 34.9 36.3 35 36.6 35.1C37.1 35.3 37.5 35.5 37.9 35.7C38.3 35.9 38.6 36.1 38.9 36.4C39.2 36.7 39.4 37 39.6 37.3C39.8 37.7 39.8 38.1 39.8 38.6C39.8 39 39.7 39.4 39.6 39.8C39.5 40.2 39.3 40.5 39 40.7C38.7 41 38.4 41.2 38.1 41.3C37.7 41.5 37.3 41.6 36.9 41.6V43.1H35.7V41.6C35.3 41.6 34.9 41.5 34.5 41.3C34.1 41.1 33.8 40.9 33.5 40.7C33.2 40.4 33 40.1 32.8 39.6C32.6 39.2 32.5 38.7 32.5 38.1H34.7C34.7 38.5 34.7 38.8 34.8 39C34.9 39.2 35 39.4 35.2 39.6C35.4 39.7 35.5 39.8 35.7 39.9C35.9 40 36.1 40 36.3 40C36.5 40 36.7 40 36.9 39.9C37.1 39.8 37.2 39.7 37.3 39.6C37.4 39.5 37.5 39.3 37.6 39.2C37.7 39 37.7 38.9 37.7 38.7C37.7 38.5 37.7 38.3 37.6 38.1C37.5 37.9 37.5 37.8 37.3 37.7C37.2 37.6 37 37.4 36.8 37.3C36.6 37.2 36.4 37.1 36.1 37C35.6 36.8 35.2 36.6 34.8 36.4C34.4 36.2 34.1 36 33.8 35.7C33.5 35.4 33.3 35.1 33.1 34.8C32.9 34.4 32.9 34 32.9 33.5C32.9 33.1 33 32.7 33.1 32.3C33.2 32 33.4 31.6 33.7 31.4C34 31.1 34.3 30.9 34.6 30.8C35 30.6 35.4 30.5 35.8 30.5V28.9H37V30.5C37.4 30.6 37.8 30.7 38.2 30.9C38.6 31.1 38.8 31.3 39.1 31.6C39.3 31.9 39.5 32.2 39.7 32.6C39.8 33 39.9 33.5 39.9 34H37.7C37.7 33.4 37.6 33 37.3 32.7C37.1 32.4 36.7 32.3 36.3 32.3C36.1 32.3 35.9 32.3 35.7 32.4C35.5 32.5 35.4 32.6 35.3 32.7C35.1 32.7 35 32.8 35 33C35 33.2 34.9 33.3 34.9 33.5C34.9 33.7 34.9 33.9 35 34Z" fill="white"/>
<path d="M2 22V30L5 32L6 46H14L15 32L18 30V22C18 17.6 14.4 14 10 14C5.6 14 2 17.6 2 22Z" fill="#3BEDBF"/>
</g>
<defs>
<clipPath id="clip0_317_3234">
<rect width="48" height="48" fill="white"/>
</clipPath>
</defs>
</svg>
