<svg width="313" height="185" viewBox="0 0 313 185" fill="none" xmlns="http://www.w3.org/2000/svg">
<path fill-rule="evenodd" clip-rule="evenodd" d="M313 116.403V40C313 17.9086 295.091 1.05053e-05 273 1.05053e-05H0V184.66C0.389592 184.257 0.782775 183.852 1.1796 183.446C1.59384 183.022 2.00483 182.6 2.41369 182.18C19.0751 165.068 32.2054 151.582 117.84 153.963C172.048 155.47 233.771 156.046 273.03 156.266C295.121 156.39 313 138.494 313 116.403Z" fill="#F2F2F2"/>
<path d="M79.7182 101.114C79.9022 101.211 80.112 101.25 80.3192 101.225C80.5264 101.201 80.7209 101.114 80.8764 100.976C81.0319 100.839 81.1409 100.657 81.1885 100.456C81.2362 100.256 81.2203 100.045 81.1429 99.8536C81.1636 99.7517 81.1785 99.6785 81.1993 99.5765C81.5974 99.2092 82.0974 98.9677 82.6352 98.8831C83.1731 98.7985 83.7242 98.8747 84.218 99.1017C84.7118 99.3288 85.1257 99.6964 85.4068 100.158C85.6878 100.619 85.8231 101.152 85.7954 101.69C85.6694 104.722 85.8209 107.994 83.7822 110.439C93.0871 102.922 97.3297 90.1171 94.4882 78.6002C93.0938 76.6795 92.4434 74.1279 93.0687 71.8157C93.8533 72.5701 95.3829 72.3675 95.1492 71.0614C95.0238 70.5453 94.894 70.0307 94.7686 69.5146C100.128 67.4472 101.527 75.3249 95.1788 78.5323C95.6938 80.7219 95.9759 82.9587 96.0204 85.2062C96.737 83.1796 97.9301 81.3501 99.5016 79.8683C101.023 78.5141 103.035 77.7178 104.906 76.8093C107.184 75.7008 109.711 77.8983 108.815 80.2443C107.299 80.0526 106.226 81.844 107.602 82.8066C105.185 86.8184 100.552 89.3682 95.8447 89.4087C95.3686 93.9863 93.9111 98.411 91.5692 102.388C94.5764 97.8674 100.396 99.1689 104.995 98.9763C105.3 98.9383 105.61 98.9889 105.887 99.1219C106.163 99.2549 106.395 99.4646 106.553 99.7255C106.711 99.9863 106.789 100.287 106.777 100.591C106.765 100.895 106.664 101.188 106.486 101.437C105.881 101.401 105.274 101.426 104.674 101.509C104.392 101.551 104.129 101.677 103.922 101.872C103.716 102.067 103.575 102.32 103.52 102.596C103.464 102.873 103.497 103.16 103.613 103.418C103.729 103.675 103.922 103.891 104.167 104.036C100.133 107.692 93.8811 108.478 88.9746 106.145C87.5239 107.952 85.8873 109.604 84.091 111.076L76.7964 107.639C76.8089 107.546 76.8252 107.452 76.8403 107.361C77.4953 107.721 78.1924 108.001 78.9161 108.193C78.1379 105.261 77.2707 103.543 79.7179 101.114H79.7182Z" fill="#F2F2F2"/>
<path d="M66.8283 94.1763C66.695 94.335 66.5155 94.4493 66.3143 94.5038C66.113 94.5582 65.8997 94.5502 65.7032 94.4808C65.5067 94.4114 65.3365 94.284 65.2157 94.1158C65.095 93.9475 65.0294 93.7467 65.0279 93.5404C64.9699 93.4537 64.9282 93.3915 64.87 93.3049C64.3612 93.1131 63.806 93.0759 63.2756 93.1981C62.7452 93.3203 62.2638 93.5963 61.8932 93.9908C61.5225 94.3852 61.2794 94.88 61.1951 95.4119C61.1108 95.9438 61.189 96.4884 61.4199 96.9761C62.6936 99.7374 63.8018 102.824 66.6226 104.328C55.137 100.836 46.3218 90.5591 44.559 78.8333C45.1174 76.5346 44.7462 73.9289 43.2849 72.0207C42.8461 73.012 41.3521 73.3947 41.0703 72.098C40.9895 71.5732 40.9133 71.0482 40.8325 70.5234C35.0802 70.6072 36.7902 78.4248 43.8934 79.028C44.2519 81.2479 44.8442 83.4246 45.6606 85.5227C44.2236 83.9131 42.4205 82.6636 40.3998 81.8772C38.474 81.1904 36.307 81.2031 34.227 81.0596C31.6949 80.8822 30.1926 83.8599 31.9181 85.6983C33.249 84.9554 34.9261 86.2144 34.0192 87.6189C37.7878 90.4333 43.0517 91.0671 47.4268 89.3493C49.6143 93.4112 52.6525 96.9655 56.3388 99.7754C51.8289 96.7102 46.9358 100.086 42.6028 101.622C42.3057 101.701 42.0381 101.863 41.8327 102.09C41.6274 102.316 41.4931 102.596 41.4462 102.897C41.3993 103.197 41.442 103.505 41.5689 103.782C41.6958 104.059 41.9014 104.293 42.1608 104.457C42.7078 104.199 43.2793 103.995 43.867 103.848C44.1442 103.781 44.4356 103.801 44.7012 103.904C44.9668 104.007 45.1936 104.189 45.3506 104.425C45.5076 104.66 45.587 104.938 45.5779 105.22C45.5689 105.502 45.4719 105.774 45.3002 106C50.4318 107.881 56.5216 106.278 60.1755 102.288C62.2082 103.42 64.3545 104.34 66.5797 105.033L72.0239 99.1295C71.977 99.0486 71.9261 98.9678 71.8773 98.8889C71.4081 99.4667 70.8692 99.9855 70.2724 100.434C69.8741 97.4275 70.0218 95.5133 66.8286 94.1762L66.8283 94.1763Z" fill="#F2F2F2"/>
<path d="M68.2293 69.2304C68.4369 69.2097 68.6331 69.1263 68.7912 68.9917C68.9493 68.8571 69.0617 68.6777 69.1132 68.4778C69.1647 68.2779 69.1528 68.0672 69.0792 67.8742C69.0055 67.6812 68.8736 67.5153 68.7013 67.3989C68.661 67.3028 68.6321 67.2339 68.5918 67.1378C68.7151 66.6134 68.994 66.1374 69.3928 65.7707C69.7915 65.4041 70.292 65.1635 70.83 65.0798C71.3679 64.9961 71.9189 65.0732 72.4123 65.3011C72.9057 65.529 73.319 65.8974 73.5992 66.359C75.2048 68.9457 77.176 71.5784 76.8623 74.7315C80.3473 63.3629 76.6473 50.3944 67.7929 42.3999C65.5521 41.574 63.5731 39.8143 62.7881 37.5502C63.8649 37.744 65.0204 36.7327 64.0898 35.7773C63.6946 35.418 63.2966 35.0623 62.9015 34.7029C66.1844 30.0328 71.789 35.8012 68.3279 41.9628C69.9904 43.4967 71.4861 45.1981 72.7906 47.0393C72.2425 44.9619 72.2012 42.7856 72.67 40.6893C73.1692 38.7266 74.3902 36.9567 75.4314 35.1709C76.6968 32.9954 80.0344 33.4266 80.6132 35.8683C79.2465 36.5448 79.3663 38.6231 81.0513 38.664C81.308 43.3261 78.8999 47.9966 75.0149 50.6248C77.2015 54.6873 78.487 59.1638 78.7859 63.756C78.7328 58.3458 84.298 56.2186 88.0074 53.5237C88.2392 53.3239 88.5249 53.1952 88.8295 53.1532C89.1341 53.1112 89.4445 53.1577 89.7228 53.2871C90.0012 53.4165 90.2354 53.6232 90.3969 53.882C90.5584 54.1407 90.6403 54.4403 90.6325 54.7443C90.1104 55.0486 89.6202 55.4035 89.1691 55.8037C88.9581 55.9936 88.8117 56.2434 88.7499 56.5188C88.6881 56.7942 88.714 57.0817 88.824 57.342C88.9341 57.6023 89.1228 57.8226 89.3645 57.9727C89.6061 58.1228 89.8888 58.1953 90.1737 58.1803C88.8867 63.4394 84.1402 67.5376 78.7511 68.3052C78.5657 70.6043 78.139 72.8782 77.478 75.0902L69.4837 76.2573C69.4419 76.1736 69.4026 76.0867 69.3637 76.0027C70.1105 75.9406 70.8469 75.7884 71.5563 75.5495C69.2563 73.5438 67.5676 72.5958 68.2291 69.2305L68.2293 69.2304Z" fill="#F2F2F2"/>
<path d="M76.27 66.6965C72.6305 66.6965 70.6564 66.2568 69.967 65.3183C69.3586 64.4902 69.7665 63.3977 70.2387 62.1326C70.5781 61.2233 70.9628 60.1928 70.9628 59.1728C70.9628 54.2118 73.5073 51.6963 78.5257 51.6963C81.0225 51.6963 83.7034 53.0075 85.6971 55.2038C87.5096 57.2005 88.4125 59.5902 88.1744 61.7601C87.979 63.5397 87.1411 64.71 85.5374 65.4433L85.4436 65.4862L85.417 65.3875C85.2785 64.8767 85.0441 64.3962 84.726 63.9711C84.6951 64.6384 84.5249 65.2923 84.2262 65.8915L84.2091 65.9257L84.1721 65.9361C82.357 66.4472 80.2029 66.5857 78.529 66.6491C77.7143 66.6805 76.9613 66.6963 76.27 66.6965Z" fill="#2F2E41"/>
<path d="M77.262 73.6086C77.1225 73.2033 76.8873 72.8366 76.5757 72.5392C76.2642 72.2417 75.8854 72.022 75.4708 71.8982C75.0561 71.7744 74.6176 71.7502 74.1916 71.8275C73.7656 71.9048 73.3644 72.0815 73.0213 72.3427L61.0499 79.4183L57.3038 70.3824C57.6203 69.9235 57.7816 69.3773 57.7646 68.8221C57.7476 68.2669 57.5532 67.7313 57.2093 67.2922C56.8653 66.853 56.3895 66.5327 55.8501 66.3774C55.3107 66.222 54.7354 66.2396 54.2067 66.4274C53.6779 66.6153 53.223 66.9639 52.9071 67.4232C52.5911 67.8825 52.4305 68.4289 52.4481 68.984C52.4657 69.5392 52.6607 70.0746 53.0052 70.5134C53.3496 70.9522 53.8258 71.2719 54.3653 71.4266C54.5962 74.0323 55.8794 85.6785 60.3432 85.2552C64.0953 84.8993 73.4132 78.7647 76.3074 76.6377C76.7704 76.2977 77.1123 75.8212 77.2838 75.2769C77.4554 74.7325 77.4478 74.1484 77.262 73.6086Z" fill="#FFB6B6"/>
<path d="M86.2834 125H75.8639L74.1167 116.46L73.5499 125H63.8711C63.8748 118.293 64.2282 111.591 64.9299 104.92L65.0499 104.516L65.2394 103.87L65.3593 103.464L67.3622 96.6649L67.5204 96.1252H79.5811C80.2751 96.7697 80.9153 97.4687 81.4953 98.2152C81.6917 98.4627 81.8969 98.7308 82.1072 99.0196C82.2533 99.2241 82.4046 99.4389 82.5558 99.6641C83.8997 101.642 84.9042 103.825 85.5288 106.127V106.128C85.6349 106.522 85.7288 106.925 85.8105 107.337V107.338C85.8835 107.704 85.9478 108.076 85.9982 108.455C86.0365 108.732 86.0695 109.012 86.0939 109.296C86.2388 110.867 86.188 112.45 85.9426 114.009L86.2834 125Z" fill="#2F2E41"/>
<path d="M31.0394 46.9082C31.716 46.6493 32.1169 46.0621 31.9346 45.5968C31.7524 45.1314 31.0562 44.9641 30.3795 45.223C29.7028 45.482 29.302 46.0691 29.4842 46.5345C29.6664 46.9998 30.3627 47.1671 31.0394 46.9082Z" fill="#E6E6E6"/>
<path d="M39.5594 45.8276C40.236 45.5687 40.6369 44.9815 40.4547 44.5162C40.2724 44.0509 39.5762 43.8835 38.8995 44.1425C38.2229 44.4014 37.822 44.9886 38.0042 45.4539C38.1865 45.9192 38.8827 46.0866 39.5594 45.8276Z" fill="#3F3D56"/>
<path d="M30.3006 54.0937C30.9773 53.8348 31.3781 53.2476 31.1959 52.7823C31.0137 52.317 30.3174 52.1496 29.6407 52.4086C28.9641 52.6675 28.5632 53.2547 28.7455 53.72C28.9277 54.1854 29.6239 54.3527 30.3006 54.0937Z" fill="#FF6584"/>
<path d="M27.8357 57.2634C28.1461 57.1907 28.3122 56.7742 28.2065 56.3331C28.1009 55.8919 27.7636 55.5932 27.4532 55.6658C27.1428 55.7385 26.9767 56.155 27.0824 56.5961C27.188 57.0373 27.5253 57.336 27.8357 57.2634Z" fill="#E6E6E6"/>
<path d="M27.7849 62.6298C28.0953 62.5572 28.2614 62.1407 28.1557 61.6995C28.0501 61.2584 27.7128 60.9597 27.4024 61.0323C27.092 61.1049 26.926 61.5214 27.0316 61.9626C27.1372 62.4037 27.4745 62.7025 27.7849 62.6298Z" fill="#3F3D56"/>
<path d="M35.2624 51.5148C35.5729 51.4422 35.7389 51.0257 35.6333 50.5845C35.5277 50.1434 35.1904 49.8447 34.88 49.9173C34.5695 49.9899 34.4035 50.4064 34.5091 50.8476C34.6147 51.2887 34.952 51.5875 35.2624 51.5148Z" fill="#E6E6E6"/>
<path d="M30.7756 50.4377C31.0861 50.3651 31.2521 49.9485 31.1465 49.5074C31.0408 49.0663 30.7036 48.7675 30.3931 48.8402C30.0827 48.9128 29.9167 49.3293 30.0223 49.7704C30.1279 50.2116 30.4652 50.5103 30.7756 50.4377Z" fill="#FF6584"/>
<path d="M35.5315 45.4963C35.8419 45.4236 36.0079 45.0071 35.9023 44.566C35.7967 44.1249 35.4594 43.8261 35.149 43.8988C34.8386 43.9714 34.6725 44.3879 34.7782 44.829C34.8838 45.2702 35.2211 45.5689 35.5315 45.4963Z" fill="#3F3D56"/>
<path d="M37.7437 82.6375C38.0708 82.2576 37.8882 81.5726 37.3356 81.1077C36.7831 80.6427 36.07 80.5739 35.7428 80.9538C35.4156 81.3338 35.5983 82.0188 36.1508 82.4837C36.7034 82.9486 37.4165 83.0175 37.7437 82.6375Z" fill="#E6E6E6"/>
<path d="M32.7256 75.7454C33.0528 75.3655 32.8701 74.6805 32.3176 74.2156C31.765 73.7507 31.0519 73.6818 30.7247 74.0618C30.3976 74.4417 30.5802 75.1267 31.1328 75.5916C31.6853 76.0565 32.3984 76.1254 32.7256 75.7454Z" fill="#3F3D56"/>
<path d="M44.4873 79.8582C44.8145 79.4783 44.6318 78.7933 44.0793 78.3284C43.5268 77.8634 42.8136 77.7946 42.4864 78.1745C42.1593 78.5545 42.342 79.2395 42.8945 79.7044C43.447 80.1693 44.1602 80.2382 44.4873 79.8582Z" fill="#FF6584"/>
<path d="M47.8374 79.9343C48.1796 79.6325 48.2847 79.197 48.0723 78.9618C47.8599 78.7265 47.4103 78.7805 47.0682 79.0823C46.7261 79.3842 46.6209 79.8196 46.8334 80.0549C47.0458 80.2902 47.4953 80.2362 47.8374 79.9343Z" fill="#E6E6E6"/>
<path d="M52.6353 77.4234C52.9774 77.1215 53.0826 76.686 52.8701 76.4508C52.6577 76.2155 52.2082 76.2695 51.866 76.5713C51.5239 76.8732 51.4188 77.3086 51.6312 77.5439C51.8436 77.7792 52.2932 77.7252 52.6353 77.4234Z" fill="#3F3D56"/>
<path d="M39.1875 76.2153C39.5297 75.9135 39.6348 75.478 39.4224 75.2428C39.21 75.0075 38.7604 75.0615 38.4183 75.3633C38.0762 75.6652 37.971 76.1006 38.1835 76.3359C38.3959 76.5712 38.8454 76.5172 39.1875 76.2153Z" fill="#E6E6E6"/>
<path d="M40.3658 80.6289C40.7079 80.327 40.813 79.8916 40.6006 79.6563C40.3882 79.4211 39.9386 79.475 39.5965 79.7769C39.2544 80.0788 39.1493 80.5142 39.3617 80.7495C39.5741 80.9848 40.0236 80.9308 40.3658 80.6289Z" fill="#FF6584"/>
<path d="M33.7056 78.8474C34.0477 78.5456 34.1529 78.1101 33.9404 77.8748C33.728 77.6396 33.2785 77.6935 32.9364 77.9954C32.5942 78.2973 32.4891 78.7327 32.7015 78.968C32.9139 79.2033 33.3635 79.1493 33.7056 78.8474Z" fill="#3F3D56"/>
<path d="M71.4524 38.4351C71.9053 38.2149 72.0129 37.5146 71.6927 36.8709C71.3725 36.2273 70.7457 35.884 70.2928 36.1042C69.8398 36.3244 69.7322 37.0247 70.0525 37.6684C70.3727 38.3121 70.9994 38.6553 71.4524 38.4351Z" fill="#E6E6E6"/>
<path d="M73.2878 46.7305C73.7408 46.5103 73.8484 45.81 73.5282 45.1663C73.208 44.5227 72.5812 44.1794 72.1282 44.3996C71.6753 44.6198 71.5677 45.3201 71.8879 45.9638C72.2081 46.6075 72.8349 46.9508 73.2878 46.7305Z" fill="#3F3D56"/>
<path d="M64.1472 38.337C64.6002 38.1168 64.7078 37.4165 64.3875 36.7728C64.0673 36.1291 63.4406 35.7858 62.9876 36.0061C62.5347 36.2263 62.4271 36.9266 62.7473 37.5703C63.0675 38.2139 63.6943 38.5572 64.1472 38.337Z" fill="#FF6584"/>
<path d="M60.307 35.7046C60.7422 35.5619 61.0137 35.2036 60.9133 34.9043C60.8129 34.6049 60.3787 34.4779 59.9434 34.6206C59.5081 34.7633 59.2367 35.1216 59.3371 35.4209C59.4374 35.7202 59.8717 35.8473 60.307 35.7046Z" fill="#E6E6E6"/>
<path d="M54.8953 36.1248C55.3306 35.9821 55.6021 35.6238 55.5017 35.3244C55.4013 35.0251 54.967 34.8981 54.5318 35.0408C54.0965 35.1834 53.825 35.5417 53.9254 35.8411C54.0258 36.1404 54.4601 36.2674 54.8953 36.1248Z" fill="#3F3D56"/>
<path d="M66.7503 42.5146C67.1856 42.372 67.4571 42.0137 67.3567 41.7143C67.2563 41.415 66.822 41.288 66.3868 41.4306C65.9515 41.5733 65.68 41.9316 65.7804 42.231C65.8808 42.5303 66.315 42.6573 66.7503 42.5146Z" fill="#E6E6E6"/>
<path d="M67.4427 38.0015C67.878 37.8588 68.1495 37.5005 68.0491 37.2011C67.9487 36.9018 67.5144 36.7748 67.0791 36.9175C66.6439 37.0601 66.3724 37.4184 66.4728 37.7178C66.5732 38.0171 67.0074 38.1441 67.4427 38.0015Z" fill="#FF6584"/>
<path d="M72.8387 42.2522C73.274 42.1095 73.5455 41.7512 73.4451 41.4519C73.3447 41.1525 72.9104 41.0255 72.4751 41.1682C72.0399 41.3109 71.7684 41.6692 71.8688 41.9685C71.9692 42.2679 72.4034 42.3949 72.8387 42.2522Z" fill="#3F3D56"/>
<path d="M74.5098 68.0775L80.2499 67.7852L82.9161 71.9498C82.9161 71.9498 87.9325 72.7789 87.5848 78.6226C87.2371 84.4663 81.4813 89.5942 81.4813 89.5942L81.7273 92.6373L81.3 93.8443L81.3548 94.5221L81.9377 95.2398L81.9978 95.9821L81.4813 97.1566L82.1836 98.2811L67.417 96.8668L66.8771 94.9222L67.6648 93.878L67.2248 92.516L67.8862 91.206L68.2312 87.0448C68.2312 87.0448 64.4577 81.4404 68.7895 77.2193L70.5281 74.2975L72.4735 71.9512L74.5098 68.0775Z" fill="#B900F4"/>
<path d="M77.3631 66.9017C80.7223 66.9017 83.4455 64.2096 83.4455 60.8888C83.4455 57.568 80.7223 54.876 77.3631 54.876C74.0039 54.876 71.2808 57.568 71.2808 60.8888C71.2808 64.2096 74.0039 66.9017 77.3631 66.9017Z" fill="#FFB6B6"/>
<path d="M76.549 60.5242C76.0249 60.5242 75.501 60.5096 74.9775 60.4804L74.8839 60.4752L74.8962 60.3834C74.9734 59.8095 74.93 59.226 74.7687 58.6694C74.4949 59.3032 74.0875 59.8719 73.5738 60.3378L73.5448 60.364L73.5057 60.3598C72.0838 60.2061 70.6748 59.952 69.2895 59.5997L69.2365 59.5862L69.2259 59.5332C69.1224 59.0309 69.0688 58.5199 69.0659 58.0073C69.0659 56.4062 69.6531 55.0585 70.7195 54.2127C71.88 53.292 73.5437 53.0088 75.4057 53.4149H81.3595C82.0141 53.4157 82.6416 53.673 83.1045 54.1306C83.5673 54.5881 83.8276 55.2085 83.8284 55.8556V59.5828L83.7634 59.5996C81.4085 60.2114 78.9839 60.5222 76.549 60.5242Z" fill="#2F2E41"/>
<path d="M35.0463 53.8359C34.7798 53.9322 34.5628 54.1292 34.443 54.3835C34.3232 54.6378 34.3103 54.9288 34.4071 55.1925L40.8301 72.615C40.9276 72.8785 41.1268 73.093 41.384 73.2115C41.6413 73.3299 41.9356 73.3427 42.2023 73.2469L67.1309 64.2657C67.3974 64.1693 67.6144 63.9724 67.7342 63.718C67.854 63.4637 67.8669 63.1728 67.77 62.9091L61.3471 45.4866C61.2496 45.2231 61.0504 45.0086 60.7932 44.8901C60.5359 44.7716 60.2416 44.7589 59.9749 44.8546L35.0463 53.8359Z" fill="#CCCCCC"/>
<path d="M57.8528 66.6479L42.5939 72.1454C42.3068 72.2484 41.9901 72.2347 41.7132 72.1072C41.4363 71.9797 41.2219 71.7489 41.117 71.4653L35.2915 55.6632C35.1872 55.3793 35.201 55.0662 35.33 54.7925C35.459 54.5188 35.6925 54.3068 35.9794 54.2031L59.4993 45.7294C59.7864 45.6263 60.1031 45.64 60.38 45.7675C60.6569 45.895 60.8713 46.1259 60.9762 46.4095L63.7911 54.0449C64.6911 56.4948 64.5713 59.1976 63.458 61.5603C62.3448 63.923 60.3289 65.7527 57.8528 66.6479V66.6479Z" fill="white"/>
<path d="M46.8732 55.2323L43.2472 56.5387C43.2017 56.555 43.1534 56.5624 43.1051 56.5603C43.0567 56.5583 43.0092 56.5468 42.9654 56.5266C42.9215 56.5064 42.8821 56.4779 42.8494 56.4426C42.8167 56.4073 42.7913 56.3661 42.7747 56.3211C42.7581 56.2762 42.7507 56.2284 42.7528 56.1806C42.7549 56.1328 42.7665 56.0859 42.7869 56.0425C42.8073 55.9991 42.8362 55.9602 42.8719 55.9278C42.9076 55.8955 42.9493 55.8704 42.9948 55.854L46.6208 54.5477C46.7126 54.5146 46.814 54.5189 46.9026 54.5597C46.9912 54.6005 47.0598 54.6744 47.0933 54.7652C47.1268 54.856 47.1224 54.9562 47.0811 55.0438C47.0398 55.1314 46.965 55.1992 46.8732 55.2323H46.8732Z" fill="#B900F4"/>
<path d="M55.5181 53.7037L43.7637 57.9386C43.7182 57.955 43.6699 57.9624 43.6215 57.9604C43.5731 57.9584 43.5256 57.947 43.4817 57.9268C43.4378 57.9066 43.3983 57.878 43.3656 57.8427C43.3328 57.8075 43.3074 57.7662 43.2908 57.7212C43.2742 57.6762 43.2668 57.6284 43.2689 57.5806C43.271 57.5327 43.2826 57.4858 43.3031 57.4424C43.3236 57.399 43.3525 57.36 43.3883 57.3277C43.424 57.2953 43.4658 57.2703 43.5113 57.2539L55.2657 53.0191C55.3112 53.0027 55.3595 52.9953 55.4078 52.9974C55.4562 52.9995 55.5036 53.0109 55.5475 53.0311C55.5914 53.0513 55.6308 53.0799 55.6635 53.1152C55.6962 53.1504 55.7216 53.1917 55.7382 53.2367C55.7547 53.2816 55.7622 53.3293 55.7601 53.3771C55.758 53.4249 55.7464 53.4719 55.726 53.5152C55.7055 53.5586 55.6767 53.5976 55.641 53.6299C55.6053 53.6623 55.5636 53.6873 55.5181 53.7037V53.7037Z" fill="#B900F4"/>
<path d="M56.1104 55.311L44.3561 59.5458C44.3106 59.5622 44.2623 59.5696 44.214 59.5675C44.1656 59.5655 44.1181 59.554 44.0743 59.5338C44.0304 59.5136 43.991 59.485 43.9583 59.4498C43.9255 59.4145 43.9002 59.3732 43.8836 59.3283C43.867 59.2833 43.8596 59.2356 43.8617 59.1878C43.8638 59.14 43.8754 59.0931 43.8958 59.0497C43.9162 59.0063 43.9451 58.9674 43.9808 58.935C44.0164 58.9027 44.0582 58.8776 44.1037 58.8612L55.858 54.6264C55.9498 54.5934 56.0511 54.5978 56.1396 54.6387C56.2282 54.6795 56.2966 54.7534 56.3301 54.8441C56.3635 54.9348 56.3592 55.0349 56.318 55.1225C56.2768 55.21 56.2022 55.2778 56.1104 55.311V55.311Z" fill="#B900F4"/>
<path d="M56.7027 56.9181L44.9483 61.1529C44.9028 61.1694 44.8545 61.1768 44.8061 61.1748C44.7577 61.1728 44.7102 61.1613 44.6663 61.1411C44.6223 61.1209 44.5829 61.0924 44.5501 61.0571C44.5174 61.0218 44.492 60.9805 44.4754 60.9355C44.4588 60.8905 44.4514 60.8428 44.4535 60.7949C44.4556 60.7471 44.4672 60.7001 44.4877 60.6567C44.5082 60.6133 44.5371 60.5744 44.5728 60.542C44.6085 60.5097 44.6504 60.4846 44.6959 60.4683L56.4503 56.2335C56.4957 56.2171 56.544 56.2097 56.5924 56.2118C56.6407 56.2138 56.6882 56.2253 56.7321 56.2455C56.7759 56.2657 56.8154 56.2942 56.8481 56.3295C56.8808 56.3648 56.9062 56.4061 56.9227 56.451C56.9393 56.496 56.9468 56.5437 56.9447 56.5915C56.9426 56.6393 56.931 56.6862 56.9106 56.7296C56.8901 56.773 56.8612 56.8119 56.8256 56.8443C56.7899 56.8766 56.7481 56.9017 56.7027 56.9181V56.9181Z" fill="#B900F4"/>
<path d="M57.2955 58.525L45.5411 62.7599C45.4493 62.7929 45.3479 62.7886 45.2593 62.7478C45.1707 62.707 45.1021 62.6331 45.0687 62.5423C45.0352 62.4515 45.0396 62.3513 45.0809 62.2637C45.1221 62.1761 45.1969 62.1083 45.2887 62.0752L57.0431 57.8404C57.0886 57.824 57.1369 57.8166 57.1852 57.8187C57.2336 57.8208 57.281 57.8322 57.3249 57.8524C57.3688 57.8726 57.4082 57.9012 57.4409 57.9364C57.4736 57.9717 57.499 58.013 57.5156 58.0579C57.5322 58.1029 57.5396 58.1506 57.5375 58.1984C57.5354 58.2462 57.5238 58.2932 57.5034 58.3365C57.483 58.3799 57.4541 58.4189 57.4184 58.4512C57.3827 58.4836 57.341 58.5086 57.2955 58.525H57.2955Z" fill="#B900F4"/>
<path d="M94.5919 62.9882L88.1563 78.2127C87.8817 78.8569 87.3619 79.3686 86.7091 79.6373C86.0563 79.906 85.3227 79.9101 84.6668 79.6489C84.3275 79.5138 84.0196 79.3117 83.7618 79.0551C83.5041 78.7985 83.3019 78.4926 83.1676 78.1562C83.0333 77.8198 82.9697 77.4599 82.9807 77.0984C82.9917 76.737 83.0771 76.3815 83.2316 76.0537L90.4071 60.4417L94.3626 50.7737C94.0208 50.4366 93.7922 50.0038 93.7079 49.5339C93.6237 49.064 93.6877 48.5798 93.8915 48.1472C94.0952 47.7145 94.4288 47.3544 94.8468 47.1156C95.2648 46.8769 95.747 46.7712 96.2279 46.8128C96.7089 46.8545 97.1651 47.0414 97.5348 47.3484C97.9045 47.6553 98.1696 48.0673 98.2942 48.5283C98.4188 48.9894 98.3967 49.4772 98.2311 49.9255C98.0655 50.3738 97.7643 50.7608 97.3684 51.0339L94.5919 62.9882Z" fill="#FFB6B6"/>
</svg>
