<svg width="230" height="292" viewBox="0 0 230 292" fill="none" xmlns="http://www.w3.org/2000/svg">
<path d="M25.7303 172.845C10.8803 163.951 -0.327938 147.329 1.12717 130C14.7037 143.076 32.4389 150.899 51.1948 152.083C58.4298 152.513 66.5215 152.234 71.8473 157.18C75.1611 160.259 76.7037 164.893 76.9568 169.424C77.2097 173.955 76.3078 178.462 75.4104 182.909L75.7193 183.999C58.4382 184.064 40.5804 181.74 25.7303 172.845Z" fill="#3BEDBF"/>
<path d="M0.775383 130.238C6.83773 143.256 16.9219 154.067 29.5956 161.134C32.3201 162.632 35.2167 163.919 38.2948 164.516C41.2997 165.075 44.4023 164.834 47.28 163.817C49.9827 162.921 52.6416 161.698 55.5187 161.464C58.5514 161.217 61.3589 162.366 63.5648 164.379C66.2637 166.842 67.9008 170.11 69.3885 173.361C71.0405 176.971 72.6981 180.745 75.8653 183.341C76.249 183.656 75.7297 184.222 75.3466 183.908C69.8362 179.392 68.9367 171.829 64.532 166.51C62.4767 164.028 59.6474 162.14 56.2864 162.19C53.3473 162.233 50.6043 163.492 47.8758 164.422C45.0108 165.398 42.1407 165.857 39.1161 165.427C36.0221 164.988 33.0682 163.81 30.3166 162.387C24.1015 159.114 18.4489 154.902 13.5659 149.905C7.96069 144.232 3.3848 137.659 0.0361702 130.471C-0.1709 130.025 0.569659 129.796 0.775377 130.238H0.775383Z" fill="white"/>
<path d="M24.9191 158.695C23.4729 160.757 21.3994 162.194 19.069 162.748C16.7385 163.302 14.3028 162.937 12.1969 161.719C11.7715 161.471 12.1061 160.741 12.532 160.989C14.4912 162.127 16.7601 162.467 18.9292 161.946C21.0984 161.425 23.0249 160.079 24.361 158.15C24.6519 157.731 25.2082 158.279 24.9191 158.695L24.9191 158.695Z" fill="white"/>
<path d="M45.3098 164.645C44.7515 159.59 42.541 154.96 39.1189 151.678C38.7797 151.353 39.24 150.771 39.5789 151.095C43.1343 154.517 45.4261 159.341 45.997 164.603C46.0511 165.105 45.3636 165.144 45.3098 164.645V164.645Z" fill="white"/>
<path d="M9.10173 143.384C9.8621 142.772 10.4469 141.994 10.8036 141.12C11.1604 140.245 11.2778 139.302 11.1455 138.376C11.0761 137.9 11.876 137.864 11.945 138.336C12.086 139.361 11.9549 140.402 11.5631 141.368C11.1713 142.335 10.5307 143.198 9.69722 143.882C9.62447 143.952 9.52554 143.994 9.42054 143.999C9.31554 144.005 9.21234 143.973 9.13192 143.91C9.05343 143.843 9.00623 143.751 9.00057 143.653C8.99492 143.554 9.03127 143.458 9.10173 143.384V143.384Z" fill="white"/>
<path d="M49.1944 96C49.2451 96.3068 49.2959 96.6137 49.3525 96.9235C50.0559 101.045 51.094 105.103 52.4565 109.058C52.557 109.365 52.6634 109.675 52.7725 109.979C56.157 119.471 61.2795 128.253 67.8794 135.881C70.5085 138.913 73.3652 141.742 76.4247 144.343C80.6503 147.934 85.5184 151.492 88.2276 156.129C88.5157 156.61 88.7736 157.108 89 157.62L77.4936 183.792C77.4375 183.838 77.3872 183.887 77.331 183.934L76.9195 185C76.7523 184.877 76.5816 184.746 76.4144 184.622C76.3171 184.551 76.2224 184.475 76.1251 184.404C76.0611 184.354 75.9971 184.305 75.9365 184.264C75.9151 184.248 75.8939 184.231 75.8785 184.218C75.8179 184.177 75.7659 184.133 75.7113 184.094C74.7548 183.363 73.8019 182.624 72.8524 181.877C72.8464 181.874 72.8464 181.874 72.843 181.866C65.623 176.154 58.8178 169.791 53.1975 162.601C53.0285 162.384 52.8534 162.166 52.6896 161.937C50.1743 158.682 47.93 155.228 45.9792 151.608C44.9173 149.622 43.957 147.585 43.1018 145.502C40.9026 140.118 39.5664 134.422 39.1424 128.623C38.2987 117.064 41.1722 105.364 48.6189 96.6595C48.8096 96.437 48.9978 96.2199 49.1944 96Z" fill="#3BEDBF"/>
<path d="M49.3987 95.5143C46.2448 109.692 47.6768 124.495 53.4913 137.82C54.7545 140.667 56.2859 143.446 58.3877 145.776C60.4541 148.031 63.0918 149.696 66.0269 150.599C68.7464 151.495 71.6329 152.099 74.0855 153.635C76.6706 155.254 78.2152 157.868 78.7451 160.821C79.3936 164.434 78.6939 168.063 77.8853 171.588C76.9875 175.502 75.9924 179.553 76.9347 183.554C77.0489 184.039 76.2834 184.186 76.1694 183.702C74.53 176.74 78.4665 170.076 78.2085 163.127C78.0881 159.885 76.9814 156.658 74.2543 154.683C71.8696 152.955 68.8935 152.33 66.132 151.446C63.2323 150.518 60.6474 149.168 58.4854 147.006C56.2738 144.795 54.6296 142.069 53.2985 139.266C50.3279 132.889 48.3872 126.087 47.5474 119.112C46.5445 111.156 46.9216 103.089 48.6625 95.2591C48.7704 94.7746 49.5059 95.0329 49.3987 95.5143Z" fill="white"/>
<path d="M51.6969 134.588C49.24 135.298 46.6182 135.085 44.2998 133.987C41.9813 132.889 40.1171 130.978 39.0401 128.595C38.8238 128.112 39.5422 127.743 39.7588 128.227C40.7577 130.448 42.4943 132.228 44.6553 133.246C46.8163 134.263 49.2592 134.452 51.5432 133.777C52.0397 133.631 52.1905 134.443 51.6969 134.588H51.6969Z" fill="white"/>
<path d="M64.0645 151.368C66.9424 146.856 67.8242 141.533 66.5342 136.462C66.4059 135.959 67.2792 135.807 67.4073 136.309C68.7388 141.588 67.8086 147.126 64.8023 151.815C64.5155 152.262 63.7792 151.813 64.0645 151.368Z" fill="white"/>
<path d="M47.3277 112.219C48.3451 112.151 49.3293 111.839 50.1921 111.309C51.0548 110.779 51.769 110.049 52.2706 109.184C52.5264 108.74 53.1977 109.184 52.9435 109.626C52.3849 110.579 51.5951 111.384 50.6432 111.972C49.6913 112.559 48.6063 112.91 47.483 112.995C47.3778 113.011 47.2701 112.988 47.1817 112.93C47.0933 112.872 47.0309 112.784 47.0072 112.682C46.9871 112.58 47.0095 112.473 47.0696 112.386C47.1296 112.3 47.2223 112.239 47.3277 112.219V112.219Z" fill="white"/>
<path d="M88.5 24.2521L108 251.086L69 254V27.1381C73.6472 24.0824 80.3182 23.6043 88.5 24.2521Z" fill="#CCCCCC"/>
<path d="M184 24.2521L165 251.086L203 254V27.1381C198.472 24.0824 191.972 23.6043 184 24.2521Z" fill="#CCCCCC"/>
<path d="M197.554 263H74.4457C72.4716 262.998 70.5791 262.213 69.1832 260.818C67.7874 259.423 67.0022 257.532 67 255.559V30.4407C67.0022 28.468 67.7874 26.5767 69.1833 25.1818C70.5791 23.7869 72.4717 23.0022 74.4457 23H197.554C199.528 23.0022 201.421 23.7869 202.817 25.1818C204.213 26.5767 204.998 28.468 205 30.4407V255.559C204.998 257.532 204.213 259.423 202.817 260.818C201.421 262.213 199.528 262.998 197.554 263ZM74.4457 25.47C73.1269 25.4714 71.8626 25.9956 70.9301 26.9275C69.9976 27.8594 69.4731 29.1228 69.4716 30.4407V255.559C69.4731 256.877 69.9976 258.141 70.9301 259.072C71.8626 260.004 73.1269 260.529 74.4457 260.53H197.554C198.873 260.529 200.137 260.004 201.07 259.072C202.002 258.141 202.527 256.877 202.528 255.559V30.4407C202.527 29.1228 202.002 27.8594 201.07 26.9275C200.137 25.9956 198.873 25.4714 197.554 25.47L74.4457 25.47Z" fill="#CCCCCC"/>
<path d="M203 60H69V63H203V60Z" fill="#CCCCCC"/>
<path d="M203 102H69V104H203V102Z" fill="#CCCCCC"/>
<path d="M112 24H109V136H112V24Z" fill="#CCCCCC"/>
<path d="M162 24H160V136H162V24Z" fill="#CCCCCC"/>
<path d="M218.911 270H57.0893C54.1482 270 51.3276 268.788 49.248 266.632C47.1683 264.475 46 261.55 46 258.5C46 255.45 47.1683 252.525 49.248 250.368C51.3276 248.212 54.1482 247 57.0893 247H218.911C221.852 247 224.672 248.212 226.752 250.368C228.832 252.525 230 255.45 230 258.5C230 261.55 228.832 264.475 226.752 266.632C224.672 268.788 221.852 270 218.911 270Z" fill="#CCCCCC"/>
<path d="M203 131H69V139H203V131Z" fill="#CCCCCC"/>
<path d="M112.419 157L112.249 156.918C103.126 152.491 91.1789 152.495 73.5104 156.932L73.3218 156.98L73.2652 156.792C71.3961 150.638 69.2788 143.666 73.2564 140.237C73.3122 130.172 82.1026 122 92.8997 122C103.695 122 112.484 130.168 112.543 140.23C118.46 144.773 115.64 151.487 112.515 156.837L112.419 157Z" fill="#2F2E41"/>
<path d="M168.88 135.793C168.716 136.597 168.375 137.356 167.882 138.017C167.389 138.677 166.755 139.222 166.025 139.615C165.295 140.007 164.487 140.236 163.658 140.287C162.829 140.337 161.998 140.207 161.225 139.907L128.885 172L126 162.035L158.119 132.232C158.717 130.983 159.758 129.994 161.045 129.452C162.332 128.91 163.775 128.854 165.102 129.292C166.428 129.731 167.545 130.636 168.242 131.834C168.938 133.032 169.165 134.441 168.88 135.793L168.88 135.793Z" fill="#FFB6B6"/>
<path d="M88.5882 166.72C88.5882 166.72 85.6533 173.399 92.8951 177.518C100.137 181.637 125.447 175.946 129.554 175.152C133.661 174.357 149 151.305 149 151.305L146.831 140L126.488 157.734L88.5882 166.72Z" fill="#B900F4"/>
<path d="M83.1998 203.164L83.6144 211.385C83.6144 211.385 82.3908 218.667 83.3971 220.239C84.3958 221.803 111.648 222 111.648 222C111.648 222 113.449 211.868 115 203L83.1998 203.164Z" fill="#FFB6B6"/>
<path d="M169.591 277L175 274.658L167.983 253L160 256.458L169.591 277Z" fill="#FFB6B6"/>
<path d="M174 265.341L164.091 271L139.653 231.391C122.497 243.049 105.721 248.631 88.8088 251.611C83.091 252.637 77.2613 252.117 76.1636 246.247C76.1123 245.973 76.0713 245.697 76.0408 245.419C75.3656 239.008 83.2729 230.79 84.278 222.945L105.919 221.635L108.587 225.086L133.614 209.566C138.647 206.445 145.267 208.134 148.4 213.337C148.565 213.612 148.719 213.893 148.86 214.182L174 265.341Z" fill="#2F2E41"/>
<path d="M168 290.954L156.679 292L136.152 250.244C115.797 253.726 96.5939 254.842 79.984 250.63C74.3603 249.223 70.9227 243.448 72.3059 237.729C72.3706 237.462 72.4454 237.198 72.5302 236.936C74.5181 230.903 79.7217 226.635 83.8214 220L113.767 220.452L110.423 231.931L139.513 228.187C145.363 227.434 150.706 231.646 151.447 237.594C151.486 237.908 151.511 238.224 151.523 238.54L168 290.954Z" fill="#2F2E41"/>
<path d="M95 151C101.627 151 107 145.404 107 138.5C107 131.596 101.627 126 95 126C88.3726 126 83 131.596 83 138.5C83 145.404 88.3726 151 95 151Z" fill="#FFB6B6"/>
<path d="M87.8051 156L99.1282 157.3C99.6057 157.355 100.054 157.554 100.41 157.869C100.766 158.184 101.013 158.6 101.115 159.059L102.916 167.102L114.142 180.006C114.142 180.006 118.172 187.384 116.661 195.745C115.149 204.106 114.485 210.319 114.485 210.319C114.485 210.319 84.3734 221.34 83.3656 219.864C82.3579 218.389 82.0309 211.686 82.0309 211.686L78 167.913C78 167.913 82.5348 160.535 85.0541 160.535C86.68 160.482 86.4714 156.909 87.8051 156Z" fill="#B900F4"/>
<path d="M114.5 213C115.881 213 117 211.433 117 209.5C117 207.567 115.881 206 114.5 206C113.119 206 112 207.567 112 209.5C112 211.433 113.119 213 114.5 213Z" fill="#6C63FF"/>
<path d="M166 275.654L174.806 271L176.55 274.915L187.825 277.009C188.381 277.112 188.891 277.393 189.279 277.809C189.667 278.226 189.913 278.757 189.981 279.324C190.049 279.892 189.935 280.467 189.657 280.964C189.379 281.462 188.95 281.857 188.433 282.092L177.66 286.983L174.079 283.954L175.078 288.156L171.016 290L166 275.654Z" fill="#2F2E41"/>
<path d="M88.2628 135C84.9797 135.005 81.7754 134.064 79.0897 132.307L79 132.248V132.147C79.0036 129.191 80.2668 126.358 82.5123 124.268C84.7579 122.179 87.8025 121.003 90.9783 121H96.0217C99.1975 121.003 102.242 122.179 104.488 124.268C106.733 126.358 107.996 129.191 108 132.147C107.997 132.823 107.71 133.472 107.2 133.954C106.691 134.436 105.999 134.715 105.272 134.729L88.5462 134.998C88.4518 134.999 88.357 135 88.2628 135Z" fill="#2F2E41"/>
<path d="M108.269 129.794C109.843 128.885 110.106 126.395 108.856 124.231C107.607 122.067 105.319 121.049 103.745 121.958C102.171 122.866 101.908 125.357 103.158 127.521C104.407 129.685 106.695 130.702 108.269 129.794Z" fill="#2F2E41"/>
<path d="M83.6567 127.38C85.4234 125.613 85.814 123.139 84.5291 121.854C83.2442 120.569 80.7704 120.96 79.0037 122.727C77.2369 124.494 76.8463 126.967 78.1312 128.252C79.4161 129.537 81.89 129.147 83.6567 127.38Z" fill="#2F2E41"/>
<path d="M191.191 238H179.614C179.353 237.999 179.095 238.066 178.858 238.195C178.621 238.324 178.41 238.512 178.242 238.746C177.815 238.654 177.375 238.682 176.959 238.829C176.543 238.975 176.163 239.235 175.849 239.588C175.535 239.941 175.297 240.376 175.154 240.859C175.01 241.341 174.966 241.856 175.025 242.362C175.084 242.868 175.245 243.351 175.493 243.77C175.741 244.189 176.07 244.533 176.453 244.774C176.836 245.014 177.262 245.144 177.696 245.153C178.13 245.163 178.56 245.05 178.95 244.826L179.91 248.498C180.024 248.933 180.253 249.313 180.564 249.584C180.876 249.854 181.252 250 181.639 250H189.166C189.553 250 189.93 249.854 190.241 249.584C190.552 249.313 190.781 248.933 190.895 248.498L192.92 240.754C193.003 240.436 193.022 240.099 192.974 239.771C192.927 239.442 192.814 239.132 192.646 238.864C192.478 238.596 192.259 238.378 192.006 238.228C191.753 238.078 191.474 238 191.191 238ZM177.753 244.231C177.233 244.231 176.734 243.988 176.366 243.555C175.999 243.122 175.792 242.535 175.792 241.923C175.792 241.311 175.999 240.724 176.366 240.291C176.734 239.859 177.233 239.615 177.753 239.615C177.789 239.615 177.822 239.626 177.858 239.628C177.78 239.999 177.789 240.389 177.885 240.754L178.714 243.923C178.422 244.122 178.091 244.228 177.753 244.231Z" fill="#3F3D56"/>
<path d="M136.858 229.975C136.044 230.053 135.223 229.946 134.454 229.661C133.684 229.376 132.984 228.92 132.404 228.326C131.823 227.731 131.376 227.013 131.094 226.221C130.811 225.429 130.701 224.583 130.77 223.742L91 201.748L99.6986 196L137.22 218.455C138.581 218.668 139.819 219.389 140.699 220.481C141.58 221.574 142.042 222.961 141.997 224.381C141.953 225.801 141.405 227.155 140.458 228.186C139.511 229.217 138.23 229.854 136.858 229.975Z" fill="#FFB6B6"/>
<path d="M84.1681 161.03C84.1681 161.03 77.0175 160.118 75.1823 168.309C73.3471 176.499 85.927 199.332 87.8464 203.074C89.7658 206.816 115.927 215 115.927 215L126 209.642L103.445 195.086L84.1681 161.03Z" fill="#B900F4"/>
<path d="M134.714 128H137.286C138.536 128 139.735 128.527 140.619 129.464C141.503 130.402 142 131.674 142 133H130C130 131.674 130.497 130.402 131.381 129.464C132.265 128.527 133.464 128 134.714 128Z" fill="#CCCCCC"/>
<path d="M131.795 18.4033C125.308 11.6292 117.775 5.44937 108.857 2.18374C106.373 1.27023 103.798 0.625822 101.175 0.261689C101.154 0.258816 101.134 0.263065 101.113 0.26137C101.07 0.250427 101.027 0.241972 100.983 0.236049C97.315 -0.229189 93.5917 -0.00540169 90.0064 0.895806C88.2531 1.33384 86.5426 1.92706 84.8954 2.66838C83.2424 3.47123 81.6407 4.3749 80.0996 5.37423C76.8375 7.31825 73.2459 8.65219 69.5019 9.31027C67.6226 9.64711 65.7192 9.8331 63.81 9.86644C62.1534 9.89952 60.5911 9.95682 59.0216 10.5527C57.345 11.1803 55.839 12.1894 54.6237 13.4995C53.4084 14.8095 52.5175 16.3842 52.0221 18.0979C51.9839 18.2505 51.9954 18.4113 52.055 18.5569C52.1145 18.7026 52.219 18.8257 52.3534 18.9084C52.7779 19.2111 53.1918 19.5546 53.6379 19.8243C54.0347 20.0051 54.4586 20.1202 54.8927 20.165C55.6019 20.314 56.312 20.4586 57.023 20.5989C59.6424 21.1156 62.2726 21.573 64.9138 21.971C70.2581 22.7765 75.6312 23.3438 81.0332 23.6731C91.8549 24.3257 102.714 24.0008 113.477 22.7023C119.525 21.973 125.533 20.9384 131.477 19.6028C131.597 19.5678 131.706 19.5024 131.794 19.413C131.881 19.3236 131.944 19.2132 131.976 19.0925C132.008 18.9718 132.008 18.8449 131.976 18.7242C131.945 18.6034 131.882 18.4929 131.795 18.4033Z" fill="#E6E6E6"/>
<path d="M57.8574 35.0928C55.3733 34.2173 52.7976 33.5997 50.1749 33.2508C50.1538 33.248 50.1338 33.2521 50.1128 33.2505C50.0702 33.24 50.0269 33.2319 49.9832 33.2262C46.315 32.7804 42.5917 32.9948 39.0064 33.8585C37.2531 34.2783 35.5426 34.8468 33.8954 35.5572C32.2424 36.3266 30.6407 37.1926 29.0996 38.1503C25.8375 40.0133 22.2459 41.2917 18.5019 41.9224C16.6226 42.2452 14.7192 42.4234 12.81 42.4554C11.1534 42.4871 9.59113 42.542 8.02159 43.113C6.34501 43.7145 4.83899 44.6816 3.62371 45.937C2.40843 47.1925 1.51753 48.7015 1.02211 50.3438C0.983915 50.4901 0.995423 50.6441 1.05497 50.7837C1.11451 50.9233 1.21901 51.0413 1.35338 51.1205C1.77795 51.4106 2.19185 51.7398 2.63793 51.9983C3.03475 52.1716 3.45858 52.2819 3.89268 52.3248C4.60189 52.4676 5.312 52.6062 6.02301 52.7406C8.64239 53.2358 11.2726 53.6741 13.9138 54.0555C19.2581 54.8274 24.6312 55.3712 30.0332 55.6867C40.8549 56.3121 51.7138 56.0007 62.4766 54.7564C68.5254 54.0574 74.5331 53.066 80.4766 51.786C80.5969 51.7525 80.7061 51.6898 80.7936 51.6041C80.8811 51.5184 80.9439 51.4126 80.9759 51.297C81.0079 51.1813 81.008 51.0597 80.9763 50.944C80.9445 50.8283 80.882 50.7224 80.7947 50.6365C74.3084 44.1446 66.7753 38.2223 57.8574 35.0928Z" fill="#E6E6E6"/>
<path opacity="0.15" d="M183.75 204.419C183.659 204.941 183.59 205.469 183.543 206C182.922 203.475 182.832 200.783 183.282 198.198C183.352 197.802 183.404 197.402 183.445 197C184.061 199.393 184.167 201.955 183.75 204.419Z" fill="black"/>
<path opacity="0.15" d="M184 186.867C182.646 187.038 181.273 187.044 179.917 186.885C179.562 186.278 179.256 185.648 179 185C180.509 185.924 182.211 186.56 184 186.867Z" fill="black"/>
<path opacity="0.15" d="M180 181.176C179.711 182.083 179.52 183.032 179.429 184C179.189 183.079 179.046 182.122 179.006 181.156L179 181L179.125 181.03C179.414 181.097 179.706 181.145 180 181.176Z" fill="black"/>
</svg>
