<svg width="138" height="83" viewBox="0 0 138 83" fill="none" xmlns="http://www.w3.org/2000/svg">
<g clip-path="url(#clip0_322_13410)">
<path opacity="0.1" d="M137.998 53.2579C138.001 55.5046 137.723 57.7431 137.17 59.9239C136.984 60.658 136.768 61.3776 136.522 62.0826C136.221 62.9518 135.872 63.8046 135.477 64.6373C135.278 65.0577 135.067 65.4705 134.846 65.8757C134.849 68.1796 134.364 70.4591 133.42 72.5704C131.713 76.3578 128.67 79.4204 124.845 81.2004C122.451 82.3161 119.834 82.9023 117.182 82.9173H26.1955C22.147 82.9261 18.1684 81.8875 14.6641 79.9071C14.1462 79.6141 13.6416 79.302 13.1503 78.9708C12.0835 78.2509 11.0813 77.4437 10.1544 76.558C8.8995 75.359 7.794 74.0193 6.86083 72.5669C4.66841 69.1662 3.50699 65.2283 3.51106 61.2093C1.29077 57.4036 -0.00390625 52.8447 -0.00390625 47.946C-0.00390625 41.7653 2.05352 36.1271 5.43375 31.859C6.13846 30.9673 6.91039 30.1282 7.74309 29.3489C8.56469 28.5777 9.44778 27.8716 10.384 27.2372C11.1328 26.7286 11.9156 26.2698 12.7273 25.8637C13.0659 25.6943 13.4057 25.5363 13.7513 25.3887C14.0548 25.257 14.3618 25.1346 14.6723 25.019C15.0448 24.8801 15.4221 24.7531 15.8041 24.6378C16.186 24.5226 16.5629 24.4211 16.9347 24.3334C17.4815 24.2029 18.0376 24.0968 18.6032 24.0152C19.0718 23.9477 19.5405 23.9007 20.0092 23.8641C20.3817 23.8382 20.7575 23.8229 21.1363 23.8183H21.3413C21.7584 23.8183 22.1732 23.8343 22.5845 23.8618C22.6278 23.7771 22.6747 23.6913 22.718 23.6066C22.8821 23.3021 23.0519 22.9977 23.223 22.6989V22.6909C23.2523 22.6394 23.2816 22.5879 23.3121 22.5375C23.4503 22.2937 23.5944 22.0522 23.7421 21.813C23.81 21.6986 23.8768 21.591 23.9459 21.4822C23.9612 21.4559 23.9764 21.4307 23.994 21.4044C24.0643 21.29 24.1357 21.1755 24.2084 21.061C24.57 20.4971 24.9461 19.942 25.3367 19.3957C25.3707 19.3488 25.4023 19.303 25.4363 19.2572C25.4972 19.1725 25.5534 19.0889 25.6214 19.0054C25.7831 18.7845 25.9495 18.5624 26.117 18.3438C26.2342 18.1893 26.3513 18.0348 26.4779 17.886C26.7825 17.5014 27.0953 17.1191 27.4152 16.7414C27.7351 16.3637 28.0725 15.9837 28.4134 15.6117C28.4603 15.5602 28.5072 15.5098 28.5564 15.4583L29.0567 14.9261C29.0813 14.9009 29.1024 14.878 29.1258 14.8552C29.1856 14.7922 29.243 14.7292 29.3074 14.6674C29.5757 14.3905 29.8511 14.1169 30.1276 13.8468C31.54 12.4758 33.0446 11.1987 34.6314 10.0239C34.6935 9.97583 34.7568 9.93004 34.8189 9.88426C35.1165 9.6645 35.4188 9.44818 35.7211 9.23529C37.384 8.07045 39.1221 7.01144 40.9244 6.06481C41.0486 5.99614 41.1751 5.9309 41.3028 5.86566C42.9191 5.03094 44.581 4.28356 46.2812 3.62687C47.2076 3.269 48.1504 2.93478 49.1096 2.62422C49.7446 2.42163 50.382 2.2282 51.0276 2.05193C52.0258 1.77189 53.0366 1.51932 54.0598 1.29423C57.0744 0.633445 60.1412 0.225257 63.2269 0.0741077C64.1642 0.0260355 65.1121 0.00199977 66.0705 0.00199977C70.695 -0.00398109 75.3015 0.565252 79.7789 1.69597C79.8251 1.76431 79.8885 1.82003 79.9629 1.85787C80.0373 1.89571 80.1203 1.91444 80.2042 1.91229H80.5978C80.7689 1.95693 80.9388 2.00386 81.1099 2.05193C82.0651 2.32129 83.0068 2.61468 83.9347 2.93211L84.169 3.01452C86.4594 3.81009 88.6878 4.7664 90.8369 5.87596C92.774 6.87417 94.6393 7.99998 96.4199 9.24559C96.6941 9.43788 96.9643 9.63207 97.2307 9.82817C97.5541 9.62444 97.8829 9.43024 98.2172 9.24559C99.5083 8.52766 100.88 7.95698 102.304 7.54475C105.282 6.68382 108.433 6.56343 111.471 7.19451C115.367 8.00143 118.893 10.0044 121.742 12.8533C122.902 14.0151 123.936 15.2917 124.826 16.6624C124.89 16.7609 124.954 16.8604 125.017 16.9612C125.78 18.1785 126.436 19.457 126.978 20.7829C126.998 20.831 127.018 20.8779 127.035 20.926C127.535 22.1668 127.939 23.4428 128.242 24.7431C128.256 24.8084 128.273 24.8748 128.287 24.9411C128.57 26.1995 128.763 27.4758 128.863 28.7606C128.863 28.8064 128.863 28.8533 128.872 28.9002C128.922 29.5648 128.947 30.2367 128.947 30.9158C128.947 31.5224 128.926 32.1245 128.888 32.7208C128.888 32.7861 128.878 32.8547 128.872 32.9211C128.862 33.0951 128.847 33.2645 128.831 33.4396C129.726 34.1443 130.564 34.9158 131.336 35.7471C131.678 36.1111 132.008 36.4891 132.328 36.8813C133.301 38.0726 134.156 39.3515 134.882 40.7008C136.86 44.3611 137.998 48.6579 137.998 53.2579Z" fill="#D9B2EE"/>
<path opacity="0.1" d="M124.759 75.7868C124.759 78.3884 121.998 80.8229 117.182 82.9198H26.1956C21.9859 82.9198 18.0433 81.4318 14.6642 78.8371C13.8148 77.8528 13.3672 76.8329 13.3672 75.7856C13.3672 73.0204 16.4885 70.4393 21.8851 68.2578L22.0374 68.1983C23.5606 67.5882 25.263 67.0125 27.1236 66.4711C27.1705 66.4574 27.2185 66.4448 27.2654 66.4287C28.7417 66.0053 30.3121 65.6039 31.9766 65.2247C32.0293 65.2132 32.0809 65.2006 32.1336 65.1915C32.7757 65.0427 33.4306 64.9042 34.0996 64.7657L34.3574 64.713C39.2256 63.7264 44.7594 62.9435 50.7606 62.4124H50.7676C51.6081 62.3361 52.4575 62.2678 53.316 62.2076C54.2709 62.1332 55.2375 62.0702 56.2147 62.0118C56.961 61.9649 57.7167 61.9248 58.4748 61.8882C58.4776 61.8871 58.4805 61.8865 58.4836 61.8865C58.4866 61.8865 58.4896 61.8871 58.4923 61.8882C61.9124 61.72 65.4461 61.6318 69.0595 61.6318C77.9946 61.6318 86.4399 62.1675 93.9232 63.1198C93.9302 63.1186 93.9373 63.1186 93.9443 63.1198C95.0949 63.2663 96.2244 63.4208 97.3257 63.5856C97.6409 63.6337 97.9549 63.6818 98.263 63.731C99.5058 63.9271 100.716 64.1343 101.895 64.3525C115.756 66.9266 124.759 71.0917 124.759 75.7868Z" fill="#D9B2EE"/>
<path d="M102.108 27.8449C102.108 27.8449 100.868 27.3539 96.9247 29.12C92.9809 30.886 92.4888 30.6629 91.4683 30.3973C90.4478 30.1318 89.8784 30.0631 88.784 28.5877C88.784 28.5877 88.0119 24.5005 87.2609 23.8664C86.5099 23.2323 83.3394 24.2281 83.3394 24.2281C83.3394 24.2281 79.5326 25.0808 78.8074 20.1076C78.8074 20.1076 79.3217 16.3625 78.6211 15.2134C78.6211 15.2134 80.0365 15.8086 82.3704 14.8471C84.7043 13.8857 86.5731 15.883 86.5731 15.883C86.5731 15.883 87.159 17.3709 87.1004 18.2591C87.0418 19.1473 87.412 19.4804 88.5251 19.0511C88.5251 19.0511 89.0723 18.2911 88.2978 17.0344C87.5233 15.7777 86.9703 14.8425 87.1859 13.8674C87.4015 12.8922 88.0236 11.5382 90.0213 10.8617C92.019 10.1853 94.7314 10.0605 96.0331 9.52599C97.3348 8.99147 97.6558 8.65039 97.6558 8.65039C97.6558 8.65039 96.8544 9.43442 98.7419 12.7594C100.629 16.0844 99.4262 17.5266 99.4262 17.5266C99.4262 17.5266 98.4221 19.8649 93.9885 19.6749C93.9885 19.6749 89.7167 19.8272 92.0459 21.5967C92.0459 21.5967 93.5374 21.3002 95.7671 20.6078C97.9968 19.9153 99.6066 22.7733 100.006 24.7614C100.406 26.7496 102.108 27.8449 102.108 27.8449Z" fill="#D9B2EE"/>
<path d="M96.3689 11.169L96.3923 11.1621C96.5634 11.7962 94.6548 14.3463 93.0227 16.3734L93.0039 16.3585C95.305 13.5039 96.5013 11.66 96.3689 11.169Z" fill="#160635"/>
<path d="M93.0343 16.3193L93.0448 16.3445C91.7408 17.9629 90.1016 19.8927 88.7894 21.3269C88.664 21.4631 88.5398 21.6061 88.4203 21.7526L88.3828 21.7229C88.5 21.5764 88.6277 21.4322 88.7531 21.2959C90.0641 19.8675 91.7291 17.9389 93.0343 16.3193Z" fill="#160635"/>
<path d="M88.4166 21.6865L88.4424 21.73C86.0546 24.643 85.8964 29.1698 85.8905 29.2052L85.3867 28.6329C85.3926 28.5963 86.0124 24.6201 88.4166 21.6865Z" fill="#160635"/>
<path d="M99.3446 26.2662C99.3446 26.2662 96.5326 24.8354 94.3346 25.3505C92.1365 25.8656 87.1933 23.5306 87.1933 23.5306C87.1933 23.5306 85.0961 22.6985 84.6743 21.7497C84.6743 21.7497 83.2343 20.2617 83.1511 19.4937C83.0679 18.7257 81.6678 16.7902 80.7539 16.7158" stroke="#160635" stroke-miterlimit="10"/>
<path d="M98.9339 27.6424C98.9339 27.6424 97.5162 26.7084 97.6814 25.6211" stroke="#160635" stroke-miterlimit="10"/>
<path d="M96.7574 28.8476C96.7574 28.8476 94.7293 28.1288 94.5312 25.3086" stroke="#160635" stroke-miterlimit="10"/>
<path d="M93.488 29.5777C93.488 29.5777 91.5501 28.0074 92.1933 25.2627" stroke="#160635" stroke-miterlimit="10"/>
<path d="M89.5508 28.8115C89.5508 28.8115 88.262 26.1676 89.4091 24.4473" stroke="#160635" stroke-miterlimit="10"/>
<path d="M99.3716 24.5225C99.3716 24.5225 97.9059 24.9803 98.2199 25.7311" stroke="#160635" stroke-miterlimit="10"/>
<path d="M97.602 21.9277C97.602 21.9277 95.6394 22.5355 95.5938 25.247" stroke="#160635" stroke-miterlimit="10"/>
<path d="M94.8656 21.2959C94.8656 21.2959 93.0788 23.45 93.21 25.4072" stroke="#160635" stroke-miterlimit="10"/>
<path d="M91.7396 22.1406C91.7396 22.1406 89.9657 23.798 90.1918 24.7194" stroke="#160635" stroke-miterlimit="10"/>
<path d="M90.6703 21.5561C90.6703 21.5561 89.0066 21.8468 88.7734 21.3135" stroke="#160635" stroke-miterlimit="10"/>
<path d="M88.5078 19.5938C88.5078 19.5938 89.3479 20.6811 89.5623 20.4373" stroke="#160635" stroke-miterlimit="10"/>
<path d="M96.8389 18.9063C96.8389 18.9063 92.6444 19.2039 91.6953 17.9678" stroke="#160635" stroke-miterlimit="10"/>
<path d="M87.6289 14.1133C87.6289 14.1133 89.5961 18.2395 91.0267 18.7648" stroke="#160635" stroke-miterlimit="10"/>
<path d="M89.6875 12.1484C89.6875 12.1484 90.8955 15.9438 92.3929 17.1285" stroke="#160635" stroke-miterlimit="10"/>
<path d="M98.6037 15.7738C98.6037 15.7738 95.4145 17.1107 93.5 15.7578" stroke="#160635" stroke-width="0.75" stroke-miterlimit="10"/>
<path d="M92.5273 11.3389C92.5273 11.3389 93.2561 14.1282 94.238 14.8024" stroke="#160635" stroke-width="0.75" stroke-miterlimit="10"/>
<path d="M98.1245 12.6475C98.1245 12.6475 96.3319 13.3113 95.6641 12.8031" stroke="#160635" stroke-width="0.75" stroke-miterlimit="10"/>
<path d="M86.9702 20.5049C86.9702 20.5049 86.9702 22.9371 86.293 23.1099" stroke="#160635" stroke-miterlimit="10"/>
<path d="M81.4297 23.6564C81.4297 23.6564 84.1245 23.8853 85.3629 22.5244" stroke="#160635" stroke-miterlimit="10"/>
<path d="M86.2769 17.6318C86.2769 17.6318 85.6254 20.0984 83.8281 20.7634" stroke="#160635" stroke-miterlimit="10"/>
<path d="M79.8164 21.058C79.8164 21.058 81.7215 21.7047 83.3607 20.0576" stroke="#160635" stroke-miterlimit="10"/>
<path d="M84.1576 15.5117C84.1576 15.5117 83.9783 17.6063 82.8125 18.5872" stroke="#160635" stroke-miterlimit="10"/>
<path d="M79.8867 17.8654C79.8867 17.8654 81.4673 17.8757 81.8375 17.3721" stroke="#160635" stroke-miterlimit="10"/>
<path d="M91.3197 25.8193H46.3047V48.0172H91.3197V25.8193Z" fill="#33323D"/>
<path d="M105.484 54.7607H32.2812V69.3724H105.484V54.7607Z" fill="#33323D"/>
<path d="M49.7575 58.4131H87.2939L94.7725 82.9997H41.8477L49.7575 58.4131Z" fill="white"/>
<path d="M30.1953 46.0498V53.6372V55.235V69.3717H44.2177V55.8851H93.5468V69.3717H107.569V55.235V53.6372V46.0498H30.1953Z" fill="#3BEDBF"/>
<path opacity="0.1" d="M107.569 46.0498H30.1953V53.636H107.569V46.0498Z" fill="#33323D"/>
<path opacity="0.8" d="M103.401 50.9677C104.036 50.9677 104.551 50.4645 104.551 49.8437C104.551 49.2229 104.036 48.7197 103.401 48.7197C102.765 48.7197 102.25 49.2229 102.25 49.8437C102.25 50.4645 102.765 50.9677 103.401 50.9677Z" fill="#B900F4"/>
<path opacity="0.8" d="M98.2248 50.9677C98.8602 50.9677 99.3754 50.4645 99.3754 49.8437C99.3754 49.2229 98.8602 48.7197 98.2248 48.7197C97.5893 48.7197 97.0742 49.2229 97.0742 49.8437C97.0742 50.4645 97.5893 50.9677 98.2248 50.9677Z" fill="#B900F4"/>
<path d="M89.6684 20.4795H47.9609V44.6438H89.6684V20.4795Z" fill="white"/>
<path d="M96.0124 55.749C96.1003 56.6842 95.3773 57.5918 95.5882 58.5075C95.6328 58.7032 95.7195 58.8886 95.7511 59.0798C95.8378 59.6234 95.5062 60.1385 95.1887 60.594L92.467 64.5062C92.3578 64.6778 92.2271 64.8354 92.078 64.9755C91.5566 65.4333 90.7763 65.3806 90.0932 65.5157C89.6129 65.6108 89.1593 65.806 88.7633 66.088C88.7461 66.1013 88.7347 66.1206 88.7314 66.1418C88.7282 66.1631 88.7333 66.1847 88.7458 66.2024C88.8584 66.3533 89.0078 66.4743 89.1806 66.5543C89.3533 66.6342 89.5438 66.6707 89.7347 66.6603C89.8061 66.7518 89.7346 66.8892 89.6362 66.9533C89.4898 67.0517 89.2847 67.078 89.2601 67.3207C89.2498 67.405 89.2671 67.4903 89.3093 67.5645C89.4195 67.7284 89.5904 67.8441 89.7862 67.8873C90.7235 68.1688 91.7464 67.6744 92.4517 67.0014C93.1571 66.3283 93.6632 65.4791 94.3557 64.7935C94.7388 64.4146 95.1758 64.0896 95.5695 63.7222C96.3569 62.9896 96.9755 62.098 97.5613 61.2041C97.7548 60.9449 97.9007 60.6548 97.9925 60.3468C98.0651 60.0423 98.0323 59.7207 98.1167 59.4185C98.2268 59.0237 98.5232 58.7089 98.7693 58.377C99.2532 57.7269 99.5754 56.9325 99.511 56.1313C99.4465 55.3301 98.9404 54.5415 98.1671 54.2691C97.9273 54.1758 97.6632 54.1602 97.4137 54.2245C97.0962 54.3195 96.863 54.5759 96.6463 54.8208L96.1295 55.4034C96.0008 55.5323 95.8985 55.6843 95.8284 55.8509C95.7951 55.9349 95.7875 56.0265 95.8064 56.1147C95.8253 56.2029 95.87 56.2838 95.9351 56.3476" fill="#FF7A7A"/>
<path opacity="0.05" d="M96.0124 55.749C96.1003 56.6842 95.3773 57.5918 95.5882 58.5075C95.6328 58.7032 95.7195 58.8886 95.7511 59.0798C95.8378 59.6234 95.5062 60.1385 95.1887 60.594L92.467 64.5062C92.3578 64.6778 92.2271 64.8354 92.078 64.9755C91.5566 65.4333 90.7763 65.3806 90.0932 65.5157C89.6129 65.6108 89.1593 65.806 88.7633 66.088C88.7461 66.1013 88.7347 66.1206 88.7314 66.1418C88.7282 66.1631 88.7333 66.1847 88.7458 66.2024C88.8584 66.3533 89.0078 66.4743 89.1806 66.5543C89.3533 66.6342 89.5438 66.6707 89.7347 66.6603C89.8061 66.7518 89.7346 66.8892 89.6362 66.9533C89.4898 67.0517 89.2847 67.078 89.2601 67.3207C89.2498 67.405 89.2671 67.4903 89.3093 67.5645C89.4195 67.7284 89.5904 67.8441 89.7862 67.8873C90.7235 68.1688 91.7464 67.6744 92.4517 67.0014C93.1571 66.3283 93.6632 65.4791 94.3557 64.7935C94.7388 64.4146 95.1758 64.0896 95.5695 63.7222C96.3569 62.9896 96.9755 62.098 97.5613 61.2041C97.7548 60.9449 97.9007 60.6548 97.9925 60.3468C98.0651 60.0423 98.0323 59.7207 98.1167 59.4185C98.2268 59.0237 98.5232 58.7089 98.7693 58.377C99.2532 57.7269 99.5754 56.9325 99.511 56.1313C99.4465 55.3301 98.9404 54.5415 98.1671 54.2691C97.9273 54.1758 97.6632 54.1602 97.4137 54.2245C97.0962 54.3195 96.863 54.5759 96.6463 54.8208L96.1295 55.4034C96.0008 55.5323 95.8985 55.6843 95.8284 55.8509C95.7951 55.9349 95.7875 56.0265 95.8064 56.1147C95.8253 56.2029 95.87 56.2838 95.9351 56.3476" fill="black"/>
<path d="M98.0711 79.8184C97.4759 80.172 96.7354 80.1949 96.0441 80.1114C95.9269 80.0988 95.8016 80.0908 95.7301 80.1743C95.627 80.2968 95.7488 80.4754 95.8742 80.5738C96.2826 80.8725 96.762 81.065 97.2673 81.1335C97.7184 81.195 98.1734 81.2244 98.6288 81.2216C99.8707 81.2422 101.12 81.2628 102.35 81.0877C102.421 81.0825 102.49 81.0626 102.553 81.0293C102.632 80.9752 102.687 80.8932 102.706 80.8004C102.792 80.4891 102.629 80.1526 102.384 79.9363C102.139 79.7199 101.824 79.5986 101.516 79.4784L100.435 79.0675C100.181 78.9702 99.7747 78.715 99.4981 78.7345C98.9932 78.7745 98.4999 79.5734 98.0711 79.8184Z" fill="#160635"/>
<path opacity="0.05" d="M98.0711 79.8184C97.4759 80.172 96.7354 80.1949 96.0441 80.1114C95.9269 80.0988 95.8016 80.0908 95.7301 80.1743C95.627 80.2968 95.7488 80.4754 95.8742 80.5738C96.2826 80.8725 96.762 81.065 97.2673 81.1335C97.7184 81.195 98.1734 81.2244 98.6288 81.2216C99.8707 81.2422 101.12 81.2628 102.35 81.0877C102.421 81.0825 102.49 81.0626 102.553 81.0293C102.632 80.9752 102.687 80.8932 102.706 80.8004C102.792 80.4891 102.629 80.1526 102.384 79.9363C102.139 79.7199 101.824 79.5986 101.516 79.4784L100.435 79.0675C100.181 78.9702 99.7747 78.715 99.4981 78.7345C98.9932 78.7745 98.4999 79.5734 98.0711 79.8184Z" fill="black"/>
<path d="M98.8243 65.8024C98.3756 66.3872 97.9093 67.0614 98.0206 67.7859C98.0803 68.1762 98.3041 68.5207 98.4681 68.8813C98.6735 69.3773 98.8254 69.8928 98.9216 70.4196C99.0903 71.1853 99.259 71.9533 99.3621 72.7305C99.4793 73.6084 98.9286 76.1482 98.877 77.0329C98.8642 77.2458 98.8396 77.477 98.6872 77.6304C98.6275 77.6911 98.5478 77.7449 98.522 77.8193C98.5056 77.895 98.5181 77.974 98.5572 78.0413C98.8114 78.601 99.3305 79.0165 99.9069 79.2546C100.483 79.4926 101.886 79.9012 102.512 79.923C102.595 79.9328 102.679 79.9217 102.756 79.8909C102.841 79.8416 102.907 79.7675 102.946 79.6792C103.398 78.8356 102.964 75.8323 102.971 74.8788C102.971 74.0776 103.169 73.2947 103.134 72.5004C103.104 71.8629 102.93 71.2414 102.867 70.605C102.762 69.5623 102.958 68.5161 103.155 67.486C103.305 66.6974 103.455 65.9077 103.647 65.1271C103.764 64.6521 103.9 64.1713 104.168 63.7536C104.38 63.4251 104.669 63.1515 104.911 62.8379C105.583 61.9771 105.882 60.8925 105.742 59.8185C105.728 59.7132 104.181 60.202 104.046 60.2592C103.491 60.4897 102.981 60.811 102.536 61.2092C102.185 61.5411 101.898 61.9863 101.584 62.3595C101.141 62.886 100.704 63.4167 100.272 63.9516C99.7827 64.5658 99.3 65.1828 98.8243 65.8024Z" fill="#160635"/>
<path opacity="0.05" d="M98.8243 65.7647C98.3756 66.3496 97.9093 67.0237 98.0206 67.7494C98.0803 68.1385 98.3041 68.483 98.4681 68.8436C98.6733 69.3397 98.8253 69.8552 98.9216 70.3819C99.0903 71.1476 99.259 71.9156 99.3621 72.6928C99.4793 73.5707 98.9286 76.1116 98.877 76.9964C98.8642 77.2081 98.8396 77.4405 98.6872 77.5927C98.6275 77.6534 98.5478 77.7072 98.522 77.7816C98.5043 77.8595 98.5168 77.9411 98.5572 78.0105C98.8114 78.569 99.3305 78.9857 99.9069 79.2226C100.483 79.4595 101.886 79.6804 102.512 79.6999C102.595 79.7097 102.679 79.6986 102.756 79.6678C102.841 79.6185 102.907 79.5444 102.946 79.4561C103.398 78.6125 102.964 75.8003 102.971 74.848C102.971 74.0468 103.169 73.2628 103.134 72.4685C103.104 71.8309 102.93 71.2094 102.867 70.573C102.762 69.5303 102.958 68.4842 103.155 67.4552C103.305 66.6655 103.455 65.8757 103.647 65.0951C103.764 64.6201 103.9 64.1394 104.168 63.7216C104.38 63.3943 104.669 63.1196 104.911 62.8128C105.582 61.9517 105.881 60.8674 105.742 59.7934C105.728 59.687 104.181 60.1757 104.046 60.2341C103.491 60.4648 102.98 60.7869 102.536 61.1864C102.185 61.5194 101.898 61.9635 101.584 62.331C101.141 62.8575 100.704 63.3885 100.272 63.9242C99.7827 64.5346 99.3 65.1481 98.8243 65.7647Z" fill="black"/>
<path d="M93.8234 52.9256C95.2165 52.9256 96.3459 51.8223 96.3459 50.4613C96.3459 49.1004 95.2165 47.9971 93.8234 47.9971C92.4302 47.9971 91.3008 49.1004 91.3008 50.4613C91.3008 51.8223 92.4302 52.9256 93.8234 52.9256Z" fill="#FF7A7A"/>
<path d="M96.0931 50.3578C96.3261 50.7212 96.6315 51.0352 96.9912 51.281C97.3509 51.5267 97.7575 51.6993 98.1868 51.7885L97.997 52.4604C97.669 53.6198 97.294 54.8457 96.3836 55.6492C96.4832 55.2566 96.3544 54.8342 96.1271 54.4966C95.884 54.1681 95.5958 53.8739 95.2706 53.6221L93.8189 52.3883C93.7756 52.3571 93.7387 52.3182 93.7099 52.2738C93.6748 52.187 93.6748 52.0905 93.7099 52.0037C93.895 51.4417 94.4235 51.088 94.8511 50.7103C95.0662 50.5135 95.2587 50.2944 95.4252 50.0568C95.7228 49.6527 95.9021 50.0568 96.0931 50.3578Z" fill="#FF7A7A"/>
<path d="M90.4995 47.9836L90.4433 47.5257C90.8416 47.6265 91.2189 47.2968 91.4731 46.9534C91.7274 46.6101 91.9641 46.2072 92.3519 46.0653C92.8205 45.8913 93.322 46.1694 93.7719 46.3983C94.2763 46.6725 94.83 46.8494 95.4029 46.9191C95.4942 46.9221 95.5848 46.9368 95.6724 46.9626C95.9653 47.0645 96.1047 47.4204 96.1469 47.7489C96.1891 48.0774 96.1773 48.4208 96.3226 48.7115C96.4316 48.9313 96.6202 49.0949 96.735 49.3113C97.0432 49.895 96.7456 50.6916 97.0713 51.2639L96.2629 50.5394C96.1879 50.473 96.0836 50.4043 96.0028 50.4604C95.9219 50.5165 95.9336 50.6012 95.9067 50.6779C95.8282 50.9068 95.5411 50.9709 95.3314 50.8828C95.1217 50.7946 94.9705 50.6001 94.817 50.4249C94.4597 50.0129 94.0344 49.6512 93.5282 49.4749C93.3092 49.3929 93.0747 49.3575 92.8405 49.3711C92.6063 49.3847 92.3778 49.4471 92.1703 49.5539C91.793 49.7622 91.5165 50.2475 91.0549 50.2647C90.421 50.2876 90.1574 49.135 89.8633 48.6795C89.9704 48.6003 90.0456 48.487 90.076 48.3592C90.1064 48.2314 90.09 48.0973 90.0297 47.9801C90.0812 47.9607 90.4913 47.9092 90.4995 47.9836Z" fill="#160635"/>
<path d="M101.013 79.799C100.515 80.2333 99.8674 80.469 99.1995 80.4594C99.0296 80.4594 98.7941 80.4915 98.793 80.6575C98.796 80.7068 98.813 80.7544 98.8422 80.7948C99.0537 81.1382 99.3875 81.3933 99.7795 81.5113C100.143 81.6189 100.532 81.6006 100.911 81.5823L102.019 81.5262C102.227 81.5147 102.437 81.5044 102.645 81.4793C102.854 81.4541 103.079 81.4117 103.297 81.3808C103.831 81.3063 104.37 81.2814 104.909 81.3064C105.052 81.3122 105.217 81.3064 105.306 81.2011C105.395 81.0958 105.347 80.9058 105.314 80.7536C105.249 80.44 105.314 80.1115 105.253 79.7967C105.147 79.2439 104.661 78.8216 104.124 78.6213C103.626 78.4358 102.743 78.2241 102.27 78.532C101.764 78.8639 101.46 79.4041 101.013 79.799Z" fill="#160635"/>
<path d="M102.109 61.3007C102.208 61.7585 102.657 62.1019 102.671 62.5597C102.681 62.9306 102.409 63.2465 102.215 63.5612C102.029 63.891 101.872 64.2356 101.746 64.5913C101.376 65.5147 100.918 66.4019 100.378 67.241C100.118 67.6428 99.8271 68.08 99.8868 68.5527C99.9277 68.7733 100.007 68.9855 100.121 69.18L100.9 70.6919C101.071 70.9939 101.205 71.3148 101.299 71.6477C101.365 71.9349 101.372 72.2325 101.416 72.5255C101.539 73.4526 101.984 74.3866 101.722 75.2851C101.698 75.3629 101.616 75.4568 101.554 75.3996C101.811 75.8688 102.023 76.3427 101.998 76.8749C101.988 77.1542 101.9 77.4472 102.006 77.7059C102.067 77.8066 102.106 77.9177 102.123 78.0332C102.123 78.1088 102.087 78.1809 102.079 78.2622C102.058 78.4762 102.258 78.6547 102.468 78.72C102.678 78.7852 102.904 78.7829 103.115 78.8447C103.521 78.9592 103.81 79.3026 104.157 79.5406C104.51 79.7794 104.926 79.9119 105.355 79.9218C105.416 79.9281 105.477 79.9161 105.531 79.8874C105.561 79.8614 105.586 79.8292 105.603 79.7931C105.62 79.757 105.629 79.7177 105.629 79.678C105.648 79.4884 105.618 79.2973 105.544 79.1215C105.469 78.9456 105.351 78.7904 105.2 78.6696C105.135 78.6288 105.08 78.573 105.042 78.5071C105.022 78.4485 105.017 78.3861 105.027 78.3251C105.09 77.493 105.075 76.657 104.981 75.8276C104.939 75.565 104.925 75.2988 104.94 75.0333C104.964 74.8124 105.032 74.5926 105.006 74.3717C104.98 74.1508 104.866 73.9517 104.798 73.7388C104.681 73.3611 104.712 72.9559 104.699 72.5599C104.678 71.8731 104.517 71.2001 104.357 70.5317C104.295 70.2696 104.224 69.9937 104.033 69.7992C103.872 69.6343 103.61 69.4752 103.671 69.2555C103.705 69.1741 103.755 69.1005 103.819 69.0392C103.894 68.9469 103.95 68.8405 103.982 68.7266C104.014 68.6126 104.022 68.4935 104.005 68.3765C104.074 68.3943 104.146 68.388 104.211 68.3587C104.275 68.3294 104.327 68.279 104.357 68.2162C105.623 67.6336 106.647 66.4662 107.098 65.1705C107.124 65.075 107.163 64.9836 107.216 64.8992C107.333 64.739 107.537 64.6703 107.717 64.581C108.284 64.3029 108.677 63.7798 109.036 63.2682C109.246 62.9706 109.455 62.6639 109.545 62.3148C109.594 62.0891 109.618 61.8588 109.615 61.628L109.647 60.4354C109.653 60.3583 109.645 60.2808 109.623 60.2065C109.593 60.1353 109.549 60.071 109.492 60.0176C109.148 59.6602 108.697 59.4196 108.203 59.3309C107.87 59.2725 107.531 59.284 107.194 59.2565C106.542 59.2038 105.897 59.007 105.245 59.0527C104.218 59.126 103.306 59.8208 102.822 60.7078C102.652 61.0249 102.474 61.3007 102.109 61.3007Z" fill="#160635"/>
<path d="M96.4175 53.5454C96.4323 53.7293 96.4072 53.9142 96.3437 54.0879C96.264 54.255 96.0625 54.3844 95.8879 54.3168C95.9407 54.2024 95.8001 54.0662 95.67 54.0811C95.6057 54.095 95.5458 54.1241 95.4956 54.1658C95.4454 54.2075 95.4063 54.2605 95.3818 54.3203C95.2944 54.4904 95.2652 54.6833 95.2986 54.8708C95.3396 55.0997 95.4778 55.3287 95.4415 55.5576C95.4122 55.7521 95.2658 55.9467 95.3443 56.1299C95.3948 56.2121 95.458 56.2863 95.5317 56.3496C95.6347 56.473 95.6852 56.6303 95.6728 56.789C95.6604 56.9477 95.586 57.0957 95.465 57.2023L97.431 57.2401C97.3595 57.5617 97.506 57.8902 97.6747 58.1752C98.1468 58.9585 98.7982 59.6245 99.5777 60.1209C100.357 60.6173 101.244 60.9308 102.168 61.0366C102.118 61.0654 102.075 61.1046 102.043 61.1515C102.01 61.1983 101.989 61.2516 101.98 61.3075C101.971 61.3634 101.975 61.4205 101.991 61.4748C102.007 61.5291 102.036 61.5792 102.074 61.6215C102.234 61.776 102.504 61.7566 102.705 61.6559C102.905 61.5551 103.063 61.3892 103.246 61.261C103.568 61.0366 103.962 60.9326 104.357 60.968C104.603 60.9909 104.842 61.0687 105.089 61.0824C105.818 61.1202 106.443 60.6086 107.141 60.3957C107.651 60.2423 108.229 60.2423 108.664 59.931C108.849 59.7971 109 59.5773 108.946 59.3587C108.9 59.2332 108.828 59.1186 108.734 59.0222C108.487 58.7109 108.341 58.3355 108.166 57.9818C107.815 57.2808 107.333 56.6503 106.744 56.123C106.301 55.7433 105.831 55.3942 105.339 55.078C105.219 54.9906 105.091 54.9139 104.957 54.8491C104.778 54.7921 104.603 54.7229 104.434 54.6419C104.2 54.5 104.07 54.2493 103.893 54.0467C103.503 53.6026 102.904 53.3978 102.423 53.0487C102.101 52.8197 101.818 52.5061 101.432 52.3928C101.246 52.3379 101.047 52.3333 100.859 52.2784C100.435 52.1525 100.126 51.7839 99.7087 51.6351C99.3783 51.5206 99.0151 51.5481 98.6659 51.5058C98.2819 51.4592 97.9149 51.323 97.5962 51.1086C97.4904 51.0253 97.3718 50.9588 97.2447 50.9117C96.7186 50.7549 96.6753 51.7129 96.6261 52.046C96.5476 52.5553 96.4175 53.0452 96.4175 53.5454Z" fill="#D9B2EE"/>
<path d="M96.9304 56.7615C97.0182 57.6967 96.2953 58.6032 96.5062 59.52C96.5507 59.7157 96.6374 59.9011 96.6691 60.0922C96.757 60.6359 96.4242 61.151 96.1067 61.6054L93.3849 65.5084C93.2757 65.68 93.1451 65.8376 92.9959 65.9777C92.4745 66.4355 91.6942 66.3828 91.0111 66.5179C90.531 66.6133 90.0774 66.8084 89.6813 67.0902C89.6641 67.1035 89.6527 67.1228 89.6494 67.144C89.6461 67.1653 89.6513 67.1869 89.6637 67.2046C89.7761 67.3558 89.9256 67.4769 90.0983 67.5569C90.2711 67.6369 90.4617 67.6732 90.6526 67.6625C90.7241 67.7552 90.6526 67.8914 90.5542 67.9555C90.4077 68.0551 90.2027 68.0814 90.1781 68.324C90.1678 68.4083 90.185 68.4937 90.2273 68.5678C90.3378 68.7314 90.5086 68.847 90.7042 68.8906C91.6415 69.1722 92.6644 68.6777 93.3697 68.0047C94.075 67.3317 94.5812 66.4824 95.2748 65.7968C95.6579 65.418 96.095 65.0929 96.4875 64.7255C97.276 63.993 97.8876 63.1013 98.4793 62.2074C98.6725 61.9481 98.8184 61.658 98.9105 61.3501C98.9831 61.0457 98.9503 60.7241 99.0347 60.4219C99.1448 60.027 99.4412 59.7111 99.6873 59.3803C100.171 58.7302 100.493 57.9359 100.429 57.1347C100.364 56.3335 99.8583 55.5449 99.085 55.2724C98.8454 55.1786 98.5811 55.163 98.3317 55.2278C98.0153 55.3228 97.781 55.5792 97.5642 55.8241L97.0475 56.4067C96.9187 56.5354 96.8168 56.6874 96.7476 56.8542C96.7141 56.938 96.7062 57.0294 96.7249 57.1173C96.7437 57.2053 96.7882 57.2861 96.853 57.3498" fill="#FF7A7A"/>
<path d="M98.3079 52.919C97.9494 52.9396 97.5557 52.974 97.3026 53.2235C97.1972 53.3381 97.1117 53.4688 97.0496 53.6103C96.8047 54.0991 96.5657 54.6096 96.5481 55.1532C96.5329 55.5882 96.6652 56.0128 96.7297 56.4432C96.7859 56.8003 96.643 57.1643 96.6125 57.5259C97.0566 57.3932 97.6424 57.2123 98.0455 56.988C98.3095 56.8192 98.5901 56.6766 98.8832 56.5622C99.3108 56.4237 100.029 56.6618 100.432 56.8575C100.454 56.5782 100.241 56.0941 100.263 55.8148C100.267 55.6979 100.288 55.5822 100.327 55.4714C100.387 55.3541 100.459 55.2426 100.541 55.1384C100.696 54.8927 100.768 54.6052 100.746 54.3172C100.723 54.0292 100.608 53.7557 100.416 53.5359C100.056 53.1399 99.4913 52.9911 98.9535 52.9305C98.6145 52.8918 98.2728 52.8799 97.9318 52.895" fill="#D9B2EE"/>
<path d="M45.2278 44.9123L42.9173 41.6388C42.9173 41.6388 42.874 40.8284 42.7228 40.6396C42.5717 40.4507 42.69 40.0295 42.69 40.0295C42.69 40.0295 42.8529 39.8006 42.7123 39.7766C42.5717 39.7525 42.69 39.2398 42.69 39.2398L42.6795 38.4191C42.6795 38.4191 42.8095 37.6293 42.7017 37.4405C42.6699 37.3892 42.654 37.3301 42.6558 37.2701C42.6577 37.2102 42.6773 37.1521 42.7123 37.1028C42.7123 37.1028 42.8412 36.6507 42.7123 36.5305C42.5834 36.4104 42.615 35.7099 42.6467 35.1513C42.6783 34.5928 42.4205 34.278 42.4205 34.1945C42.4205 34.1109 41.5676 33.2891 41.5676 33.2147C41.5676 33.1403 41.0274 32.8359 40.7029 32.7569C40.3784 32.6779 40.2178 32.6092 40.2284 32.5669C40.2389 32.5245 39.7211 32.3574 39.7211 32.3574C39.7211 32.3574 39.2676 32.3254 39.0942 32.1045C38.9208 31.8836 38.3912 31.8195 38.3783 31.8172L38.3678 31.7737C38.3678 31.7577 38.3619 31.7417 38.3584 31.7256C38.4012 31.659 38.4403 31.5903 38.4756 31.5196L38.506 31.4555C38.6958 31.4567 38.8813 31.4003 39.0368 31.2941C39.1134 31.2321 39.176 31.1552 39.2205 31.0683C39.2651 30.9814 39.2907 30.8864 39.2957 30.7894C39.305 30.5948 39.2613 30.4013 39.1692 30.2285C39.0743 30.0397 38.9349 29.8428 38.9841 29.6368C39.0052 29.5486 39.0591 29.4708 39.0872 29.3838C39.1292 29.214 39.1014 29.0349 39.0099 28.8848C38.9278 28.7326 38.8142 28.5975 38.7228 28.4499C38.6069 28.2608 38.5293 28.0518 38.4943 27.8341C38.4878 27.7183 38.4596 27.6046 38.4111 27.4987C38.3621 27.4241 38.2974 27.3605 38.2213 27.3121C37.8832 27.0765 37.4753 26.9559 37.0602 26.9688C36.7661 26.9779 36.4744 27.0558 36.1815 27.0203C36.007 26.991 35.8353 26.9473 35.6683 26.8898C35.3063 26.7845 34.888 26.7421 34.5728 26.9447C34.2576 27.1473 34.1323 27.5456 33.9178 27.8604C33.7292 28.1351 33.4492 28.3663 33.3086 28.6616C33.3086 28.6616 33.3086 28.6502 33.3086 28.6456C33.2732 28.7128 33.246 28.7839 33.2277 28.8573C33.1875 29.0905 33.204 29.3297 33.2758 29.5555C33.2916 29.6771 33.354 29.7883 33.4503 29.8668C33.557 29.9344 33.7034 29.9183 33.8276 29.9401L33.8136 29.9996C33.6871 30.5913 33.7929 31.2077 34.11 31.7267C34.4271 32.2457 34.9323 32.6294 35.5254 32.8015C35.5254 32.8233 35.5254 32.8439 35.5254 32.8656C35.5251 32.9261 35.5212 32.9865 35.5136 33.0465C35.5136 33.0465 34.4275 32.8279 34.1358 32.9755C33.844 33.1232 33.2723 33.2388 33.1856 33.3189C33.0989 33.399 32.8833 33.3406 32.6888 33.8351C32.4943 34.3295 32.4732 34.8343 32.2201 35.0666C31.967 35.299 31.8428 35.4558 31.8311 35.624C31.8194 35.7923 31.8639 35.8346 31.7667 35.8873C31.6694 35.9399 31.5323 36.1609 31.5722 36.2456C31.5871 36.3034 31.5839 36.3644 31.563 36.4205C31.5421 36.4766 31.5045 36.5253 31.455 36.5603C31.4038 36.5955 31.3629 36.6432 31.3363 36.6986C31.3098 36.754 31.2986 36.8152 31.3039 36.8762C31.3039 36.8762 31.2383 37.1051 31.0871 37.1612C30.936 37.2173 30.8387 37.5607 30.8387 37.5607L30.349 38.1101L29.3788 37.0616C29.306 36.9833 29.2043 36.9363 29.0961 36.9309C28.9878 36.9255 28.8818 36.9623 28.8012 37.033L28.3244 37.4519C28.1406 37.4955 27.9745 37.592 27.8475 37.7289C27.7442 37.8336 27.6605 37.9553 27.6003 38.0883L27.3402 38.3172C27.258 38.4167 27.2077 38.5376 27.1956 38.6649C27.1835 38.7921 27.2102 38.9201 27.2722 39.0326L27.8944 39.7045V39.7102C27.674 39.7291 27.4645 39.8125 27.2933 39.9494C26.3653 40.7506 26.356 41.4866 26.4942 41.8231C26.6325 42.1596 27.8112 43.4541 27.8112 43.4541C27.8112 43.4541 28.4954 44.3228 29.4831 44.7841L29.4761 44.7921C29.4558 44.8128 29.4366 44.8346 29.4187 44.8573L29.4023 44.8779L29.387 44.8985L29.3695 44.9237C29.3647 44.9303 29.3604 44.9372 29.3566 44.9443L29.3378 44.9741C29.3335 44.9807 29.3296 44.9876 29.3261 44.9947C29.3179 45.0084 29.3109 45.0222 29.3039 45.0359C29.3013 45.0404 29.2989 45.0449 29.2968 45.0496C29.2875 45.0679 29.2781 45.0863 29.2699 45.1069L29.2605 45.1275C29.2546 45.1412 29.25 45.1549 29.2441 45.1698C29.2405 45.1788 29.2373 45.188 29.2347 45.1973L29.2207 45.2385C29.2169 45.2482 29.2137 45.2581 29.2113 45.2682C29.2113 45.2831 29.2019 45.298 29.1984 45.314C29.1949 45.33 29.1925 45.3323 29.1902 45.3426C29.1879 45.3529 29.1785 45.3919 29.1738 45.4182C29.1738 45.4273 29.1738 45.4376 29.1679 45.4479C29.1621 45.4582 29.1621 45.4834 29.1586 45.5017C29.1551 45.52 29.1586 45.5269 29.1586 45.5406L29.1515 45.5922V45.6334C29.1515 45.6528 29.1515 45.6723 29.1457 45.6929C29.1398 45.7135 29.1457 45.7169 29.1457 45.7295C29.1457 45.7627 29.1457 45.7959 29.1457 45.8314C29.1246 47.0629 29.1984 47.2415 29.1984 47.2415C29.2466 47.3552 29.3252 47.4543 29.426 47.5282C29.5268 47.6021 29.6461 47.6481 29.7713 47.6615C29.8328 47.6663 29.8946 47.6632 29.9553 47.6524C30.5177 47.5574 31.8299 47.3365 32.2986 47.4235C32.5786 47.4738 33.0953 47.3983 33.4632 47.3308L33.5605 47.3124L33.6273 47.5219L33.8405 47.4647L34.0221 47.5665L34.1393 47.6318C34.3525 48.3368 35.2172 48.0965 35.2172 48.0965L35.4222 48.2109L37.5066 48.2636C37.7406 48.4013 37.9878 48.5163 38.2448 48.607C38.2787 48.6178 38.3136 48.6254 38.349 48.6299C38.5439 48.6453 38.7396 48.6488 38.9349 48.6402C39.0942 48.6402 39.2172 48.6299 39.2172 48.6299C39.2172 48.6299 39.1962 48.077 39.1657 47.4578C39.8118 47.4422 40.4565 47.3906 41.0966 47.3033C42.2096 47.1133 42.6736 46.1244 42.8447 45.5956C42.8959 45.8116 42.9323 46.0307 42.9537 46.2514C42.9991 46.4455 43.0571 46.6367 43.1271 46.8237C43.1867 46.9732 43.2655 47.1147 43.3614 47.2449C44.1815 46.9714 43.6848 46.5582 43.5125 46.3819C43.3403 46.2056 43.6297 46.0557 43.6297 46.0557C43.6297 46.0557 43.857 45.9081 43.8347 45.7719C43.8125 45.6356 43.8019 45.488 44.5377 45.4983C45.2735 45.5086 45.2278 44.9123 45.2278 44.9123ZM33.8253 38.1925C33.8346 38.252 33.9424 38.901 34.0291 39.0715C34.055 39.1841 34.0633 39.2999 34.0538 39.4149C33.6191 39.3805 33.1656 39.3622 33.1656 39.3622C33.1784 39.3777 33.1865 39.3963 33.1891 39.416L33.1199 39.4011L33.0215 39.3783L33.8229 38.1867L33.8253 38.1925ZM32.2365 40.6602L32.9899 40.7746L33.0532 40.7838C33.0319 40.8972 33.0189 41.0119 33.0145 41.1272C33.0145 41.1386 33.0309 41.1512 33.0555 41.1661C33.045 41.2239 33.0403 41.2825 33.0414 41.3412C33.0532 41.3984 33.4047 41.5243 33.8089 41.6285C33.803 41.6502 33.7983 41.6708 33.7925 41.6892C33.4351 41.506 32.8739 41.4202 32.8095 41.284C32.745 41.1478 30.8329 40.4954 30.8329 40.4954L30.6431 40.4026L31.1457 40.4954L31.284 40.4816C31.5972 40.5612 31.9154 40.6209 32.2365 40.6602V40.6602Z" fill="url(#paint0_linear_322_13410)"/>
<path d="M42.7672 45.37C42.7672 45.37 42.4685 47.1372 40.9488 47.3982C39.4292 47.6591 34.3559 47.6076 34.3559 47.6076C34.3559 47.6076 31.4549 47.199 30.4062 44.8057C29.3576 42.4124 28.6827 41.459 29.5861 41.4178C30.4894 41.3765 35.3342 43.0202 35.6119 43.0385C35.8896 43.0568 43.0355 39.3999 42.7672 45.37Z" fill="#65617D"/>
<path opacity="0.05" d="M42.7672 45.37C42.7672 45.37 42.4685 47.1372 40.9488 47.3982C39.4292 47.6591 34.3559 47.6076 34.3559 47.6076C34.3559 47.6076 31.4549 47.199 30.4062 44.8057C29.3576 42.4124 28.6827 41.459 29.5861 41.4178C30.4894 41.3765 35.3342 43.0202 35.6119 43.0385C35.8896 43.0568 43.0355 39.3999 42.7672 45.37Z" fill="black"/>
<path d="M29.1636 47.3368C29.2107 47.45 29.2883 47.5486 29.3881 47.6222C29.488 47.6957 29.6064 47.7415 29.7307 47.7546C29.7922 47.7583 29.854 47.7549 29.9146 47.7443C30.4712 47.6505 31.7764 47.4307 32.2369 47.5154C32.5134 47.5646 33.0254 47.4902 33.3898 47.4238C33.6323 47.3792 33.8104 47.3368 33.8104 47.3368C33.8104 47.3368 33.3816 45.9462 33.3288 45.905C33.2761 45.8638 31.4015 44.7604 31.4015 44.7604L29.9182 44.6562C29.7185 44.6854 29.538 44.7887 29.4143 44.9447C29.2585 45.1301 29.1238 45.4334 29.1144 45.9313C29.0898 47.1571 29.1636 47.3368 29.1636 47.3368Z" fill="#160635"/>
<path opacity="0.05" d="M29.1635 47.3378C29.2106 47.451 29.2881 47.5496 29.388 47.6231C29.4878 47.6967 29.6062 47.7424 29.7305 47.7556C29.5853 47.5724 29.4507 47.3813 29.3275 47.1833L29.3357 46.1692C29.3062 45.891 29.3439 45.61 29.4456 45.3486C29.5473 45.0873 29.7103 44.8528 29.9215 44.6641V44.6641C29.9215 44.6641 29.14 44.7156 29.1178 45.9391C29.0955 47.1627 29.1635 47.3378 29.1635 47.3378Z" fill="black"/>
<path opacity="0.1" d="M35.5983 45.1192L36.9797 44.0628L39.1519 41.9716L38.5661 41.9453C38.4782 42.0003 38.2322 42.1742 38.2228 42.3825C38.2122 42.6378 37.637 42.4009 37.3358 42.5462C37.0347 42.6916 35.5702 44.5263 35.3136 44.5137C35.057 44.5011 34.8531 44.3867 34.7453 44.5652L34.7383 44.5767L35.5983 45.1192Z" fill="black"/>
<path opacity="0.1" d="M29.4102 44.9473C29.4594 44.9702 29.5098 44.9931 29.5601 45.0137C30.6088 45.4532 31.9034 46.3734 32.0007 46.5406C32.0593 46.6424 32.8103 47.0877 33.3891 47.4219C33.6316 47.3772 33.8097 47.3349 33.8097 47.3349C33.8097 47.3349 33.3809 45.9442 33.3282 45.903C33.2755 45.8618 31.4008 44.7585 31.4008 44.7585L29.9175 44.6543C29.7158 44.6838 29.5338 44.7889 29.4102 44.9473V44.9473Z" fill="black"/>
<path d="M26.5018 41.9512C26.6401 42.2854 27.807 43.5719 27.807 43.5719C27.807 43.5719 28.5452 44.5128 29.595 44.9454C30.6448 45.3781 31.9383 46.3052 32.0344 46.4723C32.0965 46.5799 32.933 47.0721 33.5212 47.4097L33.6536 47.4852L33.9453 47.6512L34.1 47.737C34.1 47.737 34.4585 47.4566 34.8159 47.1739C35.1732 46.8912 35.5189 46.6142 35.5189 46.6016C35.5189 46.589 35.6688 46.2148 35.636 46.1942C35.6032 46.1736 35.5458 46.0385 35.4099 45.8702C35.2665 45.6837 35.0797 45.5331 34.8651 45.4307C34.5545 45.2748 34.3069 45.0212 34.1621 44.7108C34.1621 44.7108 34.1152 44.6776 34.0449 44.633C33.8992 44.5351 33.7364 44.4641 33.5646 44.4235C33.3302 44.3949 32.8897 43.9245 32.8897 43.9245C32.7184 43.8155 32.5755 43.6689 32.4726 43.4964C32.3554 43.2675 30.6999 42.1527 30.5464 42.0497L34.5698 44.5746L35.5329 45.1789L36.9143 44.1236L39.0866 42.0325L38.3695 42.0004C37.315 41.9558 35.4404 41.886 35.206 41.9386C35.0141 41.9818 34.8163 41.9946 34.6202 41.9764C34.6202 41.9764 34.0859 41.9993 33.7321 41.8173C33.3783 41.6353 32.8217 41.5495 32.7573 41.4144C32.6928 41.2794 30.7994 40.6315 30.7994 40.6315C30.7994 40.6315 28.2218 39.2935 27.2997 40.0879C26.3776 40.8822 26.3624 41.6147 26.5018 41.9512Z" fill="#65617D"/>
<path d="M34.8164 34.277L35.148 35.354L35.5768 37.7794L37.1503 37.8835L37.6003 37.151L38.0549 36.4139C38.0549 36.4139 38.3384 35.4341 38.5423 34.4864C38.7215 33.6475 38.8399 32.8325 38.6442 32.7444C38.4696 32.6665 38.356 32.3838 38.281 32.0794C38.2716 32.0428 38.2634 32.0038 38.2564 31.9649C38.2039 31.7076 38.1687 31.4473 38.1509 31.1855C38.1509 31.1855 34.8551 31.0184 35.3155 32.3461C35.3977 32.5729 35.4397 32.8117 35.4397 33.0523C35.4397 33.1141 35.4397 33.1747 35.428 33.232C35.4052 33.4379 35.339 33.637 35.2338 33.8168C35.1286 33.9966 34.9865 34.1533 34.8164 34.277V34.277Z" fill="#FF7A7A"/>
<path d="M34.1328 34.0992L34.25 35.9305L34.5171 37.4883L34.8171 38.2105L35.0854 42.157C35.0854 42.157 37.663 42.4489 38.2934 42.1513C38.3398 42.1339 38.3804 42.1042 38.4105 42.0654C39.1686 40.9472 38.9202 37.708 38.9202 37.708L39.2084 35.6169L39.0163 34.5319L38.5476 34.4838L38.1891 34.446C38.1891 34.446 38.1082 34.5433 37.9911 34.6944C37.6736 35.103 37.0901 35.9088 37.1299 36.2441C37.1826 36.702 37.0655 37.1747 36.8827 37.2479C36.6999 37.3212 36.5511 37.4471 36.5195 37.3212C36.4739 37.2156 36.4625 37.099 36.4867 36.987C36.5195 36.8084 36.3472 36.2647 36.3472 36.2647C36.3472 36.2647 36.059 35.6272 36.0801 35.3559C36.1012 35.0847 36.0485 34.7699 35.9629 34.6967C35.8774 34.6234 35.7591 34.5502 35.8551 34.2159C35.9512 33.8817 35.4334 33.2305 35.4334 33.2305L34.1328 34.0992Z" fill="#E3E8F4"/>
<path opacity="0.1" d="M37.5399 38.668L37.6477 41.7939L38.2651 42.1292C38.3115 42.1111 38.352 42.081 38.3823 42.0422C39.1403 40.924 38.892 37.6849 38.892 37.6849L39.1814 35.5937L38.988 34.5087L38.5194 34.4606C38.6998 33.6216 38.817 32.8078 38.6213 32.7185C38.4467 32.6407 38.3331 32.358 38.2593 32.0547L37.9253 34.266C37.9253 34.266 37.9535 34.4652 37.9628 34.6712C37.9767 34.8015 37.9676 34.9331 37.9359 35.0603C37.8926 35.2315 37.8854 35.4095 37.9148 35.5834C37.7215 35.9153 37.6254 36.5311 37.5785 37.1252C37.5153 37.9149 37.5399 38.668 37.5399 38.668Z" fill="black"/>
<path d="M38.2675 32C38.2675 32 38.8076 32.0652 38.9786 32.285C39.1497 32.5048 39.5996 32.5368 39.5996 32.5368C39.5996 32.5368 40.1128 32.7039 40.1023 32.7451C40.0917 32.7863 40.2522 32.8504 40.5709 32.934C40.8896 33.0175 41.4274 33.3208 41.4274 33.3918C41.4274 33.4628 42.2722 34.28 42.2722 34.3635C42.2722 34.4471 42.5288 34.7607 42.4971 35.3147C42.4655 35.8687 42.4327 36.5737 42.5616 36.6882C42.6905 36.8026 42.5616 37.2525 42.5616 37.2525C42.5269 37.3014 42.5075 37.3591 42.5057 37.4186C42.5038 37.4781 42.5195 37.5369 42.551 37.5878C42.6576 37.7755 42.5288 38.5596 42.5288 38.5596L42.5405 39.3756C42.5405 39.3756 42.4233 39.8873 42.5616 39.909C42.6998 39.9308 42.5405 40.1597 42.5405 40.1597C42.5405 40.1597 42.4233 40.5774 42.5721 40.7663C42.7209 40.9552 42.7643 41.7586 42.7643 41.7586L45.0549 45.0104C45.0549 45.0104 45.0877 45.6067 44.3601 45.5964C43.6325 45.5861 43.6418 45.7326 43.6641 45.8677C43.6864 46.0027 43.4602 46.1504 43.4602 46.1504C43.4602 46.1504 43.172 46.2969 43.3431 46.4743C43.5141 46.6517 44.0062 47.0603 43.1931 47.3316C43.0973 47.2025 43.0186 47.0622 42.9588 46.9138C42.8898 46.7294 42.8327 46.5409 42.7877 46.3495C42.7877 46.3495 42.7127 45.5541 42.5627 45.4499C42.4128 45.3457 42.4339 44.8433 42.4339 44.8433C42.4339 44.8433 42.6483 44.4358 42.3483 44.271C42.0484 44.1062 37.7039 41.7529 37.7039 41.7529L37.5984 38.6259C37.5984 38.6259 37.5235 36.315 37.9734 35.5413C37.944 35.3674 37.9512 35.1894 37.9945 35.0182C38.0694 34.8305 37.9839 34.2239 37.9839 34.2239L38.2675 32Z" fill="#160635"/>
<path opacity="0.1" d="M35.4629 33.2594C35.4629 33.2594 34.3873 33.0431 34.0979 33.1896C33.8086 33.3361 33.2426 33.4505 33.1606 33.5329C33.0786 33.6154 32.8619 33.5547 32.6685 34.0457C32.4752 34.5367 32.4553 35.0392 32.2081 35.2693C31.9608 35.4993 31.8343 35.6561 31.8238 35.8232C31.8132 35.9903 31.8554 36.0327 31.7593 36.0842C31.6632 36.1357 31.525 36.3566 31.566 36.4402C31.607 36.5237 33.7921 38.3642 33.7921 38.3642C33.7921 38.3642 33.8999 39.0647 33.996 39.2421C34.0921 39.4195 33.8894 41.8666 33.675 42.0337C33.4606 42.2008 35.1149 42.1871 35.1149 42.1871C35.1149 42.1871 35.1899 40.5847 35.2544 40.4977C35.3188 40.4107 35.211 38.6996 35.211 38.6996C35.211 38.6996 35.2005 37.2356 35.3399 36.8488C35.4793 36.4619 35.4571 35.1754 35.4571 35.1754C35.4571 35.1754 35.5801 34.404 35.7301 34.2243C35.88 34.0446 35.4629 33.2594 35.4629 33.2594Z" fill="black"/>
<path d="M35.4321 33.2286C35.4321 33.2286 34.3565 33.0123 34.0671 33.1577C33.7777 33.303 33.2107 33.4198 33.1298 33.501C33.049 33.5823 32.8299 33.5216 32.6377 34.0138C32.4456 34.506 32.4233 35.0061 32.1773 35.2362C31.9312 35.4663 31.8023 35.6231 31.7918 35.7902C31.7812 35.9573 31.8246 35.9996 31.7273 36.0523C31.6301 36.1049 31.493 36.3236 31.5352 36.4071C31.5774 36.4907 33.7613 38.3311 33.7613 38.3311C33.7613 38.3311 33.868 39.0316 33.9652 39.209C34.0625 39.3864 33.8574 41.8335 33.643 42.0006C33.4286 42.1678 35.0888 42.1529 35.0888 42.1529C35.0888 42.1529 35.1638 40.5505 35.2271 40.4646C35.2903 40.3788 35.1849 38.6654 35.1849 38.6654C35.1849 38.6654 35.1744 37.2026 35.3138 36.8157C35.4532 36.4289 35.4368 35.1424 35.4368 35.1424C35.4368 35.1424 35.5598 34.3709 35.7098 34.1912C35.8598 34.0115 35.4321 33.2286 35.4321 33.2286Z" fill="#160635"/>
<path opacity="0.1" d="M35.3215 32.3433C35.4037 32.5701 35.4457 32.8089 35.4457 33.0495C35.9714 33.1999 36.5335 33.1746 37.0429 32.9776C37.5523 32.7807 37.9798 32.4233 38.2577 31.9621C38.2052 31.7048 38.17 31.4444 38.1522 31.1827C38.1522 31.1827 34.8611 31.0144 35.3215 32.3433Z" fill="black"/>
<path d="M33.6914 30.6909C33.691 31.3045 33.9316 31.8949 34.3638 32.3404C34.7959 32.7858 35.3865 33.0522 36.0137 33.0847C36.641 33.1172 37.2572 32.9133 37.7351 32.5151C38.213 32.1169 38.5163 31.5547 38.5824 30.9444C38.6484 30.3342 38.4722 29.7224 38.0901 29.2353C37.708 28.7482 37.1492 28.423 36.5288 28.3266C35.9084 28.2302 35.2738 28.3701 34.7559 28.7174C34.238 29.0646 33.8763 29.5928 33.7453 30.193C33.7094 30.3566 33.6913 30.5235 33.6914 30.6909V30.6909Z" fill="#FF7A7A"/>
<path d="M32.1203 36.2354L31.5345 36.4128C31.5494 36.4705 31.5463 36.5313 31.5254 36.5872C31.5045 36.6432 31.4668 36.6916 31.4173 36.7264C31.3663 36.7611 31.3257 36.8085 31.2996 36.8636C31.2734 36.9186 31.2627 36.9795 31.2685 37.04C31.2685 37.04 31.2041 37.2689 31.0541 37.3227C30.9041 37.3765 30.808 37.7199 30.808 37.7199L30.316 38.2738C30.316 38.2738 30.1332 38.4203 30.166 38.4936C30.1988 38.5669 29.9727 38.5875 29.9727 38.5875L30.0898 40.4485L31.1068 40.6374L31.7383 40.5744L32.2515 40.3867L32.7014 40.1246L32.9041 39.613L33.804 38.2738L32.1203 36.2354Z" fill="#160635"/>
<path d="M30.1167 38.7297C30.1167 38.7297 28.8115 36.8904 27.8366 37.8827C26.8618 38.8751 28.2327 40.4866 28.5537 40.434C28.8747 40.3813 30.4061 40.2978 30.4061 40.2978L30.1167 38.7297Z" fill="#FF7A7A"/>
<path d="M33.1921 37.9345L27.4263 35.0596C27.3376 35.0154 27.2289 35.0498 27.1836 35.1365L24.9353 39.4396C24.89 39.5263 24.9252 39.6325 25.014 39.6768L30.7798 42.5516C30.8685 42.5959 30.9772 42.5615 31.0225 42.4748L33.2708 38.1716C33.3161 38.0849 33.2809 37.9787 33.1921 37.9345Z" fill="#160635"/>
<path d="M32.6557 38.1909L27.5391 35.6396L25.5709 39.4066L30.6876 41.9578L32.6557 38.1909Z" fill="#D9B2EE"/>
<path d="M26.3594 37.5142C26.4111 37.5142 26.4531 37.4732 26.4531 37.4226C26.4531 37.372 26.4111 37.3311 26.3594 37.3311C26.3076 37.3311 26.2656 37.372 26.2656 37.4226C26.2656 37.4732 26.3076 37.5142 26.3594 37.5142Z" fill="#E6E8EC"/>
<path d="M31.898 40.3474C31.9841 40.3474 32.0538 40.2793 32.0538 40.1952C32.0538 40.1111 31.9841 40.043 31.898 40.043C31.812 40.043 31.7422 40.1111 31.7422 40.1952C31.7422 40.2793 31.812 40.3474 31.898 40.3474Z" fill="#E6E8EC"/>
<path d="M29.2735 39.1171C29.2618 40.4974 32.1839 40.7904 32.1839 40.7904L32.9302 40.9049L33.2653 40.9564L33.4047 39.6081C33.4047 39.6081 33.2512 39.5852 33.0603 39.5417C32.7767 39.4776 32.41 39.3666 32.3338 39.2098C32.2108 38.9499 29.2817 37.7367 29.2735 39.1171Z" fill="#FF7A7A"/>
<path opacity="0.1" d="M33.7461 30.1932C33.8133 30.1981 33.8766 30.2256 33.9254 30.2711C34.0074 30.3569 34.0121 30.5091 34.1199 30.5618C34.1602 30.5784 34.2045 30.5832 34.2476 30.5755C34.5323 30.5366 34.6963 30.223 34.9705 30.136C35.1299 30.096 35.2984 30.1101 35.4485 30.1761C35.5095 30.1954 35.5644 30.2296 35.6079 30.2756C35.6992 30.3901 35.6348 30.5618 35.677 30.7014C35.7356 30.896 35.9734 30.9727 36.1785 30.9979C36.3835 31.023 36.6155 31.0379 36.7526 31.189C36.7979 31.2457 36.8305 31.3111 36.8481 31.3809C36.8656 31.4508 36.8678 31.5235 36.8545 31.5942C36.8422 31.6434 36.8422 31.6949 36.8545 31.7441C36.9107 31.9009 37.1884 31.8769 37.2611 31.7533C37.315 31.6629 37.2986 31.5885 37.4239 31.5633C37.5135 31.5563 37.6034 31.5717 37.6852 31.6079C37.9033 31.681 38.1331 31.7155 38.3636 31.7098C38.5102 31.4043 38.5891 31.0719 38.5951 30.7345C38.601 30.3972 38.5339 30.0624 38.3981 29.7521C38.2624 29.4418 38.061 29.1631 37.8072 28.9342C37.5535 28.7052 37.253 28.5313 36.9256 28.4237C36.5982 28.3162 36.2512 28.2774 35.9074 28.31C35.5636 28.3426 35.2308 28.4459 34.9307 28.613C34.6306 28.78 34.37 29.0072 34.1661 29.2795C33.9621 29.5519 33.8194 29.8632 33.7473 30.1932H33.7461Z" fill="black"/>
<path d="M36.8548 31.6804C36.8425 31.6311 36.8425 31.5797 36.8548 31.5304C36.8682 31.4599 36.866 31.3874 36.8484 31.3177C36.8308 31.248 36.7983 31.1828 36.7529 31.1264C36.6158 30.9742 36.385 30.9604 36.1787 30.9341C35.9725 30.9078 35.7359 30.8323 35.6773 30.6377C35.6351 30.498 35.6995 30.3275 35.6081 30.213C35.5653 30.1662 35.5102 30.1318 35.4488 30.1135C35.2988 30.0472 35.1303 30.0327 34.9708 30.0723C34.6966 30.1592 34.5326 30.4729 34.2479 30.5118C34.2048 30.52 34.1603 30.5152 34.1201 30.498C34.0124 30.4454 34.003 30.2932 33.9257 30.2073C33.7956 30.0734 33.5484 30.1604 33.3902 30.0608C33.2943 29.9826 33.2323 29.8717 33.2168 29.7506C33.1459 29.5262 33.1299 29.2886 33.1699 29.057C33.2625 28.669 33.6187 28.4023 33.8448 28.0693C34.0569 27.7602 34.1764 27.3688 34.4939 27.1639C34.8114 26.959 35.2203 27.0048 35.58 27.109C35.7454 27.1666 35.9155 27.2102 36.0885 27.2394C36.3779 27.2738 36.6685 27.1971 36.9591 27.1879C37.3709 27.1749 37.7755 27.2957 38.1096 27.5313C38.185 27.5793 38.2489 27.6425 38.2971 27.7167C38.3454 27.8219 38.374 27.9347 38.3815 28.0498C38.4157 28.2659 38.4925 28.4735 38.6076 28.661C38.6966 28.8086 38.8103 28.9414 38.8911 29.0936C38.9815 29.2429 39.0092 29.4205 38.9685 29.5892C38.9403 29.6751 38.8864 29.7529 38.8654 29.8411C38.8185 30.0448 38.9556 30.2405 39.0493 30.4282C39.1405 30.6 39.1838 30.7923 39.1747 30.9856C39.1697 31.082 39.1443 31.1763 39.1001 31.2625C39.056 31.3488 38.994 31.4252 38.9181 31.487C38.759 31.5948 38.5692 31.6512 38.3756 31.6483C38.1408 31.6553 37.9066 31.6208 37.6843 31.5465C37.6023 31.5108 37.5126 31.4955 37.423 31.5018C37.2977 31.527 37.3141 31.6014 37.2602 31.6918C37.1887 31.8132 36.9122 31.8372 36.8548 31.6804Z" fill="#160635"/>
<path opacity="0.1" d="M35.5334 45.1814L36.9148 44.1261L39.087 42.035L38.37 42.0029C38.2858 42.0773 38.2321 42.179 38.2188 42.2891C38.2083 42.5443 37.633 42.3062 37.3319 42.4527C37.0308 42.5993 35.5662 44.4329 35.3096 44.4203C35.053 44.4077 34.8492 44.2932 34.7414 44.4706L34.7343 44.4821C34.6916 44.5302 34.634 44.5635 34.5703 44.5771L35.5334 45.1814Z" fill="black"/>
<path d="M32.75 45.108L33.4436 47.2724L33.5526 47.6157L33.883 47.5276L34.6118 47.3319L37.8549 46.462C38.2634 46.4447 38.6632 46.3408 39.0266 46.1575C39.6397 45.8219 40.3413 45.6725 41.0418 45.7283C41.4706 45.7672 41.9475 45.5864 42.3435 44.8722C42.3435 44.8722 43.2422 42.2797 40.9739 41.5369C38.7055 40.7941 38.5966 41.9318 38.5966 41.9318L38.5649 41.9501C38.4771 42.005 38.231 42.179 38.2216 42.3873C38.2111 42.6425 37.6358 42.4056 37.3347 42.551C37.0336 42.6963 35.569 44.5311 35.3124 44.5185C35.0558 44.5059 34.852 44.3915 34.7442 44.57L34.7371 44.5815C34.6575 44.6879 34.4196 44.7131 34.2614 44.7165C34.2123 44.719 34.163 44.719 34.1138 44.7165L34.0927 44.7222L33.9287 44.7703L32.75 45.108Z" fill="#65617D"/>
<path opacity="0.1" d="M32.9297 40.9062L33.2648 40.9577L33.4042 39.6094C33.4042 39.6094 33.2507 39.5865 33.0597 39.543C33.1101 39.7318 32.9953 40.4586 32.9297 40.9062Z" fill="black"/>
<path opacity="0.1" d="M41.6835 34.6036C41.6835 34.6036 42.6783 34.3209 42.4322 37.0816C42.2614 38.7666 41.5282 40.3499 40.3455 41.5878C40.3455 41.5878 38.226 42.4966 37.2734 42.3501C36.3209 42.2035 35.6261 42.1726 35.6261 42.1726C35.326 42.0246 34.9976 41.9392 34.6618 41.922C34.1275 41.9014 33.0039 41.5786 32.9817 41.4722C32.9594 41.3657 33.2605 39.8308 33.1316 39.7164C33.1316 39.7164 34.6302 39.7759 34.7801 39.8812C34.9301 39.9865 35.1445 39.9121 35.305 39.8812C35.4656 39.8503 35.9577 39.4337 36.9313 39.7999C36.9313 39.7999 37.2629 39.8308 37.3918 39.7473C37.4968 39.6995 37.6165 39.6921 37.7269 39.7267C37.8102 39.6997 37.8891 39.6611 37.9612 39.6122C37.9928 39.571 38.2506 39.6122 38.2506 39.6122C38.2659 39.6189 38.2826 39.6223 38.2994 39.6222C38.3162 39.6221 38.3328 39.6184 38.348 39.6114C38.3632 39.6045 38.3767 39.5944 38.3876 39.5819C38.3985 39.5694 38.4065 39.5548 38.4111 39.539C38.445 39.4537 38.496 39.3758 38.5611 39.3101C38.5611 39.3101 38.8493 37.7214 39.3953 37.1251C39.4389 37.0878 39.4724 37.0407 39.4928 36.9878C39.5133 36.9349 39.52 36.8778 39.5125 36.8218C39.4679 36.6524 40.3994 34.2682 41.6835 34.6036Z" fill="black"/>
<path d="M41.6549 34.3909C41.6549 34.3909 42.6508 34.1093 42.4048 36.8689C42.2344 38.554 41.5011 40.1375 40.3181 41.3751C40.3181 41.3751 38.1985 42.285 37.246 42.1385C36.2934 41.992 35.5975 41.9576 35.5975 41.9576C35.2978 41.8095 34.9697 41.7241 34.6344 41.707C34.0989 41.6852 32.9753 41.3636 32.9542 41.2572C32.9331 41.1507 33.2319 39.6158 33.1042 39.5002C33.1042 39.5002 34.6027 39.5609 34.7527 39.6662C34.9027 39.7715 35.1159 39.696 35.2764 39.6662C35.4369 39.6364 35.929 39.2187 36.9038 39.5838C36.9038 39.5838 37.2354 39.6158 37.3631 39.5323C37.4683 39.4849 37.5876 39.4771 37.6982 39.5105C37.7813 39.4829 37.8601 39.4444 37.9326 39.3961C37.9642 39.3537 38.2208 39.3961 38.2208 39.3961C38.2361 39.4028 38.2528 39.4062 38.2696 39.406C38.2864 39.4059 38.303 39.4022 38.3182 39.3953C38.3334 39.3883 38.3469 39.3783 38.3578 39.3658C38.3687 39.3533 38.3767 39.3386 38.3813 39.3228C38.4152 39.2375 38.4662 39.1597 38.5313 39.0939C38.5313 39.0939 38.8207 37.5053 39.3667 36.9089C39.4103 36.8717 39.4438 36.8245 39.4642 36.7716C39.4846 36.7187 39.4914 36.6617 39.4838 36.6056C39.4405 36.4408 40.3708 34.0601 41.6549 34.3909Z" fill="#160635"/>
<path opacity="0.1" d="M33.9258 44.7639L35.3388 46.435L35.3482 46.4258C35.3587 46.3938 35.4981 46.0389 35.4653 46.0172C35.4325 45.9955 35.1877 45.4735 34.6956 45.2538C34.4453 45.1346 34.2351 44.9479 34.0898 44.7158L33.9258 44.7639Z" fill="black"/>
<path opacity="0.1" d="M33.9444 47.6566L34.099 47.7424C34.099 47.7424 34.4575 47.462 34.8149 47.1793C35.1723 46.8966 35.5179 46.6196 35.5179 46.607C35.5179 46.5944 35.6679 46.2201 35.6351 46.1995C35.6023 46.1789 35.5448 46.0439 35.4089 45.8756C34.4505 45.6135 35.0574 46.2636 35.1418 46.2934C35.1418 46.2934 33.976 46.0313 33.9116 47.2731C33.906 47.4018 33.917 47.5306 33.9444 47.6566V47.6566Z" fill="black"/>
<path d="M35.127 48.1819L35.3309 48.2964L37.3965 48.3479C37.6281 48.4855 37.873 48.6005 38.1276 48.6913C38.1614 48.7011 38.1958 48.7084 38.2307 48.713C38.4225 48.7283 38.615 48.7317 38.8072 48.7233C38.9653 48.7233 39.0872 48.713 39.0872 48.713C39.0872 48.713 38.99 46.1686 38.9161 45.9008C38.881 45.7726 38.7076 45.8001 38.5365 45.8642C38.4083 45.9154 38.2845 45.9767 38.1663 46.0473C38.1663 46.0473 37.2899 46.1309 37.1504 46.2041C37.011 46.2774 36.615 46.1618 36.369 46.2041C36.1229 46.2465 35.6835 45.9214 35.6835 45.9214C34.4849 45.5345 35.1598 46.2556 35.2453 46.2877C35.2453 46.2877 34.0737 46.0256 34.0139 47.2674C33.9542 48.5093 35.127 48.1819 35.127 48.1819Z" fill="#160635"/>
<path d="M38.1143 47.1998C38.1366 47.7263 38.5572 48.3798 38.808 48.7255C38.9661 48.7255 39.088 48.7152 39.088 48.7152C39.088 48.7152 38.9907 46.1708 38.9169 45.903C38.8818 45.7748 38.7084 45.8022 38.5373 45.8663C38.3299 46.2463 38.0956 46.774 38.1143 47.1998Z" fill="#FF7A7A"/>
<path opacity="0.1" d="M38.1143 47.1998C38.1366 47.7263 38.5572 48.3798 38.808 48.7255C38.9661 48.7255 39.088 48.7152 39.088 48.7152C39.088 48.7152 38.9907 46.1708 38.9169 45.903C38.8818 45.7748 38.7084 45.8022 38.5373 45.8663C38.3299 46.2463 38.0956 46.774 38.1143 47.1998Z" fill="black"/>
<path opacity="0.05" d="M37.7575 47.2696C37.9004 47.7778 37.8981 48.3478 38.1254 48.6934C38.1591 48.7033 38.1936 48.7105 38.2285 48.7152C38.4202 48.7305 38.6127 48.7339 38.8049 48.7255C38.9631 48.7255 39.085 48.7152 39.085 48.7152C39.085 48.7152 38.9877 46.1708 38.9139 45.903C38.8787 45.7748 38.7053 45.8022 38.5343 45.8663C38.406 45.9176 38.2822 45.9788 38.164 46.0495C38.164 46.0495 37.5759 46.6183 37.7575 47.2696Z" fill="black"/>
<path opacity="0.1" d="M30.6328 42.1113C30.6328 42.1113 31.6592 42.4364 32.5286 43.5924L30.6328 42.1113Z" fill="black"/>
<g opacity="0.1">
<path d="M38.9719 29.5645C38.9719 29.5725 38.9719 29.5793 38.966 29.5873C38.9561 29.6172 38.944 29.6463 38.9297 29.6743C38.941 29.6367 38.9551 29.6 38.9719 29.5645Z" fill="black"/>
<path d="M33.1673 29.0573C33.1847 28.9841 33.2114 28.9133 33.247 28.8467C33.247 28.8638 33.2352 28.8822 33.2306 28.9005C33.1915 29.1322 33.2079 29.3696 33.2786 29.5941C33.2941 29.7149 33.3556 29.8256 33.4508 29.9043C33.6102 30.0038 33.8574 29.9169 33.9874 30.0508C34.0695 30.1366 34.0742 30.2888 34.1819 30.3415C34.2221 30.3586 34.2666 30.3634 34.3097 30.3552C34.5944 30.3163 34.7584 30.0027 35.0326 29.9157C35.192 29.8756 35.3608 29.8901 35.5106 29.9569C35.572 29.9753 35.6271 30.0097 35.6699 30.0565C35.7613 30.171 35.6969 30.3415 35.7391 30.4811C35.7977 30.6757 36.0355 30.7524 36.2405 30.7776C36.4456 30.8028 36.6776 30.8176 36.8147 30.9699C36.8601 31.0263 36.8926 31.0915 36.9102 31.1611C36.9278 31.2308 36.93 31.3033 36.9166 31.3739C36.9043 31.4232 36.9043 31.4746 36.9166 31.5238C36.9728 31.6806 37.2505 31.6566 37.3232 31.533C37.377 31.4426 37.3606 31.3682 37.486 31.343C37.5755 31.3366 37.6653 31.352 37.7473 31.3876C37.9696 31.462 38.2037 31.4965 38.4386 31.4895C38.6322 31.4924 38.8219 31.436 38.981 31.3281C39.0506 31.2747 39.1074 31.2072 39.1474 31.1301C39.1112 31.2703 39.0289 31.3949 38.9131 31.4849C38.754 31.5928 38.5643 31.6492 38.3706 31.6463C38.1358 31.6533 37.9016 31.6188 37.6793 31.5444C37.5973 31.5088 37.5076 31.4934 37.4181 31.4998C37.2927 31.525 37.3091 31.5994 37.2564 31.6898C37.1826 31.8134 36.9049 31.8375 36.8486 31.6806C36.8369 31.6313 36.8369 31.58 36.8486 31.5307C36.862 31.4602 36.8598 31.3876 36.8423 31.3179C36.8247 31.2483 36.7921 31.1831 36.7467 31.1267C36.6096 30.9744 36.3788 30.9607 36.1726 30.9344C35.9664 30.9081 35.7297 30.8325 35.6711 30.6379C35.6289 30.4983 35.6934 30.3278 35.602 30.2133C35.5595 30.1667 35.5048 30.1323 35.4438 30.1137C35.2934 30.0475 35.1245 30.033 34.9646 30.0725C34.6916 30.1595 34.5264 30.4731 34.2417 30.512C34.1987 30.5202 34.1541 30.5155 34.114 30.4983C34.0062 30.4457 33.9968 30.2934 33.9195 30.2076C33.7894 30.0737 33.5434 30.1607 33.384 30.0611C33.2881 29.9829 33.2261 29.872 33.2106 29.7509C33.141 29.5262 33.1261 29.2886 33.1673 29.0573V29.0573Z" fill="black"/>
</g>
<path opacity="0.1" d="M39.138 37.4263C38.9412 37.685 38.7174 37.9242 38.544 38.1966C38.3556 38.4651 38.2641 38.7873 38.2839 39.1123C38.4632 38.9326 38.5463 38.683 38.6588 38.4576C38.851 38.0753 39.1369 37.7514 39.3794 37.4011C39.4251 37.3336 39.7203 36.9433 39.5715 36.9273C39.4473 36.9101 39.2048 37.3382 39.138 37.4263Z" fill="black"/>
<path d="M40.1927 61.9167C40.3344 62.3608 40.4774 62.806 40.6543 63.2375C40.9731 63.9877 41.3742 64.7019 41.8506 65.3676C42.1577 65.8058 42.4878 66.2284 42.8394 66.6335C43.28 67.1405 43.7768 67.651 43.9267 68.2988C44.017 68.6731 43.9865 69.0634 44.024 69.4434C44.0615 69.8234 44.1892 70.2309 44.5067 70.4598C44.7328 70.6235 45.0222 70.6727 45.2999 70.715C45.4991 70.7459 45.7475 70.7562 45.8506 70.588C45.8867 70.5192 45.9055 70.4431 45.9057 70.3659L45.9537 69.8062C45.9631 69.6849 46.0076 69.5304 46.1318 69.5247C46.256 69.5189 46.3181 69.6803 46.4235 69.7536C46.5641 69.8497 46.775 69.7536 46.8524 69.6082C46.9166 69.4508 46.9207 69.2762 46.8641 69.116C46.7788 68.7975 46.6253 68.5002 46.4139 68.2437C46.2025 67.9872 45.9378 67.7774 45.6374 67.6281C45.4287 67.5459 45.2286 67.4443 45.0398 67.3248C44.8481 67.1619 44.6891 66.9655 44.5712 66.7456C43.4839 64.9967 42.3907 63.2386 41.6233 61.3352C41.4721 60.9951 41.3699 60.6361 41.3198 60.2685C41.2823 59.8942 41.3421 59.5176 41.3667 59.1422C41.4121 58.4678 41.348 57.7906 41.1769 57.1358C41.1395 56.9639 41.0734 56.7991 40.9812 56.6482C40.6649 56.1801 39.9267 56.1102 39.458 56.433C39.2855 56.5627 39.1424 56.726 39.0379 56.9126C38.9334 57.0992 38.8698 57.305 38.8511 57.5169C38.8172 57.8969 39.0409 58.2907 39.1546 58.6443C39.4991 59.7362 39.8451 60.827 40.1927 61.9167Z" fill="#FF7A7A"/>
<path opacity="0.05" d="M40.1927 61.9167C40.3344 62.3608 40.4774 62.806 40.6543 63.2375C40.9731 63.9877 41.3742 64.7019 41.8506 65.3676C42.1577 65.8058 42.4878 66.2284 42.8394 66.6335C43.28 67.1405 43.7768 67.651 43.9267 68.2988C44.017 68.6731 43.9865 69.0634 44.024 69.4434C44.0615 69.8234 44.1892 70.2309 44.5067 70.4598C44.7328 70.6235 45.0222 70.6727 45.2999 70.715C45.4991 70.7459 45.7475 70.7562 45.8506 70.588C45.8867 70.5192 45.9055 70.4431 45.9057 70.3659L45.9537 69.8062C45.9631 69.6849 46.0076 69.5304 46.1318 69.5247C46.256 69.5189 46.3181 69.6803 46.4235 69.7536C46.5641 69.8497 46.775 69.7536 46.8524 69.6082C46.9166 69.4508 46.9207 69.2762 46.8641 69.116C46.7788 68.7975 46.6253 68.5002 46.4139 68.2437C46.2025 67.9872 45.9378 67.7774 45.6374 67.6281C45.4287 67.5459 45.2286 67.4443 45.0398 67.3248C44.8481 67.1619 44.6891 66.9655 44.5712 66.7456C43.4839 64.9967 42.3907 63.2386 41.6233 61.3352C41.4721 60.9951 41.3699 60.6361 41.3198 60.2685C41.2823 59.8942 41.3421 59.5176 41.3667 59.1422C41.4121 58.4678 41.348 57.7906 41.1769 57.1358C41.1395 56.9639 41.0734 56.7991 40.9812 56.6482C40.6649 56.1801 39.9267 56.1102 39.458 56.433C39.2855 56.5627 39.1424 56.726 39.0379 56.9126C38.9334 57.0992 38.8698 57.305 38.8511 57.5169C38.8172 57.8969 39.0409 58.2907 39.1546 58.6443C39.4991 59.7362 39.8451 60.827 40.1927 61.9167Z" fill="black"/>
<path d="M33.3604 80.6169C33.5723 80.6889 33.7977 80.7155 34.0212 80.6947C34.0376 80.5162 34.2836 80.4761 34.4664 80.4853C34.5548 80.4824 34.6424 80.5022 34.7206 80.5425C34.7663 80.5711 34.8015 80.6123 34.846 80.6421C34.9254 80.6846 35.0144 80.707 35.105 80.7073L36.0563 80.7852C36.4805 80.8206 36.9222 80.8527 37.3194 80.705C37.3985 80.6805 37.4688 80.6345 37.5221 80.5723C37.6299 80.4212 37.5221 80.2049 37.3733 80.095C37.2245 79.9851 37.0323 79.9359 36.8824 79.8237C36.5519 79.5776 36.5063 79.1175 36.3317 78.749C36.2076 78.5166 36.0545 78.3001 35.8759 78.1046C35.7465 77.9366 35.5957 77.7855 35.4272 77.6547C35.0452 77.3858 34.607 77.3915 34.1583 77.3526C33.8419 77.3251 33.5443 77.3068 33.317 77.5815C33.0358 77.9249 33.1483 78.6116 33.1659 79.0122C33.1878 79.5512 33.2528 80.0878 33.3604 80.6169Z" fill="#514E7F"/>
<path opacity="0.05" d="M33.3604 80.6169C33.5723 80.6889 33.7977 80.7155 34.0212 80.6947C34.0376 80.5162 34.2836 80.4761 34.4664 80.4853C34.5548 80.4824 34.6424 80.5022 34.7206 80.5425C34.7663 80.5711 34.8015 80.6123 34.846 80.6421C34.9254 80.6846 35.0144 80.707 35.105 80.7073L36.0563 80.7852C36.4805 80.8206 36.9222 80.8527 37.3194 80.705C37.3985 80.6805 37.4688 80.6345 37.5221 80.5723C37.6299 80.4212 37.5221 80.2049 37.3733 80.095C37.2245 79.9851 37.0323 79.9359 36.8824 79.8237C36.5519 79.5776 36.5063 79.1175 36.3317 78.749C36.2076 78.5166 36.0545 78.3001 35.8759 78.1046C35.7465 77.9366 35.5957 77.7855 35.4272 77.6547C35.0452 77.3858 34.607 77.3915 34.1583 77.3526C33.8419 77.3251 33.5443 77.3068 33.317 77.5815C33.0358 77.9249 33.1483 78.6116 33.1659 79.0122C33.1878 79.5512 33.2528 80.0878 33.3604 80.6169Z" fill="black"/>
<path d="M33.746 62.5388C33.4554 62.6304 33.3289 62.9841 33.3828 63.2782C33.4367 63.5724 33.6171 63.8265 33.7659 64.0874C34.19 64.828 34.3728 65.675 34.729 66.4476C34.995 67.0198 35.3547 67.5578 35.6171 68.1369C35.8796 68.7161 36.0424 69.3697 35.8831 69.9843C35.8057 70.283 35.6558 70.5566 35.5562 70.8507C35.4576 71.1696 35.3932 71.4975 35.364 71.8293C35.235 72.9565 35.2119 74.0929 35.2949 75.2242C35.2956 75.3621 35.3251 75.4984 35.3816 75.6248C35.4414 75.7392 35.5445 75.8537 35.4988 75.9681C35.4789 76.0151 35.4355 76.0494 35.4144 76.0952C35.3535 76.2234 35.4753 76.3596 35.5866 76.4511C35.5668 76.4856 35.54 76.5157 35.508 76.5399C35.4761 76.5641 35.4394 76.5818 35.4003 76.5919C35.4802 76.6416 35.5415 76.715 35.5753 76.8014C35.6091 76.8878 35.6134 76.9825 35.5878 77.0715C35.4894 77.0864 35.4835 77.234 35.5456 77.3119C35.6077 77.3897 35.7062 77.4378 35.7507 77.5259C35.7769 77.5977 35.774 77.6766 35.7427 77.7463C35.7113 77.8161 35.6538 77.8716 35.582 77.9013C35.4356 77.9564 35.2759 77.9683 35.1227 77.9357C34.8629 77.9003 34.6063 77.8452 34.3552 77.7708C34.224 77.7457 34.1065 77.6751 34.0243 77.572C33.942 77.469 33.9006 77.3405 33.9077 77.21C33.8496 76.7441 33.832 76.2743 33.8549 75.8056C33.8959 73.5348 33.8549 71.2616 33.7542 68.9919C33.7132 68.0763 33.432 67.1892 33.0699 66.3468C32.8698 65.9163 32.6473 65.4961 32.4033 65.0878C31.8807 64.1538 31.4191 63.1191 31.5386 62.0604C31.5515 61.9459 31.5936 61.8097 31.7096 61.7914C31.755 61.7867 31.8008 61.7942 31.842 61.8132C32.0827 61.923 32.3156 62.0484 32.5392 62.1886C32.9065 62.399 33.3206 62.5192 33.746 62.5388Z" fill="#160635"/>
<path opacity="0.05" d="M33.746 62.5388C33.4554 62.6304 33.3289 62.9841 33.3828 63.2782C33.4367 63.5724 33.6171 63.8265 33.7659 64.0874C34.19 64.828 34.3728 65.675 34.729 66.4476C34.995 67.0198 35.3547 67.5578 35.6171 68.1369C35.8796 68.7161 36.0424 69.3697 35.8831 69.9843C35.8057 70.283 35.6558 70.5566 35.5562 70.8507C35.4576 71.1696 35.3932 71.4975 35.364 71.8293C35.235 72.9565 35.2119 74.0929 35.2949 75.2242C35.2956 75.3621 35.3251 75.4984 35.3816 75.6248C35.4414 75.7392 35.5445 75.8537 35.4988 75.9681C35.4789 76.0151 35.4355 76.0494 35.4144 76.0952C35.3535 76.2234 35.4753 76.3596 35.5866 76.4511C35.5668 76.4856 35.54 76.5157 35.508 76.5399C35.4761 76.5641 35.4394 76.5818 35.4003 76.5919C35.4802 76.6416 35.5415 76.715 35.5753 76.8014C35.6091 76.8878 35.6134 76.9825 35.5878 77.0715C35.4894 77.0864 35.4835 77.234 35.5456 77.3119C35.6077 77.3897 35.7062 77.4378 35.7507 77.5259C35.7769 77.5977 35.774 77.6766 35.7427 77.7463C35.7113 77.8161 35.6538 77.8716 35.582 77.9013C35.4356 77.9564 35.2759 77.9683 35.1227 77.9357C34.8629 77.9003 34.6063 77.8452 34.3552 77.7708C34.224 77.7457 34.1065 77.6751 34.0243 77.572C33.942 77.469 33.9006 77.3405 33.9077 77.21C33.8496 76.7441 33.832 76.2743 33.8549 75.8056C33.8959 73.5348 33.8549 71.2616 33.7542 68.9919C33.7132 68.0763 33.432 67.1892 33.0699 66.3468C32.8698 65.9163 32.6473 65.4961 32.4033 65.0878C31.8807 64.1538 31.4191 63.1191 31.5386 62.0604C31.5515 61.9459 31.5936 61.8097 31.7096 61.7914C31.755 61.7867 31.8008 61.7942 31.842 61.8132C32.0827 61.923 32.3156 62.0484 32.5392 62.1886C32.9065 62.399 33.3206 62.5192 33.746 62.5388Z" fill="black"/>
<path d="M29.8169 59.7777C29.6654 59.6827 29.4906 59.629 29.3107 59.6221C29.1022 59.6324 28.9241 59.7663 28.7612 59.8945C28.5683 60.0392 28.3851 60.1959 28.2129 60.3638C27.8563 60.7351 27.6079 61.1928 27.4933 61.6895C27.3788 62.1862 27.4023 62.7037 27.5615 63.1886C27.7337 63.6933 28.0489 64.1386 28.3605 64.5746L28.9932 65.4628C29.9587 66.8169 30.9241 68.1709 31.9353 69.4929C31.9355 69.5254 31.9463 69.557 31.9661 69.5831C31.9859 69.6092 32.0136 69.6285 32.0454 69.6382C32.0817 69.6474 32.1274 69.6463 32.1497 69.676C32.16 69.6946 32.1644 69.7157 32.1626 69.7367C32.1603 69.8345 32.1413 69.9312 32.1063 70.0228C32.0899 70.053 32.0857 70.0882 32.0946 70.1213C32.1274 70.1957 32.2657 70.1533 32.3102 70.2231C32.3395 70.2689 32.3032 70.3284 32.2645 70.3673C32.2258 70.4063 32.1778 70.4498 32.1848 70.5035C32.1918 70.5573 32.2879 70.618 32.2844 70.6844C32.2844 70.7233 32.2493 70.7531 32.2247 70.784C32.1902 70.8332 32.1745 70.8927 32.1803 70.9521C32.1861 71.0115 32.213 71.067 32.2563 71.109C32.3231 71.7546 31.9634 72.3681 31.8919 73.0113C31.7747 74.0277 32.2493 75.02 32.3067 76.0399C32.3032 76.1546 32.3256 76.2687 32.3723 76.3741C32.4695 76.5503 32.7238 76.6568 32.7109 76.8571C32.6925 76.9394 32.6686 77.0205 32.6394 77.0997C32.6195 77.2142 32.6757 77.3286 32.6781 77.4431C32.6804 77.5576 32.5761 77.6983 32.466 77.6526C32.5488 77.9227 32.6226 78.1951 32.6875 78.4698L34.9019 78.6483C34.9258 78.4539 34.919 78.2571 34.882 78.0646C34.8363 77.8552 34.7402 77.6606 34.6898 77.4534C34.6571 77.3514 34.6478 77.2436 34.6628 77.1377C34.6778 77.0318 34.7167 76.9305 34.7765 76.8411C34.7188 76.8417 34.6627 76.8225 34.6181 76.7866C34.5735 76.7508 34.5433 76.7008 34.5328 76.6453C34.5143 76.5337 34.5163 76.4198 34.5387 76.3088C34.5973 75.7446 34.3547 75.1883 34.3618 74.6217C34.3688 74.1753 34.5293 73.7461 34.6101 73.3078C34.7836 72.3692 34.6031 71.3517 35.0308 70.4944C35.2897 69.9782 35.6482 69.4059 35.3577 68.9057C35.2147 68.6585 34.9616 68.4891 34.7964 68.2556C34.6618 68.0349 34.5607 67.7962 34.4965 67.5471C34.1555 66.517 33.6037 65.5601 33.1198 64.5804C32.9855 64.3348 32.8858 64.0726 32.8234 63.8009C32.7892 63.5625 32.7766 63.3216 32.7859 63.081C32.7859 62.649 32.7589 62.2175 32.705 61.7888C32.6941 61.6009 32.6392 61.4181 32.5445 61.2542C32.4489 61.1303 32.3295 61.0257 32.193 60.9463C31.4666 60.4599 30.6019 60.1818 29.8169 59.7777Z" fill="#160635"/>
<path d="M32.4687 81.4099C32.6814 81.4809 32.907 81.507 33.1307 81.4865C33.1471 81.308 33.392 81.2679 33.5748 81.2771C33.6632 81.2742 33.7508 81.294 33.829 81.3343C33.8747 81.3629 33.9099 81.4053 33.9556 81.4339C34.0347 81.4769 34.1239 81.4994 34.2145 81.4991L35.1647 81.577C35.59 81.6124 36.0306 81.6456 36.4289 81.4968C36.5079 81.4727 36.578 81.4266 36.6305 81.3641C36.7383 81.213 36.6305 80.9978 36.4817 80.8879C36.3329 80.7781 36.1407 80.7277 35.9919 80.6155C35.6603 80.3694 35.6158 79.9105 35.4401 79.5419C35.3171 79.3088 35.1643 79.0919 34.9855 78.8964C34.8556 78.7287 34.7044 78.578 34.5355 78.4477C34.1548 78.1776 33.7154 78.1833 33.2678 78.1444C32.9503 78.1169 32.6527 78.0997 32.4266 78.3733C32.1454 78.7167 32.2578 79.4034 32.2742 79.8052C32.2963 80.3442 32.3613 80.8807 32.4687 81.4099Z" fill="#514E7F"/>
<path d="M42.2832 56.0314C43.4945 56.0314 44.4765 55.0721 44.4765 53.8887C44.4765 52.7054 43.4945 51.7461 42.2832 51.7461C41.0718 51.7461 40.0898 52.7054 40.0898 53.8887C40.0898 55.0721 41.0718 56.0314 42.2832 56.0314Z" fill="#FF7A7A"/>
<path d="M40.2158 54.5254C39.9018 54.7898 39.4507 54.8092 39.0383 54.8505C38.1564 54.939 37.298 55.1817 36.504 55.567C36.3941 55.6132 36.2946 55.6801 36.2111 55.7638C36.1398 55.8546 36.0891 55.9592 36.0623 56.0706C35.9869 56.3116 35.9586 56.5644 35.9791 56.8157C36.0079 57.0594 36.0796 57.2964 36.1912 57.5162C36.4956 58.1318 36.9653 58.6551 37.5503 59.0304C37.6534 59.1054 37.7704 59.1602 37.8948 59.1918C38.183 59.2502 38.4619 59.0877 38.7466 59.0144C39.0056 58.9484 39.2785 58.9568 39.5328 59.0384C39.7671 59.1163 40.0237 59.2582 40.2557 59.1632C40.4041 59.0821 40.5196 58.9536 40.5826 58.7992C40.8066 58.3856 41.0065 57.9599 41.1813 57.5242C41.2441 57.3541 41.3164 57.1875 41.398 57.0251C41.6523 56.5524 42.0917 56.1873 42.3108 55.6963C42.333 55.6588 42.3464 55.617 42.3501 55.5739C42.3537 55.5307 42.3475 55.4873 42.3319 55.4468C42.2912 55.392 42.235 55.3502 42.1702 55.3266C41.8462 55.1454 41.5509 54.9191 41.2938 54.6547C41.1496 54.5197 40.8849 54.1546 40.6775 54.1225C40.4443 54.0836 40.374 54.3926 40.2158 54.5254Z" fill="#FF7A7A"/>
<path d="M40.2664 58.8797C40.0122 58.9942 39.7122 58.9449 39.4369 58.8889C38.7269 58.7435 38.0087 58.597 37.3514 58.2971C37.146 58.2203 36.9681 58.0867 36.8393 57.9125C36.7594 57.7636 36.7108 57.6005 36.6964 57.433L36.5792 56.6318C36.5371 56.3536 36.6097 56.0961 36.6167 55.8145C36.6212 55.7833 36.6193 55.7516 36.611 55.7211C36.6028 55.6906 36.5884 55.6621 36.5687 55.6371C36.5286 55.6042 36.4768 55.5882 36.4246 55.5925C36.0953 55.5982 35.8962 55.9359 35.6653 56.1648C35.5319 56.2969 35.3725 56.4013 35.1967 56.4715C34.9858 56.5562 34.728 56.6157 34.6401 56.8218C34.605 56.9076 34.6097 57.0049 34.5722 57.0907C34.4246 57.4341 33.7954 57.3197 33.6349 57.663C33.5892 57.7592 33.5927 57.8794 33.5177 57.9549C33.4427 58.0304 33.3021 58.0293 33.1861 58.0476C32.728 58.1209 32.5066 58.6371 32.1152 58.8809C31.786 59.0869 31.3619 59.0823 31.0068 59.2425C30.81 59.3318 30.6354 59.4715 30.4269 59.5298C30.2183 59.5882 29.9828 59.5573 29.759 59.563C29.7352 59.5608 29.7111 59.5634 29.6883 59.5707C29.6655 59.578 29.6445 59.5898 29.6266 59.6054C29.6127 59.6261 29.6035 59.6495 29.5997 59.674C29.5959 59.6985 29.5974 59.7235 29.6044 59.7473C29.7129 60.4241 30 61.0616 30.4374 61.5971C30.8748 62.1325 31.4474 62.5475 32.0988 62.801C32.1744 62.8245 32.2463 62.8584 32.3121 62.9017C32.5112 63.0471 32.5464 63.3596 32.7725 63.4626C32.8541 63.4906 32.9421 63.4961 33.0267 63.4783C33.1113 63.4605 33.1892 63.4202 33.2517 63.3619C33.3765 63.2445 33.4939 63.1199 33.6032 62.9887C33.8097 62.7781 34.0807 62.6387 34.3754 62.5916C34.6472 62.5492 34.9506 62.5801 35.1709 62.4164C35.261 62.3357 35.3448 62.2484 35.4216 62.1555C35.5848 62.0068 35.7785 61.8936 35.9899 61.8236C36.5674 61.6007 37.1778 61.4697 37.7978 61.4355C38.3754 61.4046 38.9694 61.4561 39.5154 61.273C39.6572 61.2301 39.7878 61.1579 39.8985 61.0613C40.0159 60.9372 40.1032 60.789 40.154 60.6275C40.3509 60.0652 40.3898 59.4616 40.2664 58.8797V58.8797Z" fill="#D9B2EE"/>
<path d="M37.4386 55.7217C37.6003 55.7068 37.7631 55.7217 37.926 55.7217C38.117 55.7217 38.3056 55.6759 38.4966 55.6748C38.799 55.6796 39.092 55.7787 39.3327 55.9577C39.5734 56.1366 39.7492 56.386 39.8346 56.6694C39.8507 56.7147 39.8536 56.7635 39.8428 56.8102C39.8365 56.8333 39.8219 56.8534 39.8017 56.8669C39.7815 56.8803 39.757 56.8862 39.7327 56.8835C39.6693 56.7142 39.5863 56.5525 39.4855 56.4016C39.3039 56.1594 39.045 55.9831 38.7497 55.9003C38.4552 55.8188 38.1449 55.8078 37.8452 55.8682C37.7198 55.8911 37.5979 55.9232 37.4761 55.9564L36.8903 56.1143C36.7825 56.1429 36.6735 56.1715 36.5692 56.2093C36.4884 56.2391 36.3501 56.3478 36.2705 56.3524C36.1627 56.3524 36.2494 56.2608 36.2974 56.199C36.3931 56.0716 36.527 55.9763 36.6805 55.9266C36.924 55.8292 37.1785 55.7604 37.4386 55.7217V55.7217Z" fill="#D9B2EE"/>
<path d="M38.9188 62.1574C39.0606 62.6015 39.2024 63.0467 39.3805 63.4782C39.6988 64.2286 40.0999 64.9429 40.5767 65.6083C40.8839 66.0466 41.2139 66.4691 41.5656 66.8742C42.005 67.3812 42.4959 67.8917 42.6529 68.5384C42.7431 68.9138 42.7127 69.3041 42.7501 69.683C42.7876 70.0618 42.9154 70.4705 43.2317 70.6994C43.459 70.8619 43.7484 70.9111 44.0261 70.9546C44.2241 70.9855 44.4725 70.9958 44.5768 70.8276C44.6121 70.7586 44.631 70.6827 44.6318 70.6055L44.6787 70.0458C44.6892 69.9245 44.7338 69.77 44.8568 69.7643C44.9798 69.7585 45.0442 69.9199 45.1497 69.9932C45.2903 70.0893 45.5012 69.9932 45.5785 69.8478C45.6422 69.6903 45.6464 69.5158 45.5902 69.3556C45.5045 69.0372 45.3509 68.7401 45.1395 68.4837C44.9281 68.2273 44.6637 68.0174 44.3635 67.8677C44.1546 67.7852 43.9541 67.6837 43.7648 67.5644C43.5727 67.4014 43.4137 67.2045 43.2961 66.9841C42.2077 65.2363 41.1145 63.4782 40.3483 61.5737C40.1971 61.2338 40.0946 60.8753 40.0436 60.5081C40.0073 60.1338 40.0659 59.7572 40.0917 59.3818C40.1371 58.7074 40.073 58.0302 39.9019 57.3754C39.8645 57.2033 39.798 57.0385 39.705 56.8878C39.3898 56.4185 38.6505 56.3498 38.1819 56.6726C38.0091 56.8022 37.8659 56.9655 37.7612 57.1521C37.6565 57.3387 37.5927 57.5445 37.5738 57.7565C37.5398 58.1365 37.7647 58.5302 37.8772 58.8839C38.2233 59.9766 38.5705 61.0678 38.9188 62.1574Z" fill="#FF7A7A"/>
<path d="M45.4739 52.3733C45.4915 52.1948 45.3274 52.0299 45.1412 51.9155C44.9449 51.8172 44.7566 51.7048 44.5776 51.579C44.4112 51.4382 44.3198 51.2551 44.1534 51.1143C43.9643 50.9736 43.7496 50.8691 43.5207 50.8064C43.0339 50.6396 42.5228 50.5504 42.007 50.542C41.4856 50.542 40.9525 50.6565 40.56 50.9163C40.4631 50.9758 40.3795 51.0536 40.3139 51.1452C40.252 51.2551 40.2123 51.3755 40.1968 51.5C40.1032 51.884 39.9766 52.2596 39.8183 52.6228C39.6555 53.0269 39.4821 53.4458 39.0989 53.7582C38.6888 54.0913 38.062 54.2836 37.7914 54.6865C37.7614 54.7223 37.7404 54.7644 37.7301 54.8095C37.7197 54.8546 37.7202 54.9014 37.7316 54.9463C37.7703 55.0482 37.8945 55.118 38.0093 55.1821C38.6748 55.5552 39.2489 56.0394 39.5441 56.6174C39.8394 57.1954 39.8312 57.8764 39.4106 58.4087C39.2559 58.6055 39.0427 58.839 39.1938 59.037C39.4282 59.338 40.212 59.1652 40.3948 59.4834C40.4522 59.5853 40.4182 59.7009 40.4182 59.8119C40.4182 60.1461 40.7474 60.4426 41.147 60.5971C41.5465 60.7516 42.0093 60.7882 42.4592 60.8077C42.5787 60.5454 42.5904 60.2484 42.492 59.9779C42.4621 59.9195 42.4503 59.8539 42.4581 59.789C42.4916 59.717 42.5437 59.6547 42.6092 59.6082C43.0896 59.1641 42.9876 58.5117 42.6994 57.984C42.4112 57.4564 41.9613 56.9745 41.7937 56.4194C41.7105 56.1435 41.7105 55.8334 41.9343 55.6044C42.0628 55.4943 42.2012 55.3959 42.3479 55.3103C42.61 55.1365 42.8119 54.889 42.9267 54.6007C43.0615 54.2355 43.0439 53.7995 43.4352 53.5534C43.8113 53.3245 44.3397 53.3908 44.7557 53.234C45.0755 53.1104 45.4481 52.6354 45.4739 52.3733Z" fill="#160635"/>
<path d="M68.194 70.3078C66.4073 69.5856 65.8824 69.0636 65.8824 68.0186C65.8824 67.2174 66.2432 66.2926 67.825 66.2926C68.6994 66.2801 69.5582 66.5189 70.2948 66.9794L70.8092 65.6505C70.2128 65.3071 69.3716 64.9878 68.139 64.9477V63.002H67.0997V65.0279C65.2098 65.3289 64.1155 66.5925 64.1155 68.2578C64.1155 70.0033 65.17 70.927 67.2696 71.7293C68.7904 72.3348 69.586 73.017 69.586 74.1204C69.586 75.2649 68.6006 76.0867 67.1419 76.0867C65.9925 76.0867 64.6896 75.7056 63.9503 75.2237L63.457 76.5675C64.1764 77.0699 65.409 77.4305 66.5994 77.4511V79.477H68.3674V77.3904C70.4764 77.047 71.6118 75.5591 71.6118 73.9796C71.6118 72.194 70.31 71.1502 68.194 70.3078Z" fill="url(#paint1_linear_322_13410)"/>
<path d="M66.6033 79.0194V76.9935C65.4129 76.9729 64.1803 76.6124 63.4609 76.1099L63.9542 74.7662C64.6935 75.2481 65.9964 75.6292 67.1458 75.6292C68.6045 75.6292 69.5852 74.8074 69.5852 73.6628C69.5852 72.5594 68.7849 71.8773 67.2641 71.2752C65.1692 70.474 64.11 69.5492 64.11 67.8037C64.11 66.1384 65.2044 64.8748 67.0942 64.5738V62.5479H68.1335V64.4936C69.3661 64.5337 70.2073 64.8542 70.8037 65.1964L70.2894 66.5195C69.5528 66.059 68.6939 65.8202 67.8195 65.8328C66.2378 65.8328 65.8769 66.7565 65.8769 67.5588C65.8769 68.6015 66.4018 69.1234 68.1886 69.8479C70.3046 70.6904 71.6063 71.7342 71.6063 73.5197C71.6063 75.105 70.4768 76.5895 68.362 76.9306V79.0194H66.6033Z" fill="#D9B2EE"/>
</g>
<defs>
<linearGradient id="paint0_linear_322_13410" x1="35.8323" y1="48.6516" x2="35.8323" y2="26.8017" gradientUnits="userSpaceOnUse">
<stop stop-color="#808080" stop-opacity="0.25"/>
<stop offset="0.54" stop-color="#808080" stop-opacity="0.12"/>
<stop offset="1" stop-color="#808080" stop-opacity="0.1"/>
</linearGradient>
<linearGradient id="paint1_linear_322_13410" x1="63.4617" y1="71.2406" x2="71.6118" y2="71.2406" gradientUnits="userSpaceOnUse">
<stop stop-color="#808080" stop-opacity="0.25"/>
<stop offset="0.54" stop-color="#808080" stop-opacity="0.12"/>
<stop offset="1" stop-color="#808080" stop-opacity="0.1"/>
</linearGradient>
<clipPath id="clip0_322_13410">
<rect width="138" height="83" fill="white"/>
</clipPath>
</defs>
</svg>
