<svg width="176" height="54" viewBox="0 0 176 54" fill="none" xmlns="http://www.w3.org/2000/svg">
<path d="M64.0996 47.83V21.51H70.1496V31.17H70.5196C72.0296 29.03 73.9096 28.29 76.5296 28.29C79.5896 28.29 83.8696 30.1 83.8696 35.92V47.83H77.8196V37.18C77.8196 34.75 76.9696 33.42 74.3496 33.42C71.9196 33.42 70.1496 34.97 70.1496 37.59V47.84H64.0996V47.83Z" fill="#FAFAFA"/>
<path d="M86.8105 38.32C86.8105 31.54 91.2705 28.29 97.4305 28.29C103.591 28.29 108.051 31.53 108.051 38.32C108.051 45.11 103.631 48.35 97.4305 48.35C91.2305 48.35 86.8105 45.11 86.8105 38.32ZM101.811 38.32C101.811 34.74 100.041 33.05 97.3905 33.05C94.7405 33.05 93.0406 34.75 93.0406 38.32C93.0406 41.89 94.7405 43.59 97.4605 43.59C100.181 43.59 101.811 41.89 101.811 38.32Z" fill="#FAFAFA"/>
<path d="M110.98 47.8301V37.18C110.98 30.91 114.15 28.3 119.39 28.3C122.74 28.3 125.07 29.37 126.43 31.8H126.8C128.16 29.37 130.49 28.3 133.84 28.3C139.07 28.3 142.25 30.92 142.25 37.18V47.8301H136.2V37.18C136.2 34.8601 135.2 33.42 132.92 33.42C130.64 33.42 129.64 34.8601 129.64 37.18V47.8301H123.59V37.18C123.59 34.8601 122.59 33.42 120.31 33.42C118.03 33.42 117.03 34.8601 117.03 37.18V47.8301H110.98Z" fill="#FAFAFA"/>
<path d="M145.92 47.8301V28.8101H151.97V47.8301H145.92Z" fill="#FAFAFA"/>
<path d="M154.92 38.32C154.92 31.54 159.16 28.29 165.43 28.29C171.33 28.29 175.05 31.79 175.05 37.69C175.05 38.39 175.01 39.13 174.9 39.9H160.93C161.3 42.59 162.99 43.95 165.35 43.95C166.79 43.95 168 43.4 168.67 42.48H174.57C173.46 45.87 170.29 48.34 165.43 48.34C159.05 48.34 154.92 44.99 154.92 38.31V38.32ZM169.08 36.03C168.67 33.63 166.83 32.68 165.06 32.68C163.29 32.68 161.56 33.9 161.04 36.03H169.08Z" fill="#FAFAFA"/>
<path d="M148.95 26.9699C150.844 26.9699 152.38 25.4342 152.38 23.5399C152.38 21.6455 150.844 20.1099 148.95 20.1099C147.055 20.1099 145.52 21.6455 145.52 23.5399C145.52 25.4342 147.055 26.9699 148.95 26.9699Z" fill="#FAFAFA"/>
<path d="M49.34 20.68V49.19C49.34 51.81 47.02 53.94 44.15 53.94H33.36C32.68 53.89 32.01 53.6 31.49 53.08L28.07 49.66L32.25 45.48L35.66 42.07L39.17 38.56C42.21 35.52 42.21 30.6 39.17 27.56C37.65 26.04 35.66 25.28 33.67 25.28C31.68 25.28 29.69 26.04 28.17 27.56L24.66 31.07L21.15 27.56C18.11 24.52 13.19 24.52 10.15 27.56C8.63 29.08 7.87 31.07 7.87 33.06C7.87 35.05 8.63 37.04 10.15 38.56L17.07 45.48L20.48 42.07L17.07 38.66L13.65 35.24C13.07 34.66 12.78 33.91 12.78 33.15C12.78 32.39 13.07 31.64 13.65 31.06C14.8 29.91 16.68 29.91 17.83 31.06L21.25 34.48L24.66 37.89L31.49 31.06C32.07 30.48 32.82 30.19 33.58 30.19C34.34 30.19 35.09 30.48 35.67 31.06C36.82 32.21 36.82 34.09 35.67 35.24L32.25 38.66L28.84 42.07L24.66 46.25L21.25 49.66L17.83 53.08C17.31 53.6 16.64 53.89 15.96 53.94H5.18C2.32 53.94 0 51.81 0 49.19V20.68C0 19.92 0.2 19.2 0.54 18.56C0.8 18.08 1.15 17.65 1.56 17.28L1.9 17L21.06 1.34L21.38 1.07C22.27 0.4 23.42 0 24.66 0C25.9 0 27.05 0.4 27.94 1.07L28.26 1.33L47.42 16.99L47.75 17.26C48.17 17.63 48.52 18.07 48.78 18.55C49.13 19.19 49.33 19.91 49.33 20.67L49.34 20.68Z" fill="#B900F4"/>
</svg>
