<svg width="148" height="149" viewBox="0 0 148 149" fill="none" xmlns="http://www.w3.org/2000/svg">
<g clip-path="url(#clip0_243_1459)">
<path d="M37.3346 142.982C37.1713 142.989 37.0096 142.947 36.8715 142.859C36.7333 142.772 36.6254 142.644 36.5624 142.493C36.4993 142.343 36.4841 142.176 36.5189 142.017C36.5537 141.857 36.6367 141.712 36.7567 141.601C36.7768 141.521 36.7913 141.464 36.8114 141.384C36.6551 140.987 36.3838 140.646 36.0323 140.404C35.6808 140.163 35.265 140.031 34.8384 140.027C34.4117 140.023 33.9936 140.147 33.6376 140.382C33.2816 140.617 33.0039 140.953 32.8402 141.346C31.8952 143.557 30.6723 145.845 31.2805 148.279C27.2631 139.771 28.6293 129.187 34.5664 121.911C36.2075 121.007 37.5376 119.402 37.8839 117.539C37.0717 117.814 36.0591 117.153 36.6698 116.298C36.9345 115.972 37.2017 115.647 37.4664 115.321C34.3812 112.037 30.7052 117.198 34.1011 121.629C32.9902 123.021 32.028 124.525 31.23 126.117C31.4143 124.427 31.1944 122.717 30.5884 121.128C29.9742 119.648 28.8229 118.401 27.8091 117.121C26.5765 115.561 24.0396 116.28 23.8737 118.26C25.0113 118.633 25.1591 120.275 23.8578 120.5C24.1987 124.182 26.6058 127.566 29.9212 129.181C28.6969 132.614 28.2188 136.268 28.5188 139.9C27.9336 135.655 23.374 134.625 20.187 132.938C19.9841 132.808 19.7478 132.74 19.5069 132.742C19.2659 132.744 19.0307 132.816 18.83 132.949C18.6293 133.082 18.4717 133.271 18.3764 133.492C18.2812 133.713 18.2525 133.957 18.2937 134.195C18.7336 134.373 19.1546 134.595 19.5505 134.857C19.7361 134.982 19.8785 135.161 19.9583 135.37C20.038 135.578 20.0513 135.807 19.9961 136.023C19.941 136.24 19.8202 136.434 19.6503 136.579C19.4804 136.724 19.2697 136.813 19.0471 136.834C20.6535 140.808 24.8068 143.476 29.0725 143.461C29.4824 145.241 30.0764 146.973 30.8448 148.631H37.1759C37.1986 148.561 37.219 148.488 37.2395 148.418C36.6534 148.454 36.0651 148.419 35.4876 148.313C37.0381 146.479 38.2371 145.543 37.3348 142.982L37.3346 142.982Z" fill="#F2F2F2"/>
<path d="M93.7779 142.982C93.9412 142.989 94.1028 142.947 94.241 142.859C94.3791 142.772 94.487 142.644 94.5501 142.493C94.6131 142.343 94.6283 142.176 94.5935 142.017C94.5588 141.857 94.4758 141.712 94.3557 141.601C94.3356 141.521 94.3212 141.464 94.3011 141.384C94.4574 140.987 94.7286 140.646 95.0802 140.404C95.4317 140.163 95.8474 140.031 96.274 140.027C96.7007 140.023 97.1188 140.147 97.4748 140.382C97.8309 140.617 98.1085 140.953 98.2723 141.346C99.2172 143.557 100.44 145.845 99.832 148.279C103.849 139.771 102.483 129.187 96.546 121.911C94.9049 121.007 93.5748 119.402 93.2285 117.539C94.0407 117.814 95.0533 117.153 94.4427 116.298C94.178 115.972 93.9107 115.647 93.6461 115.321C96.7313 112.037 100.407 117.198 97.0113 121.629C98.1222 123.021 99.0845 124.525 99.8824 126.117C99.6981 124.427 99.918 122.717 100.524 121.128C101.138 119.648 102.29 118.401 103.303 117.121C104.536 115.561 107.073 116.28 107.239 118.26C106.101 118.633 105.953 120.275 107.255 120.5C106.914 124.182 104.507 127.566 101.191 129.181C102.416 132.614 102.894 136.268 102.594 139.9C103.179 135.655 107.738 134.625 110.925 132.938C111.128 132.808 111.365 132.74 111.606 132.742C111.847 132.744 112.082 132.816 112.282 132.949C112.483 133.082 112.641 133.271 112.736 133.492C112.831 133.713 112.86 133.957 112.819 134.195C112.379 134.373 111.958 134.595 111.562 134.857C111.376 134.982 111.234 135.161 111.154 135.37C111.074 135.578 111.061 135.807 111.116 136.023C111.171 136.24 111.292 136.434 111.462 136.579C111.632 136.724 111.843 136.813 112.065 136.834C110.459 140.808 106.306 143.476 102.04 143.461C101.63 145.241 101.036 146.973 100.268 148.631H93.9365C93.9138 148.561 93.8934 148.488 93.873 148.418C94.459 148.454 95.0473 148.419 95.6248 148.313C94.0744 146.479 92.8753 145.543 93.7777 142.982L93.7779 142.982Z" fill="#F2F2F2"/>
<path d="M96.1239 143.921L93.3974 144.541L89.707 134.327L93.7312 133.412L96.1239 143.921Z" fill="#FFB6B6"/>
<path d="M96.867 146.742L88.4825 148.648L88.4584 148.542C88.2615 147.677 88.4165 146.77 88.8892 146.019C89.3619 145.268 90.1137 144.736 90.9792 144.539L90.9794 144.539L92.2465 143.03L95.3684 143.541L96.1003 143.375L96.867 146.742Z" fill="#160635"/>
<path d="M140.109 94.1321L141.608 96.4909L133.216 103.392L131.004 99.9099L140.109 94.1321Z" fill="#FFB6B6"/>
<path d="M142.517 92.4861L147.126 99.7399L147.035 99.7982C146.285 100.274 145.378 100.432 144.511 100.239C143.645 100.046 142.891 99.5167 142.415 98.7679L142.415 98.7678L140.567 98.0812L140.002 94.9706L139.6 94.3374L142.517 92.4861Z" fill="#160635"/>
<path d="M53.1949 68.9125L52.5215 65.0119L62.7596 60.3919L64.9705 56.48C64.8991 56.1367 64.9241 55.7804 65.0426 55.4504C65.1611 55.1204 65.3686 54.8296 65.6422 54.61C65.9157 54.3905 66.2447 54.2507 66.5927 54.2063C66.9407 54.1618 67.2942 54.2143 67.6142 54.3581C67.9343 54.5018 68.2083 54.7311 68.4061 55.0207C68.6039 55.3103 68.7177 55.6489 68.735 55.9991C68.7523 56.3493 68.6724 56.6974 68.5042 57.0051C68.3359 57.3127 68.0859 57.568 67.7816 57.7425L64.1445 63.3618L53.1949 68.9125Z" fill="#A0616A"/>
<path d="M50.084 65.7239L54.6945 63.3704L55.9149 67.9499L52.7125 70.3222L50.084 65.7239Z" fill="#B900F4"/>
<path d="M39.737 143.567L42.5246 143.566L43.8508 132.821L39.7363 132.821L39.737 143.567Z" fill="#A0616A"/>
<path d="M43.4529 143.817V141.929L42.7201 141.973L39.7368 142.15L39.0464 142.192L38.5185 148.518L38.4902 148.857H40.4696L40.5333 148.52L40.8208 146.989L41.5631 148.52L41.7256 148.857H46.9735C47.2858 148.855 47.5847 148.73 47.8053 148.509C48.0259 148.288 48.1503 147.989 48.1517 147.677C48.3732 146.643 44.0091 144.408 43.4529 143.817Z" fill="#160635"/>
<path d="M6.64789 100.923L5.99805 103.632L16.1451 107.426L17.1041 103.428L6.64789 100.923Z" fill="#A0616A"/>
<path d="M5.75759 104.475L7.59538 104.915L7.72271 104.193L8.24643 101.252L8.36617 100.572L2.33425 98.5838L2.01087 98.4773L1.54934 100.401L1.86219 100.541L3.28464 101.177L1.62209 101.542L1.25649 101.621L0.0329121 106.721C-0.0379772 107.025 0.0139705 107.345 0.177485 107.611C0.340999 107.876 0.602872 108.067 0.906235 108.141C1.86056 108.597 5.05275 104.878 5.75759 104.475Z" fill="#160635"/>
<path d="M44.0478 74.0236L40.4596 72.3474L33.3039 81.0011L28.9454 82.1027C28.6328 81.9435 28.2822 81.8737 27.9325 81.9011C27.5827 81.9285 27.2473 82.0519 26.9633 82.2578C26.6793 82.4637 26.4578 82.7441 26.3233 83.0679C26.1887 83.3917 26.1463 83.7463 26.2008 84.0927C26.2553 84.439 26.4045 84.7636 26.632 85.0305C26.8595 85.2975 27.1564 85.4964 27.4899 85.6053C27.8234 85.7141 28.1805 85.7288 28.5218 85.6476C28.8632 85.5664 29.1754 85.3925 29.424 85.1451L35.8063 83.1182L44.0478 74.0236Z" fill="#A0616A"/>
<path d="M94.9198 41.9885C94.1592 41.9885 93.4157 41.7631 92.7833 41.3409C92.1509 40.9186 91.658 40.3184 91.3669 39.6162C91.0759 38.9139 90.9997 38.1412 91.1481 37.3958C91.2965 36.6503 91.6628 35.9655 92.2006 35.4281C92.7384 34.8906 93.4236 34.5246 94.1696 34.3763C94.9156 34.228 95.6888 34.3042 96.3915 34.595C97.0942 34.8859 97.6948 35.3785 98.1174 36.0104C98.5399 36.6424 98.7655 37.3854 98.7655 38.1455C98.7643 39.1644 98.3588 40.1412 97.6378 40.8617C96.9169 41.5821 95.9394 41.9874 94.9198 41.9885ZM94.9198 34.7435C94.2465 34.7435 93.5883 34.943 93.0285 35.3169C92.4687 35.6907 92.0323 36.222 91.7747 36.8436C91.517 37.4653 91.4496 38.1493 91.581 38.8092C91.7123 39.4691 92.0365 40.0753 92.5126 40.5511C92.9887 41.0269 93.5953 41.3509 94.2557 41.4821C94.9161 41.6134 95.6006 41.546 96.2226 41.2885C96.8447 41.0311 97.3763 40.595 97.7504 40.0356C98.1245 39.4761 98.3241 38.8184 98.3241 38.1455C98.3231 37.2436 97.9641 36.3788 97.3259 35.7411C96.6877 35.1033 95.8224 34.7445 94.9198 34.7435Z" fill="#3BEDBF"/>
<path d="M94.6487 39.5934C94.641 39.5934 94.6333 39.5931 94.6255 39.5927C94.5573 39.5895 94.4905 39.5714 94.4298 39.54C94.3692 39.5085 94.3161 39.4642 94.2741 39.4103L93.6683 38.632C93.6301 38.5829 93.6019 38.5267 93.5854 38.4667C93.5688 38.4067 93.5643 38.344 93.572 38.2822C93.5797 38.2204 93.5996 38.1608 93.6303 38.1067C93.6611 38.0526 93.7023 38.0051 93.7515 37.9668L93.7733 37.9499C93.8224 37.9116 93.8786 37.8834 93.9387 37.8669C93.9988 37.8504 94.0615 37.8459 94.1234 37.8536C94.1852 37.8613 94.2449 37.8811 94.299 37.9119C94.3532 37.9427 94.4008 37.9839 94.439 38.033C94.4696 38.0723 94.5083 38.1045 94.5525 38.1274C94.5967 38.1503 94.6453 38.1635 94.6951 38.1659C94.7448 38.1683 94.7945 38.16 94.8407 38.1414C94.8869 38.1229 94.9286 38.0946 94.9629 38.0585L96.1928 36.7609C96.2794 36.6697 96.3987 36.6166 96.5244 36.6132C96.6501 36.6098 96.772 36.6563 96.8634 36.7426L96.8836 36.7619C96.9288 36.8047 96.9652 36.8559 96.9905 36.9128C97.0159 36.9696 97.0299 37.0309 97.0316 37.0931C97.0332 37.1554 97.0226 37.2173 97.0003 37.2754C96.9781 37.3336 96.9445 37.3867 96.9017 37.4319L94.9929 39.4453C94.9486 39.4921 94.8953 39.5293 94.8361 39.5548C94.7769 39.5803 94.7131 39.5934 94.6487 39.5934Z" fill="#3BEDBF"/>
<path d="M75.7226 88.5166C74.962 88.5166 74.2185 88.2912 73.5861 87.8689C72.9537 87.4467 72.4607 86.8465 72.1697 86.1442C71.8786 85.442 71.8025 84.6693 71.9508 83.9239C72.0992 83.1784 72.4655 82.4936 73.0033 81.9562C73.5411 81.4187 74.2264 81.0527 74.9723 80.9044C75.7183 80.7561 76.4915 80.8322 77.1942 81.1231C77.8969 81.414 78.4975 81.9065 78.9201 82.5385C79.3427 83.1705 79.5682 83.9135 79.5682 84.6736C79.567 85.6925 79.1615 86.6693 78.4406 87.3898C77.7196 88.1102 76.7421 88.5155 75.7226 88.5166ZM75.7226 81.2716C75.0493 81.2716 74.3911 81.4711 73.8312 81.8449C73.2714 82.2188 72.8351 82.7501 72.5774 83.3717C72.3197 83.9933 72.2523 84.6774 72.3837 85.3373C72.515 85.9972 72.8393 86.6034 73.3154 87.0792C73.7915 87.5549 74.3981 87.8789 75.0584 88.0102C75.7188 88.1415 76.4033 88.0741 77.0253 87.8166C77.6474 87.5591 78.1791 87.1231 78.5531 86.5636C78.9272 86.0042 79.1269 85.3464 79.1269 84.6736C79.1258 83.7716 78.7668 82.9069 78.1286 82.2691C77.4904 81.6314 76.6251 81.2726 75.7226 81.2716Z" fill="#3BEDBF"/>
<path d="M75.4495 86.1212C75.4418 86.1212 75.434 86.121 75.4263 86.1206C75.358 86.1173 75.2913 86.0993 75.2306 86.0678C75.17 86.0363 75.1169 85.9921 75.0749 85.9381L74.4691 85.1598C74.4309 85.1107 74.4027 85.0545 74.3861 84.9945C74.3696 84.9345 74.3651 84.8718 74.3728 84.81C74.3805 84.7483 74.4003 84.6886 74.4311 84.6345C74.4619 84.5804 74.5031 84.5329 74.5522 84.4947L74.574 84.4777C74.6232 84.4395 74.6794 84.4113 74.7395 84.3947C74.7996 84.3782 74.8623 84.3737 74.9242 84.3814C74.986 84.3891 75.0457 84.409 75.0998 84.4397C75.154 84.4705 75.2015 84.5117 75.2398 84.5609C75.2704 84.6001 75.3091 84.6323 75.3533 84.6552C75.3975 84.6782 75.4461 84.6913 75.4959 84.6937C75.5456 84.6961 75.5953 84.6878 75.6415 84.6693C75.6877 84.6507 75.7294 84.6225 75.7636 84.5863L76.9936 83.2887C77.0802 83.1976 77.1994 83.1445 77.3251 83.141C77.4509 83.1376 77.5728 83.1842 77.6642 83.2705L77.6844 83.2897C77.7296 83.3325 77.7659 83.3838 77.7913 83.4406C77.8167 83.4975 77.8307 83.5587 77.8323 83.621C77.834 83.6832 77.8234 83.7451 77.8011 83.8033C77.7788 83.8614 77.7453 83.9146 77.7025 83.9597L75.7937 85.9732C75.7494 86.0199 75.696 86.0572 75.6369 86.0826C75.5777 86.1081 75.5139 86.1212 75.4495 86.1212Z" fill="#3BEDBF"/>
<path d="M33.5761 36.6963C32.8155 36.6963 32.072 36.4709 31.4396 36.0486C30.8072 35.6264 30.3143 35.0262 30.0232 34.3239C29.7321 33.6217 29.656 32.849 29.8044 32.1035C29.9527 31.3581 30.319 30.6733 30.8568 30.1359C31.3946 29.5984 32.0799 29.2324 32.8258 29.0841C33.5718 28.9358 34.345 29.0119 35.0477 29.3028C35.7504 29.5937 36.351 30.0862 36.7736 30.7182C37.1962 31.3502 37.4217 32.0932 37.4217 32.8533C37.4206 33.8722 37.015 34.849 36.2941 35.5694C35.5732 36.2899 34.5957 36.6952 33.5761 36.6963ZM33.5761 29.4513C32.9028 29.4513 32.2446 29.6508 31.6848 30.0246C31.1249 30.3984 30.6886 30.9298 30.4309 31.5514C30.1733 32.173 30.1058 32.8571 30.2372 33.517C30.3686 34.1769 30.6928 34.7831 31.1689 35.2589C31.645 35.7346 32.2516 36.0586 32.9119 36.1899C33.5723 36.3212 34.2568 36.2538 34.8789 35.9963C35.5009 35.7388 36.0326 35.3028 36.4067 34.7433C36.7807 34.1839 36.9804 33.5261 36.9804 32.8533C36.9794 31.9513 36.6204 31.0866 35.9822 30.4488C35.344 29.8111 34.4786 29.4523 33.5761 29.4513Z" fill="#3BEDBF"/>
<path d="M33.305 34.3011C33.2972 34.3011 33.2895 34.3009 33.2818 34.3005C33.2135 34.2972 33.1468 34.2792 33.0861 34.2477C33.0254 34.2162 32.9723 34.172 32.9304 34.1181L32.3246 33.3398C32.2863 33.2906 32.2581 33.2345 32.2416 33.1744C32.2251 33.1144 32.2205 33.0517 32.2283 32.99C32.236 32.9282 32.2558 32.8686 32.2866 32.8144C32.3174 32.7603 32.3585 32.7128 32.4077 32.6746L32.4295 32.6576C32.4787 32.6194 32.5349 32.5912 32.595 32.5747C32.655 32.5581 32.7178 32.5536 32.7796 32.5613C32.8414 32.5691 32.9011 32.5889 32.9553 32.6197C33.0095 32.6505 33.057 32.6916 33.0952 32.7408C33.1258 32.78 33.1646 32.8122 33.2088 32.8352C33.253 32.8581 33.3016 32.8712 33.3513 32.8736C33.4011 32.8761 33.4507 32.8677 33.497 32.8492C33.5432 32.8307 33.5848 32.8024 33.6191 32.7663L34.8491 31.4686C34.9357 31.3775 35.0549 31.3244 35.1806 31.321C35.3063 31.3176 35.4283 31.3641 35.5197 31.4504L35.5398 31.4696C35.5851 31.5124 35.6214 31.5637 35.6468 31.6205C35.6722 31.6774 35.6861 31.7387 35.6878 31.8009C35.6895 31.8631 35.6789 31.9251 35.6566 31.9832C35.6343 32.0413 35.6008 32.0945 35.5579 32.1397L33.6491 34.1531C33.6049 34.1999 33.5515 34.2371 33.4923 34.2626C33.4331 34.288 33.3694 34.3011 33.305 34.3011Z" fill="#3BEDBF"/>
<path d="M64.3632 102.805C55.4457 102.805 45.1973 92.9163 36.1299 97.6149C8.6764 111.841 12.4555 88.0359 4.56836 79.1826L4.8273 78.6636C13.5299 86.4615 24.3953 92.8061 36.2491 97.0112C46.9612 100.812 57.7537 102.572 67.4557 102.108L67.4725 102.732C66.4479 102.781 65.4115 102.806 64.3632 102.805Z" fill="#F2F2F2"/>
<path d="M52.1316 35.9442C53.161 35.9442 53.9956 34.8258 53.9956 33.4463C53.9956 32.0668 53.161 30.9485 52.1316 30.9485C51.1021 30.9485 50.2676 32.0668 50.2676 33.4463C50.2676 34.8258 51.1021 35.9442 52.1316 35.9442Z" fill="#3BEDBF"/>
<path d="M73.6606 74.9108C72.8084 75.4782 71.9362 74.1277 72.8047 73.5855C73.6569 73.0181 74.5291 74.3686 73.6606 74.9108Z" fill="#3BEDBF"/>
<path d="M68.7554 29.445C70.0959 29.445 71.1827 28.359 71.1827 27.0194C71.1827 25.6797 70.0959 24.5938 68.7554 24.5938C67.4148 24.5938 66.3281 25.6797 66.3281 27.0194C66.3281 28.359 67.4148 29.445 68.7554 29.445Z" fill="#3BEDBF"/>
<path opacity="0.3" d="M77.2454 40.3115L91.0572 0L75.8909 39.8289C75.8159 39.9235 75.7645 40.0345 75.7411 40.1529C75.7176 40.2712 75.7227 40.3935 75.7559 40.5094C75.7892 40.6254 75.8496 40.7318 75.9322 40.8198C76.0148 40.9078 76.1172 40.9748 76.231 41.0153C76.3447 41.0558 76.4664 41.0687 76.5861 41.0528C76.7058 41.0369 76.8199 40.9927 76.9191 40.9239C77.0183 40.855 77.0996 40.7636 77.1563 40.6571C77.2131 40.5506 77.2436 40.4321 77.2453 40.3115H77.2454Z" fill="#F0F0F0"/>
<path d="M63.303 89.4226C64.6073 89.4226 65.6646 88.366 65.6646 87.0626C65.6646 85.7592 64.6073 84.7026 63.303 84.7026C61.9987 84.7026 60.9414 85.7592 60.9414 87.0626C60.9414 88.366 61.9987 89.4226 63.303 89.4226Z" fill="#F2F2F2"/>
<path d="M40.4299 87.9629C40.4299 87.9629 34.5426 91.7939 36.0993 94.3396C36.153 94.4274 29.0669 103.78 29.0669 103.78L15.69 102.931L15.2188 107.406L27.1278 110.852C27.1278 110.852 30.0412 112.991 32.2919 110.635C34.5426 108.278 42.0394 101.061 42.0394 101.061L42.401 115.632L38.6376 135.822L44.2568 135.466L49.726 115.21L51.7447 92.2649L40.4299 87.9629Z" fill="#160635"/>
<path d="M44.6234 64.9705L42.1476 66.8454L39.3258 72.864L42.0392 76.5467C42.0392 76.5467 44.3217 80.4998 40.6683 84.328C37.0148 88.1563 34.2093 92.245 37.1336 92.099C40.0578 91.953 51.9013 97.9728 51.9792 93.041C52.0572 88.1091 52.2149 84.328 52.2149 84.328L55.32 76.4577C55.32 76.4577 57.1699 71.7627 55.8711 70.3573C54.5722 68.9519 52.8332 67.156 52.8332 67.156L49.6707 63.9956H46.8151L44.6234 64.9705Z" fill="#B900F4"/>
<path d="M49.246 53.4064C54.8002 56.5648 50.2405 64.8982 44.5828 61.9308C39.0289 58.7725 43.5885 50.4391 49.246 53.4064Z" fill="#A0616A"/>
<path d="M52.2164 55.1578C51.8272 55.6636 51.0142 55.4264 49.4219 55.7874C49.4254 55.248 49.363 54.7103 49.2362 54.186C49.1178 54.8351 48.8581 55.4503 48.4757 55.9882C47.0931 56.1414 48.788 60.3388 48.0801 63.4249C47.168 56.9143 45.2495 58.62 46.2187 59.9114C46.8392 60.7381 46.4255 63.2182 44.5642 61.9781C41.493 63.4367 37.1187 56.1912 41.9668 52.7931C41.8801 50.9563 43.9252 50.6662 45.1846 51.2309C48.2409 48.9557 51.7327 51.871 52.2164 55.1578Z" fill="#160635"/>
<path d="M37.9642 50.407C36.7277 58.0047 30.0998 49.0098 26.9835 56.4866C26.0036 59.1942 27.6848 61.1312 28.7482 63.3787C28.9909 65.2257 26.5864 66.1628 26.3346 67.863C26.2645 71.7608 32.5572 71.5223 34.3164 69.0631C36.1239 66.4888 33.9654 63.0349 35.0519 60.2716C36.5789 56.4353 42.7891 56.4068 43.3301 51.9436C42.2823 50.4525 39.4649 48.7448 37.9642 50.407Z" fill="#160635"/>
<path d="M42.9745 51.1495C42.9341 51.1665 42.8936 51.1835 42.8574 51.2027H42.8553C42.8213 51.2197 42.7872 51.2367 42.7531 51.2558C42.7489 51.258 42.7467 51.2601 42.7425 51.2622C42.6978 51.2197 42.6531 51.1771 42.6062 51.1346C42.5941 51.2039 42.597 51.275 42.6147 51.3431L42.6211 51.3686C42.6637 51.4133 42.7084 51.4558 42.7553 51.5005C42.7978 51.4686 42.8383 51.4346 42.8809 51.4027C42.9064 51.3814 42.932 51.3601 42.9597 51.3388C42.9639 51.2835 42.9703 51.2197 42.9767 51.1495L42.9745 51.1495ZM44.2563 48.7835C43.3067 48.5665 43.0001 49.8069 42.9085 50.4048C42.5636 48.2345 41.1286 48.9175 41.6247 50.3984C41.7828 50.8368 42.0317 51.237 42.355 51.5729C42.3997 51.6239 42.4487 51.675 42.4998 51.7261C42.4423 52.0239 42.7318 51.9473 43.1236 51.6729C43.4129 51.4673 43.6804 51.2327 43.922 50.9729C44.7034 50.1537 45.3123 49.0579 44.2563 48.7835ZM44.2861 50.0048C43.9931 50.3823 43.6644 50.7307 43.3046 51.0452C43.1917 51.1473 43.0767 51.2452 42.9596 51.3388C42.9575 51.358 42.9575 51.375 42.9554 51.3899C42.9472 51.4106 42.9372 51.4305 42.9256 51.4495C42.8063 51.6644 42.6722 51.5473 42.6211 51.3686C42.6169 51.3622 42.6105 51.3558 42.6062 51.3495C42.4361 51.1738 42.2881 50.978 42.1655 50.7665C41.2862 49.2431 42.702 48.2069 42.6318 51.0516C42.6188 51.0777 42.6102 51.1057 42.6062 51.1346C42.5941 51.2039 42.597 51.275 42.6147 51.3431L42.6211 51.3686C42.6637 51.4133 42.7084 51.4558 42.7553 51.5005C42.7978 51.4686 42.8383 51.4346 42.8809 51.4027C42.9064 51.3814 42.932 51.3601 42.9597 51.3388C42.9639 51.2835 42.9703 51.2197 42.9767 51.1495V51.1473C43.032 50.5771 43.1832 49.5516 43.4621 49.2728C44.0753 48.8026 44.8695 49.3111 44.2861 50.0048ZM42.9745 51.1495C42.9341 51.1665 42.8936 51.1835 42.8574 51.2027H42.8553C42.8213 51.2197 42.7872 51.2367 42.7531 51.2558C42.7489 51.258 42.7467 51.2601 42.7425 51.2622C42.6978 51.2197 42.6531 51.1771 42.6062 51.1346C42.5941 51.2039 42.597 51.275 42.6147 51.3431L42.6211 51.3686C42.6637 51.4133 42.7084 51.4558 42.7553 51.5005C42.7978 51.4686 42.8383 51.4346 42.8809 51.4027C42.9064 51.3814 42.932 51.3601 42.9597 51.3388C42.9639 51.2835 42.9703 51.2197 42.9767 51.1495L42.9745 51.1495Z" fill="#160635"/>
<path d="M94.3087 93.0378L92.2574 98.3838L82.6348 117.352L91.0901 139.418L95.4539 138.267L91.8572 117.352L102.176 104.823L114.431 113.129C114.431 113.129 119.866 117.369 121.933 113.349C124.001 109.33 137.379 100.78 137.379 100.78L134.07 97.2519L118.663 104.457L108.03 89.5L94.3087 93.0378Z" fill="#160635"/>
<path d="M104.661 67.8212L101.284 64.1957L95.4919 63.3994L88.3945 68.3646L88.466 73.8605L91.9745 86.8109C91.9745 86.8109 90.6381 96.1152 94.3709 96.0219C98.1036 95.9286 100.138 94.0689 101.659 94.4474C103.179 94.826 109.641 96.4372 110.051 94.7495C110.461 93.0619 112.638 94.2703 112.542 92.6738C112.447 91.0773 106.648 79.5695 106.648 79.5695L108.09 68.0606L104.661 67.8212Z" fill="#B900F4"/>
<path d="M126.041 51.1329C126.071 51.4335 126.035 51.7372 125.935 52.0224C125.835 52.3076 125.674 52.5674 125.462 52.7836C125.251 52.9998 124.995 53.167 124.712 53.2736C124.429 53.3801 124.126 53.4234 123.825 53.4003L116.059 68.1584L113.975 64.9602L121.912 51.0318C121.984 50.5282 122.239 50.0686 122.627 49.7402C123.016 49.4117 123.512 49.2372 124.021 49.2496C124.53 49.2621 125.017 49.4607 125.389 49.8078C125.761 50.1549 125.993 50.6264 126.041 51.1329Z" fill="#FFB6B6"/>
<path d="M101.595 70.5653C101.595 70.5653 101.287 73.1904 104.244 73.8403C107.202 74.4902 115.395 69.8118 116.738 69.0972C117.159 68.8735 117.729 67.7767 118.315 66.3756C118.578 65.7466 118.844 65.0562 119.101 64.356C119.249 63.9508 119.96 63.8402 120.1 63.4383C120.239 63.0387 119.807 62.3477 119.933 61.971C120.532 60.1832 120.956 58.7648 120.956 58.7648L118.996 55.0854C116.254 56.5337 114.848 59.7238 113.814 63.399L101.595 70.5653Z" fill="#B900F4"/>
<path d="M67.0556 54.5218C67.1017 54.8205 67.2127 55.1054 67.3808 55.3566C67.549 55.6077 67.7702 55.8189 68.0289 55.9754C68.2876 56.1319 68.5774 56.2297 68.8781 56.2621C69.1787 56.2946 69.4828 56.2607 69.7689 56.163L80.9828 68.5094L82.2003 64.8916L71.0278 53.3914C70.8316 52.9219 70.4699 52.5407 70.0113 52.3199C69.5526 52.0991 69.0289 52.0541 68.5393 52.1935C68.0496 52.3328 67.6282 52.6468 67.3547 53.076C67.0813 53.5051 66.9749 54.0195 67.0556 54.5218Z" fill="#FFB6B6"/>
<path d="M95.5902 67.2225C95.5902 67.2225 96.5458 69.6871 93.8453 71.0559C91.1449 72.4247 82.0408 69.9442 80.5614 69.5883C80.0981 69.4768 79.2709 68.5577 78.3531 67.3476C77.941 66.8044 77.5107 66.2025 77.0869 65.5887C76.8416 65.2336 76.1253 65.3043 75.8892 64.9503C75.6544 64.5981 75.8995 63.8211 75.6832 63.488C74.6562 61.9066 73.8906 60.6394 73.8906 60.6394L74.8669 56.5869C77.8837 57.3035 80.0438 60.0405 81.9654 63.3401L95.5902 67.2225Z" fill="#B900F4"/>
<path d="M98.5034 62.4772C101.547 62.4772 104.015 60.0114 104.015 56.9697C104.015 53.928 101.547 51.4622 98.5034 51.4622C95.4597 51.4622 92.9922 53.928 92.9922 56.9697C92.9922 60.0114 95.4597 62.4772 98.5034 62.4772Z" fill="#FFB6B6"/>
<path d="M104.793 53.8164C104.214 52.9201 103.126 52.3228 102.071 52.4906C101.973 51.818 101.692 51.1852 101.259 50.6611C100.826 50.137 100.257 49.7417 99.6146 49.5183C98.9722 49.2948 98.2808 49.2517 97.6156 49.3938C96.9505 49.5358 96.3371 49.8575 95.8422 50.3238C95.6794 50.2093 95.4898 50.1387 95.2918 50.1189C95.0937 50.0991 94.8939 50.1307 94.7117 50.2107C94.3487 50.3756 94.0329 50.6289 93.7933 50.9474C93.1881 51.7016 92.7989 52.6056 92.6671 53.5633C92.5353 54.521 92.6658 55.4965 93.0447 56.3859C92.9158 55.9177 93.3854 55.4771 93.8599 55.3721C94.3343 55.267 94.832 55.3664 95.3131 55.298C95.9297 55.2103 96.4841 54.8528 97.1017 54.7724C97.6254 54.7383 98.1508 54.8058 98.6489 54.971C99.1469 55.1363 99.6715 55.2067 100.196 55.1786C100.715 55.1169 101.385 57.0855 101.376 58.4721C101.374 58.7349 101.428 59.0723 101.685 59.128C102.002 59.1967 102.185 58.7602 102.486 58.6413C102.625 58.6015 102.774 58.6172 102.902 58.6849C103.029 58.7527 103.125 58.8673 103.17 59.0045C103.208 59.144 103.212 59.2906 103.182 59.432C103.152 59.5734 103.088 59.7056 102.996 59.8175C102.811 60.0394 102.592 60.2299 102.346 60.3817L102.47 60.4849C102.587 60.6092 102.745 60.6887 102.915 60.7098C103.085 60.7309 103.257 60.6923 103.401 60.6005C103.686 60.408 103.916 60.146 104.07 59.8393C104.652 58.9409 105.067 57.9457 105.298 56.9008C105.492 55.8514 105.373 54.7126 104.793 53.8164Z" fill="#160635"/>
<path d="M145.565 75.5382C138.457 80.9186 124.312 79.2189 119.923 88.4353C106.633 116.34 95.263 95.0833 83.6267 92.7845L83.5195 92.2146C95.1682 93.1801 107.663 91.682 119.653 87.8821C130.488 84.4484 140.156 79.3404 147.609 73.1162L147.999 73.6034C147.212 74.2609 146.401 74.9059 145.565 75.5382Z" fill="#F2F2F2"/>
<path d="M115.51 148.624C115.341 149.125 18.6749 149.125 18.4922 148.625C18.6613 148.123 115.327 148.123 115.51 148.624Z" fill="#CCCCCC"/>
</g>
<defs>
<clipPath id="clip0_243_1459">
<rect width="148" height="149" fill="white"/>
</clipPath>
</defs>
</svg>
