<svg width="18" height="17" viewBox="0 0 18 17" fill="none" xmlns="http://www.w3.org/2000/svg">
<path d="M8 1.40186H2.55556C2.143 1.40186 1.74733 1.56574 1.45561 1.85747C1.16389 2.14919 1 2.54485 1 2.95741V13.8463C1 14.2589 1.16389 14.6545 1.45561 14.9462C1.74733 15.238 2.143 15.4019 2.55556 15.4019H13.4444C13.857 15.4019 14.2527 15.238 14.5444 14.9462C14.8361 14.6545 15 14.2589 15 13.8463V8.40186" stroke="#3BEDBF" stroke-width="2" stroke-linecap="round" stroke-linejoin="round"/>
<path d="M14.1791 2.48399C14.489 2.1741 14.9093 2 15.3476 2C15.7858 2 16.2061 2.1741 16.516 2.48399C16.8259 2.79388 17 3.21418 17 3.65243C17 4.09068 16.8259 4.51099 16.516 4.82088L9.11586 12.221L6 13L6.77896 9.88414L14.1791 2.48399Z" stroke="#3BEDBF" stroke-width="2" stroke-linecap="round" stroke-linejoin="round"/>
</svg>
