<svg width="107" height="93" viewBox="0 0 107 93" fill="none" xmlns="http://www.w3.org/2000/svg">
<g clip-path="url(#clip0_304_5295)">
<path d="M17.7474 32.3754C17.4971 32.4006 17.2452 32.4064 16.994 32.3929C16.9511 32.3883 16.9082 32.4006 16.8743 32.4271C16.8405 32.4537 16.8185 32.4925 16.8131 32.5351L16.3324 36.1282C16.2955 36.3891 16.1883 36.635 16.0224 36.8401C15.8856 37.0032 15.7839 37.1927 15.7236 37.3966C15.6633 37.6006 15.6457 37.8147 15.672 38.0258V44.1293C15.672 44.1293 15.641 44.9432 16.2684 44.9432C17.0193 45.0372 17.779 45.0372 18.5299 44.9432C18.5299 44.9432 19.0322 44.8484 19.0322 44.0974V38.0876C19.0705 37.8779 19.0626 37.6624 19.0091 37.4561C18.9556 37.2497 18.8576 37.0575 18.7221 36.8926C18.5617 36.6868 18.4581 36.4429 18.4214 36.1849L17.9221 32.5166C17.9165 32.4753 17.8952 32.4378 17.8628 32.4116C17.8304 32.3853 17.7891 32.3724 17.7474 32.3754V32.3754Z" fill="#3BEDBF"/>
<path d="M17.3965 45.116C17.017 45.116 16.6379 45.0925 16.2613 45.0456C16.1772 45.0476 16.0935 45.0322 16.0156 45.0005C15.9377 44.9687 15.8673 44.9212 15.8087 44.861C15.5534 44.5967 15.5675 44.1441 15.5683 44.1249L15.5682 38.0315C15.5416 37.8075 15.561 37.5804 15.6254 37.3641C15.6898 37.1478 15.7977 36.9468 15.9426 36.7735C16.0963 36.5833 16.1954 36.3552 16.2297 36.1133L16.7102 32.521C16.7196 32.4519 16.7556 32.3891 16.8105 32.346C16.8655 32.3029 16.9352 32.2828 17.0048 32.29C17.2488 32.3029 17.4935 32.297 17.7367 32.2724L17.7396 32.2722C17.8074 32.2673 17.8746 32.2883 17.9275 32.331C17.9803 32.3737 18.0149 32.4349 18.0241 32.5021L18.5234 36.1706C18.5577 36.4105 18.6542 36.6374 18.8033 36.8288C18.947 37.0038 19.051 37.2076 19.1083 37.4264C19.1656 37.6451 19.1747 37.8736 19.1352 38.0962V44.0969C19.1352 44.9236 18.5546 45.0428 18.5487 45.0439C18.1665 45.0919 17.7817 45.116 17.3965 45.116V45.116ZM16.9795 32.4949C16.9641 32.4941 16.949 32.4991 16.9371 32.5089C16.9253 32.5186 16.9174 32.5324 16.9152 32.5476L16.4345 36.1414C16.395 36.4209 16.2802 36.6845 16.1024 36.9042C15.9746 37.0568 15.8795 37.2339 15.8231 37.4245C15.7666 37.6151 15.75 37.8153 15.7742 38.0126L15.7749 38.0252V44.1288C15.7747 44.1364 15.7638 44.5181 15.9581 44.7186C15.9983 44.7594 16.0466 44.7912 16.1001 44.8121C16.1535 44.8329 16.2107 44.8423 16.268 44.8397L16.2809 44.8405C17.0232 44.9333 17.7743 44.9333 18.5166 44.8405C18.5264 44.838 18.9285 44.7467 18.9285 44.0969L18.9301 38.0686C18.9659 37.8736 18.9587 37.6732 18.9089 37.4813C18.8591 37.2894 18.7679 37.1106 18.6418 36.9574C18.4696 36.7369 18.3582 36.4754 18.3186 36.1988L17.8193 32.5299C17.8171 32.5148 17.8094 32.5011 17.7976 32.4915C17.7858 32.4818 17.7708 32.4769 17.7556 32.4776C17.5006 32.503 17.244 32.509 16.988 32.4953C16.9852 32.495 16.9823 32.4949 16.9795 32.4949H16.9795Z" fill="#3F3D56"/>
<path d="M16.9878 38.1348H17.7496C18.0525 38.1348 18.343 38.2547 18.5572 38.4682C18.7714 38.6816 18.8917 38.9712 18.8917 39.2731V42.1297C18.8917 42.4316 18.7714 42.7211 18.5572 42.9346C18.343 43.148 18.0525 43.268 17.7496 43.268H16.9878C16.6849 43.268 16.3944 43.148 16.1802 42.9346C15.966 42.7211 15.8457 42.4316 15.8457 42.1297V39.2731C15.8457 39.1236 15.8752 38.9756 15.9326 38.8375C15.99 38.6994 16.0742 38.5739 16.1802 38.4682C16.2863 38.3625 16.4122 38.2786 16.5508 38.2214C16.6893 38.1642 16.8378 38.1348 16.9878 38.1348V38.1348Z" fill="#B900F4"/>
<path d="M2.98481 90.601H5.46834L6.64985 81.0537L2.98438 81.0539L2.98481 90.601Z" fill="#9F616A"/>
<path d="M2.34961 89.7922L7.24056 89.792H7.24076C8.06739 89.792 8.86016 90.1193 9.44468 90.7019C10.0292 91.2845 10.3576 92.0746 10.3577 92.8984V92.9994L2.34976 92.9997L2.34961 89.7922Z" fill="#2F2E41"/>
<path d="M1.42174 56.5C1.42174 56.5 0.3454 57.7126 2.12766 62.4395L1.81373 88.358L7.58946 88.2457L8.85903 75.6028L11.1705 57.1533L1.42174 56.5Z" fill="#2F2E41"/>
<path d="M13.1524 60.0836L13.0892 60.0739C5.70041 58.9508 0.124722 57.8741 0.0692638 57.8634L0 57.85L1.93691 53.1547C1.92161 52.6641 1.50233 38.8867 2.30496 34.9283C3.08195 31.0963 6.74441 30.4684 7.16177 30.4093L7.58084 29.0254L12.8752 31.7711L13.7986 34.9385L13.9862 43.6194L13.1524 60.0836Z" fill="#3F3D56"/>
<path d="M16.342 42.2158C16.1036 42.2158 15.8678 42.2649 15.6493 42.3601C15.4309 42.4553 15.2346 42.5946 15.0727 42.7691H6.17373L2.91406 43.4606L3.44925 47.5746L15.0448 45.0892C15.2368 45.3053 15.48 45.47 15.7523 45.5683C16.0246 45.6666 16.3172 45.6954 16.6035 45.652C16.8898 45.6086 17.1606 45.4944 17.3913 45.3198C17.6219 45.1453 17.805 44.9159 17.9238 44.6527C18.0426 44.3895 18.0934 44.1008 18.0715 43.813C18.0496 43.5253 17.9557 43.2475 17.7984 43.0052C17.6411 42.7628 17.4254 42.5636 17.171 42.4258C16.9166 42.2879 16.6316 42.2157 16.342 42.2158H16.342Z" fill="#9F616A"/>
<path d="M16.4177 27.47C17.5539 25.3986 16.79 22.8014 14.7116 21.6691C12.6332 20.5367 10.0273 21.298 8.89117 23.3694C7.75502 25.4409 8.51886 28.0381 10.5973 29.1704C12.6756 30.3028 15.2816 29.5415 16.4177 27.47Z" fill="#9F616A"/>
<path d="M8.62086 22.0029L8.41295 21.5858L9.45915 21.0678C9.45915 21.0678 10.6133 19.1961 12.7017 19.7221C14.7902 20.2481 15.7298 20.5629 15.7298 20.5629L16.7734 21.0862L16.2496 21.6056L17.1892 21.9204L16.5615 22.2312L17.2919 22.6496L16.8987 24.7944C16.8987 24.7944 16.2456 23.1676 14.9902 23.7893C13.7348 24.411 11.4384 23.468 11.4384 23.468L9.44333 27.3161C9.44333 27.3161 9.03174 25.9671 8.29792 26.3268C8.29791 26.3268 6.42318 23.3512 8.62086 22.0029Z" fill="#2F2E41"/>
<path d="M3.50604 48.3468L2.48835 45.3297L2.24219 35.2726L2.6758 33.8457C2.83187 33.3321 3.09037 32.8552 3.43581 32.4436C3.78124 32.032 4.2065 31.6941 4.68609 31.4502C5.16569 31.2063 5.68975 31.0614 6.22687 31.0242C6.764 30.987 7.30312 31.0583 7.81195 31.2338C8.32078 31.4092 8.78883 31.6852 9.18805 32.0453C9.58728 32.4054 9.90946 32.842 10.1353 33.3292C10.3611 33.8163 10.486 34.3439 10.5023 34.8802C10.5187 35.4166 10.4262 35.9507 10.2305 36.4506L7.90633 42.3863L8.02447 42.6149L13.0597 42.5742L14.8483 45.7829L3.50604 48.3468Z" fill="#3F3D56"/>
<path d="M53.8842 47.1069C54.0721 46.9807 54.23 46.8151 54.3467 46.6215C54.4634 46.428 54.5361 46.2113 54.5598 45.9868C54.5834 45.7622 54.5573 45.5352 54.4833 45.3217C54.4094 45.1083 54.2894 44.9136 54.1318 44.7514L56.6137 39.8516L53.7709 40.1802L51.8499 44.7828C51.594 45.0647 51.4508 45.4304 51.4473 45.8106C51.4439 46.1907 51.5805 46.5589 51.8313 46.8454C52.082 47.1319 52.4295 47.3167 52.8079 47.3649C53.1862 47.4131 53.5692 47.3213 53.8842 47.1069V47.1069Z" fill="#FFB7B7"/>
<path d="M73.7892 81.8148L71.5524 81.8147L70.4883 73.2158L73.7895 73.2161L73.7892 81.8148Z" fill="#FFB7B7"/>
<path d="M74.3588 83.9749L67.1465 83.9747V83.8837C67.1465 83.1417 67.4423 82.4301 67.9688 81.9054C68.4952 81.3807 69.2092 81.086 69.9537 81.0859H69.9539L74.359 81.0861L74.3588 83.9749Z" fill="#2F2E41"/>
<path d="M61.5646 81.8148L59.3278 81.8147L58.2637 73.2158L61.5651 73.2161L61.5646 81.8148Z" fill="#FFB7B7"/>
<path d="M61.5873 83.9749L54.375 83.9747V83.8837C54.3751 83.1417 54.6708 82.4301 55.1973 81.9054C55.7237 81.3807 56.4377 81.086 57.1822 81.0859H57.1824L61.5875 81.0861L61.5873 83.9749Z" fill="#2F2E41"/>
<path d="M61.3821 45.4971L59.1927 50.5241L57.3867 79.4182L61.9479 79.2364L63.1937 65.4624L67.0366 53.1945L69.2458 66.8712L70.1582 78.8726L73.9323 79.0355L75.4363 45.4971H61.3821Z" fill="#2F2E41"/>
<path d="M72.3256 20.6914L65.98 20.8496L62.2545 22.7557L62.0501 36.8186L59.7266 46.5279C59.7266 46.5279 74.2442 47.5237 76.2511 46.069L73.8793 34.9769L77.0604 22.9895L72.3256 20.6914Z" fill="#B900F4"/>
<path d="M63.2337 22.9894L62.643 22.5918C62.643 22.5918 60.1957 23.3228 59.4724 26.5752C59.4724 26.5752 58.9188 28.2069 58.676 29.3288C58.3974 30.6155 52.2461 42.435 52.2461 42.435L55.929 43.488L62.681 32.6052L63.2337 22.9894Z" fill="#B900F4"/>
<path d="M76.96 48.9097C76.8143 48.7368 76.7084 48.5342 76.6497 48.3161C76.5911 48.098 76.5811 47.8697 76.6206 47.6474C76.66 47.425 76.7479 47.214 76.878 47.0291C77.0082 46.8443 77.1774 46.6901 77.3738 46.5775L76.3438 41.1855L78.9854 42.2827L79.5585 47.2348C79.7265 47.5762 79.763 47.9671 79.6611 48.3334C79.5592 48.6998 79.326 49.0161 79.0057 49.2226C78.6854 49.429 78.3002 49.5112 77.9232 49.4536C77.5462 49.3959 77.2035 49.2024 76.96 48.9097V48.9097Z" fill="#FFB7B7"/>
<path d="M76.1053 23.1573L76.7831 22.9375C76.7831 22.9375 78.9332 24.3128 78.7286 27.6378C78.7286 27.6378 78.8092 29.3584 78.7323 30.5035C78.644 31.817 79.827 44.8688 79.827 44.8688H75.9956L74.3535 33.0493L76.1053 23.1573Z" fill="#B900F4"/>
<path d="M73.8836 14.7914C73.8836 15.6585 73.6256 16.5061 73.1423 17.227C72.6589 17.948 71.9719 18.5099 71.1681 18.8418C70.3644 19.1736 69.4799 19.2604 68.6266 19.0912C67.7733 18.9221 66.9895 18.5045 66.3743 17.8914C65.7591 17.2783 65.3402 16.4971 65.1705 15.6467C65.0007 14.7962 65.0878 13.9147 65.4208 13.1136C65.7537 12.3125 66.3175 11.6278 67.0409 11.1461C67.7643 10.6644 68.6148 10.4072 69.4848 10.4072V10.4072C70.6485 10.4043 71.7657 10.8623 72.5907 11.6804C73.4156 12.4985 73.8807 13.6097 73.8836 14.7695C73.8836 14.7768 73.8836 14.7841 73.8836 14.7914Z" fill="#FFB7B7"/>
<path d="M65.0989 8.90333C65.6142 7.79896 66.6114 8.01731 67.4836 8.39166C68.588 8.1475 69.6383 7.41653 70.8283 7.84882C72.0004 9.54794 75.9359 9.04803 75.0986 11.8142C75.0975 12.477 76.35 12.0912 76.1314 13.1768C76.7949 15.266 73.7364 19.2225 71.9806 18.3893C72.4148 17.5962 73.4068 15.7946 71.9023 15.6159C68.6658 18.6173 71.5683 9.90065 67.5018 12.4356C66.1553 13.6637 64.312 10.1317 65.0989 8.90333Z" fill="#2F2E41"/>
<path d="M77.7304 49.3467C77.9399 49.3887 78.1561 49.3844 78.3638 49.3341C78.5714 49.2838 78.7655 49.1887 78.9323 49.0556C79.0991 48.9224 79.2346 48.7545 79.3292 48.5635C79.4239 48.3725 79.4753 48.1632 79.48 47.9502L90.5251 37.5891L88.0399 35.6133L77.9456 46.4454C77.5862 46.4613 77.2451 46.6081 76.9869 46.8579C76.7288 47.1077 76.5716 47.4432 76.545 47.8008C76.5185 48.1584 76.6245 48.5133 76.843 48.7982C77.0614 49.0832 77.3772 49.2783 77.7304 49.3467V49.3467Z" fill="#9F616A"/>
<path d="M88.9599 39.2641L86.8111 36.7543C86.75 36.6828 86.705 36.5991 86.6793 36.5088C86.6535 36.4185 86.6476 36.3238 86.6619 36.231C86.6762 36.1382 86.7104 36.0496 86.7622 35.9712C86.814 35.8927 86.8821 35.8264 86.9619 35.7765L89.7594 34.0312C90.1278 33.7214 90.6043 33.5699 91.0846 33.6098C91.5649 33.6497 92.0097 33.8779 92.3215 34.2442C92.6332 34.6105 92.7865 35.0851 92.7477 35.5639C92.7089 36.0427 92.4812 36.4866 92.1144 36.7982L89.9525 39.2695C89.8905 39.3403 89.8141 39.3969 89.7282 39.4355C89.6423 39.4741 89.5491 39.4938 89.455 39.4933C89.3608 39.4928 89.2678 39.4721 89.1824 39.4325C89.097 39.3929 89.0211 39.3355 88.9599 39.2641V39.2641Z" fill="#CBCBCB"/>
<path d="M83.1826 90.3912L80.482 90.3911L79.1973 80.0098L83.183 80.0099L83.1826 90.3912Z" fill="#9F616A"/>
<path d="M83.8717 92.9997L75.1641 92.9993V92.8896C75.1641 91.9937 75.5212 91.1346 76.1568 90.5011C76.7924 89.8677 77.6544 89.5118 78.5533 89.5117H78.5535L83.8718 89.5119L83.8717 92.9997Z" fill="#2F2E41"/>
<path d="M104.768 90.3912L102.068 90.3911L100.783 80.0098L104.769 80.0099L104.768 90.3912Z" fill="#9F616A"/>
<path d="M105.458 92.9997L96.75 92.9993V92.8896C96.7501 91.9937 97.1072 91.1346 97.7428 90.5011C98.3784 89.8677 99.2404 89.5118 100.139 89.5117H100.139L105.458 89.5119L105.458 92.9997Z" fill="#2F2E41"/>
<path d="M97.5046 44.7675L100.227 34.744L96.6953 32.7656H91.7661L89.8489 34.8099C89.8489 34.8099 86.6458 37.031 87.4211 39.492L88.6718 45.0972L86.759 53.9997L77.1213 67.3205L74.8398 80.4051L83.8205 82.7515L93.5318 63.6936L98.2403 84.7958L107 84.3567L103.981 58.7703C103.981 58.7703 103.121 50.9757 98.6108 46.1089L97.5046 44.7675Z" fill="#2F2E41"/>
<path d="M103.126 53.6364C103.278 53.4865 103.395 53.3053 103.468 53.1054C103.542 52.9056 103.571 52.692 103.554 52.4798C103.536 52.2675 103.471 52.0617 103.365 51.8769C103.259 51.6922 103.113 51.5328 102.938 51.4102L100.826 37.209L97.7949 38.163L100.83 51.8403C100.642 52.1465 100.574 52.5106 100.638 52.8634C100.702 53.2163 100.894 53.5335 101.177 53.7549C101.46 53.9763 101.815 54.0865 102.174 54.0647C102.533 54.0429 102.872 53.8905 103.126 53.6364V53.6364Z" fill="#9F616A"/>
<path d="M101.349 39.4372L98.0606 39.8151C97.967 39.8258 97.8722 39.8164 97.7827 39.7873C97.6931 39.7583 97.6109 39.7103 97.5416 39.6467C97.4723 39.5831 97.4176 39.5054 97.3811 39.4188C97.3447 39.3323 97.3274 39.2389 97.3304 39.1451L97.4369 35.8574C97.3845 35.38 97.5241 34.9013 97.8252 34.5263C98.1264 34.1513 98.5644 33.9107 99.0433 33.857C99.5221 33.8034 100.003 33.9413 100.38 34.2403C100.757 34.5394 101 34.9752 101.055 35.4524L101.907 38.6191C101.932 38.7098 101.936 38.8046 101.92 38.8972C101.905 38.9898 101.869 39.0779 101.816 39.1555C101.763 39.2331 101.694 39.2985 101.614 39.3471C101.533 39.3957 101.443 39.4264 101.349 39.4372V39.4372Z" fill="#CBCBCB"/>
<path d="M88.7188 29.9148V25.6915C88.7188 24.1906 89.317 22.7511 90.3819 21.6898C91.4468 20.6285 92.8911 20.0322 94.397 20.0322C95.903 20.0322 97.3473 20.6285 98.4122 21.6898C99.477 22.7511 100.075 24.1906 100.075 25.6915V29.9148C100.075 30.1164 99.9946 30.3096 99.8516 30.4521C99.7086 30.5946 99.5148 30.6748 99.3125 30.675H89.4815C89.2793 30.6748 89.0854 30.5946 88.9424 30.4521C88.7994 30.3096 88.719 30.1164 88.7188 29.9148V29.9148Z" fill="#2F2E41"/>
<path d="M95.2268 30.0686C97.2442 28.9694 97.9857 26.4484 96.8828 24.4377C95.78 22.427 93.2505 21.688 91.233 22.7871C89.2156 23.8863 88.4741 26.4073 89.577 28.4181C90.6798 30.4288 93.2093 31.1677 95.2268 30.0686Z" fill="#9F616A"/>
<path d="M87.375 26.0295C87.3763 24.8426 87.85 23.7047 88.6921 22.8654C89.5342 22.0262 90.6759 21.5541 91.8668 21.5527H92.7143C93.9052 21.5541 95.0469 22.0262 95.889 22.8654C96.731 23.7047 97.2047 24.8426 97.206 26.0295V26.1139H95.415L94.8041 24.4091L94.6819 26.1139H93.7563L93.4481 25.2538L93.3864 26.1139H87.375V26.0295Z" fill="#2F2E41"/>
<path d="M92.8208 31.1499C92.7367 31.0364 92.6865 30.9015 92.6759 30.7608C92.6654 30.6202 92.6949 30.4794 92.7611 30.3547C93.6592 28.6521 94.9167 25.5063 93.2476 23.5662L93.1276 23.4268H97.9732V30.6774L93.5713 31.4514C93.5268 31.4593 93.4816 31.4633 93.4363 31.4633C93.3162 31.4633 93.1977 31.4349 93.0907 31.3804C92.9837 31.3259 92.8912 31.2469 92.8208 31.1499V31.1499Z" fill="#2F2E41"/>
<path d="M48.2827 35.0113C48.2212 35.0742 48.1649 35.1419 48.1141 35.2137L40.2189 35.0212L39.2979 33.3438L36.5762 34.3983L37.9172 37.5257C38.0255 37.7784 38.2131 37.9892 38.4519 38.1265C38.6907 38.2639 38.9677 38.3203 39.2414 38.2873L48.1615 37.2134C48.3719 37.4789 48.6585 37.6742 48.983 37.7735C49.3075 37.8727 49.6547 37.8711 49.9783 37.7689C50.3019 37.6667 50.5866 37.4687 50.7945 37.2013C51.0025 36.9339 51.1238 36.6097 51.1424 36.2719C51.161 35.9341 51.0759 35.5986 50.8986 35.3102C50.7212 35.0217 50.4599 34.7939 50.1495 34.657C49.839 34.5202 49.4941 34.4808 49.1607 34.5441C48.8272 34.6073 48.521 34.7703 48.2827 35.0113H48.2827Z" fill="#FFB7B7"/>
<path d="M22.5454 82.7989H25.1413L26.3763 72.8193L22.5449 72.8195L22.5454 82.7989Z" fill="#FFB7B7"/>
<path d="M21.8828 81.9543L26.9953 81.9541H26.9955C27.8595 81.9541 28.6882 82.2963 29.2992 82.9052C29.9102 83.5141 30.2534 84.34 30.2535 85.2012V85.3067L21.883 85.307L21.8828 81.9543Z" fill="#2F2E41"/>
<path d="M46.1174 82.7409L48.5046 81.7244L45.7068 72.0635L42.1836 73.5637L46.1174 82.7409Z" fill="#FFB7B7"/>
<path d="M45.1758 82.2238L49.8772 80.222L49.8774 80.2219C50.672 79.8837 51.5689 79.8738 52.3708 80.1946C53.1726 80.5154 53.8138 81.1405 54.1533 81.9324L54.1949 82.0295L46.4974 85.3069L45.1758 82.2238Z" fill="#2F2E41"/>
<path d="M35.1642 37.1731L35.3518 40.2049L29.8647 40.7902L24.123 41.4025L25.813 36.7988L35.1642 37.1731Z" fill="#FFB7B7"/>
<path d="M35.3567 38.2604C35.2945 38.2361 29.0967 35.8333 25.2897 37.798L25.1961 37.8463L24.4367 34.1207L24.0039 26.1107L26.8198 24.7845L27.5951 23.0536L32.8761 22.7422L33.9613 24.2255L37.6561 25.4323L35.4479 38.2963L35.3567 38.2604Z" fill="#E4E4E4"/>
<path d="M35.5508 31.0303L36.204 25.9151L37.6913 25.4639L37.7164 25.4731C37.7507 25.4856 38.559 25.794 38.7803 26.9093C38.9927 27.9799 40.5922 34.6418 40.6084 34.709L40.6244 34.7757L36.8662 36.2743L35.5508 31.0303Z" fill="#E4E4E4"/>
<path d="M44.1843 80.9873L49.1871 79.9645L41.1912 57.9748L38.4546 50.4744C38.4546 50.4744 36.7189 44.4606 35.9347 42.1334L35.4615 39.0107L24.2587 40.2466C24.2587 40.2466 21.1298 44.8263 22.0803 52.291L21.6504 80.348L26.6532 80.6037L30.8436 52.3069L38.1981 67.819C38.1981 67.819 40.5161 74.4386 42.1746 75.8734L44.1843 80.9873Z" fill="#2F2E41"/>
<path d="M28.7522 41.2878C28.6641 41.2857 28.5759 41.2906 28.4886 41.3023L23.2623 35.4012L23.8702 33.5876L21.2438 32.3154L19.8545 35.4219C19.7423 35.6728 19.7147 35.9533 19.776 36.2212C19.8374 36.4891 19.9842 36.7299 20.1945 36.9075L27.0496 42.6965C26.9973 43.0308 27.0484 43.373 27.196 43.6777C27.3436 43.9823 27.5808 44.235 27.8761 44.402C28.1713 44.569 28.5105 44.6425 28.8486 44.6126C29.1868 44.5828 29.5078 44.4511 29.769 44.235C30.0302 44.0189 30.2191 43.7286 30.3108 43.4029C30.4024 43.0771 30.3924 42.7313 30.282 42.4113C30.1716 42.0914 29.9661 41.8125 29.6929 41.6118C29.4196 41.4111 29.0915 41.2981 28.7522 41.2878V41.2878Z" fill="#FFB7B7"/>
<path d="M20.7695 33.1897L22.8127 27.3894C23.0423 26.7056 23.3301 26.2902 23.668 26.1547C23.7345 26.1249 23.8066 26.1091 23.8796 26.1084C23.9525 26.1077 24.0249 26.1222 24.092 26.1508L25.0081 27.3044L25.8585 30.8645L23.6783 35.9756L20.7695 33.1897Z" fill="#E4E4E4"/>
<path d="M34.2944 21.5423H25.3248C25.1403 21.5421 24.9634 21.4689 24.833 21.3389C24.7025 21.2089 24.6291 21.0326 24.6289 20.8487V16.9954C24.6289 15.626 25.1747 14.3127 26.1463 13.3443C27.1179 12.376 28.4356 11.832 29.8096 11.832C31.1836 11.832 32.5014 12.376 33.4729 13.3443C34.4445 14.3127 34.9903 15.626 34.9903 16.9954V20.8487C34.9901 21.0326 34.9167 21.2089 34.7863 21.3389C34.6558 21.4689 34.4789 21.5421 34.2944 21.5423V21.5423Z" fill="#2F2E41"/>
<path d="M30.8745 21.4521C32.9722 21.4521 34.6728 19.7572 34.6728 17.6665C34.6728 15.5757 32.9722 13.8809 30.8745 13.8809C28.7767 13.8809 27.0762 15.5757 27.0762 17.6665C27.0762 19.7572 28.7767 21.4521 30.8745 21.4521Z" fill="#FFB7B7"/>
<path d="M36.2157 17.3803H30.731L30.6747 16.5955L30.3935 17.3803H29.549L29.4376 15.8248L28.8802 17.3803H27.2461V17.3032C27.2473 16.2203 27.6795 15.1821 28.4478 14.4164C29.216 13.6507 30.2577 13.22 31.3442 13.2188H32.1175C33.204 13.22 34.2457 13.6507 35.014 14.4164C35.7823 15.1821 36.2145 16.2203 36.2157 17.3032L36.2157 17.3803Z" fill="#2F2E41"/>
<path d="M30.6862 22.2611C30.6449 22.261 30.6037 22.2574 30.563 22.2502L26.5469 21.544V14.9287H30.9679L30.8584 15.0559C29.3356 16.826 30.4829 19.6962 31.3023 21.2496C31.3627 21.3633 31.3896 21.4918 31.38 21.6202C31.3703 21.7485 31.3245 21.8715 31.2478 21.9751C31.1835 22.0636 31.0991 22.1357 31.0015 22.1854C30.9039 22.2351 30.7958 22.2611 30.6862 22.2611V22.2611Z" fill="#2F2E41"/>
<path d="M78.7943 38.1625C78.544 38.1877 78.2921 38.1935 78.0408 38.18C77.998 38.1754 77.9551 38.1877 77.9212 38.2143C77.8874 38.2408 77.8654 38.2796 77.8599 38.3222L77.3793 41.9153C77.3423 42.1762 77.2352 42.4222 77.0692 42.6272C76.9324 42.7903 76.8307 42.9798 76.7705 43.1837C76.7102 43.3877 76.6926 43.6018 76.7188 43.8129V49.9165C76.7188 49.9165 76.6878 50.7303 77.3152 50.7303C78.0661 50.8243 78.8259 50.8243 79.5768 50.7303C79.5768 50.7303 80.0791 50.6355 80.0791 49.8845V43.8747C80.1174 43.665 80.1095 43.4495 80.056 43.2432C80.0024 43.0368 79.9045 42.8446 79.769 42.6797C79.6086 42.4739 79.5049 42.23 79.4682 41.972L78.969 38.3037C78.9633 38.2624 78.9421 38.2249 78.9097 38.1987C78.8772 38.1725 78.836 38.1595 78.7943 38.1625V38.1625Z" fill="#3BEDBF"/>
<path d="M78.4434 50.9031C78.0639 50.9031 77.6848 50.8796 77.3082 50.8327C77.224 50.8347 77.1404 50.8193 77.0625 50.7876C76.9846 50.7558 76.9142 50.7083 76.8556 50.6481C76.6002 50.3838 76.6144 49.9312 76.6152 49.912L76.6151 43.8186C76.5884 43.5946 76.6079 43.3675 76.6723 43.1512C76.7367 42.9349 76.8446 42.734 76.9895 42.5606C77.1432 42.3704 77.2423 42.1423 77.2766 41.9004L77.7571 38.3081C77.7665 38.239 77.8024 38.1762 77.8574 38.1331C77.9124 38.09 77.9821 38.0699 78.0517 38.0772C78.2957 38.09 78.5404 38.0841 78.7836 38.0595L78.7865 38.0593C78.8543 38.0544 78.9215 38.0754 78.9744 38.1181C79.0272 38.1608 79.0618 38.222 79.071 38.2892L79.5703 41.9577C79.6046 42.1976 79.7011 42.4245 79.8502 42.616C79.9939 42.7909 80.0979 42.9947 80.1552 43.2135C80.2124 43.4322 80.2216 43.6607 80.182 43.8833V49.884C80.182 50.7107 79.6015 50.8299 79.5956 50.831C79.2134 50.879 78.8286 50.9031 78.4434 50.9031V50.9031ZM78.0264 38.282C78.011 38.2812 77.9959 38.2862 77.984 38.296C77.9721 38.3057 77.9643 38.3195 77.9621 38.3347L77.4814 41.9285C77.4418 42.208 77.3271 42.4716 77.1493 42.6914C77.0215 42.8439 76.9264 43.021 76.87 43.2116C76.8135 43.4022 76.7969 43.6024 76.821 43.7997L76.8218 43.8123V49.9159C76.8216 49.9235 76.8106 50.3052 77.0049 50.5057C77.0451 50.5465 77.0935 50.5783 77.1469 50.5992C77.2003 50.6201 77.2576 50.6295 77.3148 50.6268L77.3277 50.6276C78.0701 50.7204 78.8211 50.7204 79.5635 50.6276C79.5733 50.6252 79.9753 50.5338 79.9753 49.884L79.977 43.8557C80.0128 43.6607 80.0055 43.4603 79.9557 43.2684C79.9059 43.0765 79.8148 42.8977 79.6886 42.7445C79.5164 42.524 79.4051 42.2625 79.3655 41.986L78.8662 38.317C78.864 38.3019 78.8562 38.2882 78.8445 38.2786C78.8327 38.2689 78.8177 38.264 78.8025 38.2647C78.5474 38.2901 78.2908 38.2961 78.0349 38.2824C78.0321 38.2821 78.0292 38.282 78.0264 38.282V38.282Z" fill="#3F3D56"/>
<path d="M78.0367 43.9219H78.7984C79.1013 43.9219 79.3918 44.0418 79.606 44.2553C79.8202 44.4688 79.9405 44.7583 79.9405 45.0602V47.9168C79.9405 48.2187 79.8202 48.5082 79.606 48.7217C79.3918 48.9351 79.1013 49.0551 78.7984 49.0551H78.0367C77.7337 49.0551 77.4432 48.9351 77.2291 48.7217C77.0149 48.5082 76.8945 48.2187 76.8945 47.9168V45.0602C76.8945 44.7583 77.0149 44.4688 77.2291 44.2553C77.4432 44.0418 77.7338 43.9219 78.0367 43.9219V43.9219Z" fill="#B900F4"/>
<path d="M52.9447 33.2133C52.6944 33.2385 52.4425 33.2443 52.1912 33.2308C52.1484 33.2262 52.1054 33.2384 52.0716 33.265C52.0378 33.2916 52.0158 33.3304 52.0103 33.373L51.5297 36.9661C51.4927 37.227 51.3856 37.4729 51.2196 37.678C51.0828 37.8411 50.9811 38.0306 50.9208 38.2345C50.8606 38.4385 50.843 38.6526 50.8692 38.8636V44.9672C50.8692 44.9672 50.8382 45.781 51.4656 45.781C52.2165 45.8751 52.9763 45.8751 53.7272 45.781C53.7272 45.781 54.2295 45.6863 54.2295 44.9353V38.9255C54.2678 38.7158 54.2599 38.5003 54.2064 38.294C54.1528 38.0876 54.0549 37.8954 53.9194 37.7305C53.759 37.5247 53.6553 37.2808 53.6186 37.0228L53.1194 33.3545C53.1137 33.3132 53.0925 33.2757 53.0601 33.2494C53.0276 33.2232 52.9864 33.2103 52.9447 33.2133V33.2133Z" fill="#3BEDBF"/>
<path d="M52.5938 45.9549C52.2143 45.9549 51.8351 45.9314 51.4586 45.8845C51.3744 45.8865 51.2908 45.8711 51.2129 45.8393C51.135 45.8076 51.0645 45.7601 51.0059 45.6999C50.7506 45.4356 50.7648 44.9829 50.7656 44.9638L50.7655 38.8704C50.7388 38.6463 50.7583 38.4192 50.8227 38.2029C50.8871 37.9867 50.995 37.7857 51.1399 37.6124C51.2935 37.4221 51.3927 37.194 51.427 36.9522L51.9075 33.3598C51.9169 33.2907 51.9528 33.228 52.0078 33.1849C52.0628 33.1418 52.1325 33.1217 52.202 33.1289C52.4461 33.1417 52.6908 33.1358 52.934 33.1113L52.9369 33.1111C53.0047 33.1061 53.0719 33.1272 53.1248 33.1699C53.1776 33.2126 53.2122 33.2737 53.2214 33.3409L53.7207 37.0094C53.755 37.2494 53.8515 37.4763 54.0006 37.6677C54.1443 37.8427 54.2483 38.0465 54.3056 38.2652C54.3628 38.484 54.372 38.7125 54.3324 38.9351V44.9357C54.3324 45.7625 53.7518 45.8816 53.746 45.8827C53.3638 45.9308 52.979 45.9548 52.5938 45.9549V45.9549ZM52.1768 33.3337C52.1614 33.333 52.1463 33.338 52.1344 33.3477C52.1225 33.3575 52.1147 33.3713 52.1125 33.3864L51.6318 36.9802C51.5922 37.2597 51.4775 37.5234 51.2997 37.7431C51.1719 37.8957 51.0768 38.0728 51.0204 38.2634C50.9639 38.454 50.9472 38.6541 50.9714 38.8514L50.9722 38.8641V44.9677C50.972 44.9753 50.961 45.357 51.1553 45.5575C51.1955 45.5982 51.2439 45.6301 51.2973 45.651C51.3507 45.6718 51.4079 45.6812 51.4652 45.6785L51.4781 45.6793C52.2205 45.7722 52.9715 45.7722 53.7138 45.6793C53.7237 45.6769 54.1257 45.5855 54.1257 44.9357L54.1274 38.9075C54.1632 38.7125 54.1559 38.5121 54.1061 38.3202C54.0563 38.1283 53.9652 37.9495 53.839 37.7962C53.6668 37.5758 53.5555 37.3143 53.5159 37.0377L53.0166 33.3687C53.0144 33.3537 53.0066 33.34 52.9948 33.3303C52.9831 33.3207 52.9681 33.3157 52.9529 33.3165C52.6978 33.3419 52.4412 33.3478 52.1853 33.3342C52.1824 33.3339 52.1796 33.3337 52.1768 33.3337V33.3337Z" fill="#3F3D56"/>
<path d="M52.1851 38.9727H52.9469C53.2498 38.9727 53.5403 39.0926 53.7545 39.3061C53.9687 39.5195 54.089 39.8091 54.089 40.111V42.9675C54.089 43.2694 53.9687 43.559 53.7545 43.7725C53.5403 43.9859 53.2498 44.1059 52.9469 44.1059H52.1851C51.8822 44.1059 51.5917 43.9859 51.3775 43.7725C51.1633 43.559 51.043 43.2694 51.043 42.9675V40.111C51.043 39.8091 51.1633 39.5195 51.3775 39.3061C51.5917 39.0926 51.8822 38.9727 52.1851 38.9727Z" fill="#B900F4"/>
<path d="M48.5638 27.9731C48.3135 27.9982 48.0616 28.0041 47.8104 27.9906C47.7675 27.9859 47.7246 27.9982 47.6908 28.0248C47.6569 28.0514 47.6349 28.0902 47.6295 28.1328L47.1489 31.7259C47.1119 31.9867 47.0047 32.2327 46.8388 32.4377C46.702 32.6009 46.6003 32.7903 46.54 32.9943C46.4797 33.1983 46.4621 33.4124 46.4884 33.6234V39.727C46.4884 39.727 46.4574 40.5408 47.0848 40.5408C47.8357 40.6349 48.5954 40.6349 49.3463 40.5408C49.3463 40.5408 49.8486 40.446 49.8486 39.6951V33.6852C49.8869 33.4755 49.879 33.2601 49.8255 33.0537C49.772 32.8474 49.6741 32.6551 49.5385 32.4903C49.3781 32.2845 49.2745 32.0405 49.2378 31.7826L48.7385 28.1142C48.7329 28.073 48.7117 28.0354 48.6792 28.0092C48.6468 27.983 48.6055 27.9701 48.5638 27.9731V27.9731Z" fill="#3BEDBF"/>
<path d="M48.2129 40.7146C47.8334 40.7147 47.4543 40.6912 47.0777 40.6443C46.9936 40.6463 46.9099 40.6309 46.832 40.5991C46.7541 40.5673 46.6837 40.5198 46.6251 40.4596C46.3698 40.1953 46.384 39.7427 46.3847 39.7235L46.3846 33.6302C46.358 33.4061 46.3774 33.179 46.4418 32.9627C46.5062 32.7464 46.6141 32.5455 46.7591 32.3722C46.9127 32.1819 47.0119 31.9538 47.0461 31.712L47.5266 28.1196C47.536 28.0505 47.572 27.9878 47.627 27.9446C47.6819 27.9015 47.7516 27.8815 47.8212 27.8887C48.0653 27.9015 48.31 27.8956 48.5531 27.8711L48.556 27.8708C48.6239 27.8659 48.691 27.8869 48.7439 27.9296C48.7967 27.9723 48.8313 28.0335 48.8405 28.1007L49.3398 31.7692C49.3741 32.0092 49.4706 32.236 49.6197 32.4275C49.7634 32.6024 49.8674 32.8063 49.9247 33.025C49.982 33.2437 49.9911 33.4722 49.9516 33.6948V39.6955C49.9516 40.5222 49.371 40.6414 49.3651 40.6425C48.9829 40.6905 48.5981 40.7146 48.2129 40.7146V40.7146ZM47.7959 28.0935C47.7805 28.0928 47.7654 28.0977 47.7536 28.1075C47.7417 28.1172 47.7339 28.131 47.7316 28.1462L47.2509 31.74C47.2114 32.0195 47.0966 32.2831 46.9188 32.5029C46.791 32.6555 46.696 32.8325 46.6395 33.0231C46.583 33.2138 46.5664 33.4139 46.5906 33.6112L46.5913 33.6239V39.7275C46.5911 39.735 46.5802 40.1167 46.7745 40.3172C46.8147 40.358 46.8631 40.3899 46.9165 40.4107C46.9699 40.4316 47.0271 40.441 47.0844 40.4383L47.0973 40.4391C47.8396 40.5319 48.5907 40.5319 49.333 40.4391C49.3428 40.4367 49.7449 40.3453 49.7449 39.6955L49.7465 33.6672C49.7823 33.4722 49.7751 33.2718 49.7253 33.0799C49.6755 32.888 49.5843 32.7092 49.4582 32.556C49.286 32.3355 49.1746 32.0741 49.135 31.7975L48.6357 28.1285C48.6335 28.1135 48.6258 28.0998 48.614 28.0901C48.6022 28.0804 48.5872 28.0755 48.572 28.0762C48.317 28.1017 48.0604 28.1076 47.8044 28.094C47.8016 28.0937 47.7988 28.0935 47.7959 28.0935V28.0935Z" fill="#3F3D56"/>
<path d="M47.8042 33.7334H48.566C48.8689 33.7334 49.1594 33.8533 49.3736 34.0668C49.5878 34.2803 49.7081 34.5698 49.7081 34.8717V37.7283C49.7081 38.0302 49.5878 38.3197 49.3736 38.5332C49.1594 38.7467 48.8689 38.8666 48.566 38.8666H47.8042C47.5013 38.8666 47.2108 38.7467 46.9966 38.5332C46.7824 38.3197 46.6621 38.0302 46.6621 37.7283V34.8717C46.6621 34.5698 46.7824 34.2803 46.9966 34.0668C47.2108 33.8533 47.5013 33.7334 47.8042 33.7334Z" fill="#B900F4"/>
<path d="M8.20585 10.3345C10.2223 10.3345 11.857 8.70532 11.857 6.69559C11.857 4.68585 10.2223 3.05664 8.20585 3.05664C6.18937 3.05664 4.55469 4.68585 4.55469 6.69559C4.55469 8.70532 6.18937 10.3345 8.20585 10.3345Z" fill="#3BEDBF"/>
<path d="M92.3289 7.27789C94.3454 7.27789 95.9801 5.64868 95.9801 3.63895C95.9801 1.62921 94.3454 0 92.3289 0C90.3124 0 88.6777 1.62921 88.6777 3.63895C88.6777 5.64868 90.3124 7.27789 92.3289 7.27789Z" fill="#3BEDBF"/>
<path d="M50.5605 16.4481C52.0123 16.4481 53.1893 15.2751 53.1893 13.828C53.1893 12.381 52.0123 11.208 50.5605 11.208C49.1086 11.208 47.9316 12.381 47.9316 13.828C47.9316 15.2751 49.1086 16.4481 50.5605 16.4481Z" fill="#3BEDBF"/>
</g>
<defs>
<clipPath id="clip0_304_5295">
<rect width="107" height="93" fill="white"/>
</clipPath>
</defs>
</svg>
